<svg version="1.1" viewBox="0.0 0.0 830.0 514.0" fill="none" stroke="none" stroke-linecap="square" stroke-miterlimit="10" width="830" height="514" xmlns:xlink="http://www.w3.org/1999/xlink" xmlns="http://www.w3.org/2000/svg"><path fill="#ffffff" d="M0 0L830.0 0L830.0 514.0L0 514.0L0 0Z" fill-rule="nonzero"/><path stroke="#333333" stroke-width="1.0" stroke-linecap="butt" d="M52.5 461.5L804.5 461.5" fill-rule="nonzero"/><path stroke="#cccccc" stroke-width="1.0" stroke-linecap="butt" d="M52.5 431.5L804.5 431.5" fill-rule="nonzero"/><path stroke="#cccccc" stroke-width="1.0" stroke-linecap="butt" d="M52.5 401.5L804.5 401.5" fill-rule="nonzero"/><path stroke="#cccccc" stroke-width="1.0" stroke-linecap="butt" d="M52.5 371.5L804.5 371.5" fill-rule="nonzero"/><path stroke="#cccccc" stroke-width="1.0" stroke-linecap="butt" d="M52.5 342.5L804.5 342.5" fill-rule="nonzero"/><path stroke="#cccccc" stroke-width="1.0" stroke-linecap="butt" d="M52.5 312.5L804.5 312.5" fill-rule="nonzero"/><path stroke="#cccccc" stroke-width="1.0" stroke-linecap="butt" d="M52.5 282.5L804.5 282.5" fill-rule="nonzero"/><path stroke="#cccccc" stroke-width="1.0" stroke-linecap="butt" d="M52.5 252.5L804.5 252.5" fill-rule="nonzero"/><path stroke="#cccccc" stroke-width="1.0" stroke-linecap="butt" d="M52.5 222.5L804.5 222.5" fill-rule="nonzero"/><path stroke="#cccccc" stroke-width="1.0" stroke-linecap="butt" d="M52.5 193.5L804.5 193.5" fill-rule="nonzero"/><path stroke="#cccccc" stroke-width="1.0" stroke-linecap="butt" d="M52.5 163.5L804.5 163.5" fill-rule="nonzero"/><path stroke="#cccccc" stroke-width="1.0" stroke-linecap="butt" d="M52.5 133.5L804.5 133.5" fill-rule="nonzero"/><path stroke="#cccccc" stroke-width="1.0" stroke-linecap="butt" d="M52.5 103.5L804.5 103.5" fill-rule="nonzero"/><path stroke="#cccccc" stroke-width="1.0" stroke-linecap="butt" d="M52.5 73.5L804.5 73.5" fill-rule="nonzero"/><clipPath id="id_0"><path d="M52.7 73.833336L804.3 73.833336L804.3 461.3L52.7 461.3L52.7 73.833336Z" clip-rule="nonzero"/></clipPath><path stroke="#000000" stroke-width="2.0" stroke-linecap="butt" stroke-opacity="0.0" clip-path="url(#id_0)" d="M99.0 461.0L69.0 461.0L69.0 433.0C69.0 431.89542 69.89543 431.0 71.0 431.0L97.0 431.0C98.10457 431.0 99.0 431.89542 99.0 433.0Z" fill-rule="nonzero"/><path fill="#a64d79" clip-path="url(#id_0)" d="M99.0 461.0L69.0 461.0L69.0 433.0C69.0 431.89542 69.89543 431.0 71.0 431.0L97.0 431.0C98.10457 431.0 99.0 431.89542 99.0 433.0Z" fill-rule="nonzero"/><path stroke="#000000" stroke-width="2.0" stroke-linecap="butt" stroke-opacity="0.0" clip-path="url(#id_0)" d="M145.0 461.0L115.0 461.0L115.0 433.0C115.0 431.89542 115.89543 431.0 117.0 431.0L143.0 431.0C144.10457 431.0 145.0 431.89542 145.0 433.0Z" fill-rule="nonzero"/><path fill="#a64d79" clip-path="url(#id_0)" d="M145.0 461.0L115.0 461.0L115.0 433.0C115.0 431.89542 115.89543 431.0 117.0 431.0L143.0 431.0C144.10457 431.0 145.0 431.89542 145.0 433.0Z" fill-rule="nonzero"/><path stroke="#000000" stroke-width="2.0" stroke-linecap="butt" stroke-opacity="0.0" clip-path="url(#id_0)" d="M191.0 461.0L161.0 461.0L161.0 404.0C161.0 402.89542 161.89543 402.0 163.0 402.0L189.0 402.0C190.10457 402.0 191.0 402.89542 191.0 404.0Z" fill-rule="nonzero"/><path fill="#a64d79" clip-path="url(#id_0)" d="M191.0 461.0L161.0 461.0L161.0 404.0C161.0 402.89542 161.89543 402.0 163.0 402.0L189.0 402.0C190.10457 402.0 191.0 402.89542 191.0 404.0Z" fill-rule="nonzero"/><path stroke="#000000" stroke-width="2.0" stroke-linecap="butt" stroke-opacity="0.0" clip-path="url(#id_0)" d="M237.0 461.0L207.0 461.0L207.0 433.0C207.0 431.89542 207.89543 431.0 209.0 431.0L235.0 431.0C236.10457 431.0 237.0 431.89542 237.0 433.0Z" fill-rule="nonzero"/><path fill="#a64d79" clip-path="url(#id_0)" d="M237.0 461.0L207.0 461.0L207.0 433.0C207.0 431.89542 207.89543 431.0 209.0 431.0L235.0 431.0C236.10457 431.0 237.0 431.89542 237.0 433.0Z" fill-rule="nonzero"/><path stroke="#000000" stroke-width="2.0" stroke-linecap="butt" stroke-opacity="0.0" clip-path="url(#id_0)" d="M283.0 461.0L253.0 461.0L253.0 404.0C253.0 402.89542 253.89543 402.0 255.0 402.0L281.0 402.0C282.10458 402.0 283.0 402.89542 283.0 404.0Z" fill-rule="nonzero"/><path fill="#a64d79" clip-path="url(#id_0)" d="M283.0 461.0L253.0 461.0L253.0 404.0C253.0 402.89542 253.89543 402.0 255.0 402.0L281.0 402.0C282.10458 402.0 283.0 402.89542 283.0 404.0Z" fill-rule="nonzero"/><path stroke="#000000" stroke-width="2.0" stroke-linecap="butt" stroke-opacity="0.0" clip-path="url(#id_0)" d="M329.0 461.0L299.0 461.0L299.0 374.0C299.0 372.89542 299.89542 372.0 301.0 372.0L327.0 372.0C328.10458 372.0 329.0 372.89542 329.0 374.0Z" fill-rule="nonzero"/><path fill="#a64d79" clip-path="url(#id_0)" d="M329.0 461.0L299.0 461.0L299.0 374.0C299.0 372.89542 299.89542 372.0 301.0 372.0L327.0 372.0C328.10458 372.0 329.0 372.89542 329.0 374.0Z" fill-rule="nonzero"/><path stroke="#000000" stroke-width="2.0" stroke-linecap="butt" stroke-opacity="0.0" clip-path="url(#id_0)" d="M375.0 461.0L345.0 461.0L345.0 344.0C345.0 342.89542 345.89542 342.0 347.0 342.0L373.0 342.0C374.10458 342.0 375.0 342.89542 375.0 344.0Z" fill-rule="nonzero"/><path fill="#a64d79" clip-path="url(#id_0)" d="M375.0 461.0L345.0 461.0L345.0 344.0C345.0 342.89542 345.89542 342.0 347.0 342.0L373.0 342.0C374.10458 342.0 375.0 342.89542 375.0 344.0Z" fill-rule="nonzero"/><path stroke="#000000" stroke-width="2.0" stroke-linecap="butt" stroke-opacity="0.0" clip-path="url(#id_0)" d="M421.0 461.0L391.0 461.0L391.0 284.0C391.0 282.89542 391.89542 282.0 393.0 282.0L419.0 282.0C420.10458 282.0 421.0 282.89542 421.0 284.0Z" fill-rule="nonzero"/><path fill="#a64d79" clip-path="url(#id_0)" d="M421.0 461.0L391.0 461.0L391.0 284.0C391.0 282.89542 391.89542 282.0 393.0 282.0L419.0 282.0C420.10458 282.0 421.0 282.89542 421.0 284.0Z" fill-rule="nonzero"/><path stroke="#000000" stroke-width="2.0" stroke-linecap="butt" stroke-opacity="0.0" clip-path="url(#id_0)" d="M466.0 461.0L436.0 461.0L436.0 255.0C436.0 253.89543 436.89542 253.0 438.0 253.0L464.0 253.0C465.10458 253.0 466.0 253.89543 466.0 255.0Z" fill-rule="nonzero"/><path fill="#a64d79" clip-path="url(#id_0)" d="M466.0 461.0L436.0 461.0L436.0 255.0C436.0 253.89543 436.89542 253.0 438.0 253.0L464.0 253.0C465.10458 253.0 466.0 253.89543 466.0 255.0Z" fill-rule="nonzero"/><path stroke="#000000" stroke-width="2.0" stroke-linecap="butt" stroke-opacity="0.0" clip-path="url(#id_0)" d="M512.0 461.0L482.0 461.0L482.0 76.0C482.0 74.89543 482.89542 74.0 484.0 74.0L510.0 74.0C511.10458 74.0 512.0 74.89543 512.0 76.0Z" fill-rule="nonzero"/><path fill="#a64d79" clip-path="url(#id_0)" d="M512.0 461.0L482.0 461.0L482.0 76.0C482.0 74.89543 482.89542 74.0 484.0 74.0L510.0 74.0C511.10458 74.0 512.0 74.89543 512.0 76.0Z" fill-rule="nonzero"/><path stroke="#000000" stroke-width="2.0" stroke-linecap="butt" stroke-opacity="0.0" clip-path="url(#id_0)" d="M558.0 461.0L528.0 461.0L528.0 225.0C528.0 223.89543 528.89545 223.0 530.0 223.0L556.0 223.0C557.10455 223.0 558.0 223.89543 558.0 225.0Z" fill-rule="nonzero"/><path fill="#a64d79" clip-path="url(#id_0)" d="M558.0 461.0L528.0 461.0L528.0 225.0C528.0 223.89543 528.89545 223.0 530.0 223.0L556.0 223.0C557.10455 223.0 558.0 223.89543 558.0 225.0Z" fill-rule="nonzero"/><path stroke="#000000" stroke-width="2.0" stroke-linecap="butt" stroke-opacity="0.0" clip-path="url(#id_0)" d="M604.0 461.0L574.0 461.0L574.0 135.0C574.0 133.89543 574.89545 133.0 576.0 133.0L602.0 133.0C603.10455 133.0 604.0 133.89543 604.0 135.0Z" fill-rule="nonzero"/><path fill="#a64d79" clip-path="url(#id_0)" d="M604.0 461.0L574.0 461.0L574.0 135.0C574.0 133.89543 574.89545 133.0 576.0 133.0L602.0 133.0C603.10455 133.0 604.0 133.89543 604.0 135.0Z" fill-rule="nonzero"/><path stroke="#000000" stroke-width="2.0" stroke-linecap="butt" stroke-opacity="0.0" clip-path="url(#id_0)" d="M650.0 461.0L620.0 461.0L620.0 135.0C620.0 133.89543 620.89545 133.0 622.0 133.0L648.0 133.0C649.10455 133.0 650.0 133.89543 650.0 135.0Z" fill-rule="nonzero"/><path fill="#a64d79" clip-path="url(#id_0)" d="M650.0 461.0L620.0 461.0L620.0 135.0C620.0 133.89543 620.89545 133.0 622.0 133.0L648.0 133.0C649.10455 133.0 650.0 133.89543 650.0 135.0Z" fill-rule="nonzero"/><path stroke="#000000" stroke-width="2.0" stroke-linecap="butt" stroke-opacity="0.0" clip-path="url(#id_0)" d="M696.0 461.0L666.0 461.0L666.0 76.0C666.0 74.89543 666.89545 74.0 668.0 74.0L694.0 74.0C695.10455 74.0 696.0 74.89543 696.0 76.0Z" fill-rule="nonzero"/><path fill="#a64d79" clip-path="url(#id_0)" d="M696.0 461.0L666.0 461.0L666.0 76.0C666.0 74.89543 666.89545 74.0 668.0 74.0L694.0 74.0C695.10455 74.0 696.0 74.89543 696.0 76.0Z" fill-rule="nonzero"/><path stroke="#000000" stroke-width="2.0" stroke-linecap="butt" stroke-opacity="0.0" clip-path="url(#id_0)" d="M742.0 461.0L712.0 461.0L712.0 135.0C712.0 133.89543 712.89545 133.0 714.0 133.0L740.0 133.0C741.10455 133.0 742.0 133.89543 742.0 135.0Z" fill-rule="nonzero"/><path fill="#a64d79" clip-path="url(#id_0)" d="M742.0 461.0L712.0 461.0L712.0 135.0C712.0 133.89543 712.89545 133.0 714.0 133.0L740.0 133.0C741.10455 133.0 742.0 133.89543 742.0 135.0Z" fill-rule="nonzero"/><path stroke="#000000" stroke-width="2.0" stroke-linecap="butt" stroke-opacity="0.0" clip-path="url(#id_0)" d="M788.0 461.0L758.0 461.0L758.0 284.0C758.0 282.89542 758.89545 282.0 760.0 282.0L786.0 282.0C787.10455 282.0 788.0 282.89542 788.0 284.0Z" fill-rule="nonzero"/><path fill="#a64d79" clip-path="url(#id_0)" d="M788.0 461.0L758.0 461.0L758.0 284.0C758.0 282.89542 758.89545 282.0 760.0 282.0L786.0 282.0C787.10455 282.0 788.0 282.89542 788.0 284.0Z" fill-rule="nonzero"/><path fill="#000000" d="M40.2 461.0656Q40.2 459.53436 40.5125 458.6125Q40.825 457.675 41.434376 457.175Q42.059376 456.675 42.996876 456.675Q43.684376 456.675 44.2 456.95624Q44.73125 457.2375 45.075 457.76874Q45.41875 458.28436 45.60625 459.03436Q45.79375 459.78436 45.79375 461.0656Q45.79375 462.58124 45.48125 463.5031Q45.184376 464.425 44.559376 464.9406Q43.95 465.4406 42.996876 465.4406Q41.7625 465.4406 41.04375 464.55Q40.2 463.4875 40.2 461.0656ZM41.278126 461.0656Q41.278126 463.175 41.778126 463.8781Q42.278126 464.58124 42.996876 464.58124Q43.73125 464.58124 44.215626 463.8781Q44.715626 463.175 44.715626 461.0656Q44.715626 458.9406 44.215626 458.2531Q43.73125 457.55 42.98125 457.55Q42.2625 457.55 41.825 458.15936Q41.278126 458.9406 41.278126 461.0656Z" fill-rule="nonzero"/><path fill="#000000" d="M44.16875 435.49487L43.121876 435.49487L43.121876 428.77612Q42.73125 429.1355 42.10625 429.5105Q41.496876 429.86987 41.0125 430.04175L41.0125 429.02612Q41.8875 428.60425 42.54375 428.02612Q43.215626 427.43237 43.496876 426.86987L44.16875 426.86987L44.16875 435.49487Z" fill-rule="nonzero"/><path fill="#000000" d="M45.746876 404.67413L45.746876 405.68976L40.059376 405.68976Q40.059376 405.31476 40.184376 404.95538Q40.403126 404.37726 40.871876 403.81476Q41.35625 403.25226 42.2625 402.51788Q43.66875 401.36163 44.153126 400.68976Q44.653126 400.01788 44.653126 399.42413Q44.653126 398.79913 44.2 398.37726Q43.746876 397.93976 43.028126 397.93976Q42.2625 397.93976 41.809376 398.39288Q41.35625 398.846 41.340626 399.6585L40.2625 399.54913Q40.371876 398.33038 41.090626 397.70538Q41.825 397.06476 43.059376 397.06476Q44.29375 397.06476 45.0125 397.75226Q45.73125 398.43976 45.73125 399.45538Q45.73125 399.971 45.5125 400.471Q45.309376 400.95538 44.809376 401.51788Q44.325 402.06476 43.2 403.01788Q42.246876 403.81476 41.965626 404.11163Q41.7 404.39288 41.528126 404.67413L45.746876 404.67413Z" fill-rule="nonzero"/><path fill="#000000" d="M40.2 373.619L41.2625 373.47836Q41.434376 374.369 41.871876 374.77524Q42.309376 375.16586 42.934376 375.16586Q43.684376 375.16586 44.2 374.65024Q44.715626 374.1346 44.715626 373.369Q44.715626 372.65024 44.23125 372.1815Q43.7625 371.6971 43.028126 371.6971Q42.73125 371.6971 42.278126 371.8221L42.403126 370.8846Q42.5125 370.90024 42.575 370.90024Q43.246876 370.90024 43.778126 370.5565Q44.325 370.1971 44.325 369.46274Q44.325 368.8846 43.934376 368.5096Q43.54375 368.119 42.91875 368.119Q42.309376 368.119 41.8875 368.5096Q41.48125 368.90024 41.371876 369.66586L40.309376 369.47836Q40.496876 368.4315 41.184376 367.85336Q41.871876 367.2596 42.8875 367.2596Q43.590626 367.2596 44.184376 367.5721Q44.778126 367.869 45.090626 368.3846Q45.403126 368.90024 45.403126 369.494Q45.403126 370.04086 45.10625 370.5096Q44.809376 370.96274 44.23125 371.22836Q44.98125 371.40024 45.403126 371.96274Q45.825 372.5096 45.825 373.35336Q45.825 374.47836 44.996876 375.2596Q44.184376 376.04086 42.934376 376.04086Q41.809376 376.04086 41.059376 375.369Q40.309376 374.6815 40.2 373.619Z" fill-rule="nonzero"/><path fill="#000000" d="M43.575 346.0795L43.575 344.017L39.85625 344.017L39.85625 343.04825L43.778126 337.48575L44.6375 337.48575L44.6375 343.04825L45.79375 343.04825L45.79375 344.017L44.6375 344.017L44.6375 346.0795L43.575 346.0795ZM43.575 343.04825L43.575 339.18887L40.8875 343.04825L43.575 343.04825Z" fill-rule="nonzero"/><path fill="#000000" d="M40.2 314.02435L41.309376 313.9306Q41.434376 314.7431 41.871876 315.14935Q42.325 315.5556 42.965626 315.5556Q43.715626 315.5556 44.246876 314.97748Q44.778126 314.39935 44.778126 313.46185Q44.778126 312.5556 44.2625 312.03998Q43.7625 311.50873 42.934376 311.50873Q42.434376 311.50873 42.0125 311.7431Q41.60625 311.97748 41.371876 312.33685L40.3875 312.21185L41.215626 307.8056L45.496876 307.8056L45.496876 308.8056L42.059376 308.8056L41.60625 311.1181Q42.371876 310.57123 43.215626 310.57123Q44.340626 310.57123 45.10625 311.35248Q45.8875 312.13373 45.8875 313.3681Q45.8875 314.52435 45.215626 315.38373Q44.3875 316.41498 42.965626 316.41498Q41.79375 316.41498 41.04375 315.75873Q40.309376 315.10248 40.2 314.02435Z" fill-rule="nonzero"/><path fill="#000000" d="M45.66875 279.98486L44.621876 280.063Q44.48125 279.438 44.23125 279.15674Q43.79375 278.7036 43.16875 278.7036Q42.66875 278.7036 42.278126 278.98486Q41.79375 279.35986 41.496876 280.063Q41.215626 280.7505 41.2 282.03174Q41.575 281.4536 42.121876 281.17236Q42.684376 280.8911 43.29375 280.8911Q44.340626 280.8911 45.075 281.67236Q45.825 282.4536 45.825 283.67236Q45.825 284.48486 45.465626 285.188Q45.121876 285.8755 44.5125 286.2505Q43.903126 286.60986 43.1375 286.60986Q41.809376 286.60986 40.98125 285.6411Q40.153126 284.67236 40.153126 282.4536Q40.153126 279.9536 41.075 278.8286Q41.871876 277.84424 43.23125 277.84424Q44.246876 277.84424 44.8875 278.42236Q45.54375 278.98486 45.66875 279.98486ZM41.371876 283.688Q41.371876 284.23486 41.590626 284.73486Q41.825 285.21924 42.23125 285.48486Q42.653126 285.7505 43.121876 285.7505Q43.778126 285.7505 44.2625 285.21924Q44.746876 284.67236 44.746876 283.7505Q44.746876 282.85986 44.2625 282.34424Q43.79375 281.8286 43.075 281.8286Q42.35625 281.8286 41.85625 282.34424Q41.371876 282.85986 41.371876 283.688Z" fill-rule="nonzero"/><path fill="#000000" d="M40.2625 249.19534L40.2625 248.17972L45.825 248.17972L45.825 249.00784Q45.0125 249.88284 44.2 251.33597Q43.403126 252.77347 42.965626 254.30472Q42.6375 255.38284 42.559376 256.6641L41.465626 256.6641Q41.48125 255.64847 41.85625 254.21097Q42.246876 252.77347 42.95 251.44534Q43.66875 250.11722 44.48125 249.19534L40.2625 249.19534Z" fill-rule="nonzero"/><path fill="#000000" d="M41.825 222.20273Q41.16875 221.95273 40.840626 221.51523Q40.528126 221.0621 40.528126 220.45273Q40.528126 219.51523 41.2 218.8746Q41.8875 218.23398 42.996876 218.23398Q44.121876 218.23398 44.809376 218.89023Q45.496876 219.54648 45.496876 220.48398Q45.496876 221.07773 45.184376 221.51523Q44.871876 221.95273 44.23125 222.20273Q45.028126 222.45273 45.434376 223.03085Q45.840626 223.60898 45.840626 224.40585Q45.840626 225.4996 45.059376 226.2496Q44.29375 226.9996 43.0125 226.9996Q41.746876 226.9996 40.965626 226.2496Q40.184376 225.4996 40.184376 224.3746Q40.184376 223.53085 40.60625 222.96835Q41.04375 222.40585 41.825 222.20273ZM41.60625 220.40585Q41.60625 221.01523 41.996876 221.40585Q42.403126 221.79648 43.028126 221.79648Q43.6375 221.79648 44.028126 221.42148Q44.41875 221.03085 44.41875 220.46835Q44.41875 219.89023 44.0125 219.4996Q43.60625 219.09335 43.0125 219.09335Q42.403126 219.09335 41.996876 219.48398Q41.60625 219.8746 41.60625 220.40585ZM41.278126 224.3746Q41.278126 224.82773 41.48125 225.2496Q41.7 225.67148 42.121876 225.90585Q42.54375 226.14023 43.028126 226.14023Q43.778126 226.14023 44.2625 225.65585Q44.7625 225.17148 44.7625 224.42148Q44.7625 223.65585 44.2625 223.15585Q43.7625 222.65585 42.996876 222.65585Q42.246876 222.65585 41.7625 223.15585Q41.278126 223.64023 41.278126 224.3746Z" fill-rule="nonzero"/><path fill="#000000" d="M40.35625 195.06947L41.371876 194.97572Q41.496876 195.69447 41.85625 196.0226Q42.23125 196.3351 42.79375 196.3351Q43.278126 196.3351 43.6375 196.11635Q44.0125 195.88197 44.246876 195.5226Q44.48125 195.1476 44.6375 194.5226Q44.79375 193.88197 44.79375 193.22572Q44.79375 193.1476 44.79375 193.00697Q44.48125 193.50697 43.934376 193.8351Q43.3875 194.1476 42.746876 194.1476Q41.66875 194.1476 40.934376 193.38197Q40.2 192.60072 40.2 191.3351Q40.2 190.0226 40.965626 189.22572Q41.746876 188.42885 42.903126 188.42885Q43.73125 188.42885 44.41875 188.88197Q45.121876 189.3351 45.48125 190.17885Q45.840626 191.00697 45.840626 192.5851Q45.840626 194.22572 45.48125 195.2101Q45.1375 196.17885 44.41875 196.69447Q43.715626 197.19447 42.778126 197.19447Q41.7625 197.19447 41.121876 196.6476Q40.48125 196.0851 40.35625 195.06947ZM44.66875 191.2726Q44.66875 190.36635 44.184376 189.8351Q43.715626 189.30385 43.028126 189.30385Q42.325 189.30385 41.79375 189.88197Q41.278126 190.44447 41.278126 191.36635Q41.278126 192.17885 41.778126 192.69447Q42.278126 193.2101 42.996876 193.2101Q43.73125 193.2101 44.2 192.69447Q44.66875 192.17885 44.66875 191.2726Z" fill-rule="nonzero"/><path fill="#000000" d="M37.16875 167.24872L36.121876 167.24872L36.121876 160.52997Q35.73125 160.88934 35.10625 161.26434Q34.496876 161.62372 34.0125 161.7956L34.0125 160.77997Q34.8875 160.3581 35.54375 159.77997Q36.215626 159.18622 36.496876 158.62372L37.16875 158.62372L37.16875 167.24872ZM40.2 163.01434Q40.2 161.4831 40.5125 160.56122Q40.825 159.62372 41.434376 159.12372Q42.059376 158.62372 42.996876 158.62372Q43.684376 158.62372 44.2 158.90497Q44.73125 159.18622 45.075 159.71747Q45.41875 160.2331 45.60625 160.9831Q45.79375 161.7331 45.79375 163.01434Q45.79375 164.52997 45.48125 165.45184Q45.184376 166.37372 44.559376 166.88934Q43.95 167.38934 42.996876 167.38934Q41.7625 167.38934 41.04375 166.49872Q40.2 165.43622 40.2 163.01434ZM41.278126 163.01434Q41.278126 165.12372 41.778126 165.82684Q42.278126 166.52997 42.996876 166.52997Q43.73125 166.52997 44.215626 165.82684Q44.715626 165.12372 44.715626 163.01434Q44.715626 160.88934 44.215626 160.20184Q43.73125 159.49872 42.98125 159.49872Q42.2625 159.49872 41.825 160.1081Q41.278126 160.88934 41.278126 163.01434Z" fill-rule="nonzero"/><path fill="#000000" d="M37.16875 137.44359L36.121876 137.44359L36.121876 130.72484Q35.73125 131.08421 35.10625 131.45921Q34.496876 131.81859 34.0125 131.99046L34.0125 130.97484Q34.8875 130.55296 35.54375 129.97484Q36.215626 129.38109 36.496876 128.81859L37.16875 128.81859L37.16875 137.44359ZM44.16875 137.44359L43.121876 137.44359L43.121876 130.72484Q42.73125 131.08421 42.10625 131.45921Q41.496876 131.81859 41.0125 131.99046L41.0125 130.97484Q41.8875 130.55296 42.54375 129.97484Q43.215626 129.38109 43.496876 128.81859L44.16875 128.81859L44.16875 137.44359Z" fill-rule="nonzero"/><path fill="#000000" d="M37.16875 107.63846L36.121876 107.63846L36.121876 100.91971Q35.73125 101.27908 35.10625 101.65408Q34.496876 102.01346 34.0125 102.18533L34.0125 101.16971Q34.8875 100.74783 35.54375 100.16971Q36.215626 99.57596 36.496876 99.01346L37.16875 99.01346L37.16875 107.63846ZM45.746876 106.62283L45.746876 107.63846L40.059376 107.63846Q40.059376 107.26346 40.184376 106.90408Q40.403126 106.32596 40.871876 105.76346Q41.35625 105.20096 42.2625 104.46658Q43.66875 103.31033 44.153126 102.63846Q44.653126 101.96658 44.653126 101.37283Q44.653126 100.74783 44.2 100.32596Q43.746876 99.88846 43.028126 99.88846Q42.2625 99.88846 41.809376 100.34158Q41.35625 100.79471 41.340626 101.60721L40.2625 101.49783Q40.371876 100.27908 41.090626 99.65408Q41.825 99.01346 43.059376 99.01346Q44.29375 99.01346 45.0125 99.70096Q45.73125 100.38846 45.73125 101.40408Q45.73125 101.91971 45.5125 102.41971Q45.309376 102.90408 44.809376 103.46658Q44.325 104.01346 43.2 104.96658Q42.246876 105.76346 41.965626 106.06033Q41.7 106.34158 41.528126 106.62283L45.746876 106.62283Z" fill-rule="nonzero"/><path fill="#000000" d="M37.16875 77.833336L36.121876 77.833336L36.121876 71.114586Q35.73125 71.47396 35.10625 71.84896Q34.496876 72.208336 34.0125 72.38021L34.0125 71.364586Q34.8875 70.94271 35.54375 70.364586Q36.215626 69.770836 36.496876 69.208336L37.16875 69.208336L37.16875 77.833336ZM40.2 75.56771L41.2625 75.427086Q41.434376 76.31771 41.871876 76.72396Q42.309376 77.114586 42.934376 77.114586Q43.684376 77.114586 44.2 76.59896Q44.715626 76.083336 44.715626 75.31771Q44.715626 74.59896 44.23125 74.13021Q43.7625 73.645836 43.028126 73.645836Q42.73125 73.645836 42.278126 73.770836L42.403126 72.833336Q42.5125 72.84896 42.575 72.84896Q43.246876 72.84896 43.778126 72.50521Q44.325 72.145836 44.325 71.41146Q44.325 70.833336 43.934376 70.458336Q43.54375 70.06771 42.91875 70.06771Q42.309376 70.06771 41.8875 70.458336Q41.48125 70.84896 41.371876 71.614586L40.309376 71.427086Q40.496876 70.38021 41.184376 69.802086Q41.871876 69.208336 42.8875 69.208336Q43.590626 69.208336 44.184376 69.520836Q44.778126 69.81771 45.090626 70.333336Q45.403126 70.84896 45.403126 71.44271Q45.403126 71.989586 45.10625 72.458336Q44.809376 72.91146 44.23125 73.177086Q44.98125 73.34896 45.403126 73.91146Q45.825 74.458336 45.825 75.302086Q45.825 76.427086 44.996876 77.208336Q44.184376 77.989586 42.934376 77.989586Q41.809376 77.989586 41.059376 77.31771Q40.309376 76.63021 40.2 75.56771Z" fill-rule="nonzero"/><path fill="#000000" d="M72.02623 484.3L69.83873 484.3L69.83873 476.01874Q68.635605 477.14374 66.99498 477.6906L66.99498 475.6906Q67.854355 475.40936 68.854355 474.6281Q69.86998 473.84686 70.24498 472.8L72.02623 472.8L72.02623 484.3ZM75.46373 481.64374L77.58873 481.40936Q77.666855 482.0656 77.99498 482.3781Q78.323105 482.6906 78.854355 482.6906Q79.541855 482.6906 80.010605 482.0656Q80.49498 481.4406 80.61998 479.47186Q79.791855 480.425 78.55748 480.425Q77.198105 480.425 76.21373 479.39374Q75.24498 478.34686 75.24498 476.675Q75.24498 474.925 76.27623 473.8625Q77.30748 472.8 78.916855 472.8Q80.65123 472.8 81.760605 474.14374Q82.885605 475.4875 82.885605 478.58124Q82.885605 481.72186 81.71373 483.1125Q80.55748 484.5031 78.698105 484.5031Q77.354355 484.5031 76.52623 483.78436Q75.698105 483.0656 75.46373 481.64374ZM80.43248 476.84686Q80.43248 475.78436 79.93248 475.20624Q79.448105 474.6125 78.80748 474.6125Q78.198105 474.6125 77.791855 475.09686Q77.40123 475.58124 77.40123 476.675Q77.40123 477.78436 77.83873 478.3Q78.27623 478.8156 78.93248 478.8156Q79.55748 478.8156 79.99498 478.3156Q80.43248 477.8156 80.43248 476.84686ZM86.291855 478.1125Q85.448105 477.7531 85.05748 477.1281Q84.666855 476.5031 84.666855 475.7531Q84.666855 474.47186 85.55748 473.64374Q86.46373 472.8 88.104355 472.8Q89.74498 472.8 90.635605 473.64374Q91.541855 474.47186 91.541855 475.7531Q91.541855 476.55 91.11998 477.175Q90.71373 477.78436 89.96373 478.1125Q90.916855 478.5031 91.416855 479.2375Q91.916855 479.97186 91.916855 480.925Q91.916855 482.51874 90.90123 483.51874Q89.885605 484.5031 88.21373 484.5031Q86.65123 484.5031 85.604355 483.675Q84.385605 482.70624 84.385605 481.01874Q84.385605 480.09686 84.83873 479.3156Q85.30748 478.53436 86.291855 478.1125ZM86.74498 475.90936Q86.74498 476.5656 87.11998 476.9406Q87.49498 477.3 88.104355 477.3Q88.729355 477.3 89.104355 476.925Q89.479355 476.55 89.479355 475.89374Q89.479355 475.28436 89.104355 474.90936Q88.74498 474.53436 88.135605 474.53436Q87.49498 474.53436 87.11998 474.90936Q86.74498 475.28436 86.74498 475.90936ZM86.541855 480.8156Q86.541855 481.72186 87.010605 482.2375Q87.479355 482.7375 88.166855 482.7375Q88.854355 482.7375 89.291855 482.2531Q89.74498 481.7531 89.74498 480.83124Q89.74498 480.03436 89.291855 479.55Q88.83873 479.05 88.135605 479.05Q87.33873 479.05 86.93248 479.6125Q86.541855 480.15936 86.541855 480.8156ZM100.823105 482.2531L100.823105 484.3L93.135605 484.3Q93.260605 483.14374 93.885605 482.1125Q94.510605 481.0656 96.354355 479.3625Q97.83873 477.97186 98.166855 477.4875Q98.61998 476.8 98.61998 476.14374Q98.61998 475.40936 98.229355 475.01874Q97.83873 474.6125 97.135605 474.6125Q96.448105 474.6125 96.041855 475.03436Q95.635605 475.4406 95.573105 476.40936L93.385605 476.1906Q93.58873 474.3781 94.61998 473.59686Q95.65123 472.8 97.198105 472.8Q98.885605 472.8 99.854355 473.72186Q100.823105 474.6281 100.823105 475.9875Q100.823105 476.7531 100.541855 477.45624Q100.27623 478.15936 99.666855 478.925Q99.27623 479.425 98.229355 480.3781Q97.198105 481.33124 96.916855 481.64374Q96.635605 481.95624 96.46373 482.2531L100.823105 482.2531Z" fill-rule="nonzero"/><path fill="#000000" d="M117.99565 484.3L115.80815 484.3L115.80815 476.01874Q114.60503 477.14374 112.9644 477.6906L112.9644 475.6906Q113.82378 475.40936 114.82378 474.6281Q115.8394 473.84686 116.2144 472.8L117.99565 472.8L117.99565 484.3ZM121.43315 481.64374L123.55815 481.40936Q123.63628 482.0656 123.9644 482.3781Q124.29253 482.6906 124.82378 482.6906Q125.51128 482.6906 125.98003 482.0656Q126.4644 481.4406 126.5894 479.47186Q125.76128 480.425 124.5269 480.425Q123.16753 480.425 122.18315 479.39374Q121.2144 478.34686 121.2144 476.675Q121.2144 474.925 122.24565 473.8625Q123.2769 472.8 124.88628 472.8Q126.62065 472.8 127.73003 474.14374Q128.85503 475.4875 128.85503 478.58124Q128.85503 481.72186 127.68315 483.1125Q126.5269 484.5031 124.66753 484.5031Q123.32378 484.5031 122.49565 483.78436Q121.66753 483.0656 121.43315 481.64374ZM126.4019 476.84686Q126.4019 475.78436 125.9019 475.20624Q125.41753 474.6125 124.7769 474.6125Q124.16753 474.6125 123.76128 475.09686Q123.37065 475.58124 123.37065 476.675Q123.37065 477.78436 123.80815 478.3Q124.24565 478.8156 124.9019 478.8156Q125.5269 478.8156 125.9644 478.3156Q126.4019 477.8156 126.4019 476.84686ZM130.43315 481.64374L132.55815 481.40936Q132.63628 482.0656 132.9644 482.3781Q133.29253 482.6906 133.82378 482.6906Q134.51128 482.6906 134.98003 482.0656Q135.4644 481.4406 135.5894 479.47186Q134.76128 480.425 133.5269 480.425Q132.16753 480.425 131.18315 479.39374Q130.2144 478.34686 130.2144 476.675Q130.2144 474.925 131.24565 473.8625Q132.2769 472.8 133.88628 472.8Q135.62065 472.8 136.73003 474.14374Q137.85503 475.4875 137.85503 478.58124Q137.85503 481.72186 136.68315 483.1125Q135.5269 484.5031 133.66753 484.5031Q132.32378 484.5031 131.49565 483.78436Q130.66753 483.0656 130.43315 481.64374ZM135.4019 476.84686Q135.4019 475.78436 134.9019 475.20624Q134.41753 474.6125 133.7769 474.6125Q133.16753 474.6125 132.76128 475.09686Q132.37065 475.58124 132.37065 476.675Q132.37065 477.78436 132.80815 478.3Q133.24565 478.8156 133.9019 478.8156Q134.5269 478.8156 134.9644 478.3156Q135.4019 477.8156 135.4019 476.84686ZM139.43315 481.64374L141.55815 481.40936Q141.63628 482.0656 141.9644 482.3781Q142.29253 482.6906 142.82378 482.6906Q143.51128 482.6906 143.98003 482.0656Q144.4644 481.4406 144.5894 479.47186Q143.76128 480.425 142.5269 480.425Q141.16753 480.425 140.18315 479.39374Q139.2144 478.34686 139.2144 476.675Q139.2144 474.925 140.24565 473.8625Q141.2769 472.8 142.88628 472.8Q144.62065 472.8 145.73003 474.14374Q146.85503 475.4875 146.85503 478.58124Q146.85503 481.72186 145.68315 483.1125Q144.5269 484.5031 142.66753 484.5031Q141.32378 484.5031 140.49565 483.78436Q139.66753 483.0656 139.43315 481.64374ZM144.4019 476.84686Q144.4019 475.78436 143.9019 475.20624Q143.41753 474.6125 142.7769 474.6125Q142.16753 474.6125 141.76128 475.09686Q141.37065 475.58124 141.37065 476.675Q141.37065 477.78436 141.80815 478.3Q142.24565 478.8156 142.9019 478.8156Q143.5269 478.8156 143.9644 478.3156Q144.4019 477.8156 144.4019 476.84686Z" fill-rule="nonzero"/><path fill="#000000" d="M165.76195 482.2531L165.76195 484.3L158.07445 484.3Q158.19945 483.14374 158.82445 482.1125Q159.44945 481.0656 161.2932 479.3625Q162.77757 477.97186 163.1057 477.4875Q163.55882 476.8 163.55882 476.14374Q163.55882 475.40936 163.1682 475.01874Q162.77757 474.6125 162.07445 474.6125Q161.38695 474.6125 160.9807 475.03436Q160.57445 475.4406 160.51195 476.40936L158.32445 476.1906Q158.52757 474.3781 159.55882 473.59686Q160.59007 472.8 162.13695 472.8Q163.82445 472.8 164.7932 473.72186Q165.76195 474.6281 165.76195 475.9875Q165.76195 476.7531 165.4807 477.45624Q165.21507 478.15936 164.6057 478.925Q164.21507 479.425 163.1682 480.3781Q162.13695 481.33124 161.8557 481.64374Q161.57445 481.95624 161.40257 482.2531L165.76195 482.2531ZM171.05882 472.8Q172.7307 472.8 173.6682 473.9875Q174.77757 475.39374 174.77757 478.64374Q174.77757 481.89374 173.65257 483.3156Q172.7307 484.5031 171.05882 484.5031Q169.38695 484.5031 168.3557 483.22186Q167.34007 481.925 167.34007 478.6281Q167.34007 475.39374 168.46507 473.97186Q169.40257 472.8 171.05882 472.8ZM171.05882 474.6125Q170.6682 474.6125 170.3557 474.8781Q170.0432 475.1281 169.87132 475.78436Q169.63695 476.6281 169.63695 478.64374Q169.63695 480.65936 169.84007 481.425Q170.0432 482.175 170.3557 482.425Q170.6682 482.675 171.05882 482.675Q171.46507 482.675 171.77757 482.425Q172.09007 482.15936 172.26195 481.5031Q172.4807 480.65936 172.4807 478.64374Q172.4807 476.6281 172.27757 475.8781Q172.07445 475.1281 171.76195 474.8781Q171.46507 474.6125 171.05882 474.6125ZM180.05882 472.8Q181.7307 472.8 182.6682 473.9875Q183.77757 475.39374 183.77757 478.64374Q183.77757 481.89374 182.65257 483.3156Q181.7307 484.5031 180.05882 484.5031Q178.38695 484.5031 177.3557 483.22186Q176.34007 481.925 176.34007 478.6281Q176.34007 475.39374 177.46507 473.97186Q178.40257 472.8 180.05882 472.8ZM180.05882 474.6125Q179.6682 474.6125 179.3557 474.8781Q179.0432 475.1281 178.87132 475.78436Q178.63695 476.6281 178.63695 478.64374Q178.63695 480.65936 178.84007 481.425Q179.0432 482.175 179.3557 482.425Q179.6682 482.675 180.05882 482.675Q180.46507 482.675 180.77757 482.425Q181.09007 482.15936 181.26195 481.5031Q181.4807 480.65936 181.4807 478.64374Q181.4807 476.6281 181.27757 475.8781Q181.07445 475.1281 180.76195 474.8781Q180.46507 474.6125 180.05882 474.6125ZM187.2307 478.1125Q186.38695 477.7531 185.99632 477.1281Q185.6057 476.5031 185.6057 475.7531Q185.6057 474.47186 186.49632 473.64374Q187.40257 472.8 189.0432 472.8Q190.68382 472.8 191.57445 473.64374Q192.4807 474.47186 192.4807 475.7531Q192.4807 476.55 192.05882 477.175Q191.65257 477.78436 190.90257 478.1125Q191.8557 478.5031 192.3557 479.2375Q192.8557 479.97186 192.8557 480.925Q192.8557 482.51874 191.84007 483.51874Q190.82445 484.5031 189.15257 484.5031Q187.59007 484.5031 186.5432 483.675Q185.32445 482.70624 185.32445 481.01874Q185.32445 480.09686 185.77757 479.3156Q186.24632 478.53436 187.2307 478.1125ZM187.68382 475.90936Q187.68382 476.5656 188.05882 476.9406Q188.43382 477.3 189.0432 477.3Q189.6682 477.3 190.0432 476.925Q190.4182 476.55 190.4182 475.89374Q190.4182 475.28436 190.0432 474.90936Q189.68382 474.53436 189.07445 474.53436Q188.43382 474.53436 188.05882 474.90936Q187.68382 475.28436 187.68382 475.90936ZM187.4807 480.8156Q187.4807 481.72186 187.94945 482.2375Q188.4182 482.7375 189.1057 482.7375Q189.7932 482.7375 190.2307 482.2531Q190.68382 481.7531 190.68382 480.83124Q190.68382 480.03436 190.2307 479.55Q189.77757 479.05 189.07445 479.05Q188.27757 479.05 187.87132 479.6125Q187.4807 480.15936 187.4807 480.8156Z" fill-rule="nonzero"/><path fill="#000000" d="M211.73137 482.2531L211.73137 484.3L204.04387 484.3Q204.16887 483.14374 204.79387 482.1125Q205.41887 481.0656 207.26262 479.3625Q208.747 477.97186 209.07512 477.4875Q209.52824 476.8 209.52824 476.14374Q209.52824 475.40936 209.13762 475.01874Q208.747 474.6125 208.04387 474.6125Q207.35637 474.6125 206.95012 475.03436Q206.54387 475.4406 206.48137 476.40936L204.29387 476.1906Q204.497 474.3781 205.52824 473.59686Q206.5595 472.8 208.10637 472.8Q209.79387 472.8 210.76262 473.72186Q211.73137 474.6281 211.73137 475.9875Q211.73137 476.7531 211.45012 477.45624Q211.1845 478.15936 210.57512 478.925Q210.1845 479.425 209.13762 480.3781Q208.10637 481.33124 207.82512 481.64374Q207.54387 481.95624 207.372 482.2531L211.73137 482.2531ZM217.02824 472.8Q218.70012 472.8 219.63762 473.9875Q220.747 475.39374 220.747 478.64374Q220.747 481.89374 219.622 483.3156Q218.70012 484.5031 217.02824 484.5031Q215.35637 484.5031 214.32512 483.22186Q213.3095 481.925 213.3095 478.6281Q213.3095 475.39374 214.4345 473.97186Q215.372 472.8 217.02824 472.8ZM217.02824 474.6125Q216.63762 474.6125 216.32512 474.8781Q216.01262 475.1281 215.84074 475.78436Q215.60637 476.6281 215.60637 478.64374Q215.60637 480.65936 215.8095 481.425Q216.01262 482.175 216.32512 482.425Q216.63762 482.675 217.02824 482.675Q217.4345 482.675 217.747 482.425Q218.0595 482.15936 218.23137 481.5031Q218.45012 480.65936 218.45012 478.64374Q218.45012 476.6281 218.247 475.8781Q218.04387 475.1281 217.73137 474.8781Q217.4345 474.6125 217.02824 474.6125ZM226.02824 472.8Q227.70012 472.8 228.63762 473.9875Q229.747 475.39374 229.747 478.64374Q229.747 481.89374 228.622 483.3156Q227.70012 484.5031 226.02824 484.5031Q224.35637 484.5031 223.32512 483.22186Q222.3095 481.925 222.3095 478.6281Q222.3095 475.39374 223.4345 473.97186Q224.372 472.8 226.02824 472.8ZM226.02824 474.6125Q225.63762 474.6125 225.32512 474.8781Q225.01262 475.1281 224.84074 475.78436Q224.60637 476.6281 224.60637 478.64374Q224.60637 480.65936 224.8095 481.425Q225.01262 482.175 225.32512 482.425Q225.63762 482.675 226.02824 482.675Q226.4345 482.675 226.747 482.425Q227.0595 482.15936 227.23137 481.5031Q227.45012 480.65936 227.45012 478.64374Q227.45012 476.6281 227.247 475.8781Q227.04387 475.1281 226.73137 474.8781Q226.4345 474.6125 226.02824 474.6125ZM231.372 481.64374L233.497 481.40936Q233.57512 482.0656 233.90324 482.3781Q234.23137 482.6906 234.76262 482.6906Q235.45012 482.6906 235.91887 482.0656Q236.40324 481.4406 236.52824 479.47186Q235.70012 480.425 234.46574 480.425Q233.10637 480.425 232.122 479.39374Q231.15324 478.34686 231.15324 476.675Q231.15324 474.925 232.1845 473.8625Q233.21574 472.8 234.82512 472.8Q236.5595 472.8 237.66887 474.14374Q238.79387 475.4875 238.79387 478.58124Q238.79387 481.72186 237.622 483.1125Q236.46574 484.5031 234.60637 484.5031Q233.26262 484.5031 232.4345 483.78436Q231.60637 483.0656 231.372 481.64374ZM236.34074 476.84686Q236.34074 475.78436 235.84074 475.20624Q235.35637 474.6125 234.71574 474.6125Q234.10637 474.6125 233.70012 475.09686Q233.3095 475.58124 233.3095 476.675Q233.3095 477.78436 233.747 478.3Q234.1845 478.8156 234.84074 478.8156Q235.46574 478.8156 235.90324 478.3156Q236.34074 477.8156 236.34074 476.84686Z" fill-rule="nonzero"/><path fill="#000000" d="M257.7008 482.2531L257.7008 484.3L250.01329 484.3Q250.13829 483.14374 250.76329 482.1125Q251.38829 481.0656 253.23204 479.3625Q254.71642 477.97186 255.04454 477.4875Q255.49767 476.8 255.49767 476.14374Q255.49767 475.40936 255.10704 475.01874Q254.71642 474.6125 254.01329 474.6125Q253.32579 474.6125 252.91954 475.03436Q252.51329 475.4406 252.45079 476.40936L250.26329 476.1906Q250.46642 474.3781 251.49767 473.59686Q252.52892 472.8 254.07579 472.8Q255.76329 472.8 256.73206 473.72186Q257.7008 474.6281 257.7008 475.9875Q257.7008 476.7531 257.41956 477.45624Q257.15393 478.15936 256.54456 478.925Q256.15393 479.425 255.10704 480.3781Q254.07579 481.33124 253.79454 481.64374Q253.51329 481.95624 253.34142 482.2531L257.7008 482.2531ZM262.99768 472.8Q264.66956 472.8 265.60706 473.9875Q266.71643 475.39374 266.71643 478.64374Q266.71643 481.89374 265.59143 483.3156Q264.66956 484.5031 262.99768 484.5031Q261.3258 484.5031 260.29456 483.22186Q259.27893 481.925 259.27893 478.6281Q259.27893 475.39374 260.40393 473.97186Q261.34143 472.8 262.99768 472.8ZM262.99768 474.6125Q262.60706 474.6125 262.29456 474.8781Q261.98206 475.1281 261.81018 475.78436Q261.5758 476.6281 261.5758 478.64374Q261.5758 480.65936 261.77893 481.425Q261.98206 482.175 262.29456 482.425Q262.60706 482.675 262.99768 482.675Q263.40393 482.675 263.71643 482.425Q264.02893 482.15936 264.2008 481.5031Q264.41956 480.65936 264.41956 478.64374Q264.41956 476.6281 264.21643 475.8781Q264.0133 475.1281 263.7008 474.8781Q263.40393 474.6125 262.99768 474.6125ZM273.90393 484.3L271.71643 484.3L271.71643 476.01874Q270.5133 477.14374 268.87268 477.6906L268.87268 475.6906Q269.73206 475.40936 270.73206 474.6281Q271.74768 473.84686 272.12268 472.8L273.90393 472.8L273.90393 484.3ZM280.99768 472.8Q282.66956 472.8 283.60706 473.9875Q284.71643 475.39374 284.71643 478.64374Q284.71643 481.89374 283.59143 483.3156Q282.66956 484.5031 280.99768 484.5031Q279.3258 484.5031 278.29456 483.22186Q277.27893 481.925 277.27893 478.6281Q277.27893 475.39374 278.40393 473.97186Q279.34143 472.8 280.99768 472.8ZM280.99768 474.6125Q280.60706 474.6125 280.29456 474.8781Q279.98206 475.1281 279.81018 475.78436Q279.5758 476.6281 279.5758 478.64374Q279.5758 480.65936 279.77893 481.425Q279.98206 482.175 280.29456 482.425Q280.60706 482.675 280.99768 482.675Q281.40393 482.675 281.71643 482.425Q282.02893 482.15936 282.2008 481.5031Q282.41956 480.65936 282.41956 478.64374Q282.41956 476.6281 282.21643 475.8781Q282.0133 475.1281 281.7008 474.8781Q281.40393 474.6125 280.99768 474.6125Z" fill-rule="nonzero"/><path fill="#000000" d="M303.6702 482.2531L303.6702 484.3L295.9827 484.3Q296.1077 483.14374 296.7327 482.1125Q297.3577 481.0656 299.20145 479.3625Q300.68582 477.97186 301.01395 477.4875Q301.46707 476.8 301.46707 476.14374Q301.46707 475.40936 301.07645 475.01874Q300.68582 474.6125 299.9827 474.6125Q299.2952 474.6125 298.88895 475.03436Q298.4827 475.4406 298.4202 476.40936L296.2327 476.1906Q296.43582 474.3781 297.46707 473.59686Q298.49832 472.8 300.0452 472.8Q301.7327 472.8 302.70145 473.72186Q303.6702 474.6281 303.6702 475.9875Q303.6702 476.7531 303.38895 477.45624Q303.12332 478.15936 302.51395 478.925Q302.12332 479.425 301.07645 480.3781Q300.0452 481.33124 299.76395 481.64374Q299.4827 481.95624 299.31082 482.2531L303.6702 482.2531ZM308.96707 472.8Q310.63895 472.8 311.57645 473.9875Q312.68582 475.39374 312.68582 478.64374Q312.68582 481.89374 311.56082 483.3156Q310.63895 484.5031 308.96707 484.5031Q307.2952 484.5031 306.26395 483.22186Q305.24832 481.925 305.24832 478.6281Q305.24832 475.39374 306.37332 473.97186Q307.31082 472.8 308.96707 472.8ZM308.96707 474.6125Q308.57645 474.6125 308.26395 474.8781Q307.95145 475.1281 307.77957 475.78436Q307.5452 476.6281 307.5452 478.64374Q307.5452 480.65936 307.74832 481.425Q307.95145 482.175 308.26395 482.425Q308.57645 482.675 308.96707 482.675Q309.37332 482.675 309.68582 482.425Q309.99832 482.15936 310.1702 481.5031Q310.38895 480.65936 310.38895 478.64374Q310.38895 476.6281 310.18582 475.8781Q309.9827 475.1281 309.6702 474.8781Q309.37332 474.6125 308.96707 474.6125ZM319.87332 484.3L317.68582 484.3L317.68582 476.01874Q316.4827 477.14374 314.84207 477.6906L314.84207 475.6906Q315.70145 475.40936 316.70145 474.6281Q317.71707 473.84686 318.09207 472.8L319.87332 472.8L319.87332 484.3ZM328.87332 484.3L326.68582 484.3L326.68582 476.01874Q325.4827 477.14374 323.84207 477.6906L323.84207 475.6906Q324.70145 475.40936 325.70145 474.6281Q326.71707 473.84686 327.09207 472.8L328.87332 472.8L328.87332 484.3Z" fill-rule="nonzero"/><path fill="#000000" d="M349.63962 482.2531L349.63962 484.3L341.95212 484.3Q342.07712 483.14374 342.70212 482.1125Q343.32712 481.0656 345.17087 479.3625Q346.65524 477.97186 346.98337 477.4875Q347.4365 476.8 347.4365 476.14374Q347.4365 475.40936 347.04587 475.01874Q346.65524 474.6125 345.95212 474.6125Q345.26462 474.6125 344.85837 475.03436Q344.45212 475.4406 344.38962 476.40936L342.20212 476.1906Q342.40524 474.3781 343.4365 473.59686Q344.46774 472.8 346.01462 472.8Q347.70212 472.8 348.67087 473.72186Q349.63962 474.6281 349.63962 475.9875Q349.63962 476.7531 349.35837 477.45624Q349.09274 478.15936 348.48337 478.925Q348.09274 479.425 347.04587 480.3781Q346.01462 481.33124 345.73337 481.64374Q345.45212 481.95624 345.28024 482.2531L349.63962 482.2531ZM354.9365 472.8Q356.60837 472.8 357.54587 473.9875Q358.65524 475.39374 358.65524 478.64374Q358.65524 481.89374 357.53024 483.3156Q356.60837 484.5031 354.9365 484.5031Q353.26462 484.5031 352.23337 483.22186Q351.21774 481.925 351.21774 478.6281Q351.21774 475.39374 352.34274 473.97186Q353.28024 472.8 354.9365 472.8ZM354.9365 474.6125Q354.54587 474.6125 354.23337 474.8781Q353.92087 475.1281 353.749 475.78436Q353.51462 476.6281 353.51462 478.64374Q353.51462 480.65936 353.71774 481.425Q353.92087 482.175 354.23337 482.425Q354.54587 482.675 354.9365 482.675Q355.34274 482.675 355.65524 482.425Q355.96774 482.15936 356.13962 481.5031Q356.35837 480.65936 356.35837 478.64374Q356.35837 476.6281 356.15524 475.8781Q355.95212 475.1281 355.63962 474.8781Q355.34274 474.6125 354.9365 474.6125ZM365.84274 484.3L363.65524 484.3L363.65524 476.01874Q362.45212 477.14374 360.8115 477.6906L360.8115 475.6906Q361.67087 475.40936 362.67087 474.6281Q363.6865 473.84686 364.0615 472.8L365.84274 472.8L365.84274 484.3ZM376.63962 482.2531L376.63962 484.3L368.95212 484.3Q369.07712 483.14374 369.70212 482.1125Q370.32712 481.0656 372.17087 479.3625Q373.65524 477.97186 373.98337 477.4875Q374.4365 476.8 374.4365 476.14374Q374.4365 475.40936 374.04587 475.01874Q373.65524 474.6125 372.95212 474.6125Q372.26462 474.6125 371.85837 475.03436Q371.45212 475.4406 371.38962 476.40936L369.20212 476.1906Q369.40524 474.3781 370.4365 473.59686Q371.46774 472.8 373.01462 472.8Q374.70212 472.8 375.67087 473.72186Q376.63962 474.6281 376.63962 475.9875Q376.63962 476.7531 376.35837 477.45624Q376.09274 478.15936 375.48337 478.925Q375.09274 479.425 374.04587 480.3781Q373.01462 481.33124 372.73337 481.64374Q372.45212 481.95624 372.28024 482.2531L376.63962 482.2531Z" fill-rule="nonzero"/><path fill="#000000" d="M395.60904 482.2531L395.60904 484.3L387.92154 484.3Q388.04654 483.14374 388.67154 482.1125Q389.29654 481.0656 391.1403 479.3625Q392.62466 477.97186 392.9528 477.4875Q393.4059 476.8 393.4059 476.14374Q393.4059 475.40936 393.0153 475.01874Q392.62466 474.6125 391.92154 474.6125Q391.23404 474.6125 390.8278 475.03436Q390.42154 475.4406 390.35904 476.40936L388.17154 476.1906Q388.37466 474.3781 389.4059 473.59686Q390.43716 472.8 391.98404 472.8Q393.67154 472.8 394.6403 473.72186Q395.60904 474.6281 395.60904 475.9875Q395.60904 476.7531 395.3278 477.45624Q395.06216 478.15936 394.4528 478.925Q394.06216 479.425 393.0153 480.3781Q391.98404 481.33124 391.7028 481.64374Q391.42154 481.95624 391.24966 482.2531L395.60904 482.2531ZM400.9059 472.8Q402.5778 472.8 403.5153 473.9875Q404.62466 475.39374 404.62466 478.64374Q404.62466 481.89374 403.49966 483.3156Q402.5778 484.5031 400.9059 484.5031Q399.23404 484.5031 398.2028 483.22186Q397.18716 481.925 397.18716 478.6281Q397.18716 475.39374 398.31216 473.97186Q399.24966 472.8 400.9059 472.8ZM400.9059 474.6125Q400.5153 474.6125 400.2028 474.8781Q399.8903 475.1281 399.7184 475.78436Q399.48404 476.6281 399.48404 478.64374Q399.48404 480.65936 399.68716 481.425Q399.8903 482.175 400.2028 482.425Q400.5153 482.675 400.9059 482.675Q401.31216 482.675 401.62466 482.425Q401.93716 482.15936 402.10904 481.5031Q402.3278 480.65936 402.3278 478.64374Q402.3278 476.6281 402.12466 475.8781Q401.92154 475.1281 401.60904 474.8781Q401.31216 474.6125 400.9059 474.6125ZM411.81216 484.3L409.62466 484.3L409.62466 476.01874Q408.42154 477.14374 406.7809 477.6906L406.7809 475.6906Q407.6403 475.40936 408.6403 474.6281Q409.6559 473.84686 410.0309 472.8L411.81216 472.8L411.81216 484.3ZM415.12466 481.2531L417.24966 481.0031Q417.3434 481.8156 417.7809 482.2531Q418.23404 482.675 418.87466 482.675Q419.54654 482.675 420.0153 482.15936Q420.48404 481.64374 420.48404 480.76874Q420.48404 479.9406 420.0309 479.45624Q419.5934 478.97186 418.9528 478.97186Q418.5309 478.97186 417.93716 479.1281L418.18716 477.34686Q419.0778 477.3625 419.54654 476.95624Q420.0153 476.55 420.0153 475.8625Q420.0153 475.28436 419.67154 474.9406Q419.3278 474.59686 418.74966 474.59686Q418.18716 474.59686 417.7809 474.9875Q417.3903 475.3781 417.31216 476.1281L415.2809 475.78436Q415.49966 474.7531 415.92154 474.1281Q416.3434 473.5031 417.10904 473.15936Q417.87466 472.8 418.81216 472.8Q420.43716 472.8 421.4059 473.83124Q422.2184 474.675 422.2184 475.7375Q422.2184 477.2375 420.56216 478.14374Q421.54654 478.34686 422.1403 479.08124Q422.73404 479.8156 422.73404 480.8625Q422.73404 482.3625 421.62466 483.4406Q420.5309 484.5031 418.8903 484.5031Q417.3278 484.5031 416.29654 483.6125Q415.2809 482.70624 415.12466 481.2531Z" fill-rule="nonzero"/><path fill="#000000" d="M441.57846 482.2531L441.57846 484.3L433.89096 484.3Q434.01596 483.14374 434.64096 482.1125Q435.26596 481.0656 437.1097 479.3625Q438.5941 477.97186 438.9222 477.4875Q439.37534 476.8 439.37534 476.14374Q439.37534 475.40936 438.9847 475.01874Q438.5941 474.6125 437.89096 474.6125Q437.20346 474.6125 436.7972 475.03436Q436.39096 475.4406 436.32846 476.40936L434.14096 476.1906Q434.3441 474.3781 435.37534 473.59686Q436.4066 472.8 437.95346 472.8Q439.64096 472.8 440.6097 473.72186Q441.57846 474.6281 441.57846 475.9875Q441.57846 476.7531 441.2972 477.45624Q441.0316 478.15936 440.4222 478.925Q440.0316 479.425 438.9847 480.3781Q437.95346 481.33124 437.6722 481.64374Q437.39096 481.95624 437.2191 482.2531L441.57846 482.2531ZM446.87534 472.8Q448.5472 472.8 449.4847 473.9875Q450.5941 475.39374 450.5941 478.64374Q450.5941 481.89374 449.4691 483.3156Q448.5472 484.5031 446.87534 484.5031Q445.20346 484.5031 444.1722 483.22186Q443.1566 481.925 443.1566 478.6281Q443.1566 475.39374 444.2816 473.97186Q445.2191 472.8 446.87534 472.8ZM446.87534 474.6125Q446.4847 474.6125 446.1722 474.8781Q445.8597 475.1281 445.68784 475.78436Q445.45346 476.6281 445.45346 478.64374Q445.45346 480.65936 445.6566 481.425Q445.8597 482.175 446.1722 482.425Q446.4847 482.675 446.87534 482.675Q447.2816 482.675 447.5941 482.425Q447.9066 482.15936 448.07846 481.5031Q448.2972 480.65936 448.2972 478.64374Q448.2972 476.6281 448.0941 475.8781Q447.89096 475.1281 447.57846 474.8781Q447.2816 474.6125 446.87534 474.6125ZM457.7816 484.3L455.5941 484.3L455.5941 476.01874Q454.39096 477.14374 452.75034 477.6906L452.75034 475.6906Q453.6097 475.40936 454.6097 474.6281Q455.62534 473.84686 456.00034 472.8L457.7816 472.8L457.7816 484.3ZM465.4691 484.3L465.4691 481.9875L460.7816 481.9875L460.7816 480.0656L465.75034 472.8L467.5941 472.8L467.5941 480.0656L469.01596 480.0656L469.01596 481.9875L467.5941 481.9875L467.5941 484.3L465.4691 484.3ZM465.4691 480.0656L465.4691 476.14374L462.8441 480.0656L465.4691 480.0656Z" fill-rule="nonzero"/><path fill="#000000" d="M487.54788 482.2531L487.54788 484.3L479.86038 484.3Q479.98538 483.14374 480.61038 482.1125Q481.23538 481.0656 483.07913 479.3625Q484.5635 477.97186 484.89163 477.4875Q485.34476 476.8 485.34476 476.14374Q485.34476 475.40936 484.95413 475.01874Q484.5635 474.6125 483.86038 474.6125Q483.17288 474.6125 482.76663 475.03436Q482.36038 475.4406 482.29788 476.40936L480.11038 476.1906Q480.3135 474.3781 481.34476 473.59686Q482.376 472.8 483.92288 472.8Q485.61038 472.8 486.57913 473.72186Q487.54788 474.6281 487.54788 475.9875Q487.54788 476.7531 487.26663 477.45624Q487.001 478.15936 486.39163 478.925Q486.001 479.425 484.95413 480.3781Q483.92288 481.33124 483.64163 481.64374Q483.36038 481.95624 483.1885 482.2531L487.54788 482.2531ZM492.84476 472.8Q494.51663 472.8 495.45413 473.9875Q496.5635 475.39374 496.5635 478.64374Q496.5635 481.89374 495.4385 483.3156Q494.51663 484.5031 492.84476 484.5031Q491.17288 484.5031 490.14163 483.22186Q489.126 481.925 489.126 478.6281Q489.126 475.39374 490.251 473.97186Q491.1885 472.8 492.84476 472.8ZM492.84476 474.6125Q492.45413 474.6125 492.14163 474.8781Q491.82913 475.1281 491.65726 475.78436Q491.42288 476.6281 491.42288 478.64374Q491.42288 480.65936 491.626 481.425Q491.82913 482.175 492.14163 482.425Q492.45413 482.675 492.84476 482.675Q493.251 482.675 493.5635 482.425Q493.876 482.15936 494.04788 481.5031Q494.26663 480.65936 494.26663 478.64374Q494.26663 476.6281 494.0635 475.8781Q493.86038 475.1281 493.54788 474.8781Q493.251 474.6125 492.84476 474.6125ZM503.751 484.3L501.5635 484.3L501.5635 476.01874Q500.36038 477.14374 498.71976 477.6906L498.71976 475.6906Q499.57913 475.40936 500.57913 474.6281Q501.59476 473.84686 501.96976 472.8L503.751 472.8L503.751 484.3ZM507.17288 481.34686L509.36038 481.1281Q509.45413 481.8625 509.90726 482.3Q510.376 482.7375 510.96976 482.7375Q511.65726 482.7375 512.126 482.175Q512.61035 481.6125 512.61035 480.4875Q512.61035 479.4406 512.1416 478.90936Q511.67288 478.3781 510.90726 478.3781Q509.96976 478.3781 509.21976 479.22186L507.4385 478.95624L508.5635 473.0031L514.36035 473.0031L514.36035 475.05L510.21976 475.05L509.876 477.0031Q510.61038 476.6281 511.376 476.6281Q512.8447 476.6281 513.86035 477.6906Q514.876 478.7531 514.876 480.45624Q514.876 481.8625 514.04785 482.97186Q512.9385 484.5031 510.95413 484.5031Q509.36038 484.5031 508.36038 483.64374Q507.36038 482.78436 507.17288 481.34686Z" fill-rule="nonzero"/><path fill="#000000" d="M533.5173 482.2531L533.5173 484.3L525.8298 484.3Q525.9548 483.14374 526.5798 482.1125Q527.2048 481.0656 529.0485 479.3625Q530.5329 477.97186 530.861 477.4875Q531.31415 476.8 531.31415 476.14374Q531.31415 475.40936 530.9235 475.01874Q530.5329 474.6125 529.8298 474.6125Q529.1423 474.6125 528.736 475.03436Q528.3298 475.4406 528.2673 476.40936L526.0798 476.1906Q526.2829 474.3781 527.31415 473.59686Q528.3454 472.8 529.8923 472.8Q531.5798 472.8 532.5485 473.72186Q533.5173 474.6281 533.5173 475.9875Q533.5173 476.7531 533.236 477.45624Q532.9704 478.15936 532.361 478.925Q531.9704 479.425 530.9235 480.3781Q529.8923 481.33124 529.611 481.64374Q529.3298 481.95624 529.1579 482.2531L533.5173 482.2531ZM538.81415 472.8Q540.486 472.8 541.4235 473.9875Q542.5329 475.39374 542.5329 478.64374Q542.5329 481.89374 541.4079 483.3156Q540.486 484.5031 538.81415 484.5031Q537.1423 484.5031 536.111 483.22186Q535.0954 481.925 535.0954 478.6281Q535.0954 475.39374 536.2204 473.97186Q537.1579 472.8 538.81415 472.8ZM538.81415 474.6125Q538.4235 474.6125 538.111 474.8781Q537.7985 475.1281 537.62665 475.78436Q537.3923 476.6281 537.3923 478.64374Q537.3923 480.65936 537.5954 481.425Q537.7985 482.175 538.111 482.425Q538.4235 482.675 538.81415 482.675Q539.2204 482.675 539.5329 482.425Q539.8454 482.15936 540.0173 481.5031Q540.236 480.65936 540.236 478.64374Q540.236 476.6281 540.0329 475.8781Q539.8298 475.1281 539.5173 474.8781Q539.2204 474.6125 538.81415 474.6125ZM549.7204 484.3L547.5329 484.3L547.5329 476.01874Q546.3298 477.14374 544.68915 477.6906L544.68915 475.6906Q545.5485 475.40936 546.5485 474.6281Q547.56415 473.84686 547.93915 472.8L549.7204 472.8L549.7204 484.3ZM560.5485 475.64374L558.4235 475.8781Q558.3454 475.22186 558.0173 474.90936Q557.68915 474.59686 557.1579 474.59686Q556.4704 474.59686 555.986 475.22186Q555.50165 475.84686 555.37665 477.83124Q556.2048 476.8625 557.4235 476.8625Q558.7985 476.8625 559.7673 477.90936Q560.75165 478.95624 560.75165 480.6125Q560.75165 482.3625 559.7204 483.4406Q558.68915 484.5031 557.0798 484.5031Q555.3454 484.5031 554.2204 483.15936Q553.111 481.8 553.111 478.72186Q553.111 475.58124 554.2673 474.1906Q555.43915 472.8 557.2985 472.8Q558.5954 472.8 559.4548 473.53436Q560.31415 474.2531 560.5485 475.64374ZM555.56415 480.4406Q555.56415 481.5031 556.0485 482.09686Q556.5485 482.675 557.18915 482.675Q557.7985 482.675 558.2048 482.20624Q558.611 481.72186 558.611 480.6281Q558.611 479.51874 558.1735 479.0031Q557.736 478.47186 557.0798 478.47186Q556.43915 478.47186 556.00165 478.97186Q555.56415 479.47186 555.56415 480.4406Z" fill-rule="nonzero"/><path fill="#000000" d="M579.4867 482.2531L579.4867 484.3L571.7992 484.3Q571.9242 483.14374 572.5492 482.1125Q573.1742 481.0656 575.01794 479.3625Q576.5023 477.97186 576.83044 477.4875Q577.28357 476.8 577.28357 476.14374Q577.28357 475.40936 576.89294 475.01874Q576.5023 474.6125 575.7992 474.6125Q575.1117 474.6125 574.70544 475.03436Q574.2992 475.4406 574.2367 476.40936L572.0492 476.1906Q572.2523 474.3781 573.28357 473.59686Q574.3148 472.8 575.8617 472.8Q577.5492 472.8 578.51794 473.72186Q579.4867 474.6281 579.4867 475.9875Q579.4867 476.7531 579.20544 477.45624Q578.9398 478.15936 578.33044 478.925Q577.9398 479.425 576.89294 480.3781Q575.8617 481.33124 575.58044 481.64374Q575.2992 481.95624 575.1273 482.2531L579.4867 482.2531ZM584.78357 472.8Q586.45544 472.8 587.39294 473.9875Q588.5023 475.39374 588.5023 478.64374Q588.5023 481.89374 587.3773 483.3156Q586.45544 484.5031 584.78357 484.5031Q583.1117 484.5031 582.08044 483.22186Q581.0648 481.925 581.0648 478.6281Q581.0648 475.39374 582.1898 473.97186Q583.1273 472.8 584.78357 472.8ZM584.78357 474.6125Q584.39294 474.6125 584.08044 474.8781Q583.76794 475.1281 583.59607 475.78436Q583.3617 476.6281 583.3617 478.64374Q583.3617 480.65936 583.5648 481.425Q583.76794 482.175 584.08044 482.425Q584.39294 482.675 584.78357 482.675Q585.1898 482.675 585.5023 482.425Q585.8148 482.15936 585.9867 481.5031Q586.20544 480.65936 586.20544 478.64374Q586.20544 476.6281 586.0023 475.8781Q585.7992 475.1281 585.4867 474.8781Q585.1898 474.6125 584.78357 474.6125ZM595.6898 484.3L593.5023 484.3L593.5023 476.01874Q592.2992 477.14374 590.65857 477.6906L590.65857 475.6906Q591.51794 475.40936 592.51794 474.6281Q593.53357 473.84686 593.90857 472.8L595.6898 472.8L595.6898 484.3ZM599.08044 475.03436L599.08044 473.0031L606.58044 473.0031L606.58044 474.59686Q605.65857 475.5031 604.6898 477.22186Q603.7367 478.925 603.22107 480.8625Q602.72107 482.78436 602.7367 484.3L600.6117 484.3Q600.6742 481.925 601.59607 479.45624Q602.51794 476.9875 604.0648 475.03436L599.08044 475.03436Z" fill-rule="nonzero"/><path fill="#000000" d="M625.4561 482.2531L625.4561 484.3L617.7686 484.3Q617.8936 483.14374 618.5186 482.1125Q619.1436 481.0656 620.98737 479.3625Q622.47174 477.97186 622.79987 477.4875Q623.253 476.8 623.253 476.14374Q623.253 475.40936 622.86237 475.01874Q622.47174 474.6125 621.7686 474.6125Q621.0811 474.6125 620.67487 475.03436Q620.2686 475.4406 620.2061 476.40936L618.0186 476.1906Q618.22174 474.3781 619.253 473.59686Q620.28424 472.8 621.8311 472.8Q623.5186 472.8 624.48737 473.72186Q625.4561 474.6281 625.4561 475.9875Q625.4561 476.7531 625.17487 477.45624Q624.90924 478.15936 624.29987 478.925Q623.90924 479.425 622.86237 480.3781Q621.8311 481.33124 621.54987 481.64374Q621.2686 481.95624 621.09674 482.2531L625.4561 482.2531ZM630.753 472.8Q632.42487 472.8 633.36237 473.9875Q634.47174 475.39374 634.47174 478.64374Q634.47174 481.89374 633.34674 483.3156Q632.42487 484.5031 630.753 484.5031Q629.0811 484.5031 628.04987 483.22186Q627.03424 481.925 627.03424 478.6281Q627.03424 475.39374 628.15924 473.97186Q629.09674 472.8 630.753 472.8ZM630.753 474.6125Q630.36237 474.6125 630.04987 474.8781Q629.73737 475.1281 629.5655 475.78436Q629.3311 476.6281 629.3311 478.64374Q629.3311 480.65936 629.53424 481.425Q629.73737 482.175 630.04987 482.425Q630.36237 482.675 630.753 482.675Q631.15924 482.675 631.47174 482.425Q631.78424 482.15936 631.9561 481.5031Q632.17487 480.65936 632.17487 478.64374Q632.17487 476.6281 631.97174 475.8781Q631.7686 475.1281 631.4561 474.8781Q631.15924 474.6125 630.753 474.6125ZM641.65924 484.3L639.47174 484.3L639.47174 476.01874Q638.2686 477.14374 636.628 477.6906L636.628 475.6906Q637.48737 475.40936 638.48737 474.6281Q639.503 473.84686 639.878 472.8L641.65924 472.8L641.65924 484.3ZM646.92487 478.1125Q646.0811 477.7531 645.6905 477.1281Q645.29987 476.5031 645.29987 475.7531Q645.29987 474.47186 646.1905 473.64374Q647.09674 472.8 648.73737 472.8Q650.378 472.8 651.2686 473.64374Q652.17487 474.47186 652.17487 475.7531Q652.17487 476.55 651.753 477.175Q651.34674 477.78436 650.59674 478.1125Q651.54987 478.5031 652.04987 479.2375Q652.54987 479.97186 652.54987 480.925Q652.54987 482.51874 651.53424 483.51874Q650.5186 484.5031 648.84674 484.5031Q647.28424 484.5031 646.23737 483.675Q645.0186 482.70624 645.0186 481.01874Q645.0186 480.09686 645.47174 479.3156Q645.9405 478.53436 646.92487 478.1125ZM647.378 475.90936Q647.378 476.5656 647.753 476.9406Q648.128 477.3 648.73737 477.3Q649.36237 477.3 649.73737 476.925Q650.11237 476.55 650.11237 475.89374Q650.11237 475.28436 649.73737 474.90936Q649.378 474.53436 648.7686 474.53436Q648.128 474.53436 647.753 474.90936Q647.378 475.28436 647.378 475.90936ZM647.17487 480.8156Q647.17487 481.72186 647.6436 482.2375Q648.11237 482.7375 648.79987 482.7375Q649.48737 482.7375 649.92487 482.2531Q650.378 481.7531 650.378 480.83124Q650.378 480.03436 649.92487 479.55Q649.47174 479.05 648.7686 479.05Q647.97174 479.05 647.5655 479.6125Q647.17487 480.15936 647.17487 480.8156Z" fill-rule="nonzero"/><path fill="#000000" d="M671.42554 482.2531L671.42554 484.3L663.73804 484.3Q663.86304 483.14374 664.48804 482.1125Q665.11304 481.0656 666.9568 479.3625Q668.44116 477.97186 668.7693 477.4875Q669.2224 476.8 669.2224 476.14374Q669.2224 475.40936 668.8318 475.01874Q668.44116 474.6125 667.73804 474.6125Q667.05054 474.6125 666.6443 475.03436Q666.23804 475.4406 666.17554 476.40936L663.98804 476.1906Q664.19116 474.3781 665.2224 473.59686Q666.25366 472.8 667.80054 472.8Q669.48804 472.8 670.4568 473.72186Q671.42554 474.6281 671.42554 475.9875Q671.42554 476.7531 671.1443 477.45624Q670.87866 478.15936 670.2693 478.925Q669.87866 479.425 668.8318 480.3781Q667.80054 481.33124 667.5193 481.64374Q667.23804 481.95624 667.06616 482.2531L671.42554 482.2531ZM676.7224 472.8Q678.3943 472.8 679.3318 473.9875Q680.44116 475.39374 680.44116 478.64374Q680.44116 481.89374 679.31616 483.3156Q678.3943 484.5031 676.7224 484.5031Q675.05054 484.5031 674.0193 483.22186Q673.00366 481.925 673.00366 478.6281Q673.00366 475.39374 674.12866 473.97186Q675.06616 472.8 676.7224 472.8ZM676.7224 474.6125Q676.3318 474.6125 676.0193 474.8781Q675.7068 475.1281 675.5349 475.78436Q675.30054 476.6281 675.30054 478.64374Q675.30054 480.65936 675.50366 481.425Q675.7068 482.175 676.0193 482.425Q676.3318 482.675 676.7224 482.675Q677.12866 482.675 677.44116 482.425Q677.75366 482.15936 677.92554 481.5031Q678.1443 480.65936 678.1443 478.64374Q678.1443 476.6281 677.94116 475.8781Q677.73804 475.1281 677.42554 474.8781Q677.12866 474.6125 676.7224 474.6125ZM687.62866 484.3L685.44116 484.3L685.44116 476.01874Q684.23804 477.14374 682.5974 477.6906L682.5974 475.6906Q683.4568 475.40936 684.4568 474.6281Q685.4724 473.84686 685.8474 472.8L687.62866 472.8L687.62866 484.3ZM691.06616 481.64374L693.19116 481.40936Q693.2693 482.0656 693.5974 482.3781Q693.92554 482.6906 694.4568 482.6906Q695.1443 482.6906 695.61304 482.0656Q696.0974 481.4406 696.2224 479.47186Q695.3943 480.425 694.1599 480.425Q692.80054 480.425 691.81616 479.39374Q690.8474 478.34686 690.8474 476.675Q690.8474 474.925 691.87866 473.8625Q692.9099 472.8 694.5193 472.8Q696.25366 472.8 697.36304 474.14374Q698.48804 475.4875 698.48804 478.58124Q698.48804 481.72186 697.31616 483.1125Q696.1599 484.5031 694.30054 484.5031Q692.9568 484.5031 692.12866 483.78436Q691.30054 483.0656 691.06616 481.64374ZM696.0349 476.84686Q696.0349 475.78436 695.5349 475.20624Q695.05054 474.6125 694.4099 474.6125Q693.80054 474.6125 693.3943 475.09686Q693.00366 475.58124 693.00366 476.675Q693.00366 477.78436 693.44116 478.3Q693.87866 478.8156 694.5349 478.8156Q695.1599 478.8156 695.5974 478.3156Q696.0349 477.8156 696.0349 476.84686Z" fill-rule="nonzero"/><path fill="#000000" d="M717.39496 482.2531L717.39496 484.3L709.70746 484.3Q709.83246 483.14374 710.45746 482.1125Q711.08246 481.0656 712.9262 479.3625Q714.4106 477.97186 714.7387 477.4875Q715.19183 476.8 715.19183 476.14374Q715.19183 475.40936 714.8012 475.01874Q714.4106 474.6125 713.70746 474.6125Q713.01996 474.6125 712.6137 475.03436Q712.20746 475.4406 712.14496 476.40936L709.95746 476.1906Q710.1606 474.3781 711.19183 473.59686Q712.2231 472.8 713.76996 472.8Q715.45746 472.8 716.4262 473.72186Q717.39496 474.6281 717.39496 475.9875Q717.39496 476.7531 717.1137 477.45624Q716.8481 478.15936 716.2387 478.925Q715.8481 479.425 714.8012 480.3781Q713.76996 481.33124 713.4887 481.64374Q713.20746 481.95624 713.0356 482.2531L717.39496 482.2531ZM722.69183 472.8Q724.3637 472.8 725.3012 473.9875Q726.4106 475.39374 726.4106 478.64374Q726.4106 481.89374 725.2856 483.3156Q724.3637 484.5031 722.69183 484.5031Q721.01996 484.5031 719.9887 483.22186Q718.9731 481.925 718.9731 478.6281Q718.9731 475.39374 720.0981 473.97186Q721.0356 472.8 722.69183 472.8ZM722.69183 474.6125Q722.3012 474.6125 721.9887 474.8781Q721.6762 475.1281 721.50433 475.78436Q721.26996 476.6281 721.26996 478.64374Q721.26996 480.65936 721.4731 481.425Q721.6762 482.175 721.9887 482.425Q722.3012 482.675 722.69183 482.675Q723.0981 482.675 723.4106 482.425Q723.7231 482.15936 723.89496 481.5031Q724.1137 480.65936 724.1137 478.64374Q724.1137 476.6281 723.9106 475.8781Q723.70746 475.1281 723.39496 474.8781Q723.0981 474.6125 722.69183 474.6125ZM735.39496 482.2531L735.39496 484.3L727.70746 484.3Q727.83246 483.14374 728.45746 482.1125Q729.08246 481.0656 730.9262 479.3625Q732.4106 477.97186 732.7387 477.4875Q733.19183 476.8 733.19183 476.14374Q733.19183 475.40936 732.8012 475.01874Q732.4106 474.6125 731.70746 474.6125Q731.01996 474.6125 730.6137 475.03436Q730.20746 475.4406 730.14496 476.40936L727.95746 476.1906Q728.1606 474.3781 729.19183 473.59686Q730.2231 472.8 731.76996 472.8Q733.45746 472.8 734.4262 473.72186Q735.39496 474.6281 735.39496 475.9875Q735.39496 476.7531 735.1137 477.45624Q734.8481 478.15936 734.2387 478.925Q733.8481 479.425 732.8012 480.3781Q731.76996 481.33124 731.4887 481.64374Q731.20746 481.95624 731.0356 482.2531L735.39496 482.2531ZM740.69183 472.8Q742.3637 472.8 743.3012 473.9875Q744.4106 475.39374 744.4106 478.64374Q744.4106 481.89374 743.2856 483.3156Q742.3637 484.5031 740.69183 484.5031Q739.01996 484.5031 737.9887 483.22186Q736.9731 481.925 736.9731 478.6281Q736.9731 475.39374 738.0981 473.97186Q739.0356 472.8 740.69183 472.8ZM740.69183 474.6125Q740.3012 474.6125 739.9887 474.8781Q739.6762 475.1281 739.50433 475.78436Q739.26996 476.6281 739.26996 478.64374Q739.26996 480.65936 739.4731 481.425Q739.6762 482.175 739.9887 482.425Q740.3012 482.675 740.69183 482.675Q741.0981 482.675 741.4106 482.425Q741.7231 482.15936 741.89496 481.5031Q742.1137 480.65936 742.1137 478.64374Q742.1137 476.6281 741.9106 475.8781Q741.70746 475.1281 741.39496 474.8781Q741.0981 474.6125 740.69183 474.6125Z" fill-rule="nonzero"/><path fill="#000000" d="M763.3644 482.2531L763.3644 484.3L755.6769 484.3Q755.8019 483.14374 756.4269 482.1125Q757.0519 481.0656 758.8956 479.3625Q760.38 477.97186 760.7081 477.4875Q761.16125 476.8 761.16125 476.14374Q761.16125 475.40936 760.7706 475.01874Q760.38 474.6125 759.6769 474.6125Q758.9894 474.6125 758.5831 475.03436Q758.1769 475.4406 758.1144 476.40936L755.9269 476.1906Q756.13 474.3781 757.16125 473.59686Q758.1925 472.8 759.7394 472.8Q761.4269 472.8 762.3956 473.72186Q763.3644 474.6281 763.3644 475.9875Q763.3644 476.7531 763.0831 477.45624Q762.8175 478.15936 762.2081 478.925Q761.8175 479.425 760.7706 480.3781Q759.7394 481.33124 759.4581 481.64374Q759.1769 481.95624 759.005 482.2531L763.3644 482.2531ZM768.66125 472.8Q770.3331 472.8 771.2706 473.9875Q772.38 475.39374 772.38 478.64374Q772.38 481.89374 771.255 483.3156Q770.3331 484.5031 768.66125 484.5031Q766.9894 484.5031 765.9581 483.22186Q764.9425 481.925 764.9425 478.6281Q764.9425 475.39374 766.0675 473.97186Q767.005 472.8 768.66125 472.8ZM768.66125 474.6125Q768.2706 474.6125 767.9581 474.8781Q767.6456 475.1281 767.47375 475.78436Q767.2394 476.6281 767.2394 478.64374Q767.2394 480.65936 767.4425 481.425Q767.6456 482.175 767.9581 482.425Q768.2706 482.675 768.66125 482.675Q769.0675 482.675 769.38 482.425Q769.6925 482.15936 769.8644 481.5031Q770.0831 480.65936 770.0831 478.64374Q770.0831 476.6281 769.88 475.8781Q769.6769 475.1281 769.3644 474.8781Q769.0675 474.6125 768.66125 474.6125ZM781.3644 482.2531L781.3644 484.3L773.6769 484.3Q773.8019 483.14374 774.4269 482.1125Q775.0519 481.0656 776.8956 479.3625Q778.38 477.97186 778.7081 477.4875Q779.16125 476.8 779.16125 476.14374Q779.16125 475.40936 778.7706 475.01874Q778.38 474.6125 777.6769 474.6125Q776.9894 474.6125 776.5831 475.03436Q776.1769 475.4406 776.1144 476.40936L773.9269 476.1906Q774.13 474.3781 775.16125 473.59686Q776.1925 472.8 777.7394 472.8Q779.4269 472.8 780.3956 473.72186Q781.3644 474.6281 781.3644 475.9875Q781.3644 476.7531 781.0831 477.45624Q780.8175 478.15936 780.2081 478.925Q779.8175 479.425 778.7706 480.3781Q777.7394 481.33124 777.4581 481.64374Q777.1769 481.95624 777.005 482.2531L781.3644 482.2531ZM788.5675 484.3L786.38 484.3L786.38 476.01874Q785.1769 477.14374 783.53625 477.6906L783.53625 475.6906Q784.3956 475.40936 785.3956 474.6281Q786.41125 473.84686 786.78625 472.8L788.5675 472.8L788.5675 484.3Z" fill-rule="nonzero"/><path fill="#000000" d="M32.325 30.3875L35.2 30.3875L35.2 39.45Q35.2 41.215626 34.8875 42.184376Q34.465626 43.434376 33.35625 44.2Q32.2625 44.95 30.45 44.95Q28.340626 44.95 27.2 43.7625Q26.059376 42.575 26.04375 40.278126L28.7625 39.965626Q28.809376 41.2 29.121876 41.7Q29.590626 42.465626 30.559376 42.465626Q31.528126 42.465626 31.91875 41.91875Q32.325 41.371876 32.325 39.6375L32.325 30.3875ZM44.965626 44.7L44.965626 43.153126Q44.403126 43.98125 43.465626 44.465626Q42.54375 44.934376 41.528126 44.934376Q40.48125 44.934376 39.653126 44.48125Q38.825 44.0125 38.45 43.184376Q38.075 42.35625 38.075 40.8875L38.075 34.325L40.825 34.325L40.825 39.090626Q40.825 41.278126 40.965626 41.778126Q41.121876 42.2625 41.5125 42.559376Q41.91875 42.840626 42.54375 42.840626Q43.246876 42.840626 43.79375 42.465626Q44.35625 42.075 44.559376 41.5125Q44.7625 40.934376 44.7625 38.7L44.7625 34.325L47.5125 34.325L47.5125 44.7L44.965626 44.7ZM56.1375 41.403126L58.871876 41.85625Q58.35625 43.35625 57.215626 44.153126Q56.075 44.934376 54.371876 44.934376Q51.653126 44.934376 50.35625 43.16875Q49.340626 41.746876 49.340626 39.590626Q49.340626 37.0125 50.684376 35.559376Q52.028126 34.090626 54.090626 34.090626Q56.403126 34.090626 57.73125 35.621876Q59.075 37.153126 59.028126 40.309376L52.153126 40.309376Q52.184376 41.528126 52.809376 42.215626Q53.45 42.8875 54.3875 42.8875Q55.04375 42.8875 55.48125 42.54375Q55.91875 42.184376 56.1375 41.403126ZM56.29375 38.621876Q56.2625 37.434376 55.66875 36.825Q55.090626 36.2 54.2625 36.2Q53.35625 36.2 52.778126 36.840626Q52.184376 37.496876 52.2 38.621876L56.29375 38.621876ZM60.8875 45.3875L64.0125 45.7625Q64.09062 46.309376 64.37187 46.5125Q64.7625 46.809376 65.60625 46.809376Q66.68437 46.809376 67.21562 46.48125Q67.575 46.278126 67.7625 45.79375Q67.8875 45.45 67.8875 44.528126L67.8875 43.0125Q66.66875 44.7 64.79375 44.7Q62.7 44.7 61.48125 42.934376Q60.528126 41.528126 60.528126 39.45Q60.528126 36.840626 61.778126 35.465626Q63.028126 34.090626 64.90312 34.090626Q66.825 34.090626 68.075 35.778126L68.075 34.325L70.6375 34.325L70.6375 43.6375Q70.6375 45.465626 70.325 46.371876Q70.02812 47.29375 69.48125 47.809376Q68.93437 48.325 68.0125 48.60625Q67.10625 48.903126 65.71562 48.903126Q63.075 48.903126 61.965626 47.996876Q60.871876 47.10625 60.871876 45.715626Q60.871876 45.575 60.8875 45.3875ZM63.340626 39.29375Q63.340626 40.95 63.965626 41.715626Q64.60625 42.48125 65.54375 42.48125Q66.55937 42.48125 67.24687 41.7Q67.95 40.903126 67.95 39.371876Q67.95 37.7625 67.27812 36.98125Q66.62187 36.2 65.60625 36.2Q64.60625 36.2 63.965626 36.965626Q63.340626 37.73125 63.340626 39.29375ZM72.49687 39.371876Q72.49687 37.996876 73.16875 36.715626Q73.85625 35.434376 75.09062 34.7625Q76.325 34.090626 77.84062 34.090626Q80.2 34.090626 81.7 35.621876Q83.2 37.153126 83.2 39.48125Q83.2 41.840626 81.68437 43.3875Q80.16875 44.934376 77.85625 44.934376Q76.43437 44.934376 75.1375 44.29375Q73.85625 43.6375 73.16875 42.403126Q72.49687 41.153126 72.49687 39.371876ZM75.30937 39.5125Q75.30937 41.059376 76.04375 41.8875Q76.77812 42.7 77.85625 42.7Q78.93437 42.7 79.65312 41.8875Q80.3875 41.059376 80.3875 39.496876Q80.3875 37.965626 79.65312 37.153126Q78.93437 36.325 77.85625 36.325Q76.77812 36.325 76.04375 37.153126Q75.30937 37.965626 75.30937 39.5125ZM84.16875 41.746876L86.91875 41.325Q87.10625 42.121876 87.6375 42.54375Q88.16875 42.95 89.1375 42.95Q90.2 42.95 90.74687 42.559376Q91.10625 42.29375 91.10625 41.825Q91.10625 41.5125 90.90312 41.309376Q90.7 41.121876 89.99687 40.95Q86.66875 40.215626 85.77812 39.60625Q84.54375 38.778126 84.54375 37.278126Q84.54375 35.934376 85.60625 35.0125Q86.68437 34.090626 88.91875 34.090626Q91.04375 34.090626 92.075 34.79375Q93.12187 35.48125 93.5125 36.840626L90.91875 37.309376Q90.74687 36.715626 90.27812 36.3875Q89.825 36.059376 88.96562 36.059376Q87.8875 36.059376 87.41875 36.371876Q87.10625 36.590626 87.10625 36.91875Q87.10625 37.215626 87.37187 37.41875Q87.74687 37.7 89.93437 38.2Q92.12187 38.7 92.99687 39.41875Q93.85625 40.153126 93.85625 41.45Q93.85625 42.8875 92.66875 43.91875Q91.48125 44.934376 89.1375 44.934376Q87.02812 44.934376 85.77812 44.075Q84.54375 43.215626 84.16875 41.746876ZM102.05937 34.325L104.62187 34.325L104.62187 35.85625Q105.12187 35.075 105.96562 34.590626Q106.80937 34.090626 107.85625 34.090626Q109.65312 34.090626 110.90312 35.5125Q112.16875 36.91875 112.16875 39.45Q112.16875 42.059376 110.90312 43.496876Q109.6375 44.934376 107.825 44.934376Q106.96562 44.934376 106.2625 44.590626Q105.575 44.246876 104.80937 43.41875L104.80937 48.653126L102.05937 48.653126L102.05937 34.325ZM104.77812 39.340626Q104.77812 41.090626 105.46562 41.934376Q106.15312 42.7625 107.15312 42.7625Q108.10625 42.7625 108.74687 41.996876Q109.3875 41.215626 109.3875 39.48125Q109.3875 37.840626 108.73125 37.059376Q108.075 36.2625 107.10625 36.2625Q106.10625 36.2625 105.43437 37.04375Q104.77812 37.809376 104.77812 39.340626ZM113.49687 39.371876Q113.49687 37.996876 114.16875 36.715626Q114.85625 35.434376 116.09062 34.7625Q117.325 34.090626 118.84062 34.090626Q121.2 34.090626 122.7 35.621876Q124.2 37.153126 124.2 39.48125Q124.2 41.840626 122.68437 43.3875Q121.16875 44.934376 118.85625 44.934376Q117.43437 44.934376 116.1375 44.29375Q114.85625 43.6375 114.16875 42.403126Q113.49687 41.153126 113.49687 39.371876ZM116.30937 39.5125Q116.30937 41.059376 117.04375 41.8875Q117.77812 42.7 118.85625 42.7Q119.93437 42.7 120.65312 41.8875Q121.3875 41.059376 121.3875 39.496876Q121.3875 37.965626 120.65312 37.153126Q119.93437 36.325 118.85625 36.325Q117.77812 36.325 117.04375 37.153126Q116.30937 37.965626 116.30937 39.5125ZM128.7625 44.7L126.0125 44.7L126.0125 34.325L128.575 34.325L128.575 35.809376Q129.21562 34.7625 129.73125 34.434376Q130.2625 34.090626 130.93437 34.090626Q131.87187 34.090626 132.73125 34.60625L131.8875 36.996876Q131.2 36.559376 130.60625 36.559376Q130.02812 36.559376 129.62187 36.871876Q129.21562 37.184376 128.98125 38.028126Q128.7625 38.85625 128.7625 41.496876L128.7625 44.7ZM142.18437 37.496876L139.7 37.04375Q140.12187 35.54375 141.1375 34.825Q142.16875 34.090626 144.18437 34.090626Q146.02812 34.090626 146.91875 34.528126Q147.825 34.965626 148.18437 35.6375Q148.55937 36.29375 148.55937 38.090626L148.52812 41.29375Q148.52812 42.653126 148.65312 43.309376Q148.79375 43.95 149.15312 44.7L146.43437 44.7Q146.325 44.41875 146.16875 43.8875Q146.10625 43.6375 146.075 43.559376Q145.37187 44.246876 144.55937 44.590626Q143.7625 44.934376 142.85625 44.934376Q141.2625 44.934376 140.34062 44.075Q139.41875 43.2 139.41875 41.871876Q139.41875 40.98125 139.825 40.29375Q140.24687 39.60625 140.99687 39.246876Q141.7625 38.871876 143.2 38.60625Q145.12187 38.246876 145.85625 37.934376L145.85625 37.653126Q145.85625 36.871876 145.46562 36.54375Q145.075 36.2 143.99687 36.2Q143.2625 36.2 142.84062 36.48125Q142.43437 36.7625 142.18437 37.496876ZM145.85625 39.715626Q145.325 39.8875 144.18437 40.1375Q143.04375 40.3875 142.7 40.621876Q142.15312 40.996876 142.15312 41.590626Q142.15312 42.153126 142.575 42.575Q143.0125 42.996876 143.68437 42.996876Q144.41875 42.996876 145.09062 42.5125Q145.59062 42.1375 145.74687 41.60625Q145.85625 41.246876 145.85625 40.2625L145.85625 39.715626ZM160.575 44.7L157.825 44.7L157.825 39.403126Q157.825 37.73125 157.65312 37.246876Q157.48125 36.746876 157.075 36.48125Q156.68437 36.2 156.12187 36.2Q155.41875 36.2 154.84062 36.590626Q154.27812 36.98125 154.05937 37.621876Q153.85625 38.2625 153.85625 39.996876L153.85625 44.7L151.12187 44.7L151.12187 34.325L153.66875 34.325L153.66875 35.85625Q155.02812 34.090626 157.09062 34.090626Q157.99687 34.090626 158.74687 34.41875Q159.49687 34.746876 159.87187 35.2625Q160.2625 35.7625 160.41875 36.41875Q160.575 37.059376 160.575 38.246876L160.575 44.7ZM153.73125 32.934376L152.46562 32.934376Q152.46562 32.7 152.46562 32.575Q152.46562 31.559376 152.96562 31.0125Q153.46562 30.45 154.24687 30.45Q154.59062 30.45 154.87187 30.528126Q155.16875 30.590626 155.93437 30.95Q156.71562 31.29375 157.16875 31.29375Q157.48125 31.29375 157.68437 31.10625Q157.8875 30.903126 157.95 30.434376L159.21562 30.434376Q159.21562 31.7625 158.73125 32.325Q158.24687 32.8875 157.48125 32.8875Q157.15312 32.8875 156.825 32.825Q156.60625 32.7625 155.7 32.41875Q154.80937 32.075 154.40312 32.075Q154.09062 32.075 153.90312 32.278126Q153.73125 32.465626 153.73125 32.934376ZM162.49687 39.371876Q162.49687 37.996876 163.16875 36.715626Q163.85625 35.434376 165.09062 34.7625Q166.325 34.090626 167.84062 34.090626Q170.2 34.090626 171.7 35.621876Q173.2 37.153126 173.2 39.48125Q173.2 41.840626 171.68437 43.3875Q170.16875 44.934376 167.85625 44.934376Q166.43437 44.934376 165.1375 44.29375Q163.85625 43.6375 163.16875 42.403126Q162.49687 41.153126 162.49687 39.371876ZM165.30937 39.5125Q165.30937 41.059376 166.04375 41.8875Q166.77812 42.7 167.85625 42.7Q168.93437 42.7 169.65312 41.8875Q170.3875 41.059376 170.3875 39.496876Q170.3875 37.965626 169.65312 37.153126Q168.93437 36.325 167.85625 36.325Q166.77812 36.325 166.04375 37.153126Q165.30937 37.965626 165.30937 39.5125ZM190.65312 44.7L188.10625 44.7L188.10625 43.16875Q187.46562 44.059376 186.59062 44.496876Q185.73125 44.934376 184.85625 44.934376Q183.075 44.934376 181.79375 43.496876Q180.52812 42.059376 180.52812 39.48125Q180.52812 36.840626 181.7625 35.465626Q182.99687 34.090626 184.90312 34.090626Q186.6375 34.090626 187.90312 35.54375L187.90312 30.3875L190.65312 30.3875L190.65312 44.7ZM183.325 39.29375Q183.325 40.95 183.77812 41.684376Q184.45 42.7625 185.6375 42.7625Q186.59062 42.7625 187.24687 41.965626Q187.91875 41.153126 187.91875 39.559376Q187.91875 37.7625 187.2625 36.98125Q186.62187 36.2 185.62187 36.2Q184.6375 36.2 183.98125 36.98125Q183.325 37.746876 183.325 39.29375ZM199.1375 41.403126L201.87187 41.85625Q201.35625 43.35625 200.21562 44.153126Q199.075 44.934376 197.37187 44.934376Q194.65312 44.934376 193.35625 43.16875Q192.34062 41.746876 192.34062 39.590626Q192.34062 37.0125 193.68437 35.559376Q195.02812 34.090626 197.09062 34.090626Q199.40312 34.090626 200.73125 35.621876Q202.075 37.153126 202.02812 40.309376L195.15312 40.309376Q195.18437 41.528126 195.80937 42.215626Q196.45 42.8875 197.3875 42.8875Q198.04375 42.8875 198.48125 42.54375Q198.91875 42.184376 199.1375 41.403126ZM199.29375 38.621876Q199.2625 37.434376 198.66875 36.825Q198.09062 36.2 197.2625 36.2Q196.35625 36.2 195.77812 36.840626Q195.18437 37.496876 195.2 38.621876L199.29375 38.621876ZM210.05937 34.325L212.62187 34.325L212.62187 35.85625Q213.12187 35.075 213.96562 34.590626Q214.80937 34.090626 215.85625 34.090626Q217.65312 34.090626 218.90312 35.5125Q220.16875 36.91875 220.16875 39.45Q220.16875 42.059376 218.90312 43.496876Q217.6375 44.934376 215.825 44.934376Q214.96562 44.934376 214.2625 44.590626Q213.575 44.246876 212.80937 43.41875L212.80937 48.653126L210.05937 48.653126L210.05937 34.325ZM212.77812 39.340626Q212.77812 41.090626 213.46562 41.934376Q214.15312 42.7625 215.15312 42.7625Q216.10625 42.7625 216.74687 41.996876Q217.3875 41.215626 217.3875 39.48125Q217.3875 37.840626 216.73125 37.059376Q216.075 36.2625 215.10625 36.2625Q214.10625 36.2625 213.43437 37.04375Q212.77812 37.809376 212.77812 39.340626ZM228.96562 44.7L228.96562 43.153126Q228.40312 43.98125 227.46562 44.465626Q226.54375 44.934376 225.52812 44.934376Q224.48125 44.934376 223.65312 44.48125Q222.825 44.0125 222.45 43.184376Q222.075 42.35625 222.075 40.8875L222.075 34.325L224.825 34.325L224.825 39.090626Q224.825 41.278126 224.96562 41.778126Q225.12187 42.2625 225.5125 42.559376Q225.91875 42.840626 226.54375 42.840626Q227.24687 42.840626 227.79375 42.465626Q228.35625 42.075 228.55937 41.5125Q228.7625 40.934376 228.7625 38.7L228.7625 34.325L231.5125 34.325L231.5125 44.7L228.96562 44.7ZM234.0125 44.7L234.0125 30.3875L236.7625 30.3875L236.7625 35.54375Q238.02812 34.090626 239.77812 34.090626Q241.66875 34.090626 242.90312 35.465626Q244.15312 36.840626 244.15312 39.403126Q244.15312 42.059376 242.8875 43.496876Q241.62187 44.934376 239.80937 44.934376Q238.91875 44.934376 238.05937 44.496876Q237.2 44.04375 236.575 43.16875L236.575 44.7L234.0125 44.7ZM236.74687 39.29375Q236.74687 40.903126 237.24687 41.66875Q237.96562 42.7625 239.15312 42.7625Q240.05937 42.7625 240.7 41.996876Q241.34062 41.215626 241.34062 39.54375Q241.34062 37.7625 240.68437 36.98125Q240.04375 36.2 239.04375 36.2Q238.05937 36.2 237.40312 36.965626Q236.74687 37.73125 236.74687 39.29375ZM246.1375 44.7L246.1375 30.3875L248.8875 30.3875L248.8875 44.7L246.1375 44.7ZM251.1375 32.91875L251.1375 30.3875L253.8875 30.3875L253.8875 32.91875L251.1375 32.91875ZM251.1375 44.7L251.1375 34.325L253.8875 34.325L253.8875 44.7L251.1375 44.7ZM265.1844 37.3875L262.48126 37.8875Q262.34064 37.075 261.85626 36.66875Q261.3719 36.246876 260.60626 36.246876Q259.575 36.246876 258.96564 36.965626Q258.35626 37.66875 258.35626 39.325Q258.35626 41.16875 258.96564 41.934376Q259.59064 42.7 260.6375 42.7Q261.41876 42.7 261.91876 42.2625Q262.41876 41.809376 262.6219 40.73125L265.3094 41.184376Q264.90314 43.04375 263.7 43.996876Q262.5125 44.934376 260.5125 44.934376Q258.23126 44.934376 256.8719 43.496876Q255.52812 42.059376 255.52812 39.528126Q255.52812 36.95 256.8875 35.528126Q258.2469 34.090626 260.5594 34.090626Q262.45 34.090626 263.5594 34.91875Q264.6844 35.73125 265.1844 37.3875ZM269.1844 37.496876L266.7 37.04375Q267.1219 35.54375 268.1375 34.825Q269.16876 34.090626 271.1844 34.090626Q273.02814 34.090626 273.91876 34.528126Q274.825 34.965626 275.1844 35.6375Q275.5594 36.29375 275.5594 38.090626L275.52814 41.29375Q275.52814 42.653126 275.65314 43.309376Q275.79376 43.95 276.15314 44.7L273.4344 44.7Q273.325 44.41875 273.16876 43.8875Q273.10626 43.6375 273.075 43.559376Q272.3719 44.246876 271.5594 44.590626Q270.7625 44.934376 269.85626 44.934376Q268.2625 44.934376 267.34064 44.075Q266.41876 43.2 266.41876 41.871876Q266.41876 40.98125 266.825 40.29375Q267.2469 39.60625 267.9969 39.246876Q268.7625 38.871876 270.2 38.60625Q272.1219 38.246876 272.85626 37.934376L272.85626 37.653126Q272.85626 36.871876 272.46564 36.54375Q272.075 36.2 270.9969 36.2Q270.2625 36.2 269.84064 36.48125Q269.4344 36.7625 269.1844 37.496876ZM272.85626 39.715626Q272.325 39.8875 271.1844 40.1375Q270.04376 40.3875 269.7 40.621876Q269.15314 40.996876 269.15314 41.590626Q269.15314 42.153126 269.575 42.575Q270.0125 42.996876 270.6844 42.996876Q271.41876 42.996876 272.09064 42.5125Q272.59064 42.1375 272.7469 41.60625Q272.85626 41.246876 272.85626 40.2625L272.85626 39.715626ZM287.1844 37.3875L284.48126 37.8875Q284.34064 37.075 283.85626 36.66875Q283.3719 36.246876 282.60626 36.246876Q281.575 36.246876 280.96564 36.965626Q280.35626 37.66875 280.35626 39.325Q280.35626 41.16875 280.96564 41.934376Q281.59064 42.7 282.6375 42.7Q283.41876 42.7 283.91876 42.2625Q284.41876 41.809376 284.6219 40.73125L287.3094 41.184376Q286.90314 43.04375 285.7 43.996876Q284.5125 44.934376 282.5125 44.934376Q280.23126 44.934376 278.8719 43.496876Q277.52814 42.059376 277.52814 39.528126Q277.52814 36.95 278.8875 35.528126Q280.2469 34.090626 282.5594 34.090626Q284.45 34.090626 285.5594 34.91875Q286.6844 35.73125 287.1844 37.3875ZM289.1375 32.91875L289.1375 30.3875L291.8875 30.3875L291.8875 32.91875L289.1375 32.91875ZM289.1375 44.7L289.1375 34.325L291.8875 34.325L291.8875 44.7L289.1375 44.7ZM293.4969 39.371876Q293.4969 37.996876 294.16876 36.715626Q294.85626 35.434376 296.09064 34.7625Q297.325 34.090626 298.84064 34.090626Q301.2 34.090626 302.7 35.621876Q304.2 37.153126 304.2 39.48125Q304.2 41.840626 302.6844 43.3875Q301.16876 44.934376 298.85626 44.934376Q297.4344 44.934376 296.1375 44.29375Q294.85626 43.6375 294.16876 42.403126Q293.4969 41.153126 293.4969 39.371876ZM296.3094 39.5125Q296.3094 41.059376 297.04376 41.8875Q297.77814 42.7 298.85626 42.7Q299.9344 42.7 300.65314 41.8875Q301.3875 41.059376 301.3875 39.496876Q301.3875 37.965626 300.65314 37.153126Q299.9344 36.325 298.85626 36.325Q297.77814 36.325 297.04376 37.153126Q296.3094 37.965626 296.3094 39.5125ZM297.46564 33.059376L298.8094 30.1375L301.8875 30.1375L299.2 33.059376L297.46564 33.059376ZM315.575 44.7L312.825 44.7L312.825 39.403126Q312.825 37.73125 312.65314 37.246876Q312.48126 36.746876 312.075 36.48125Q311.6844 36.2 311.1219 36.2Q310.41876 36.2 309.84064 36.590626Q309.27814 36.98125 309.0594 37.621876Q308.85626 38.2625 308.85626 39.996876L308.85626 44.7L306.1219 44.7L306.1219 34.325L308.66876 34.325L308.66876 35.85625Q310.02814 34.090626 312.09064 34.090626Q312.9969 34.090626 313.7469 34.41875Q314.4969 34.746876 314.8719 35.2625Q315.2625 35.7625 315.41876 36.41875Q315.575 37.059376 315.575 38.246876L315.575 44.7Z" fill-rule="nonzero"/></svg>