<svg version="1.1" viewBox="0.0 0.0 830.0 514.0" fill="none" stroke="none" stroke-linecap="square" stroke-miterlimit="10" width="830" height="514" xmlns:xlink="http://www.w3.org/1999/xlink" xmlns="http://www.w3.org/2000/svg"><path fill="#ffffff" d="M0 0L830.0 0L830.0 514.0L0 514.0L0 0Z" fill-rule="nonzero"/><path stroke="#333333" stroke-width="1.0" stroke-linecap="butt" d="M52.5 461.5L804.5 461.5" fill-rule="nonzero"/><path stroke="#cccccc" stroke-width="1.0" stroke-linecap="butt" d="M52.5 443.5L804.5 443.5" fill-rule="nonzero"/><path stroke="#cccccc" stroke-width="1.0" stroke-linecap="butt" d="M52.5 426.5L804.5 426.5" fill-rule="nonzero"/><path stroke="#cccccc" stroke-width="1.0" stroke-linecap="butt" d="M52.5 408.5L804.5 408.5" fill-rule="nonzero"/><path stroke="#cccccc" stroke-width="1.0" stroke-linecap="butt" d="M52.5 390.5L804.5 390.5" fill-rule="nonzero"/><path stroke="#cccccc" stroke-width="1.0" stroke-linecap="butt" d="M52.5 373.5L804.5 373.5" fill-rule="nonzero"/><path stroke="#cccccc" stroke-width="1.0" stroke-linecap="butt" d="M52.5 355.5L804.5 355.5" fill-rule="nonzero"/><path stroke="#cccccc" stroke-width="1.0" stroke-linecap="butt" d="M52.5 338.5L804.5 338.5" fill-rule="nonzero"/><path stroke="#cccccc" stroke-width="1.0" stroke-linecap="butt" d="M52.5 320.5L804.5 320.5" fill-rule="nonzero"/><path stroke="#cccccc" stroke-width="1.0" stroke-linecap="butt" d="M52.5 302.5L804.5 302.5" fill-rule="nonzero"/><path stroke="#cccccc" stroke-width="1.0" stroke-linecap="butt" d="M52.5 285.5L804.5 285.5" fill-rule="nonzero"/><path stroke="#cccccc" stroke-width="1.0" stroke-linecap="butt" d="M52.5 267.5L804.5 267.5" fill-rule="nonzero"/><path stroke="#cccccc" stroke-width="1.0" stroke-linecap="butt" d="M52.5 249.5L804.5 249.5" fill-rule="nonzero"/><path stroke="#cccccc" stroke-width="1.0" stroke-linecap="butt" d="M52.5 232.5L804.5 232.5" fill-rule="nonzero"/><path stroke="#cccccc" stroke-width="1.0" stroke-linecap="butt" d="M52.5 214.5L804.5 214.5" fill-rule="nonzero"/><path stroke="#cccccc" stroke-width="1.0" stroke-linecap="butt" d="M52.5 197.5L804.5 197.5" fill-rule="nonzero"/><path stroke="#cccccc" stroke-width="1.0" stroke-linecap="butt" d="M52.5 179.5L804.5 179.5" fill-rule="nonzero"/><path stroke="#cccccc" stroke-width="1.0" stroke-linecap="butt" d="M52.5 161.5L804.5 161.5" fill-rule="nonzero"/><path stroke="#cccccc" stroke-width="1.0" stroke-linecap="butt" d="M52.5 144.5L804.5 144.5" fill-rule="nonzero"/><path stroke="#cccccc" stroke-width="1.0" stroke-linecap="butt" d="M52.5 126.5L804.5 126.5" fill-rule="nonzero"/><path stroke="#cccccc" stroke-width="1.0" stroke-linecap="butt" d="M52.5 109.5L804.5 109.5" fill-rule="nonzero"/><path stroke="#cccccc" stroke-width="1.0" stroke-linecap="butt" d="M52.5 91.5L804.5 91.5" fill-rule="nonzero"/><path stroke="#cccccc" stroke-width="1.0" stroke-linecap="butt" d="M52.5 73.5L804.5 73.5" fill-rule="nonzero"/><clipPath id="id_0"><path d="M52.7 73.833336L804.3 73.833336L804.3 461.3L52.7 461.3L52.7 73.833336Z" clip-rule="nonzero"/></clipPath><path stroke="#000000" stroke-width="2.0" stroke-linecap="butt" stroke-opacity="0.0" clip-path="url(#id_0)" d="M96.0 461.0L68.0 461.0L68.0 446.0C68.0 444.89542 68.89543 444.0 70.0 444.0L94.0 444.0C95.10457 444.0 96.0 444.89542 96.0 446.0Z" fill-rule="nonzero"/><path fill="#a64d79" clip-path="url(#id_0)" d="M96.0 461.0L68.0 461.0L68.0 446.0C68.0 444.89542 68.89543 444.0 70.0 444.0L94.0 444.0C95.10457 444.0 96.0 444.89542 96.0 446.0Z" fill-rule="nonzero"/><path stroke="#000000" stroke-width="2.0" stroke-linecap="butt" stroke-opacity="0.0" clip-path="url(#id_0)" d="M139.0 461.0L111.0 461.0L111.0 446.0C111.0 444.89542 111.89543 444.0 113.0 444.0L137.0 444.0C138.10457 444.0 139.0 444.89542 139.0 446.0Z" fill-rule="nonzero"/><path fill="#a64d79" clip-path="url(#id_0)" d="M139.0 461.0L111.0 461.0L111.0 446.0C111.0 444.89542 111.89543 444.0 113.0 444.0L137.0 444.0C138.10457 444.0 139.0 444.89542 139.0 446.0Z" fill-rule="nonzero"/><path stroke="#000000" stroke-width="2.0" stroke-linecap="butt" stroke-opacity="0.0" clip-path="url(#id_0)" d="M183.0 461.0L155.0 461.0L155.0 446.0C155.0 444.89542 155.89543 444.0 157.0 444.0L181.0 444.0C182.10457 444.0 183.0 444.89542 183.0 446.0Z" fill-rule="nonzero"/><path fill="#a64d79" clip-path="url(#id_0)" d="M183.0 461.0L155.0 461.0L155.0 446.0C155.0 444.89542 155.89543 444.0 157.0 444.0L181.0 444.0C182.10457 444.0 183.0 444.89542 183.0 446.0Z" fill-rule="nonzero"/><path stroke="#000000" stroke-width="2.0" stroke-linecap="butt" stroke-opacity="0.0" clip-path="url(#id_0)" d="M226.0 461.0L198.0 461.0L198.0 428.0C198.0 426.89542 198.89543 426.0 200.0 426.0L224.0 426.0C225.10457 426.0 226.0 426.89542 226.0 428.0Z" fill-rule="nonzero"/><path fill="#a64d79" clip-path="url(#id_0)" d="M226.0 461.0L198.0 461.0L198.0 428.0C198.0 426.89542 198.89543 426.0 200.0 426.0L224.0 426.0C225.10457 426.0 226.0 426.89542 226.0 428.0Z" fill-rule="nonzero"/><path stroke="#000000" stroke-width="2.0" stroke-linecap="butt" stroke-opacity="0.0" clip-path="url(#id_0)" d="M269.0 461.0L241.0 461.0L241.0 446.0C241.0 444.89542 241.89543 444.0 243.0 444.0L267.0 444.0C268.10458 444.0 269.0 444.89542 269.0 446.0Z" fill-rule="nonzero"/><path fill="#a64d79" clip-path="url(#id_0)" d="M269.0 461.0L241.0 461.0L241.0 446.0C241.0 444.89542 241.89543 444.0 243.0 444.0L267.0 444.0C268.10458 444.0 269.0 444.89542 269.0 446.0Z" fill-rule="nonzero"/><path stroke="#000000" stroke-width="2.0" stroke-linecap="butt" stroke-opacity="0.0" clip-path="url(#id_0)" d="M313.0 461.0L285.0 461.0L285.0 410.0C285.0 408.89542 285.89542 408.0 287.0 408.0L311.0 408.0C312.10458 408.0 313.0 408.89542 313.0 410.0Z" fill-rule="nonzero"/><path fill="#a64d79" clip-path="url(#id_0)" d="M313.0 461.0L285.0 461.0L285.0 410.0C285.0 408.89542 285.89542 408.0 287.0 408.0L311.0 408.0C312.10458 408.0 313.0 408.89542 313.0 410.0Z" fill-rule="nonzero"/><path stroke="#000000" stroke-width="2.0" stroke-linecap="butt" stroke-opacity="0.0" clip-path="url(#id_0)" d="M356.0 461.0L328.0 461.0L328.0 358.0C328.0 356.89542 328.89542 356.0 330.0 356.0L354.0 356.0C355.10458 356.0 356.0 356.89542 356.0 358.0Z" fill-rule="nonzero"/><path fill="#a64d79" clip-path="url(#id_0)" d="M356.0 461.0L328.0 461.0L328.0 358.0C328.0 356.89542 328.89542 356.0 330.0 356.0L354.0 356.0C355.10458 356.0 356.0 356.89542 356.0 358.0Z" fill-rule="nonzero"/><path stroke="#000000" stroke-width="2.0" stroke-linecap="butt" stroke-opacity="0.0" clip-path="url(#id_0)" d="M399.0 461.0L371.0 461.0L371.0 375.0C371.0 373.89542 371.89542 373.0 373.0 373.0L397.0 373.0C398.10458 373.0 399.0 373.89542 399.0 375.0Z" fill-rule="nonzero"/><path fill="#a64d79" clip-path="url(#id_0)" d="M399.0 461.0L371.0 461.0L371.0 375.0C371.0 373.89542 371.89542 373.0 373.0 373.0L397.0 373.0C398.10458 373.0 399.0 373.89542 399.0 375.0Z" fill-rule="nonzero"/><path stroke="#000000" stroke-width="2.0" stroke-linecap="butt" stroke-opacity="0.0" clip-path="url(#id_0)" d="M443.0 461.0L415.0 461.0L415.0 340.0C415.0 338.89542 415.89542 338.0 417.0 338.0L441.0 338.0C442.10458 338.0 443.0 338.89542 443.0 340.0Z" fill-rule="nonzero"/><path fill="#a64d79" clip-path="url(#id_0)" d="M443.0 461.0L415.0 461.0L415.0 340.0C415.0 338.89542 415.89542 338.0 417.0 338.0L441.0 338.0C442.10458 338.0 443.0 338.89542 443.0 340.0Z" fill-rule="nonzero"/><path stroke="#000000" stroke-width="2.0" stroke-linecap="butt" stroke-opacity="0.0" clip-path="url(#id_0)" d="M486.0 461.0L458.0 461.0L458.0 287.0C458.0 285.89542 458.89542 285.0 460.0 285.0L484.0 285.0C485.10458 285.0 486.0 285.89542 486.0 287.0Z" fill-rule="nonzero"/><path fill="#a64d79" clip-path="url(#id_0)" d="M486.0 461.0L458.0 461.0L458.0 287.0C458.0 285.89542 458.89542 285.0 460.0 285.0L484.0 285.0C485.10458 285.0 486.0 285.89542 486.0 287.0Z" fill-rule="nonzero"/><path stroke="#000000" stroke-width="2.0" stroke-linecap="butt" stroke-opacity="0.0" clip-path="url(#id_0)" d="M529.0 461.0L501.0 461.0L501.0 93.0C501.0 91.89543 501.89542 91.0 503.0 91.0L527.0 91.0C528.10455 91.0 529.0 91.89543 529.0 93.0Z" fill-rule="nonzero"/><path fill="#a64d79" clip-path="url(#id_0)" d="M529.0 461.0L501.0 461.0L501.0 93.0C501.0 91.89543 501.89542 91.0 503.0 91.0L527.0 91.0C528.10455 91.0 529.0 91.89543 529.0 93.0Z" fill-rule="nonzero"/><path stroke="#000000" stroke-width="2.0" stroke-linecap="butt" stroke-opacity="0.0" clip-path="url(#id_0)" d="M572.0 461.0L544.0 461.0L544.0 305.0C544.0 303.89542 544.89545 303.0 546.0 303.0L570.0 303.0C571.10455 303.0 572.0 303.89542 572.0 305.0Z" fill-rule="nonzero"/><path fill="#a64d79" clip-path="url(#id_0)" d="M572.0 461.0L544.0 461.0L544.0 305.0C544.0 303.89542 544.89545 303.0 546.0 303.0L570.0 303.0C571.10455 303.0 572.0 303.89542 572.0 305.0Z" fill-rule="nonzero"/><path stroke="#000000" stroke-width="2.0" stroke-linecap="butt" stroke-opacity="0.0" clip-path="url(#id_0)" d="M616.0 461.0L588.0 461.0L588.0 234.0C588.0 232.89543 588.89545 232.0 590.0 232.0L614.0 232.0C615.10455 232.0 616.0 232.89543 616.0 234.0Z" fill-rule="nonzero"/><path fill="#a64d79" clip-path="url(#id_0)" d="M616.0 461.0L588.0 461.0L588.0 234.0C588.0 232.89543 588.89545 232.0 590.0 232.0L614.0 232.0C615.10455 232.0 616.0 232.89543 616.0 234.0Z" fill-rule="nonzero"/><path stroke="#000000" stroke-width="2.0" stroke-linecap="butt" stroke-opacity="0.0" clip-path="url(#id_0)" d="M659.0 461.0L631.0 461.0L631.0 76.0C631.0 74.89543 631.89545 74.0 633.0 74.0L657.0 74.0C658.10455 74.0 659.0 74.89543 659.0 76.0Z" fill-rule="nonzero"/><path fill="#a64d79" clip-path="url(#id_0)" d="M659.0 461.0L631.0 461.0L631.0 76.0C631.0 74.89543 631.89545 74.0 633.0 74.0L657.0 74.0C658.10455 74.0 659.0 74.89543 659.0 76.0Z" fill-rule="nonzero"/><path stroke="#000000" stroke-width="2.0" stroke-linecap="butt" stroke-opacity="0.0" clip-path="url(#id_0)" d="M702.0 461.0L674.0 461.0L674.0 93.0C674.0 91.89543 674.89545 91.0 676.0 91.0L700.0 91.0C701.10455 91.0 702.0 91.89543 702.0 93.0Z" fill-rule="nonzero"/><path fill="#a64d79" clip-path="url(#id_0)" d="M702.0 461.0L674.0 461.0L674.0 93.0C674.0 91.89543 674.89545 91.0 676.0 91.0L700.0 91.0C701.10455 91.0 702.0 91.89543 702.0 93.0Z" fill-rule="nonzero"/><path stroke="#000000" stroke-width="2.0" stroke-linecap="butt" stroke-opacity="0.0" clip-path="url(#id_0)" d="M746.0 461.0L718.0 461.0L718.0 182.0C718.0 180.89543 718.89545 180.0 720.0 180.0L744.0 180.0C745.10455 180.0 746.0 180.89543 746.0 182.0Z" fill-rule="nonzero"/><path fill="#a64d79" clip-path="url(#id_0)" d="M746.0 461.0L718.0 461.0L718.0 182.0C718.0 180.89543 718.89545 180.0 720.0 180.0L744.0 180.0C745.10455 180.0 746.0 180.89543 746.0 182.0Z" fill-rule="nonzero"/><path stroke="#000000" stroke-width="2.0" stroke-linecap="butt" stroke-opacity="0.0" clip-path="url(#id_0)" d="M789.0 461.0L761.0 461.0L761.0 270.0C761.0 268.89542 761.89545 268.0 763.0 268.0L787.0 268.0C788.10455 268.0 789.0 268.89542 789.0 270.0Z" fill-rule="nonzero"/><path fill="#a64d79" clip-path="url(#id_0)" d="M789.0 461.0L761.0 461.0L761.0 270.0C761.0 268.89542 761.89545 268.0 763.0 268.0L787.0 268.0C788.10455 268.0 789.0 268.89542 789.0 270.0Z" fill-rule="nonzero"/><path fill="#000000" d="M40.2 461.0656Q40.2 459.53436 40.5125 458.6125Q40.825 457.675 41.434376 457.175Q42.059376 456.675 42.996876 456.675Q43.684376 456.675 44.2 456.95624Q44.73125 457.2375 45.075 457.76874Q45.41875 458.28436 45.60625 459.03436Q45.79375 459.78436 45.79375 461.0656Q45.79375 462.58124 45.48125 463.5031Q45.184376 464.425 44.559376 464.9406Q43.95 465.4406 42.996876 465.4406Q41.7625 465.4406 41.04375 464.55Q40.2 463.4875 40.2 461.0656ZM41.278126 461.0656Q41.278126 463.175 41.778126 463.8781Q42.278126 464.58124 42.996876 464.58124Q43.73125 464.58124 44.215626 463.8781Q44.715626 463.175 44.715626 461.0656Q44.715626 458.9406 44.215626 458.2531Q43.73125 457.55 42.98125 457.55Q42.2625 457.55 41.825 458.15936Q41.278126 458.9406 41.278126 461.0656Z" fill-rule="nonzero"/><path fill="#000000" d="M44.16875 447.68787L43.121876 447.68787L43.121876 440.96912Q42.73125 441.3285 42.10625 441.7035Q41.496876 442.06287 41.0125 442.23474L41.0125 441.21912Q41.8875 440.79724 42.54375 440.21912Q43.215626 439.62537 43.496876 439.06287L44.16875 439.06287L44.16875 447.68787Z" fill-rule="nonzero"/><path fill="#000000" d="M45.746876 429.06012L45.746876 430.07574L40.059376 430.07574Q40.059376 429.70074 40.184376 429.34137Q40.403126 428.76324 40.871876 428.20074Q41.35625 427.63824 42.2625 426.90387Q43.66875 425.74762 44.153126 425.07574Q44.653126 424.40387 44.653126 423.81012Q44.653126 423.18512 44.2 422.76324Q43.746876 422.32574 43.028126 422.32574Q42.2625 422.32574 41.809376 422.77887Q41.35625 423.232 41.340626 424.0445L40.2625 423.93512Q40.371876 422.71637 41.090626 422.09137Q41.825 421.45074 43.059376 421.45074Q44.29375 421.45074 45.0125 422.13824Q45.73125 422.82574 45.73125 423.84137Q45.73125 424.357 45.5125 424.857Q45.309376 425.34137 44.809376 425.90387Q44.325 426.45074 43.2 427.40387Q42.246876 428.20074 41.965626 428.49762Q41.7 428.77887 41.528126 429.06012L45.746876 429.06012Z" fill-rule="nonzero"/><path fill="#000000" d="M40.2 410.198L41.2625 410.05737Q41.434376 410.948 41.871876 411.35425Q42.309376 411.74487 42.934376 411.74487Q43.684376 411.74487 44.2 411.22925Q44.715626 410.71362 44.715626 409.948Q44.715626 409.22925 44.23125 408.7605Q43.7625 408.27612 43.028126 408.27612Q42.73125 408.27612 42.278126 408.40112L42.403126 407.46362Q42.5125 407.47925 42.575 407.47925Q43.246876 407.47925 43.778126 407.1355Q44.325 406.77612 44.325 406.04175Q44.325 405.46362 43.934376 405.08862Q43.54375 404.698 42.91875 404.698Q42.309376 404.698 41.8875 405.08862Q41.48125 405.47925 41.371876 406.24487L40.309376 406.05737Q40.496876 405.0105 41.184376 404.43237Q41.871876 403.83862 42.8875 403.83862Q43.590626 403.83862 44.184376 404.15112Q44.778126 404.448 45.090626 404.96362Q45.403126 405.47925 45.403126 406.073Q45.403126 406.61987 45.10625 407.08862Q44.809376 407.54175 44.23125 407.80737Q44.98125 407.97925 45.403126 408.54175Q45.825 409.08862 45.825 409.93237Q45.825 411.05737 44.996876 411.83862Q44.184376 412.61987 42.934376 412.61987Q41.809376 412.61987 41.059376 411.948Q40.309376 411.2605 40.2 410.198Z" fill-rule="nonzero"/><path fill="#000000" d="M43.575 394.8515L43.575 392.789L39.85625 392.789L39.85625 391.82025L43.778126 386.25775L44.6375 386.25775L44.6375 391.82025L45.79375 391.82025L45.79375 392.789L44.6375 392.789L44.6375 394.8515L43.575 394.8515ZM43.575 391.82025L43.575 387.96088L40.8875 391.82025L43.575 391.82025Z" fill-rule="nonzero"/><path fill="#000000" d="M40.2 374.98938L41.309376 374.89563Q41.434376 375.70813 41.871876 376.11438Q42.325 376.52063 42.965626 376.52063Q43.715626 376.52063 44.246876 375.9425Q44.778126 375.36438 44.778126 374.42688Q44.778126 373.52063 44.2625 373.005Q43.7625 372.47375 42.934376 372.47375Q42.434376 372.47375 42.0125 372.70813Q41.60625 372.9425 41.371876 373.30188L40.3875 373.17688L41.215626 368.77063L45.496876 368.77063L45.496876 369.77063L42.059376 369.77063L41.60625 372.08313Q42.371876 371.53625 43.215626 371.53625Q44.340626 371.53625 45.10625 372.3175Q45.8875 373.09875 45.8875 374.33313Q45.8875 375.48938 45.215626 376.34875Q44.3875 377.38 42.965626 377.38Q41.79375 377.38 41.04375 376.72375Q40.309376 376.0675 40.2 374.98938Z" fill-rule="nonzero"/><path fill="#000000" d="M45.66875 353.14288L44.621876 353.221Q44.48125 352.596 44.23125 352.31476Q43.79375 351.86163 43.16875 351.86163Q42.66875 351.86163 42.278126 352.14288Q41.79375 352.51788 41.496876 353.221Q41.215626 353.9085 41.2 355.18976Q41.575 354.61163 42.121876 354.33038Q42.684376 354.04913 43.29375 354.04913Q44.340626 354.04913 45.075 354.83038Q45.825 355.61163 45.825 356.83038Q45.825 357.64288 45.465626 358.346Q45.121876 359.0335 44.5125 359.4085Q43.903126 359.76788 43.1375 359.76788Q41.809376 359.76788 40.98125 358.79913Q40.153126 357.83038 40.153126 355.61163Q40.153126 353.11163 41.075 351.98663Q41.871876 351.00226 43.23125 351.00226Q44.246876 351.00226 44.8875 351.58038Q45.54375 352.14288 45.66875 353.14288ZM41.371876 356.846Q41.371876 357.39288 41.590626 357.89288Q41.825 358.37726 42.23125 358.64288Q42.653126 358.9085 43.121876 358.9085Q43.778126 358.9085 44.2625 358.37726Q44.746876 357.83038 44.746876 356.9085Q44.746876 356.01788 44.2625 355.50226Q43.79375 354.98663 43.075 354.98663Q42.35625 354.98663 41.85625 355.50226Q41.371876 356.01788 41.371876 356.846Z" fill-rule="nonzero"/><path fill="#000000" d="M40.2625 334.5464L40.2625 333.53076L45.825 333.53076L45.825 334.3589Q45.0125 335.2339 44.2 336.687Q43.403126 338.1245 42.965626 339.65576Q42.6375 340.7339 42.559376 342.01514L41.465626 342.01514Q41.48125 340.9995 41.85625 339.562Q42.246876 338.1245 42.95 336.7964Q43.66875 335.46826 44.48125 334.5464L40.2625 334.5464Z" fill-rule="nonzero"/><path fill="#000000" d="M41.825 319.74677Q41.16875 319.49677 40.840626 319.05927Q40.528126 318.60614 40.528126 317.99677Q40.528126 317.05927 41.2 316.41864Q41.8875 315.778 42.996876 315.778Q44.121876 315.778 44.809376 316.43427Q45.496876 317.0905 45.496876 318.028Q45.496876 318.62177 45.184376 319.05927Q44.871876 319.49677 44.23125 319.74677Q45.028126 319.99677 45.434376 320.5749Q45.840626 321.153 45.840626 321.9499Q45.840626 323.04364 45.059376 323.79364Q44.29375 324.54364 43.0125 324.54364Q41.746876 324.54364 40.965626 323.79364Q40.184376 323.04364 40.184376 321.91864Q40.184376 321.0749 40.60625 320.5124Q41.04375 319.9499 41.825 319.74677ZM41.60625 317.9499Q41.60625 318.55927 41.996876 318.9499Q42.403126 319.3405 43.028126 319.3405Q43.6375 319.3405 44.028126 318.9655Q44.41875 318.5749 44.41875 318.0124Q44.41875 317.43427 44.0125 317.04364Q43.60625 316.6374 43.0125 316.6374Q42.403126 316.6374 41.996876 317.028Q41.60625 317.41864 41.60625 317.9499ZM41.278126 321.91864Q41.278126 322.37177 41.48125 322.79364Q41.7 323.2155 42.121876 323.4499Q42.54375 323.68427 43.028126 323.68427Q43.778126 323.68427 44.2625 323.1999Q44.7625 322.7155 44.7625 321.9655Q44.7625 321.1999 44.2625 320.6999Q43.7625 320.1999 42.996876 320.1999Q42.246876 320.1999 41.7625 320.6999Q41.278126 321.18427 41.278126 321.91864Z" fill-rule="nonzero"/><path fill="#000000" d="M40.35625 304.80655L41.371876 304.7128Q41.496876 305.43155 41.85625 305.75967Q42.23125 306.07217 42.79375 306.07217Q43.278126 306.07217 43.6375 305.85342Q44.0125 305.61905 44.246876 305.25967Q44.48125 304.88467 44.6375 304.25967Q44.79375 303.61905 44.79375 302.9628Q44.79375 302.88467 44.79375 302.74405Q44.48125 303.24405 43.934376 303.57217Q43.3875 303.88467 42.746876 303.88467Q41.66875 303.88467 40.934376 303.11905Q40.2 302.3378 40.2 301.07217Q40.2 299.75967 40.965626 298.9628Q41.746876 298.16592 42.903126 298.16592Q43.73125 298.16592 44.41875 298.61905Q45.121876 299.07217 45.48125 299.91592Q45.840626 300.74405 45.840626 302.32217Q45.840626 303.9628 45.48125 304.94717Q45.1375 305.91592 44.41875 306.43155Q43.715626 306.93155 42.778126 306.93155Q41.7625 306.93155 41.121876 306.38467Q40.48125 305.82217 40.35625 304.80655ZM44.66875 301.00967Q44.66875 300.10342 44.184376 299.57217Q43.715626 299.04092 43.028126 299.04092Q42.325 299.04092 41.79375 299.61905Q41.278126 300.18155 41.278126 301.10342Q41.278126 301.91592 41.778126 302.43155Q42.278126 302.94717 42.996876 302.94717Q43.73125 302.94717 44.2 302.43155Q44.66875 301.91592 44.66875 301.00967Z" fill-rule="nonzero"/><path fill="#000000" d="M37.16875 289.1788L36.121876 289.1788L36.121876 282.46005Q35.73125 282.81943 35.10625 283.19443Q34.496876 283.5538 34.0125 283.72568L34.0125 282.71005Q34.8875 282.28818 35.54375 281.71005Q36.215626 281.1163 36.496876 280.5538L37.16875 280.5538L37.16875 289.1788ZM40.2 284.94443Q40.2 283.41318 40.5125 282.4913Q40.825 281.5538 41.434376 281.0538Q42.059376 280.5538 42.996876 280.5538Q43.684376 280.5538 44.2 280.83505Q44.73125 281.1163 45.075 281.64755Q45.41875 282.16318 45.60625 282.91318Q45.79375 283.66318 45.79375 284.94443Q45.79375 286.46005 45.48125 287.38193Q45.184376 288.3038 44.559376 288.81943Q43.95 289.31943 42.996876 289.31943Q41.7625 289.31943 41.04375 288.4288Q40.2 287.3663 40.2 284.94443ZM41.278126 284.94443Q41.278126 287.0538 41.778126 287.75693Q42.278126 288.46005 42.996876 288.46005Q43.73125 288.46005 44.215626 287.75693Q44.715626 287.0538 44.715626 284.94443Q44.715626 282.81943 44.215626 282.13193Q43.73125 281.4288 42.98125 281.4288Q42.2625 281.4288 41.825 282.03818Q41.278126 282.81943 41.278126 284.94443Z" fill-rule="nonzero"/><path fill="#000000" d="M37.16875 271.56668L36.121876 271.56668L36.121876 264.84793Q35.73125 265.2073 35.10625 265.5823Q34.496876 265.94168 34.0125 266.11356L34.0125 265.09793Q34.8875 264.67606 35.54375 264.09793Q36.215626 263.50418 36.496876 262.94168L37.16875 262.94168L37.16875 271.56668ZM44.16875 271.56668L43.121876 271.56668L43.121876 264.84793Q42.73125 265.2073 42.10625 265.5823Q41.496876 265.94168 41.0125 266.11356L41.0125 265.09793Q41.8875 264.67606 42.54375 264.09793Q43.215626 263.50418 43.496876 262.94168L44.16875 262.94168L44.16875 271.56668Z" fill-rule="nonzero"/><path fill="#000000" d="M37.16875 253.95454L36.121876 253.95454L36.121876 247.2358Q35.73125 247.59517 35.10625 247.97017Q34.496876 248.32954 34.0125 248.50142L34.0125 247.4858Q34.8875 247.06392 35.54375 246.4858Q36.215626 245.89204 36.496876 245.32954L37.16875 245.32954L37.16875 253.95454ZM45.746876 252.93892L45.746876 253.95454L40.059376 253.95454Q40.059376 253.57954 40.184376 253.22017Q40.403126 252.64204 40.871876 252.07954Q41.35625 251.51704 42.2625 250.78267Q43.66875 249.62642 44.153126 248.95454Q44.653126 248.28267 44.653126 247.68892Q44.653126 247.06392 44.2 246.64204Q43.746876 246.20454 43.028126 246.20454Q42.2625 246.20454 41.809376 246.65767Q41.35625 247.1108 41.340626 247.9233L40.2625 247.81392Q40.371876 246.59517 41.090626 245.97017Q41.825 245.32954 43.059376 245.32954Q44.29375 245.32954 45.0125 246.01704Q45.73125 246.70454 45.73125 247.72017Q45.73125 248.2358 45.5125 248.7358Q45.309376 249.22017 44.809376 249.78267Q44.325 250.32954 43.2 251.28267Q42.246876 252.07954 41.965626 252.37642Q41.7 252.65767 41.528126 252.93892L45.746876 252.93892Z" fill-rule="nonzero"/><path fill="#000000" d="M37.16875 236.34242L36.121876 236.34242L36.121876 229.62367Q35.73125 229.98305 35.10625 230.35805Q34.496876 230.71742 34.0125 230.8893L34.0125 229.87367Q34.8875 229.4518 35.54375 228.87367Q36.215626 228.27992 36.496876 227.71742L37.16875 227.71742L37.16875 236.34242ZM40.2 234.0768L41.2625 233.93617Q41.434376 234.8268 41.871876 235.23305Q42.309376 235.62367 42.934376 235.62367Q43.684376 235.62367 44.2 235.10805Q44.715626 234.59242 44.715626 233.8268Q44.715626 233.10805 44.23125 232.6393Q43.7625 232.15492 43.028126 232.15492Q42.73125 232.15492 42.278126 232.27992L42.403126 231.34242Q42.5125 231.35805 42.575 231.35805Q43.246876 231.35805 43.778126 231.0143Q44.325 230.65492 44.325 229.92055Q44.325 229.34242 43.934376 228.96742Q43.54375 228.5768 42.91875 228.5768Q42.309376 228.5768 41.8875 228.96742Q41.48125 229.35805 41.371876 230.12367L40.309376 229.93617Q40.496876 228.8893 41.184376 228.31117Q41.871876 227.71742 42.8875 227.71742Q43.590626 227.71742 44.184376 228.02992Q44.778126 228.3268 45.090626 228.84242Q45.403126 229.35805 45.403126 229.9518Q45.403126 230.49867 45.10625 230.96742Q44.809376 231.42055 44.23125 231.68617Q44.98125 231.85805 45.403126 232.42055Q45.825 232.96742 45.825 233.81117Q45.825 234.93617 44.996876 235.71742Q44.184376 236.49867 42.934376 236.49867Q41.809376 236.49867 41.059376 235.8268Q40.309376 235.1393 40.2 234.0768Z" fill-rule="nonzero"/><path fill="#000000" d="M37.16875 218.7303L36.121876 218.7303L36.121876 212.01155Q35.73125 212.37093 35.10625 212.74593Q34.496876 213.1053 34.0125 213.27718L34.0125 212.26155Q34.8875 211.83968 35.54375 211.26155Q36.215626 210.6678 36.496876 210.1053L37.16875 210.1053L37.16875 218.7303ZM43.575 218.7303L43.575 216.6678L39.85625 216.6678L39.85625 215.69905L43.778126 210.13655L44.6375 210.13655L44.6375 215.69905L45.79375 215.69905L45.79375 216.6678L44.6375 216.6678L44.6375 218.7303L43.575 218.7303ZM43.575 215.69905L43.575 211.83968L40.8875 215.69905L43.575 215.69905Z" fill-rule="nonzero"/><path fill="#000000" d="M37.16875 201.11818L36.121876 201.11818L36.121876 194.39943Q35.73125 194.7588 35.10625 195.1338Q34.496876 195.49318 34.0125 195.66505L34.0125 194.64943Q34.8875 194.22755 35.54375 193.64943Q36.215626 193.05568 36.496876 192.49318L37.16875 192.49318L37.16875 201.11818ZM40.2 198.86818L41.309376 198.77443Q41.434376 199.58693 41.871876 199.99318Q42.325 200.39943 42.965626 200.39943Q43.715626 200.39943 44.246876 199.8213Q44.778126 199.24318 44.778126 198.30568Q44.778126 197.39943 44.2625 196.8838Q43.7625 196.35255 42.934376 196.35255Q42.434376 196.35255 42.0125 196.58693Q41.60625 196.8213 41.371876 197.18068L40.3875 197.05568L41.215626 192.64943L45.496876 192.64943L45.496876 193.64943L42.059376 193.64943L41.60625 195.96193Q42.371876 195.41505 43.215626 195.41505Q44.340626 195.41505 45.10625 196.1963Q45.8875 196.97755 45.8875 198.21193Q45.8875 199.36818 45.215626 200.22755Q44.3875 201.2588 42.965626 201.2588Q41.79375 201.2588 41.04375 200.60255Q40.309376 199.9463 40.2 198.86818Z" fill-rule="nonzero"/><path fill="#000000" d="M37.16875 183.50606L36.121876 183.50606L36.121876 176.78731Q35.73125 177.14668 35.10625 177.52168Q34.496876 177.88106 34.0125 178.05293L34.0125 177.03731Q34.8875 176.61543 35.54375 176.03731Q36.215626 175.44356 36.496876 174.88106L37.16875 174.88106L37.16875 183.50606ZM45.66875 177.02168L44.621876 177.09981Q44.48125 176.47481 44.23125 176.19356Q43.79375 175.74043 43.16875 175.74043Q42.66875 175.74043 42.278126 176.02168Q41.79375 176.39668 41.496876 177.09981Q41.215626 177.78731 41.2 179.06856Q41.575 178.49043 42.121876 178.20918Q42.684376 177.92793 43.29375 177.92793Q44.340626 177.92793 45.075 178.70918Q45.825 179.49043 45.825 180.70918Q45.825 181.52168 45.465626 182.22481Q45.121876 182.91231 44.5125 183.28731Q43.903126 183.64668 43.1375 183.64668Q41.809376 183.64668 40.98125 182.67793Q40.153126 181.70918 40.153126 179.49043Q40.153126 176.99043 41.075 175.86543Q41.871876 174.88106 43.23125 174.88106Q44.246876 174.88106 44.8875 175.45918Q45.54375 176.02168 45.66875 177.02168ZM41.371876 180.72481Q41.371876 181.27168 41.590626 181.77168Q41.825 182.25606 42.23125 182.52168Q42.653126 182.78731 43.121876 182.78731Q43.778126 182.78731 44.2625 182.25606Q44.746876 181.70918 44.746876 180.78731Q44.746876 179.89668 44.2625 179.38106Q43.79375 178.86543 43.075 178.86543Q42.35625 178.86543 41.85625 179.38106Q41.371876 179.89668 41.371876 180.72481Z" fill-rule="nonzero"/><path fill="#000000" d="M37.16875 165.89394L36.121876 165.89394L36.121876 159.17519Q35.73125 159.53456 35.10625 159.90956Q34.496876 160.26894 34.0125 160.44081L34.0125 159.42519Q34.8875 159.00331 35.54375 158.42519Q36.215626 157.83144 36.496876 157.26894L37.16875 157.26894L37.16875 165.89394ZM40.2625 158.42519L40.2625 157.40956L45.825 157.40956L45.825 158.23769Q45.0125 159.11269 44.2 160.56581Q43.403126 162.00331 42.965626 163.53456Q42.6375 164.61269 42.559376 165.89394L41.465626 165.89394Q41.48125 164.87831 41.85625 163.44081Q42.246876 162.00331 42.95 160.67519Q43.66875 159.34706 44.48125 158.42519L40.2625 158.42519Z" fill-rule="nonzero"/><path fill="#000000" d="M37.16875 148.28181L36.121876 148.28181L36.121876 141.56306Q35.73125 141.92244 35.10625 142.29744Q34.496876 142.65681 34.0125 142.82869L34.0125 141.81306Q34.8875 141.39119 35.54375 140.81306Q36.215626 140.21931 36.496876 139.65681L37.16875 139.65681L37.16875 148.28181ZM41.825 143.62556Q41.16875 143.37556 40.840626 142.93806Q40.528126 142.48494 40.528126 141.87556Q40.528126 140.93806 41.2 140.29744Q41.8875 139.65681 42.996876 139.65681Q44.121876 139.65681 44.809376 140.31306Q45.496876 140.96931 45.496876 141.90681Q45.496876 142.50056 45.184376 142.93806Q44.871876 143.37556 44.23125 143.62556Q45.028126 143.87556 45.434376 144.45369Q45.840626 145.03181 45.840626 145.82869Q45.840626 146.92244 45.059376 147.67244Q44.29375 148.42244 43.0125 148.42244Q41.746876 148.42244 40.965626 147.67244Q40.184376 146.92244 40.184376 145.79744Q40.184376 144.95369 40.60625 144.39119Q41.04375 143.82869 41.825 143.62556ZM41.60625 141.82869Q41.60625 142.43806 41.996876 142.82869Q42.403126 143.21931 43.028126 143.21931Q43.6375 143.21931 44.028126 142.84431Q44.41875 142.45369 44.41875 141.89119Q44.41875 141.31306 44.0125 140.92244Q43.60625 140.51619 43.0125 140.51619Q42.403126 140.51619 41.996876 140.90681Q41.60625 141.29744 41.60625 141.82869ZM41.278126 145.79744Q41.278126 146.25056 41.48125 146.67244Q41.7 147.09431 42.121876 147.32869Q42.54375 147.56306 43.028126 147.56306Q43.778126 147.56306 44.2625 147.07869Q44.7625 146.59431 44.7625 145.84431Q44.7625 145.07869 44.2625 144.57869Q43.7625 144.07869 42.996876 144.07869Q42.246876 144.07869 41.7625 144.57869Q41.278126 145.06306 41.278126 145.79744Z" fill-rule="nonzero"/><path fill="#000000" d="M37.16875 130.6697L36.121876 130.6697L36.121876 123.95094Q35.73125 124.31032 35.10625 124.68532Q34.496876 125.04469 34.0125 125.21657L34.0125 124.20094Q34.8875 123.77907 35.54375 123.20094Q36.215626 122.60719 36.496876 122.04469L37.16875 122.04469L37.16875 130.6697ZM40.35625 128.68532L41.371876 128.59157Q41.496876 129.31032 41.85625 129.63844Q42.23125 129.95094 42.79375 129.95094Q43.278126 129.95094 43.6375 129.7322Q44.0125 129.49782 44.246876 129.13844Q44.48125 128.76344 44.6375 128.13844Q44.79375 127.49782 44.79375 126.84157Q44.79375 126.76344 44.79375 126.62282Q44.48125 127.12282 43.934376 127.45094Q43.3875 127.76344 42.746876 127.76344Q41.66875 127.76344 40.934376 126.99782Q40.2 126.21657 40.2 124.95094Q40.2 123.63844 40.965626 122.84157Q41.746876 122.04469 42.903126 122.04469Q43.73125 122.04469 44.41875 122.49782Q45.121876 122.95094 45.48125 123.79469Q45.840626 124.62282 45.840626 126.20094Q45.840626 127.84157 45.48125 128.82594Q45.1375 129.7947 44.41875 130.31032Q43.715626 130.81032 42.778126 130.81032Q41.7625 130.81032 41.121876 130.26344Q40.48125 129.70094 40.35625 128.68532ZM44.66875 124.88844Q44.66875 123.98219 44.184376 123.45094Q43.715626 122.91969 43.028126 122.91969Q42.325 122.91969 41.79375 123.49782Q41.278126 124.06032 41.278126 124.98219Q41.278126 125.79469 41.778126 126.31032Q42.278126 126.82594 42.996876 126.82594Q43.73125 126.82594 44.2 126.31032Q44.66875 125.79469 44.66875 124.88844Z" fill-rule="nonzero"/><path fill="#000000" d="M38.746876 112.041954L38.746876 113.05758L33.059376 113.05758Q33.059376 112.68258 33.184376 112.323204Q33.403126 111.74508 33.871876 111.18258Q34.35625 110.62008 35.2625 109.885704Q36.66875 108.729454 37.153126 108.05758Q37.653126 107.385704 37.653126 106.791954Q37.653126 106.166954 37.2 105.74508Q36.746876 105.30758 36.028126 105.30758Q35.2625 105.30758 34.809376 105.760704Q34.35625 106.21383 34.340626 107.02633L33.2625 106.916954Q33.371876 105.698204 34.090626 105.073204Q34.825 104.43258 36.059376 104.43258Q37.29375 104.43258 38.0125 105.12008Q38.73125 105.80758 38.73125 106.823204Q38.73125 107.33883 38.5125 107.83883Q38.309376 108.323204 37.809376 108.885704Q37.325 109.43258 36.2 110.385704Q35.246876 111.18258 34.965626 111.479454Q34.7 111.760704 34.528126 112.041954L38.746876 112.041954ZM40.2 108.823204Q40.2 107.291954 40.5125 106.37008Q40.825 105.43258 41.434376 104.93258Q42.059376 104.43258 42.996876 104.43258Q43.684376 104.43258 44.2 104.71383Q44.73125 104.99508 45.075 105.52633Q45.41875 106.041954 45.60625 106.791954Q45.79375 107.541954 45.79375 108.823204Q45.79375 110.33883 45.48125 111.260704Q45.184376 112.18258 44.559376 112.698204Q43.95 113.198204 42.996876 113.198204Q41.7625 113.198204 41.04375 112.30758Q40.2 111.24508 40.2 108.823204ZM41.278126 108.823204Q41.278126 110.93258 41.778126 111.635704Q42.278126 112.33883 42.996876 112.33883Q43.73125 112.33883 44.215626 111.635704Q44.715626 110.93258 44.715626 108.823204Q44.715626 106.698204 44.215626 106.010704Q43.73125 105.30758 42.98125 105.30758Q42.2625 105.30758 41.825 105.916954Q41.278126 106.698204 41.278126 108.823204Z" fill-rule="nonzero"/><path fill="#000000" d="M38.746876 94.42983L38.746876 95.44546L33.059376 95.44546Q33.059376 95.07046 33.184376 94.71108Q33.403126 94.13296 33.871876 93.57046Q34.35625 93.00796 35.2625 92.27358Q36.66875 91.11733 37.153126 90.44546Q37.653126 89.77358 37.653126 89.17983Q37.653126 88.55483 37.2 88.13296Q36.746876 87.69546 36.028126 87.69546Q35.2625 87.69546 34.809376 88.14858Q34.35625 88.60171 34.340626 89.41421L33.2625 89.30483Q33.371876 88.08608 34.090626 87.46108Q34.825 86.82046 36.059376 86.82046Q37.29375 86.82046 38.0125 87.50796Q38.73125 88.19546 38.73125 89.21108Q38.73125 89.72671 38.5125 90.22671Q38.309376 90.71108 37.809376 91.27358Q37.325 91.82046 36.2 92.77358Q35.246876 93.57046 34.965626 93.86733Q34.7 94.14858 34.528126 94.42983L38.746876 94.42983ZM44.16875 95.44546L43.121876 95.44546L43.121876 88.72671Q42.73125 89.08608 42.10625 89.46108Q41.496876 89.82046 41.0125 89.99233L41.0125 88.97671Q41.8875 88.55483 42.54375 87.97671Q43.215626 87.38296 43.496876 86.82046L44.16875 86.82046L44.16875 95.44546Z" fill-rule="nonzero"/><path fill="#000000" d="M38.746876 76.81771L38.746876 77.833336L33.059376 77.833336Q33.059376 77.458336 33.184376 77.09896Q33.403126 76.520836 33.871876 75.958336Q34.35625 75.395836 35.2625 74.66146Q36.66875 73.50521 37.153126 72.833336Q37.653126 72.16146 37.653126 71.56771Q37.653126 70.94271 37.2 70.520836Q36.746876 70.083336 36.028126 70.083336Q35.2625 70.083336 34.809376 70.53646Q34.35625 70.989586 34.340626 71.802086L33.2625 71.69271Q33.371876 70.47396 34.090626 69.84896Q34.825 69.208336 36.059376 69.208336Q37.29375 69.208336 38.0125 69.895836Q38.73125 70.583336 38.73125 71.59896Q38.73125 72.114586 38.5125 72.614586Q38.309376 73.09896 37.809376 73.66146Q37.325 74.208336 36.2 75.16146Q35.246876 75.958336 34.965626 76.25521Q34.7 76.53646 34.528126 76.81771L38.746876 76.81771ZM45.746876 76.81771L45.746876 77.833336L40.059376 77.833336Q40.059376 77.458336 40.184376 77.09896Q40.403126 76.520836 40.871876 75.958336Q41.35625 75.395836 42.2625 74.66146Q43.66875 73.50521 44.153126 72.833336Q44.653126 72.16146 44.653126 71.56771Q44.653126 70.94271 44.2 70.520836Q43.746876 70.083336 43.028126 70.083336Q42.2625 70.083336 41.809376 70.53646Q41.35625 70.989586 41.340626 71.802086L40.2625 71.69271Q40.371876 70.47396 41.090626 69.84896Q41.825 69.208336 43.059376 69.208336Q44.29375 69.208336 45.0125 69.895836Q45.73125 70.583336 45.73125 71.59896Q45.73125 72.114586 45.5125 72.614586Q45.309376 73.09896 44.809376 73.66146Q44.325 74.208336 43.2 75.16146Q42.246876 75.958336 41.965626 76.25521Q41.7 76.53646 41.528126 76.81771L45.746876 76.81771Z" fill-rule="nonzero"/><path fill="#000000" d="M70.23779 484.3L68.05029 484.3L68.05029 476.01874Q66.84717 477.14374 65.20654 477.6906L65.20654 475.6906Q66.06592 475.40936 67.06592 474.6281Q68.08154 473.84686 68.45654 472.8L70.23779 472.8L70.23779 484.3ZM73.67529 481.64374L75.80029 481.40936Q75.87842 482.0656 76.20654 482.3781Q76.53467 482.6906 77.06592 482.6906Q77.75342 482.6906 78.22217 482.0656Q78.70654 481.4406 78.83154 479.47186Q78.00342 480.425 76.76904 480.425Q75.40967 480.425 74.42529 479.39374Q73.45654 478.34686 73.45654 476.675Q73.45654 474.925 74.48779 473.8625Q75.51904 472.8 77.12842 472.8Q78.86279 472.8 79.97217 474.14374Q81.09717 475.4875 81.09717 478.58124Q81.09717 481.72186 79.92529 483.1125Q78.76904 484.5031 76.90967 484.5031Q75.56592 484.5031 74.73779 483.78436Q73.90967 483.0656 73.67529 481.64374ZM78.64404 476.84686Q78.64404 475.78436 78.14404 475.20624Q77.65967 474.6125 77.01904 474.6125Q76.40967 474.6125 76.00342 475.09686Q75.61279 475.58124 75.61279 476.675Q75.61279 477.78436 76.05029 478.3Q76.48779 478.8156 77.14404 478.8156Q77.76904 478.8156 78.20654 478.3156Q78.64404 477.8156 78.64404 476.84686ZM84.50342 478.1125Q83.65967 477.7531 83.26904 477.1281Q82.87842 476.5031 82.87842 475.7531Q82.87842 474.47186 83.76904 473.64374Q84.67529 472.8 86.31592 472.8Q87.95654 472.8 88.84717 473.64374Q89.75342 474.47186 89.75342 475.7531Q89.75342 476.55 89.33154 477.175Q88.92529 477.78436 88.17529 478.1125Q89.12842 478.5031 89.62842 479.2375Q90.12842 479.97186 90.12842 480.925Q90.12842 482.51874 89.11279 483.51874Q88.09717 484.5031 86.42529 484.5031Q84.86279 484.5031 83.81592 483.675Q82.59717 482.70624 82.59717 481.01874Q82.59717 480.09686 83.05029 479.3156Q83.51904 478.53436 84.50342 478.1125ZM84.95654 475.90936Q84.95654 476.5656 85.33154 476.9406Q85.70654 477.3 86.31592 477.3Q86.94092 477.3 87.31592 476.925Q87.69092 476.55 87.69092 475.89374Q87.69092 475.28436 87.31592 474.90936Q86.95654 474.53436 86.34717 474.53436Q85.70654 474.53436 85.33154 474.90936Q84.95654 475.28436 84.95654 475.90936ZM84.75342 480.8156Q84.75342 481.72186 85.22217 482.2375Q85.69092 482.7375 86.37842 482.7375Q87.06592 482.7375 87.50342 482.2531Q87.95654 481.7531 87.95654 480.83124Q87.95654 480.03436 87.50342 479.55Q87.05029 479.05 86.34717 479.05Q85.55029 479.05 85.14404 479.6125Q84.75342 480.15936 84.75342 480.8156ZM99.03467 482.2531L99.03467 484.3L91.34717 484.3Q91.47217 483.14374 92.09717 482.1125Q92.72217 481.0656 94.56592 479.3625Q96.05029 477.97186 96.37842 477.4875Q96.83154 476.8 96.83154 476.14374Q96.83154 475.40936 96.44092 475.01874Q96.05029 474.6125 95.34717 474.6125Q94.65967 474.6125 94.25342 475.03436Q93.84717 475.4406 93.78467 476.40936L91.59717 476.1906Q91.80029 474.3781 92.83154 473.59686Q93.86279 472.8 95.40967 472.8Q97.09717 472.8 98.06592 473.72186Q99.03467 474.6281 99.03467 475.9875Q99.03467 476.7531 98.75342 477.45624Q98.48779 478.15936 97.87842 478.925Q97.48779 479.425 96.44092 480.3781Q95.40967 481.33124 95.12842 481.64374Q94.84717 481.95624 94.67529 482.2531L99.03467 482.2531Z" fill-rule="nonzero"/><path fill="#000000" d="M113.55768 484.3L111.37018 484.3L111.37018 476.01874Q110.16705 477.14374 108.52643 477.6906L108.52643 475.6906Q109.3858 475.40936 110.3858 474.6281Q111.40143 473.84686 111.77643 472.8L113.55768 472.8L113.55768 484.3ZM116.99518 481.64374L119.12018 481.40936Q119.1983 482.0656 119.52643 482.3781Q119.85455 482.6906 120.3858 482.6906Q121.0733 482.6906 121.54205 482.0656Q122.02643 481.4406 122.15143 479.47186Q121.3233 480.425 120.08893 480.425Q118.72955 480.425 117.74518 479.39374Q116.77643 478.34686 116.77643 476.675Q116.77643 474.925 117.80768 473.8625Q118.83893 472.8 120.4483 472.8Q122.18268 472.8 123.29205 474.14374Q124.41705 475.4875 124.41705 478.58124Q124.41705 481.72186 123.24518 483.1125Q122.08893 484.5031 120.22955 484.5031Q118.8858 484.5031 118.05768 483.78436Q117.22955 483.0656 116.99518 481.64374ZM121.96393 476.84686Q121.96393 475.78436 121.46393 475.20624Q120.97955 474.6125 120.33893 474.6125Q119.72955 474.6125 119.3233 475.09686Q118.93268 475.58124 118.93268 476.675Q118.93268 477.78436 119.37018 478.3Q119.80768 478.8156 120.46393 478.8156Q121.08893 478.8156 121.52643 478.3156Q121.96393 477.8156 121.96393 476.84686ZM125.99518 481.64374L128.12018 481.40936Q128.1983 482.0656 128.52643 482.3781Q128.85455 482.6906 129.3858 482.6906Q130.0733 482.6906 130.54205 482.0656Q131.02643 481.4406 131.15143 479.47186Q130.3233 480.425 129.08893 480.425Q127.72955 480.425 126.74518 479.39374Q125.77643 478.34686 125.77643 476.675Q125.77643 474.925 126.80768 473.8625Q127.83893 472.8 129.4483 472.8Q131.18268 472.8 132.29205 474.14374Q133.41705 475.4875 133.41705 478.58124Q133.41705 481.72186 132.24518 483.1125Q131.08893 484.5031 129.22955 484.5031Q127.8858 484.5031 127.05768 483.78436Q126.22955 483.0656 125.99518 481.64374ZM130.96393 476.84686Q130.96393 475.78436 130.46393 475.20624Q129.97955 474.6125 129.33893 474.6125Q128.72955 474.6125 128.3233 475.09686Q127.93268 475.58124 127.93268 476.675Q127.93268 477.78436 128.37018 478.3Q128.80768 478.8156 129.46393 478.8156Q130.08893 478.8156 130.52643 478.3156Q130.96393 477.8156 130.96393 476.84686ZM134.99518 481.64374L137.12018 481.40936Q137.1983 482.0656 137.52643 482.3781Q137.85455 482.6906 138.3858 482.6906Q139.0733 482.6906 139.54205 482.0656Q140.02643 481.4406 140.15143 479.47186Q139.3233 480.425 138.08893 480.425Q136.72955 480.425 135.74518 479.39374Q134.77643 478.34686 134.77643 476.675Q134.77643 474.925 135.80768 473.8625Q136.83893 472.8 138.4483 472.8Q140.18268 472.8 141.29205 474.14374Q142.41705 475.4875 142.41705 478.58124Q142.41705 481.72186 141.24518 483.1125Q140.08893 484.5031 138.22955 484.5031Q136.8858 484.5031 136.05768 483.78436Q135.22955 483.0656 134.99518 481.64374ZM139.96393 476.84686Q139.96393 475.78436 139.46393 475.20624Q138.97955 474.6125 138.33893 474.6125Q137.72955 474.6125 137.3233 475.09686Q136.93268 475.58124 136.93268 476.675Q136.93268 477.78436 137.37018 478.3Q137.80768 478.8156 138.46393 478.8156Q139.08893 478.8156 139.52643 478.3156Q139.96393 477.8156 139.96393 476.84686Z" fill-rule="nonzero"/><path fill="#000000" d="M158.67444 482.2531L158.67444 484.3L150.98694 484.3Q151.11194 483.14374 151.73694 482.1125Q152.36194 481.0656 154.20569 479.3625Q155.69006 477.97186 156.01819 477.4875Q156.47131 476.8 156.47131 476.14374Q156.47131 475.40936 156.08069 475.01874Q155.69006 474.6125 154.98694 474.6125Q154.29944 474.6125 153.89319 475.03436Q153.48694 475.4406 153.42444 476.40936L151.23694 476.1906Q151.44006 474.3781 152.47131 473.59686Q153.50256 472.8 155.04944 472.8Q156.73694 472.8 157.70569 473.72186Q158.67444 474.6281 158.67444 475.9875Q158.67444 476.7531 158.39319 477.45624Q158.12756 478.15936 157.51819 478.925Q157.12756 479.425 156.08069 480.3781Q155.04944 481.33124 154.76819 481.64374Q154.48694 481.95624 154.31506 482.2531L158.67444 482.2531ZM163.97131 472.8Q165.64319 472.8 166.58069 473.9875Q167.69006 475.39374 167.69006 478.64374Q167.69006 481.89374 166.56506 483.3156Q165.64319 484.5031 163.97131 484.5031Q162.29944 484.5031 161.26819 483.22186Q160.25256 481.925 160.25256 478.6281Q160.25256 475.39374 161.37756 473.97186Q162.31506 472.8 163.97131 472.8ZM163.97131 474.6125Q163.58069 474.6125 163.26819 474.8781Q162.95569 475.1281 162.78381 475.78436Q162.54944 476.6281 162.54944 478.64374Q162.54944 480.65936 162.75256 481.425Q162.95569 482.175 163.26819 482.425Q163.58069 482.675 163.97131 482.675Q164.37756 482.675 164.69006 482.425Q165.00256 482.15936 165.17444 481.5031Q165.39319 480.65936 165.39319 478.64374Q165.39319 476.6281 165.19006 475.8781Q164.98694 475.1281 164.67444 474.8781Q164.37756 474.6125 163.97131 474.6125ZM172.97131 472.8Q174.64319 472.8 175.58069 473.9875Q176.69006 475.39374 176.69006 478.64374Q176.69006 481.89374 175.56506 483.3156Q174.64319 484.5031 172.97131 484.5031Q171.29944 484.5031 170.26819 483.22186Q169.25256 481.925 169.25256 478.6281Q169.25256 475.39374 170.37756 473.97186Q171.31506 472.8 172.97131 472.8ZM172.97131 474.6125Q172.58069 474.6125 172.26819 474.8781Q171.95569 475.1281 171.78381 475.78436Q171.54944 476.6281 171.54944 478.64374Q171.54944 480.65936 171.75256 481.425Q171.95569 482.175 172.26819 482.425Q172.58069 482.675 172.97131 482.675Q173.37756 482.675 173.69006 482.425Q174.00256 482.15936 174.17444 481.5031Q174.39319 480.65936 174.39319 478.64374Q174.39319 476.6281 174.19006 475.8781Q173.98694 475.1281 173.67444 474.8781Q173.37756 474.6125 172.97131 474.6125ZM178.26819 475.03436L178.26819 473.0031L185.76819 473.0031L185.76819 474.59686Q184.84631 475.5031 183.87756 477.22186Q182.92444 478.925 182.40881 480.8625Q181.90881 482.78436 181.92444 484.3L179.79944 484.3Q179.86194 481.925 180.78381 479.45624Q181.70569 476.9875 183.25256 475.03436L178.26819 475.03436Z" fill-rule="nonzero"/><path fill="#000000" d="M201.99432 482.2531L201.99432 484.3L194.30682 484.3Q194.43182 483.14374 195.05682 482.1125Q195.68182 481.0656 197.52557 479.3625Q199.00995 477.97186 199.33807 477.4875Q199.7912 476.8 199.7912 476.14374Q199.7912 475.40936 199.40057 475.01874Q199.00995 474.6125 198.30682 474.6125Q197.61932 474.6125 197.21307 475.03436Q196.80682 475.4406 196.74432 476.40936L194.55682 476.1906Q194.75995 474.3781 195.7912 473.59686Q196.82245 472.8 198.36932 472.8Q200.05682 472.8 201.02557 473.72186Q201.99432 474.6281 201.99432 475.9875Q201.99432 476.7531 201.71307 477.45624Q201.44745 478.15936 200.83807 478.925Q200.44745 479.425 199.40057 480.3781Q198.36932 481.33124 198.08807 481.64374Q197.80682 481.95624 197.63495 482.2531L201.99432 482.2531ZM207.2912 472.8Q208.96307 472.8 209.90057 473.9875Q211.00995 475.39374 211.00995 478.64374Q211.00995 481.89374 209.88495 483.3156Q208.96307 484.5031 207.2912 484.5031Q205.61932 484.5031 204.58807 483.22186Q203.57245 481.925 203.57245 478.6281Q203.57245 475.39374 204.69745 473.97186Q205.63495 472.8 207.2912 472.8ZM207.2912 474.6125Q206.90057 474.6125 206.58807 474.8781Q206.27557 475.1281 206.1037 475.78436Q205.86932 476.6281 205.86932 478.64374Q205.86932 480.65936 206.07245 481.425Q206.27557 482.175 206.58807 482.425Q206.90057 482.675 207.2912 482.675Q207.69745 482.675 208.00995 482.425Q208.32245 482.15936 208.49432 481.5031Q208.71307 480.65936 208.71307 478.64374Q208.71307 476.6281 208.50995 475.8781Q208.30682 475.1281 207.99432 474.8781Q207.69745 474.6125 207.2912 474.6125ZM216.2912 472.8Q217.96307 472.8 218.90057 473.9875Q220.00995 475.39374 220.00995 478.64374Q220.00995 481.89374 218.88495 483.3156Q217.96307 484.5031 216.2912 484.5031Q214.61932 484.5031 213.58807 483.22186Q212.57245 481.925 212.57245 478.6281Q212.57245 475.39374 213.69745 473.97186Q214.63495 472.8 216.2912 472.8ZM216.2912 474.6125Q215.90057 474.6125 215.58807 474.8781Q215.27557 475.1281 215.1037 475.78436Q214.86932 476.6281 214.86932 478.64374Q214.86932 480.65936 215.07245 481.425Q215.27557 482.175 215.58807 482.425Q215.90057 482.675 216.2912 482.675Q216.69745 482.675 217.00995 482.425Q217.32245 482.15936 217.49432 481.5031Q217.71307 480.65936 217.71307 478.64374Q217.71307 476.6281 217.50995 475.8781Q217.30682 475.1281 216.99432 474.8781Q216.69745 474.6125 216.2912 474.6125ZM223.46307 478.1125Q222.61932 477.7531 222.2287 477.1281Q221.83807 476.5031 221.83807 475.7531Q221.83807 474.47186 222.7287 473.64374Q223.63495 472.8 225.27557 472.8Q226.9162 472.8 227.80682 473.64374Q228.71307 474.47186 228.71307 475.7531Q228.71307 476.55 228.2912 477.175Q227.88495 477.78436 227.13495 478.1125Q228.08807 478.5031 228.58807 479.2375Q229.08807 479.97186 229.08807 480.925Q229.08807 482.51874 228.07245 483.51874Q227.05682 484.5031 225.38495 484.5031Q223.82245 484.5031 222.77557 483.675Q221.55682 482.70624 221.55682 481.01874Q221.55682 480.09686 222.00995 479.3156Q222.4787 478.53436 223.46307 478.1125ZM223.9162 475.90936Q223.9162 476.5656 224.2912 476.9406Q224.6662 477.3 225.27557 477.3Q225.90057 477.3 226.27557 476.925Q226.65057 476.55 226.65057 475.89374Q226.65057 475.28436 226.27557 474.90936Q225.9162 474.53436 225.30682 474.53436Q224.6662 474.53436 224.2912 474.90936Q223.9162 475.28436 223.9162 475.90936ZM223.71307 480.8156Q223.71307 481.72186 224.18182 482.2375Q224.65057 482.7375 225.33807 482.7375Q226.02557 482.7375 226.46307 482.2531Q226.9162 481.7531 226.9162 480.83124Q226.9162 480.03436 226.46307 479.55Q226.00995 479.05 225.30682 479.05Q224.50995 479.05 224.1037 479.6125Q223.71307 480.15936 223.71307 480.8156Z" fill-rule="nonzero"/><path fill="#000000" d="M245.31421 482.2531L245.31421 484.3L237.62671 484.3Q237.75171 483.14374 238.37671 482.1125Q239.00171 481.0656 240.84546 479.3625Q242.32983 477.97186 242.65796 477.4875Q243.11108 476.8 243.11108 476.14374Q243.11108 475.40936 242.72046 475.01874Q242.32983 474.6125 241.62671 474.6125Q240.93921 474.6125 240.53296 475.03436Q240.12671 475.4406 240.06421 476.40936L237.87671 476.1906Q238.07983 474.3781 239.11108 473.59686Q240.14233 472.8 241.68921 472.8Q243.37671 472.8 244.34546 473.72186Q245.31421 474.6281 245.31421 475.9875Q245.31421 476.7531 245.03296 477.45624Q244.76733 478.15936 244.15796 478.925Q243.76733 479.425 242.72046 480.3781Q241.68921 481.33124 241.40796 481.64374Q241.12671 481.95624 240.95483 482.2531L245.31421 482.2531ZM250.61108 472.8Q252.28296 472.8 253.22046 473.9875Q254.32983 475.39374 254.32983 478.64374Q254.32983 481.89374 253.20483 483.3156Q252.28296 484.5031 250.61108 484.5031Q248.93921 484.5031 247.90796 483.22186Q246.89233 481.925 246.89233 478.6281Q246.89233 475.39374 248.01733 473.97186Q248.95483 472.8 250.61108 472.8ZM250.61108 474.6125Q250.22046 474.6125 249.90796 474.8781Q249.59546 475.1281 249.42358 475.78436Q249.18921 476.6281 249.18921 478.64374Q249.18921 480.65936 249.39233 481.425Q249.59546 482.175 249.90796 482.425Q250.22046 482.675 250.61108 482.675Q251.01733 482.675 251.32983 482.425Q251.64233 482.15936 251.81421 481.5031Q252.03296 480.65936 252.03296 478.64374Q252.03296 476.6281 251.82983 475.8781Q251.62671 475.1281 251.31421 474.8781Q251.01733 474.6125 250.61108 474.6125ZM259.61108 472.8Q261.28296 472.8 262.22046 473.9875Q263.32983 475.39374 263.32983 478.64374Q263.32983 481.89374 262.20483 483.3156Q261.28296 484.5031 259.61108 484.5031Q257.9392 484.5031 256.90796 483.22186Q255.89233 481.925 255.89233 478.6281Q255.89233 475.39374 257.01733 473.97186Q257.95483 472.8 259.61108 472.8ZM259.61108 474.6125Q259.22046 474.6125 258.90796 474.8781Q258.59546 475.1281 258.42358 475.78436Q258.1892 476.6281 258.1892 478.64374Q258.1892 480.65936 258.39233 481.425Q258.59546 482.175 258.90796 482.425Q259.22046 482.675 259.61108 482.675Q260.01733 482.675 260.32983 482.425Q260.64233 482.15936 260.8142 481.5031Q261.03296 480.65936 261.03296 478.64374Q261.03296 476.6281 260.82983 475.8781Q260.6267 475.1281 260.3142 474.8781Q260.01733 474.6125 259.61108 474.6125ZM264.95483 481.64374L267.07983 481.40936Q267.15796 482.0656 267.48608 482.3781Q267.8142 482.6906 268.34546 482.6906Q269.03296 482.6906 269.5017 482.0656Q269.98608 481.4406 270.11108 479.47186Q269.28296 480.425 268.04858 480.425Q266.6892 480.425 265.70483 479.39374Q264.73608 478.34686 264.73608 476.675Q264.73608 474.925 265.76733 473.8625Q266.79858 472.8 268.40796 472.8Q270.14233 472.8 271.2517 474.14374Q272.3767 475.4875 272.3767 478.58124Q272.3767 481.72186 271.20483 483.1125Q270.04858 484.5031 268.1892 484.5031Q266.84546 484.5031 266.01733 483.78436Q265.1892 483.0656 264.95483 481.64374ZM269.92358 476.84686Q269.92358 475.78436 269.42358 475.20624Q268.9392 474.6125 268.29858 474.6125Q267.6892 474.6125 267.28296 475.09686Q266.89233 475.58124 266.89233 476.675Q266.89233 477.78436 267.32983 478.3Q267.76733 478.8156 268.42358 478.8156Q269.04858 478.8156 269.48608 478.3156Q269.92358 477.8156 269.92358 476.84686Z" fill-rule="nonzero"/><path fill="#000000" d="M288.6341 482.2531L288.6341 484.3L280.9466 484.3Q281.0716 483.14374 281.6966 482.1125Q282.3216 481.0656 284.16534 479.3625Q285.64972 477.97186 285.97784 477.4875Q286.43097 476.8 286.43097 476.14374Q286.43097 475.40936 286.04034 475.01874Q285.64972 474.6125 284.9466 474.6125Q284.2591 474.6125 283.85284 475.03436Q283.4466 475.4406 283.3841 476.40936L281.1966 476.1906Q281.39972 474.3781 282.43097 473.59686Q283.46222 472.8 285.0091 472.8Q286.6966 472.8 287.66534 473.72186Q288.6341 474.6281 288.6341 475.9875Q288.6341 476.7531 288.35284 477.45624Q288.08722 478.15936 287.47784 478.925Q287.08722 479.425 286.04034 480.3781Q285.0091 481.33124 284.72784 481.64374Q284.4466 481.95624 284.27472 482.2531L288.6341 482.2531ZM293.93097 472.8Q295.60284 472.8 296.54034 473.9875Q297.64972 475.39374 297.64972 478.64374Q297.64972 481.89374 296.52472 483.3156Q295.60284 484.5031 293.93097 484.5031Q292.2591 484.5031 291.22784 483.22186Q290.21222 481.925 290.21222 478.6281Q290.21222 475.39374 291.33722 473.97186Q292.27472 472.8 293.93097 472.8ZM293.93097 474.6125Q293.54034 474.6125 293.22784 474.8781Q292.91534 475.1281 292.74347 475.78436Q292.5091 476.6281 292.5091 478.64374Q292.5091 480.65936 292.71222 481.425Q292.91534 482.175 293.22784 482.425Q293.54034 482.675 293.93097 482.675Q294.33722 482.675 294.64972 482.425Q294.96222 482.15936 295.1341 481.5031Q295.35284 480.65936 295.35284 478.64374Q295.35284 476.6281 295.14972 475.8781Q294.9466 475.1281 294.6341 474.8781Q294.33722 474.6125 293.93097 474.6125ZM304.83722 484.3L302.64972 484.3L302.64972 476.01874Q301.4466 477.14374 299.80597 477.6906L299.80597 475.6906Q300.66534 475.40936 301.66534 474.6281Q302.68097 473.84686 303.05597 472.8L304.83722 472.8L304.83722 484.3ZM311.93097 472.8Q313.60284 472.8 314.54034 473.9875Q315.64972 475.39374 315.64972 478.64374Q315.64972 481.89374 314.52472 483.3156Q313.60284 484.5031 311.93097 484.5031Q310.2591 484.5031 309.22784 483.22186Q308.21222 481.925 308.21222 478.6281Q308.21222 475.39374 309.33722 473.97186Q310.27472 472.8 311.93097 472.8ZM311.93097 474.6125Q311.54034 474.6125 311.22784 474.8781Q310.91534 475.1281 310.74347 475.78436Q310.5091 476.6281 310.5091 478.64374Q310.5091 480.65936 310.71222 481.425Q310.91534 482.175 311.22784 482.425Q311.54034 482.675 311.93097 482.675Q312.33722 482.675 312.64972 482.425Q312.96222 482.15936 313.1341 481.5031Q313.35284 480.65936 313.35284 478.64374Q313.35284 476.6281 313.14972 475.8781Q312.9466 475.1281 312.6341 474.8781Q312.33722 474.6125 311.93097 474.6125Z" fill-rule="nonzero"/><path fill="#000000" d="M331.95398 482.2531L331.95398 484.3L324.26648 484.3Q324.39148 483.14374 325.01648 482.1125Q325.64148 481.0656 327.48523 479.3625Q328.9696 477.97186 329.29773 477.4875Q329.75085 476.8 329.75085 476.14374Q329.75085 475.40936 329.36023 475.01874Q328.9696 474.6125 328.26648 474.6125Q327.57898 474.6125 327.17273 475.03436Q326.76648 475.4406 326.70398 476.40936L324.51648 476.1906Q324.7196 474.3781 325.75085 473.59686Q326.7821 472.8 328.32898 472.8Q330.01648 472.8 330.98523 473.72186Q331.95398 474.6281 331.95398 475.9875Q331.95398 476.7531 331.67273 477.45624Q331.4071 478.15936 330.79773 478.925Q330.4071 479.425 329.36023 480.3781Q328.32898 481.33124 328.04773 481.64374Q327.76648 481.95624 327.5946 482.2531L331.95398 482.2531ZM337.25085 472.8Q338.92273 472.8 339.86023 473.9875Q340.9696 475.39374 340.9696 478.64374Q340.9696 481.89374 339.8446 483.3156Q338.92273 484.5031 337.25085 484.5031Q335.57898 484.5031 334.54773 483.22186Q333.5321 481.925 333.5321 478.6281Q333.5321 475.39374 334.6571 473.97186Q335.5946 472.8 337.25085 472.8ZM337.25085 474.6125Q336.86023 474.6125 336.54773 474.8781Q336.23523 475.1281 336.06335 475.78436Q335.82898 476.6281 335.82898 478.64374Q335.82898 480.65936 336.0321 481.425Q336.23523 482.175 336.54773 482.425Q336.86023 482.675 337.25085 482.675Q337.6571 482.675 337.9696 482.425Q338.2821 482.15936 338.45398 481.5031Q338.67273 480.65936 338.67273 478.64374Q338.67273 476.6281 338.4696 475.8781Q338.26648 475.1281 337.95398 474.8781Q337.6571 474.6125 337.25085 474.6125ZM348.1571 484.3L345.9696 484.3L345.9696 476.01874Q344.76648 477.14374 343.12585 477.6906L343.12585 475.6906Q343.98523 475.40936 344.98523 474.6281Q346.00085 473.84686 346.37585 472.8L348.1571 472.8L348.1571 484.3ZM357.1571 484.3L354.9696 484.3L354.9696 476.01874Q353.76648 477.14374 352.12585 477.6906L352.12585 475.6906Q352.98523 475.40936 353.98523 474.6281Q355.00085 473.84686 355.37585 472.8L357.1571 472.8L357.1571 484.3Z" fill-rule="nonzero"/><path fill="#000000" d="M375.27386 482.2531L375.27386 484.3L367.58636 484.3Q367.71136 483.14374 368.33636 482.1125Q368.96136 481.0656 370.8051 479.3625Q372.2895 477.97186 372.6176 477.4875Q373.07074 476.8 373.07074 476.14374Q373.07074 475.40936 372.6801 475.01874Q372.2895 474.6125 371.58636 474.6125Q370.89886 474.6125 370.4926 475.03436Q370.08636 475.4406 370.02386 476.40936L367.83636 476.1906Q368.0395 474.3781 369.07074 473.59686Q370.102 472.8 371.64886 472.8Q373.33636 472.8 374.3051 473.72186Q375.27386 474.6281 375.27386 475.9875Q375.27386 476.7531 374.9926 477.45624Q374.727 478.15936 374.1176 478.925Q373.727 479.425 372.6801 480.3781Q371.64886 481.33124 371.3676 481.64374Q371.08636 481.95624 370.9145 482.2531L375.27386 482.2531ZM380.57074 472.8Q382.2426 472.8 383.1801 473.9875Q384.2895 475.39374 384.2895 478.64374Q384.2895 481.89374 383.1645 483.3156Q382.2426 484.5031 380.57074 484.5031Q378.89886 484.5031 377.8676 483.22186Q376.852 481.925 376.852 478.6281Q376.852 475.39374 377.977 473.97186Q378.9145 472.8 380.57074 472.8ZM380.57074 474.6125Q380.1801 474.6125 379.8676 474.8781Q379.5551 475.1281 379.38324 475.78436Q379.14886 476.6281 379.14886 478.64374Q379.14886 480.65936 379.352 481.425Q379.5551 482.175 379.8676 482.425Q380.1801 482.675 380.57074 482.675Q380.977 482.675 381.2895 482.425Q381.602 482.15936 381.77386 481.5031Q381.9926 480.65936 381.9926 478.64374Q381.9926 476.6281 381.7895 475.8781Q381.58636 475.1281 381.27386 474.8781Q380.977 474.6125 380.57074 474.6125ZM391.477 484.3L389.2895 484.3L389.2895 476.01874Q388.08636 477.14374 386.44574 477.6906L386.44574 475.6906Q387.3051 475.40936 388.3051 474.6281Q389.32074 473.84686 389.69574 472.8L391.477 472.8L391.477 484.3ZM402.27386 482.2531L402.27386 484.3L394.58636 484.3Q394.71136 483.14374 395.33636 482.1125Q395.96136 481.0656 397.8051 479.3625Q399.2895 477.97186 399.6176 477.4875Q400.07074 476.8 400.07074 476.14374Q400.07074 475.40936 399.6801 475.01874Q399.2895 474.6125 398.58636 474.6125Q397.89886 474.6125 397.4926 475.03436Q397.08636 475.4406 397.02386 476.40936L394.83636 476.1906Q395.0395 474.3781 396.07074 473.59686Q397.102 472.8 398.64886 472.8Q400.33636 472.8 401.3051 473.72186Q402.27386 474.6281 402.27386 475.9875Q402.27386 476.7531 401.9926 477.45624Q401.727 478.15936 401.1176 478.925Q400.727 479.425 399.6801 480.3781Q398.64886 481.33124 398.3676 481.64374Q398.08636 481.95624 397.9145 482.2531L402.27386 482.2531Z" fill-rule="nonzero"/><path fill="#000000" d="M418.59375 482.2531L418.59375 484.3L410.90625 484.3Q411.03125 483.14374 411.65625 482.1125Q412.28125 481.0656 414.125 479.3625Q415.60938 477.97186 415.9375 477.4875Q416.39062 476.8 416.39062 476.14374Q416.39062 475.40936 416.0 475.01874Q415.60938 474.6125 414.90625 474.6125Q414.21875 474.6125 413.8125 475.03436Q413.40625 475.4406 413.34375 476.40936L411.15625 476.1906Q411.35938 474.3781 412.39062 473.59686Q413.42188 472.8 414.96875 472.8Q416.65625 472.8 417.625 473.72186Q418.59375 474.6281 418.59375 475.9875Q418.59375 476.7531 418.3125 477.45624Q418.04688 478.15936 417.4375 478.925Q417.04688 479.425 416.0 480.3781Q414.96875 481.33124 414.6875 481.64374Q414.40625 481.95624 414.23438 482.2531L418.59375 482.2531ZM423.89062 472.8Q425.5625 472.8 426.5 473.9875Q427.60938 475.39374 427.60938 478.64374Q427.60938 481.89374 426.48438 483.3156Q425.5625 484.5031 423.89062 484.5031Q422.21875 484.5031 421.1875 483.22186Q420.17188 481.925 420.17188 478.6281Q420.17188 475.39374 421.29688 473.97186Q422.23438 472.8 423.89062 472.8ZM423.89062 474.6125Q423.5 474.6125 423.1875 474.8781Q422.875 475.1281 422.70312 475.78436Q422.46875 476.6281 422.46875 478.64374Q422.46875 480.65936 422.67188 481.425Q422.875 482.175 423.1875 482.425Q423.5 482.675 423.89062 482.675Q424.29688 482.675 424.60938 482.425Q424.92188 482.15936 425.09375 481.5031Q425.3125 480.65936 425.3125 478.64374Q425.3125 476.6281 425.10938 475.8781Q424.90625 475.1281 424.59375 474.8781Q424.29688 474.6125 423.89062 474.6125ZM434.79688 484.3L432.60938 484.3L432.60938 476.01874Q431.40625 477.14374 429.76562 477.6906L429.76562 475.6906Q430.625 475.40936 431.625 474.6281Q432.64062 473.84686 433.01562 472.8L434.79688 472.8L434.79688 484.3ZM438.10938 481.2531L440.23438 481.0031Q440.32812 481.8156 440.76562 482.2531Q441.21875 482.675 441.85938 482.675Q442.53125 482.675 443.0 482.15936Q443.46875 481.64374 443.46875 480.76874Q443.46875 479.9406 443.01562 479.45624Q442.57812 478.97186 441.9375 478.97186Q441.51562 478.97186 440.92188 479.1281L441.17188 477.34686Q442.0625 477.3625 442.53125 476.95624Q443.0 476.55 443.0 475.8625Q443.0 475.28436 442.65625 474.9406Q442.3125 474.59686 441.73438 474.59686Q441.17188 474.59686 440.76562 474.9875Q440.375 475.3781 440.29688 476.1281L438.26562 475.78436Q438.48438 474.7531 438.90625 474.1281Q439.32812 473.5031 440.09375 473.15936Q440.85938 472.8 441.79688 472.8Q443.42188 472.8 444.39062 473.83124Q445.20312 474.675 445.20312 475.7375Q445.20312 477.2375 443.54688 478.14374Q444.53125 478.34686 445.125 479.08124Q445.71875 479.8156 445.71875 480.8625Q445.71875 482.3625 444.60938 483.4406Q443.51562 484.5031 441.875 484.5031Q440.3125 484.5031 439.28125 483.6125Q438.26562 482.70624 438.10938 481.2531Z" fill-rule="nonzero"/><path fill="#000000" d="M461.91364 482.2531L461.91364 484.3L454.22614 484.3Q454.35114 483.14374 454.97614 482.1125Q455.60114 481.0656 457.4449 479.3625Q458.92926 477.97186 459.2574 477.4875Q459.7105 476.8 459.7105 476.14374Q459.7105 475.40936 459.3199 475.01874Q458.92926 474.6125 458.22614 474.6125Q457.53864 474.6125 457.1324 475.03436Q456.72614 475.4406 456.66364 476.40936L454.47614 476.1906Q454.67926 474.3781 455.7105 473.59686Q456.74176 472.8 458.28864 472.8Q459.97614 472.8 460.9449 473.72186Q461.91364 474.6281 461.91364 475.9875Q461.91364 476.7531 461.6324 477.45624Q461.36676 478.15936 460.7574 478.925Q460.36676 479.425 459.3199 480.3781Q458.28864 481.33124 458.0074 481.64374Q457.72614 481.95624 457.55426 482.2531L461.91364 482.2531ZM467.2105 472.8Q468.8824 472.8 469.8199 473.9875Q470.92926 475.39374 470.92926 478.64374Q470.92926 481.89374 469.80426 483.3156Q468.8824 484.5031 467.2105 484.5031Q465.53864 484.5031 464.5074 483.22186Q463.49176 481.925 463.49176 478.6281Q463.49176 475.39374 464.61676 473.97186Q465.55426 472.8 467.2105 472.8ZM467.2105 474.6125Q466.8199 474.6125 466.5074 474.8781Q466.1949 475.1281 466.023 475.78436Q465.78864 476.6281 465.78864 478.64374Q465.78864 480.65936 465.99176 481.425Q466.1949 482.175 466.5074 482.425Q466.8199 482.675 467.2105 482.675Q467.61676 482.675 467.92926 482.425Q468.24176 482.15936 468.41364 481.5031Q468.6324 480.65936 468.6324 478.64374Q468.6324 476.6281 468.42926 475.8781Q468.22614 475.1281 467.91364 474.8781Q467.61676 474.6125 467.2105 474.6125ZM478.11676 484.3L475.92926 484.3L475.92926 476.01874Q474.72614 477.14374 473.0855 477.6906L473.0855 475.6906Q473.9449 475.40936 474.9449 474.6281Q475.9605 473.84686 476.3355 472.8L478.11676 472.8L478.11676 484.3ZM485.80426 484.3L485.80426 481.9875L481.11676 481.9875L481.11676 480.0656L486.0855 472.8L487.92926 472.8L487.92926 480.0656L489.35114 480.0656L489.35114 481.9875L487.92926 481.9875L487.92926 484.3L485.80426 484.3ZM485.80426 480.0656L485.80426 476.14374L483.17926 480.0656L485.80426 480.0656Z" fill-rule="nonzero"/><path fill="#000000" d="M505.23352 482.2531L505.23352 484.3L497.54602 484.3Q497.67102 483.14374 498.29602 482.1125Q498.92102 481.0656 500.76477 479.3625Q502.24915 477.97186 502.57727 477.4875Q503.0304 476.8 503.0304 476.14374Q503.0304 475.40936 502.63977 475.01874Q502.24915 474.6125 501.54602 474.6125Q500.85852 474.6125 500.45227 475.03436Q500.04602 475.4406 499.98352 476.40936L497.79602 476.1906Q497.99915 474.3781 499.0304 473.59686Q500.06165 472.8 501.60852 472.8Q503.29602 472.8 504.26477 473.72186Q505.23352 474.6281 505.23352 475.9875Q505.23352 476.7531 504.95227 477.45624Q504.68665 478.15936 504.07727 478.925Q503.68665 479.425 502.63977 480.3781Q501.60852 481.33124 501.32727 481.64374Q501.04602 481.95624 500.87415 482.2531L505.23352 482.2531ZM510.5304 472.8Q512.2023 472.8 513.1398 473.9875Q514.24915 475.39374 514.24915 478.64374Q514.24915 481.89374 513.12415 483.3156Q512.2023 484.5031 510.5304 484.5031Q508.85852 484.5031 507.82727 483.22186Q506.81165 481.925 506.81165 478.6281Q506.81165 475.39374 507.93665 473.97186Q508.87415 472.8 510.5304 472.8ZM510.5304 474.6125Q510.13977 474.6125 509.82727 474.8781Q509.51477 475.1281 509.3429 475.78436Q509.10852 476.6281 509.10852 478.64374Q509.10852 480.65936 509.31165 481.425Q509.51477 482.175 509.82727 482.425Q510.13977 482.675 510.5304 482.675Q510.93665 482.675 511.24915 482.425Q511.56165 482.15936 511.73352 481.5031Q511.95227 480.65936 511.95227 478.64374Q511.95227 476.6281 511.74915 475.8781Q511.54602 475.1281 511.23352 474.8781Q510.93665 474.6125 510.5304 474.6125ZM521.43665 484.3L519.24915 484.3L519.24915 476.01874Q518.046 477.14374 516.4054 477.6906L516.4054 475.6906Q517.2648 475.40936 518.2648 474.6281Q519.2804 473.84686 519.6554 472.8L521.43665 472.8L521.43665 484.3ZM524.8585 481.34686L527.046 481.1281Q527.1398 481.8625 527.5929 482.3Q528.06165 482.7375 528.6554 482.7375Q529.3429 482.7375 529.81165 482.175Q530.296 481.6125 530.296 480.4875Q530.296 479.4406 529.8273 478.90936Q529.3585 478.3781 528.5929 478.3781Q527.6554 478.3781 526.9054 479.22186L525.12415 478.95624L526.24915 473.0031L532.046 473.0031L532.046 475.05L527.9054 475.05L527.56165 477.0031Q528.296 476.6281 529.06165 476.6281Q530.5304 476.6281 531.546 477.6906Q532.56165 478.7531 532.56165 480.45624Q532.56165 481.8625 531.7335 482.97186Q530.62415 484.5031 528.6398 484.5031Q527.046 484.5031 526.046 483.64374Q525.046 482.78436 524.8585 481.34686Z" fill-rule="nonzero"/><path fill="#000000" d="M548.5534 482.2531L548.5534 484.3L540.8659 484.3Q540.9909 483.14374 541.6159 482.1125Q542.2409 481.0656 544.08466 479.3625Q545.56903 477.97186 545.89716 477.4875Q546.3503 476.8 546.3503 476.14374Q546.3503 475.40936 545.95966 475.01874Q545.56903 474.6125 544.8659 474.6125Q544.1784 474.6125 543.77216 475.03436Q543.3659 475.4406 543.3034 476.40936L541.1159 476.1906Q541.31903 474.3781 542.3503 473.59686Q543.38153 472.8 544.9284 472.8Q546.6159 472.8 547.58466 473.72186Q548.5534 474.6281 548.5534 475.9875Q548.5534 476.7531 548.27216 477.45624Q548.00653 478.15936 547.39716 478.925Q547.00653 479.425 545.95966 480.3781Q544.9284 481.33124 544.64716 481.64374Q544.3659 481.95624 544.19403 482.2531L548.5534 482.2531ZM553.8503 472.8Q555.52216 472.8 556.45966 473.9875Q557.56903 475.39374 557.56903 478.64374Q557.56903 481.89374 556.44403 483.3156Q555.52216 484.5031 553.8503 484.5031Q552.1784 484.5031 551.14716 483.22186Q550.13153 481.925 550.13153 478.6281Q550.13153 475.39374 551.25653 473.97186Q552.19403 472.8 553.8503 472.8ZM553.8503 474.6125Q553.45966 474.6125 553.14716 474.8781Q552.83466 475.1281 552.6628 475.78436Q552.4284 476.6281 552.4284 478.64374Q552.4284 480.65936 552.63153 481.425Q552.83466 482.175 553.14716 482.425Q553.45966 482.675 553.8503 482.675Q554.25653 482.675 554.56903 482.425Q554.88153 482.15936 555.0534 481.5031Q555.27216 480.65936 555.27216 478.64374Q555.27216 476.6281 555.06903 475.8781Q554.8659 475.1281 554.5534 474.8781Q554.25653 474.6125 553.8503 474.6125ZM564.75653 484.3L562.56903 484.3L562.56903 476.01874Q561.3659 477.14374 559.7253 477.6906L559.7253 475.6906Q560.58466 475.40936 561.58466 474.6281Q562.6003 473.84686 562.9753 472.8L564.75653 472.8L564.75653 484.3ZM575.58466 475.64374L573.45966 475.8781Q573.38153 475.22186 573.0534 474.90936Q572.7253 474.59686 572.19403 474.59686Q571.50653 474.59686 571.02216 475.22186Q570.5378 475.84686 570.4128 477.83124Q571.2409 476.8625 572.45966 476.8625Q573.83466 476.8625 574.8034 477.90936Q575.7878 478.95624 575.7878 480.6125Q575.7878 482.3625 574.75653 483.4406Q573.7253 484.5031 572.1159 484.5031Q570.38153 484.5031 569.25653 483.15936Q568.14716 481.8 568.14716 478.72186Q568.14716 475.58124 569.3034 474.1906Q570.4753 472.8 572.33466 472.8Q573.63153 472.8 574.4909 473.53436Q575.3503 474.2531 575.58466 475.64374ZM570.6003 480.4406Q570.6003 481.5031 571.08466 482.09686Q571.58466 482.675 572.2253 482.675Q572.83466 482.675 573.2409 482.20624Q573.64716 481.72186 573.64716 480.6281Q573.64716 479.51874 573.20966 479.0031Q572.77216 478.47186 572.1159 478.47186Q571.4753 478.47186 571.0378 478.97186Q570.6003 479.47186 570.6003 480.4406Z" fill-rule="nonzero"/><path fill="#000000" d="M591.8733 482.2531L591.8733 484.3L584.1858 484.3Q584.3108 483.14374 584.9358 482.1125Q585.5608 481.0656 587.40454 479.3625Q588.8889 477.97186 589.21704 477.4875Q589.67017 476.8 589.67017 476.14374Q589.67017 475.40936 589.27954 475.01874Q588.8889 474.6125 588.1858 474.6125Q587.4983 474.6125 587.09204 475.03436Q586.6858 475.4406 586.6233 476.40936L584.4358 476.1906Q584.6389 474.3781 585.67017 473.59686Q586.7014 472.8 588.2483 472.8Q589.9358 472.8 590.90454 473.72186Q591.8733 474.6281 591.8733 475.9875Q591.8733 476.7531 591.59204 477.45624Q591.3264 478.15936 590.71704 478.925Q590.3264 479.425 589.27954 480.3781Q588.2483 481.33124 587.96704 481.64374Q587.6858 481.95624 587.5139 482.2531L591.8733 482.2531ZM597.17017 472.8Q598.84204 472.8 599.77954 473.9875Q600.8889 475.39374 600.8889 478.64374Q600.8889 481.89374 599.7639 483.3156Q598.84204 484.5031 597.17017 484.5031Q595.4983 484.5031 594.46704 483.22186Q593.4514 481.925 593.4514 478.6281Q593.4514 475.39374 594.5764 473.97186Q595.5139 472.8 597.17017 472.8ZM597.17017 474.6125Q596.77954 474.6125 596.46704 474.8781Q596.15454 475.1281 595.98267 475.78436Q595.7483 476.6281 595.7483 478.64374Q595.7483 480.65936 595.9514 481.425Q596.15454 482.175 596.46704 482.425Q596.77954 482.675 597.17017 482.675Q597.5764 482.675 597.8889 482.425Q598.2014 482.15936 598.3733 481.5031Q598.59204 480.65936 598.59204 478.64374Q598.59204 476.6281 598.3889 475.8781Q598.1858 475.1281 597.8733 474.8781Q597.5764 474.6125 597.17017 474.6125ZM608.0764 484.3L605.8889 484.3L605.8889 476.01874Q604.6858 477.14374 603.04517 477.6906L603.04517 475.6906Q603.90454 475.40936 604.90454 474.6281Q605.92017 473.84686 606.29517 472.8L608.0764 472.8L608.0764 484.3ZM611.46704 475.03436L611.46704 473.0031L618.96704 473.0031L618.96704 474.59686Q618.04517 475.5031 617.0764 477.22186Q616.1233 478.925 615.60767 480.8625Q615.10767 482.78436 615.1233 484.3L612.9983 484.3Q613.0608 481.925 613.98267 479.45624Q614.90454 476.9875 616.4514 475.03436L611.46704 475.03436Z" fill-rule="nonzero"/><path fill="#000000" d="M635.1932 482.2531L635.1932 484.3L627.5057 484.3Q627.6307 483.14374 628.2557 482.1125Q628.8807 481.0656 630.7244 479.3625Q632.2088 477.97186 632.5369 477.4875Q632.99005 476.8 632.99005 476.14374Q632.99005 475.40936 632.5994 475.01874Q632.2088 474.6125 631.5057 474.6125Q630.8182 474.6125 630.4119 475.03436Q630.0057 475.4406 629.9432 476.40936L627.7557 476.1906Q627.9588 474.3781 628.99005 473.59686Q630.0213 472.8 631.5682 472.8Q633.2557 472.8 634.2244 473.72186Q635.1932 474.6281 635.1932 475.9875Q635.1932 476.7531 634.9119 477.45624Q634.6463 478.15936 634.0369 478.925Q633.6463 479.425 632.5994 480.3781Q631.5682 481.33124 631.2869 481.64374Q631.0057 481.95624 630.8338 482.2531L635.1932 482.2531ZM640.49005 472.8Q642.1619 472.8 643.0994 473.9875Q644.2088 475.39374 644.2088 478.64374Q644.2088 481.89374 643.0838 483.3156Q642.1619 484.5031 640.49005 484.5031Q638.8182 484.5031 637.7869 483.22186Q636.7713 481.925 636.7713 478.6281Q636.7713 475.39374 637.8963 473.97186Q638.8338 472.8 640.49005 472.8ZM640.49005 474.6125Q640.0994 474.6125 639.7869 474.8781Q639.4744 475.1281 639.30255 475.78436Q639.0682 476.6281 639.0682 478.64374Q639.0682 480.65936 639.2713 481.425Q639.4744 482.175 639.7869 482.425Q640.0994 482.675 640.49005 482.675Q640.8963 482.675 641.2088 482.425Q641.5213 482.15936 641.6932 481.5031Q641.9119 480.65936 641.9119 478.64374Q641.9119 476.6281 641.7088 475.8781Q641.5057 475.1281 641.1932 474.8781Q640.8963 474.6125 640.49005 474.6125ZM651.3963 484.3L649.2088 484.3L649.2088 476.01874Q648.0057 477.14374 646.36505 477.6906L646.36505 475.6906Q647.2244 475.40936 648.2244 474.6281Q649.24005 473.84686 649.61505 472.8L651.3963 472.8L651.3963 484.3ZM656.6619 478.1125Q655.8182 477.7531 655.42755 477.1281Q655.0369 476.5031 655.0369 475.7531Q655.0369 474.47186 655.92755 473.64374Q656.8338 472.8 658.4744 472.8Q660.11505 472.8 661.0057 473.64374Q661.9119 474.47186 661.9119 475.7531Q661.9119 476.55 661.49005 477.175Q661.0838 477.78436 660.3338 478.1125Q661.2869 478.5031 661.7869 479.2375Q662.2869 479.97186 662.2869 480.925Q662.2869 482.51874 661.2713 483.51874Q660.2557 484.5031 658.5838 484.5031Q657.0213 484.5031 655.9744 483.675Q654.7557 482.70624 654.7557 481.01874Q654.7557 480.09686 655.2088 479.3156Q655.67755 478.53436 656.6619 478.1125ZM657.11505 475.90936Q657.11505 476.5656 657.49005 476.9406Q657.86505 477.3 658.4744 477.3Q659.0994 477.3 659.4744 476.925Q659.8494 476.55 659.8494 475.89374Q659.8494 475.28436 659.4744 474.90936Q659.11505 474.53436 658.5057 474.53436Q657.86505 474.53436 657.49005 474.90936Q657.11505 475.28436 657.11505 475.90936ZM656.9119 480.8156Q656.9119 481.72186 657.3807 482.2375Q657.8494 482.7375 658.5369 482.7375Q659.2244 482.7375 659.6619 482.2531Q660.11505 481.7531 660.11505 480.83124Q660.11505 480.03436 659.6619 479.55Q659.2088 479.05 658.5057 479.05Q657.7088 479.05 657.30255 479.6125Q656.9119 480.15936 656.9119 480.8156Z" fill-rule="nonzero"/><path fill="#000000" d="M678.51306 482.2531L678.51306 484.3L670.82556 484.3Q670.95056 483.14374 671.57556 482.1125Q672.20056 481.0656 674.0443 479.3625Q675.5287 477.97186 675.8568 477.4875Q676.30994 476.8 676.30994 476.14374Q676.30994 475.40936 675.9193 475.01874Q675.5287 474.6125 674.82556 474.6125Q674.13806 474.6125 673.7318 475.03436Q673.32556 475.4406 673.26306 476.40936L671.07556 476.1906Q671.2787 474.3781 672.30994 473.59686Q673.3412 472.8 674.88806 472.8Q676.57556 472.8 677.5443 473.72186Q678.51306 474.6281 678.51306 475.9875Q678.51306 476.7531 678.2318 477.45624Q677.9662 478.15936 677.3568 478.925Q676.9662 479.425 675.9193 480.3781Q674.88806 481.33124 674.6068 481.64374Q674.32556 481.95624 674.1537 482.2531L678.51306 482.2531ZM683.80994 472.8Q685.4818 472.8 686.4193 473.9875Q687.5287 475.39374 687.5287 478.64374Q687.5287 481.89374 686.4037 483.3156Q685.4818 484.5031 683.80994 484.5031Q682.13806 484.5031 681.1068 483.22186Q680.0912 481.925 680.0912 478.6281Q680.0912 475.39374 681.2162 473.97186Q682.1537 472.8 683.80994 472.8ZM683.80994 474.6125Q683.4193 474.6125 683.1068 474.8781Q682.7943 475.1281 682.62244 475.78436Q682.38806 476.6281 682.38806 478.64374Q682.38806 480.65936 682.5912 481.425Q682.7943 482.175 683.1068 482.425Q683.4193 482.675 683.80994 482.675Q684.2162 482.675 684.5287 482.425Q684.8412 482.15936 685.01306 481.5031Q685.2318 480.65936 685.2318 478.64374Q685.2318 476.6281 685.0287 475.8781Q684.82556 475.1281 684.51306 474.8781Q684.2162 474.6125 683.80994 474.6125ZM694.7162 484.3L692.5287 484.3L692.5287 476.01874Q691.32556 477.14374 689.68494 477.6906L689.68494 475.6906Q690.5443 475.40936 691.5443 474.6281Q692.55994 473.84686 692.93494 472.8L694.7162 472.8L694.7162 484.3ZM698.1537 481.64374L700.2787 481.40936Q700.3568 482.0656 700.68494 482.3781Q701.01306 482.6906 701.5443 482.6906Q702.2318 482.6906 702.70056 482.0656Q703.18494 481.4406 703.30994 479.47186Q702.4818 480.425 701.24744 480.425Q699.88806 480.425 698.9037 479.39374Q697.93494 478.34686 697.93494 476.675Q697.93494 474.925 698.9662 473.8625Q699.99744 472.8 701.6068 472.8Q703.3412 472.8 704.45056 474.14374Q705.57556 475.4875 705.57556 478.58124Q705.57556 481.72186 704.4037 483.1125Q703.24744 484.5031 701.38806 484.5031Q700.0443 484.5031 699.2162 483.78436Q698.38806 483.0656 698.1537 481.64374ZM703.12244 476.84686Q703.12244 475.78436 702.62244 475.20624Q702.13806 474.6125 701.49744 474.6125Q700.88806 474.6125 700.4818 475.09686Q700.0912 475.58124 700.0912 476.675Q700.0912 477.78436 700.5287 478.3Q700.9662 478.8156 701.62244 478.8156Q702.24744 478.8156 702.68494 478.3156Q703.12244 477.8156 703.12244 476.84686Z" fill-rule="nonzero"/><path fill="#000000" d="M721.83295 482.2531L721.83295 484.3L714.14545 484.3Q714.27045 483.14374 714.89545 482.1125Q715.52045 481.0656 717.3642 479.3625Q718.8486 477.97186 719.1767 477.4875Q719.6298 476.8 719.6298 476.14374Q719.6298 475.40936 719.2392 475.01874Q718.8486 474.6125 718.14545 474.6125Q717.45795 474.6125 717.0517 475.03436Q716.64545 475.4406 716.58295 476.40936L714.39545 476.1906Q714.5986 474.3781 715.6298 473.59686Q716.6611 472.8 718.20795 472.8Q719.89545 472.8 720.8642 473.72186Q721.83295 474.6281 721.83295 475.9875Q721.83295 476.7531 721.5517 477.45624Q721.2861 478.15936 720.6767 478.925Q720.2861 479.425 719.2392 480.3781Q718.20795 481.33124 717.9267 481.64374Q717.64545 481.95624 717.4736 482.2531L721.83295 482.2531ZM727.1298 472.8Q728.8017 472.8 729.7392 473.9875Q730.8486 475.39374 730.8486 478.64374Q730.8486 481.89374 729.7236 483.3156Q728.8017 484.5031 727.1298 484.5031Q725.45795 484.5031 724.4267 483.22186Q723.4111 481.925 723.4111 478.6281Q723.4111 475.39374 724.5361 473.97186Q725.4736 472.8 727.1298 472.8ZM727.1298 474.6125Q726.7392 474.6125 726.4267 474.8781Q726.1142 475.1281 725.9423 475.78436Q725.70795 476.6281 725.70795 478.64374Q725.70795 480.65936 725.9111 481.425Q726.1142 482.175 726.4267 482.425Q726.7392 482.675 727.1298 482.675Q727.5361 482.675 727.8486 482.425Q728.1611 482.15936 728.33295 481.5031Q728.5517 480.65936 728.5517 478.64374Q728.5517 476.6281 728.3486 475.8781Q728.14545 475.1281 727.83295 474.8781Q727.5361 474.6125 727.1298 474.6125ZM739.83295 482.2531L739.83295 484.3L732.14545 484.3Q732.27045 483.14374 732.89545 482.1125Q733.52045 481.0656 735.3642 479.3625Q736.8486 477.97186 737.1767 477.4875Q737.6298 476.8 737.6298 476.14374Q737.6298 475.40936 737.2392 475.01874Q736.8486 474.6125 736.14545 474.6125Q735.45795 474.6125 735.0517 475.03436Q734.64545 475.4406 734.58295 476.40936L732.39545 476.1906Q732.5986 474.3781 733.6298 473.59686Q734.6611 472.8 736.20795 472.8Q737.89545 472.8 738.8642 473.72186Q739.83295 474.6281 739.83295 475.9875Q739.83295 476.7531 739.5517 477.45624Q739.2861 478.15936 738.6767 478.925Q738.2861 479.425 737.2392 480.3781Q736.20795 481.33124 735.9267 481.64374Q735.64545 481.95624 735.4736 482.2531L739.83295 482.2531ZM745.1298 472.8Q746.8017 472.8 747.7392 473.9875Q748.8486 475.39374 748.8486 478.64374Q748.8486 481.89374 747.7236 483.3156Q746.8017 484.5031 745.1298 484.5031Q743.45795 484.5031 742.4267 483.22186Q741.4111 481.925 741.4111 478.6281Q741.4111 475.39374 742.5361 473.97186Q743.4736 472.8 745.1298 472.8ZM745.1298 474.6125Q744.7392 474.6125 744.4267 474.8781Q744.1142 475.1281 743.9423 475.78436Q743.70795 476.6281 743.70795 478.64374Q743.70795 480.65936 743.9111 481.425Q744.1142 482.175 744.4267 482.425Q744.7392 482.675 745.1298 482.675Q745.5361 482.675 745.8486 482.425Q746.1611 482.15936 746.33295 481.5031Q746.5517 480.65936 746.5517 478.64374Q746.5517 476.6281 746.3486 475.8781Q746.14545 475.1281 745.83295 474.8781Q745.5361 474.6125 745.1298 474.6125Z" fill-rule="nonzero"/><path fill="#000000" d="M765.15283 482.2531L765.15283 484.3L757.46533 484.3Q757.59033 483.14374 758.21533 482.1125Q758.84033 481.0656 760.6841 479.3625Q762.16846 477.97186 762.4966 477.4875Q762.9497 476.8 762.9497 476.14374Q762.9497 475.40936 762.5591 475.01874Q762.16846 474.6125 761.46533 474.6125Q760.77783 474.6125 760.3716 475.03436Q759.96533 475.4406 759.90283 476.40936L757.71533 476.1906Q757.91846 474.3781 758.9497 473.59686Q759.98096 472.8 761.52783 472.8Q763.21533 472.8 764.1841 473.72186Q765.15283 474.6281 765.15283 475.9875Q765.15283 476.7531 764.8716 477.45624Q764.60596 478.15936 763.9966 478.925Q763.60596 479.425 762.5591 480.3781Q761.52783 481.33124 761.2466 481.64374Q760.96533 481.95624 760.79346 482.2531L765.15283 482.2531ZM770.4497 472.8Q772.1216 472.8 773.0591 473.9875Q774.16846 475.39374 774.16846 478.64374Q774.16846 481.89374 773.04346 483.3156Q772.1216 484.5031 770.4497 484.5031Q768.77783 484.5031 767.7466 483.22186Q766.73096 481.925 766.73096 478.6281Q766.73096 475.39374 767.85596 473.97186Q768.79346 472.8 770.4497 472.8ZM770.4497 474.6125Q770.0591 474.6125 769.7466 474.8781Q769.4341 475.1281 769.2622 475.78436Q769.02783 476.6281 769.02783 478.64374Q769.02783 480.65936 769.23096 481.425Q769.4341 482.175 769.7466 482.425Q770.0591 482.675 770.4497 482.675Q770.85596 482.675 771.16846 482.425Q771.48096 482.15936 771.65283 481.5031Q771.8716 480.65936 771.8716 478.64374Q771.8716 476.6281 771.66846 475.8781Q771.46533 475.1281 771.15283 474.8781Q770.85596 474.6125 770.4497 474.6125ZM783.15283 482.2531L783.15283 484.3L775.46533 484.3Q775.59033 483.14374 776.21533 482.1125Q776.84033 481.0656 778.6841 479.3625Q780.16846 477.97186 780.4966 477.4875Q780.9497 476.8 780.9497 476.14374Q780.9497 475.40936 780.5591 475.01874Q780.16846 474.6125 779.46533 474.6125Q778.77783 474.6125 778.3716 475.03436Q777.96533 475.4406 777.90283 476.40936L775.71533 476.1906Q775.91846 474.3781 776.9497 473.59686Q777.98096 472.8 779.52783 472.8Q781.21533 472.8 782.1841 473.72186Q783.15283 474.6281 783.15283 475.9875Q783.15283 476.7531 782.8716 477.45624Q782.60596 478.15936 781.9966 478.925Q781.60596 479.425 780.5591 480.3781Q779.52783 481.33124 779.2466 481.64374Q778.96533 481.95624 778.79346 482.2531L783.15283 482.2531ZM790.35596 484.3L788.16846 484.3L788.16846 476.01874Q786.96533 477.14374 785.3247 477.6906L785.3247 475.6906Q786.1841 475.40936 787.1841 474.6281Q788.1997 473.84686 788.5747 472.8L790.35596 472.8L790.35596 484.3Z" fill-rule="nonzero"/><path fill="#000000" d="M32.325 30.3875L35.2 30.3875L35.2 39.45Q35.2 41.215626 34.8875 42.184376Q34.465626 43.434376 33.35625 44.2Q32.2625 44.95 30.45 44.95Q28.340626 44.95 27.2 43.7625Q26.059376 42.575 26.04375 40.278126L28.7625 39.965626Q28.809376 41.2 29.121876 41.7Q29.590626 42.465626 30.559376 42.465626Q31.528126 42.465626 31.91875 41.91875Q32.325 41.371876 32.325 39.6375L32.325 30.3875ZM44.965626 44.7L44.965626 43.153126Q44.403126 43.98125 43.465626 44.465626Q42.54375 44.934376 41.528126 44.934376Q40.48125 44.934376 39.653126 44.48125Q38.825 44.0125 38.45 43.184376Q38.075 42.35625 38.075 40.8875L38.075 34.325L40.825 34.325L40.825 39.090626Q40.825 41.278126 40.965626 41.778126Q41.121876 42.2625 41.5125 42.559376Q41.91875 42.840626 42.54375 42.840626Q43.246876 42.840626 43.79375 42.465626Q44.35625 42.075 44.559376 41.5125Q44.7625 40.934376 44.7625 38.7L44.7625 34.325L47.5125 34.325L47.5125 44.7L44.965626 44.7ZM56.1375 41.403126L58.871876 41.85625Q58.35625 43.35625 57.215626 44.153126Q56.075 44.934376 54.371876 44.934376Q51.653126 44.934376 50.35625 43.16875Q49.340626 41.746876 49.340626 39.590626Q49.340626 37.0125 50.684376 35.559376Q52.028126 34.090626 54.090626 34.090626Q56.403126 34.090626 57.73125 35.621876Q59.075 37.153126 59.028126 40.309376L52.153126 40.309376Q52.184376 41.528126 52.809376 42.215626Q53.45 42.8875 54.3875 42.8875Q55.04375 42.8875 55.48125 42.54375Q55.91875 42.184376 56.1375 41.403126ZM56.29375 38.621876Q56.2625 37.434376 55.66875 36.825Q55.090626 36.2 54.2625 36.2Q53.35625 36.2 52.778126 36.840626Q52.184376 37.496876 52.2 38.621876L56.29375 38.621876ZM60.8875 45.3875L64.0125 45.7625Q64.09062 46.309376 64.37187 46.5125Q64.7625 46.809376 65.60625 46.809376Q66.68437 46.809376 67.21562 46.48125Q67.575 46.278126 67.7625 45.79375Q67.8875 45.45 67.8875 44.528126L67.8875 43.0125Q66.66875 44.7 64.79375 44.7Q62.7 44.7 61.48125 42.934376Q60.528126 41.528126 60.528126 39.45Q60.528126 36.840626 61.778126 35.465626Q63.028126 34.090626 64.90312 34.090626Q66.825 34.090626 68.075 35.778126L68.075 34.325L70.6375 34.325L70.6375 43.6375Q70.6375 45.465626 70.325 46.371876Q70.02812 47.29375 69.48125 47.809376Q68.93437 48.325 68.0125 48.60625Q67.10625 48.903126 65.71562 48.903126Q63.075 48.903126 61.965626 47.996876Q60.871876 47.10625 60.871876 45.715626Q60.871876 45.575 60.8875 45.3875ZM63.340626 39.29375Q63.340626 40.95 63.965626 41.715626Q64.60625 42.48125 65.54375 42.48125Q66.55937 42.48125 67.24687 41.7Q67.95 40.903126 67.95 39.371876Q67.95 37.7625 67.27812 36.98125Q66.62187 36.2 65.60625 36.2Q64.60625 36.2 63.965626 36.965626Q63.340626 37.73125 63.340626 39.29375ZM72.49687 39.371876Q72.49687 37.996876 73.16875 36.715626Q73.85625 35.434376 75.09062 34.7625Q76.325 34.090626 77.84062 34.090626Q80.2 34.090626 81.7 35.621876Q83.2 37.153126 83.2 39.48125Q83.2 41.840626 81.68437 43.3875Q80.16875 44.934376 77.85625 44.934376Q76.43437 44.934376 75.1375 44.29375Q73.85625 43.6375 73.16875 42.403126Q72.49687 41.153126 72.49687 39.371876ZM75.30937 39.5125Q75.30937 41.059376 76.04375 41.8875Q76.77812 42.7 77.85625 42.7Q78.93437 42.7 79.65312 41.8875Q80.3875 41.059376 80.3875 39.496876Q80.3875 37.965626 79.65312 37.153126Q78.93437 36.325 77.85625 36.325Q76.77812 36.325 76.04375 37.153126Q75.30937 37.965626 75.30937 39.5125ZM84.16875 41.746876L86.91875 41.325Q87.10625 42.121876 87.6375 42.54375Q88.16875 42.95 89.1375 42.95Q90.2 42.95 90.74687 42.559376Q91.10625 42.29375 91.10625 41.825Q91.10625 41.5125 90.90312 41.309376Q90.7 41.121876 89.99687 40.95Q86.66875 40.215626 85.77812 39.60625Q84.54375 38.778126 84.54375 37.278126Q84.54375 35.934376 85.60625 35.0125Q86.68437 34.090626 88.91875 34.090626Q91.04375 34.090626 92.075 34.79375Q93.12187 35.48125 93.5125 36.840626L90.91875 37.309376Q90.74687 36.715626 90.27812 36.3875Q89.825 36.059376 88.96562 36.059376Q87.8875 36.059376 87.41875 36.371876Q87.10625 36.590626 87.10625 36.91875Q87.10625 37.215626 87.37187 37.41875Q87.74687 37.7 89.93437 38.2Q92.12187 38.7 92.99687 39.41875Q93.85625 40.153126 93.85625 41.45Q93.85625 42.8875 92.66875 43.91875Q91.48125 44.934376 89.1375 44.934376Q87.02812 44.934376 85.77812 44.075Q84.54375 43.215626 84.16875 41.746876ZM102.05937 34.325L104.62187 34.325L104.62187 35.85625Q105.12187 35.075 105.96562 34.590626Q106.80937 34.090626 107.85625 34.090626Q109.65312 34.090626 110.90312 35.5125Q112.16875 36.91875 112.16875 39.45Q112.16875 42.059376 110.90312 43.496876Q109.6375 44.934376 107.825 44.934376Q106.96562 44.934376 106.2625 44.590626Q105.575 44.246876 104.80937 43.41875L104.80937 48.653126L102.05937 48.653126L102.05937 34.325ZM104.77812 39.340626Q104.77812 41.090626 105.46562 41.934376Q106.15312 42.7625 107.15312 42.7625Q108.10625 42.7625 108.74687 41.996876Q109.3875 41.215626 109.3875 39.48125Q109.3875 37.840626 108.73125 37.059376Q108.075 36.2625 107.10625 36.2625Q106.10625 36.2625 105.43437 37.04375Q104.77812 37.809376 104.77812 39.340626ZM113.49687 39.371876Q113.49687 37.996876 114.16875 36.715626Q114.85625 35.434376 116.09062 34.7625Q117.325 34.090626 118.84062 34.090626Q121.2 34.090626 122.7 35.621876Q124.2 37.153126 124.2 39.48125Q124.2 41.840626 122.68437 43.3875Q121.16875 44.934376 118.85625 44.934376Q117.43437 44.934376 116.1375 44.29375Q114.85625 43.6375 114.16875 42.403126Q113.49687 41.153126 113.49687 39.371876ZM116.30937 39.5125Q116.30937 41.059376 117.04375 41.8875Q117.77812 42.7 118.85625 42.7Q119.93437 42.7 120.65312 41.8875Q121.3875 41.059376 121.3875 39.496876Q121.3875 37.965626 120.65312 37.153126Q119.93437 36.325 118.85625 36.325Q117.77812 36.325 117.04375 37.153126Q116.30937 37.965626 116.30937 39.5125ZM128.7625 44.7L126.0125 44.7L126.0125 34.325L128.575 34.325L128.575 35.809376Q129.21562 34.7625 129.73125 34.434376Q130.2625 34.090626 130.93437 34.090626Q131.87187 34.090626 132.73125 34.60625L131.8875 36.996876Q131.2 36.559376 130.60625 36.559376Q130.02812 36.559376 129.62187 36.871876Q129.21562 37.184376 128.98125 38.028126Q128.7625 38.85625 128.7625 41.496876L128.7625 44.7ZM142.18437 37.496876L139.7 37.04375Q140.12187 35.54375 141.1375 34.825Q142.16875 34.090626 144.18437 34.090626Q146.02812 34.090626 146.91875 34.528126Q147.825 34.965626 148.18437 35.6375Q148.55937 36.29375 148.55937 38.090626L148.52812 41.29375Q148.52812 42.653126 148.65312 43.309376Q148.79375 43.95 149.15312 44.7L146.43437 44.7Q146.325 44.41875 146.16875 43.8875Q146.10625 43.6375 146.075 43.559376Q145.37187 44.246876 144.55937 44.590626Q143.7625 44.934376 142.85625 44.934376Q141.2625 44.934376 140.34062 44.075Q139.41875 43.2 139.41875 41.871876Q139.41875 40.98125 139.825 40.29375Q140.24687 39.60625 140.99687 39.246876Q141.7625 38.871876 143.2 38.60625Q145.12187 38.246876 145.85625 37.934376L145.85625 37.653126Q145.85625 36.871876 145.46562 36.54375Q145.075 36.2 143.99687 36.2Q143.2625 36.2 142.84062 36.48125Q142.43437 36.7625 142.18437 37.496876ZM145.85625 39.715626Q145.325 39.8875 144.18437 40.1375Q143.04375 40.3875 142.7 40.621876Q142.15312 40.996876 142.15312 41.590626Q142.15312 42.153126 142.575 42.575Q143.0125 42.996876 143.68437 42.996876Q144.41875 42.996876 145.09062 42.5125Q145.59062 42.1375 145.74687 41.60625Q145.85625 41.246876 145.85625 40.2625L145.85625 39.715626ZM160.575 44.7L157.825 44.7L157.825 39.403126Q157.825 37.73125 157.65312 37.246876Q157.48125 36.746876 157.075 36.48125Q156.68437 36.2 156.12187 36.2Q155.41875 36.2 154.84062 36.590626Q154.27812 36.98125 154.05937 37.621876Q153.85625 38.2625 153.85625 39.996876L153.85625 44.7L151.12187 44.7L151.12187 34.325L153.66875 34.325L153.66875 35.85625Q155.02812 34.090626 157.09062 34.090626Q157.99687 34.090626 158.74687 34.41875Q159.49687 34.746876 159.87187 35.2625Q160.2625 35.7625 160.41875 36.41875Q160.575 37.059376 160.575 38.246876L160.575 44.7ZM153.73125 32.934376L152.46562 32.934376Q152.46562 32.7 152.46562 32.575Q152.46562 31.559376 152.96562 31.0125Q153.46562 30.45 154.24687 30.45Q154.59062 30.45 154.87187 30.528126Q155.16875 30.590626 155.93437 30.95Q156.71562 31.29375 157.16875 31.29375Q157.48125 31.29375 157.68437 31.10625Q157.8875 30.903126 157.95 30.434376L159.21562 30.434376Q159.21562 31.7625 158.73125 32.325Q158.24687 32.8875 157.48125 32.8875Q157.15312 32.8875 156.825 32.825Q156.60625 32.7625 155.7 32.41875Q154.80937 32.075 154.40312 32.075Q154.09062 32.075 153.90312 32.278126Q153.73125 32.465626 153.73125 32.934376ZM162.49687 39.371876Q162.49687 37.996876 163.16875 36.715626Q163.85625 35.434376 165.09062 34.7625Q166.325 34.090626 167.84062 34.090626Q170.2 34.090626 171.7 35.621876Q173.2 37.153126 173.2 39.48125Q173.2 41.840626 171.68437 43.3875Q170.16875 44.934376 167.85625 44.934376Q166.43437 44.934376 165.1375 44.29375Q163.85625 43.6375 163.16875 42.403126Q162.49687 41.153126 162.49687 39.371876ZM165.30937 39.5125Q165.30937 41.059376 166.04375 41.8875Q166.77812 42.7 167.85625 42.7Q168.93437 42.7 169.65312 41.8875Q170.3875 41.059376 170.3875 39.496876Q170.3875 37.965626 169.65312 37.153126Q168.93437 36.325 167.85625 36.325Q166.77812 36.325 166.04375 37.153126Q165.30937 37.965626 165.30937 39.5125ZM190.65312 44.7L188.10625 44.7L188.10625 43.16875Q187.46562 44.059376 186.59062 44.496876Q185.73125 44.934376 184.85625 44.934376Q183.075 44.934376 181.79375 43.496876Q180.52812 42.059376 180.52812 39.48125Q180.52812 36.840626 181.7625 35.465626Q182.99687 34.090626 184.90312 34.090626Q186.6375 34.090626 187.90312 35.54375L187.90312 30.3875L190.65312 30.3875L190.65312 44.7ZM183.325 39.29375Q183.325 40.95 183.77812 41.684376Q184.45 42.7625 185.6375 42.7625Q186.59062 42.7625 187.24687 41.965626Q187.91875 41.153126 187.91875 39.559376Q187.91875 37.7625 187.2625 36.98125Q186.62187 36.2 185.62187 36.2Q184.6375 36.2 183.98125 36.98125Q183.325 37.746876 183.325 39.29375ZM199.1375 41.403126L201.87187 41.85625Q201.35625 43.35625 200.21562 44.153126Q199.075 44.934376 197.37187 44.934376Q194.65312 44.934376 193.35625 43.16875Q192.34062 41.746876 192.34062 39.590626Q192.34062 37.0125 193.68437 35.559376Q195.02812 34.090626 197.09062 34.090626Q199.40312 34.090626 200.73125 35.621876Q202.075 37.153126 202.02812 40.309376L195.15312 40.309376Q195.18437 41.528126 195.80937 42.215626Q196.45 42.8875 197.3875 42.8875Q198.04375 42.8875 198.48125 42.54375Q198.91875 42.184376 199.1375 41.403126ZM199.29375 38.621876Q199.2625 37.434376 198.66875 36.825Q198.09062 36.2 197.2625 36.2Q196.35625 36.2 195.77812 36.840626Q195.18437 37.496876 195.2 38.621876L199.29375 38.621876ZM210.05937 34.325L212.62187 34.325L212.62187 35.85625Q213.12187 35.075 213.96562 34.590626Q214.80937 34.090626 215.85625 34.090626Q217.65312 34.090626 218.90312 35.5125Q220.16875 36.91875 220.16875 39.45Q220.16875 42.059376 218.90312 43.496876Q217.6375 44.934376 215.825 44.934376Q214.96562 44.934376 214.2625 44.590626Q213.575 44.246876 212.80937 43.41875L212.80937 48.653126L210.05937 48.653126L210.05937 34.325ZM212.77812 39.340626Q212.77812 41.090626 213.46562 41.934376Q214.15312 42.7625 215.15312 42.7625Q216.10625 42.7625 216.74687 41.996876Q217.3875 41.215626 217.3875 39.48125Q217.3875 37.840626 216.73125 37.059376Q216.075 36.2625 215.10625 36.2625Q214.10625 36.2625 213.43437 37.04375Q212.77812 37.809376 212.77812 39.340626ZM228.96562 44.7L228.96562 43.153126Q228.40312 43.98125 227.46562 44.465626Q226.54375 44.934376 225.52812 44.934376Q224.48125 44.934376 223.65312 44.48125Q222.825 44.0125 222.45 43.184376Q222.075 42.35625 222.075 40.8875L222.075 34.325L224.825 34.325L224.825 39.090626Q224.825 41.278126 224.96562 41.778126Q225.12187 42.2625 225.5125 42.559376Q225.91875 42.840626 226.54375 42.840626Q227.24687 42.840626 227.79375 42.465626Q228.35625 42.075 228.55937 41.5125Q228.7625 40.934376 228.7625 38.7L228.7625 34.325L231.5125 34.325L231.5125 44.7L228.96562 44.7ZM234.0125 44.7L234.0125 30.3875L236.7625 30.3875L236.7625 35.54375Q238.02812 34.090626 239.77812 34.090626Q241.66875 34.090626 242.90312 35.465626Q244.15312 36.840626 244.15312 39.403126Q244.15312 42.059376 242.8875 43.496876Q241.62187 44.934376 239.80937 44.934376Q238.91875 44.934376 238.05937 44.496876Q237.2 44.04375 236.575 43.16875L236.575 44.7L234.0125 44.7ZM236.74687 39.29375Q236.74687 40.903126 237.24687 41.66875Q237.96562 42.7625 239.15312 42.7625Q240.05937 42.7625 240.7 41.996876Q241.34062 41.215626 241.34062 39.54375Q241.34062 37.7625 240.68437 36.98125Q240.04375 36.2 239.04375 36.2Q238.05937 36.2 237.40312 36.965626Q236.74687 37.73125 236.74687 39.29375ZM246.1375 44.7L246.1375 30.3875L248.8875 30.3875L248.8875 44.7L246.1375 44.7ZM251.1375 32.91875L251.1375 30.3875L253.8875 30.3875L253.8875 32.91875L251.1375 32.91875ZM251.1375 44.7L251.1375 34.325L253.8875 34.325L253.8875 44.7L251.1375 44.7ZM265.1844 37.3875L262.48126 37.8875Q262.34064 37.075 261.85626 36.66875Q261.3719 36.246876 260.60626 36.246876Q259.575 36.246876 258.96564 36.965626Q258.35626 37.66875 258.35626 39.325Q258.35626 41.16875 258.96564 41.934376Q259.59064 42.7 260.6375 42.7Q261.41876 42.7 261.91876 42.2625Q262.41876 41.809376 262.6219 40.73125L265.3094 41.184376Q264.90314 43.04375 263.7 43.996876Q262.5125 44.934376 260.5125 44.934376Q258.23126 44.934376 256.8719 43.496876Q255.52812 42.059376 255.52812 39.528126Q255.52812 36.95 256.8875 35.528126Q258.2469 34.090626 260.5594 34.090626Q262.45 34.090626 263.5594 34.91875Q264.6844 35.73125 265.1844 37.3875ZM269.1844 37.496876L266.7 37.04375Q267.1219 35.54375 268.1375 34.825Q269.16876 34.090626 271.1844 34.090626Q273.02814 34.090626 273.91876 34.528126Q274.825 34.965626 275.1844 35.6375Q275.5594 36.29375 275.5594 38.090626L275.52814 41.29375Q275.52814 42.653126 275.65314 43.309376Q275.79376 43.95 276.15314 44.7L273.4344 44.7Q273.325 44.41875 273.16876 43.8875Q273.10626 43.6375 273.075 43.559376Q272.3719 44.246876 271.5594 44.590626Q270.7625 44.934376 269.85626 44.934376Q268.2625 44.934376 267.34064 44.075Q266.41876 43.2 266.41876 41.871876Q266.41876 40.98125 266.825 40.29375Q267.2469 39.60625 267.9969 39.246876Q268.7625 38.871876 270.2 38.60625Q272.1219 38.246876 272.85626 37.934376L272.85626 37.653126Q272.85626 36.871876 272.46564 36.54375Q272.075 36.2 270.9969 36.2Q270.2625 36.2 269.84064 36.48125Q269.4344 36.7625 269.1844 37.496876ZM272.85626 39.715626Q272.325 39.8875 271.1844 40.1375Q270.04376 40.3875 269.7 40.621876Q269.15314 40.996876 269.15314 41.590626Q269.15314 42.153126 269.575 42.575Q270.0125 42.996876 270.6844 42.996876Q271.41876 42.996876 272.09064 42.5125Q272.59064 42.1375 272.7469 41.60625Q272.85626 41.246876 272.85626 40.2625L272.85626 39.715626ZM287.1844 37.3875L284.48126 37.8875Q284.34064 37.075 283.85626 36.66875Q283.3719 36.246876 282.60626 36.246876Q281.575 36.246876 280.96564 36.965626Q280.35626 37.66875 280.35626 39.325Q280.35626 41.16875 280.96564 41.934376Q281.59064 42.7 282.6375 42.7Q283.41876 42.7 283.91876 42.2625Q284.41876 41.809376 284.6219 40.73125L287.3094 41.184376Q286.90314 43.04375 285.7 43.996876Q284.5125 44.934376 282.5125 44.934376Q280.23126 44.934376 278.8719 43.496876Q277.52814 42.059376 277.52814 39.528126Q277.52814 36.95 278.8875 35.528126Q280.2469 34.090626 282.5594 34.090626Q284.45 34.090626 285.5594 34.91875Q286.6844 35.73125 287.1844 37.3875ZM289.1375 32.91875L289.1375 30.3875L291.8875 30.3875L291.8875 32.91875L289.1375 32.91875ZM289.1375 44.7L289.1375 34.325L291.8875 34.325L291.8875 44.7L289.1375 44.7ZM293.4969 39.371876Q293.4969 37.996876 294.16876 36.715626Q294.85626 35.434376 296.09064 34.7625Q297.325 34.090626 298.84064 34.090626Q301.2 34.090626 302.7 35.621876Q304.2 37.153126 304.2 39.48125Q304.2 41.840626 302.6844 43.3875Q301.16876 44.934376 298.85626 44.934376Q297.4344 44.934376 296.1375 44.29375Q294.85626 43.6375 294.16876 42.403126Q293.4969 41.153126 293.4969 39.371876ZM296.3094 39.5125Q296.3094 41.059376 297.04376 41.8875Q297.77814 42.7 298.85626 42.7Q299.9344 42.7 300.65314 41.8875Q301.3875 41.059376 301.3875 39.496876Q301.3875 37.965626 300.65314 37.153126Q299.9344 36.325 298.85626 36.325Q297.77814 36.325 297.04376 37.153126Q296.3094 37.965626 296.3094 39.5125ZM297.46564 33.059376L298.8094 30.1375L301.8875 30.1375L299.2 33.059376L297.46564 33.059376ZM315.575 44.7L312.825 44.7L312.825 39.403126Q312.825 37.73125 312.65314 37.246876Q312.48126 36.746876 312.075 36.48125Q311.6844 36.2 311.1219 36.2Q310.41876 36.2 309.84064 36.590626Q309.27814 36.98125 309.0594 37.621876Q308.85626 38.2625 308.85626 39.996876L308.85626 44.7L306.1219 44.7L306.1219 34.325L308.66876 34.325L308.66876 35.85625Q310.02814 34.090626 312.09064 34.090626Q312.9969 34.090626 313.7469 34.41875Q314.4969 34.746876 314.8719 35.2625Q315.2625 35.7625 315.41876 36.41875Q315.575 37.059376 315.575 38.246876L315.575 44.7Z" fill-rule="nonzero"/></svg>