<svg version="1.1" viewBox="0.0 0.0 657.0 407.0" fill="none" stroke="none" stroke-linecap="square" stroke-miterlimit="10" width="657" height="407" xmlns:xlink="http://www.w3.org/1999/xlink" xmlns="http://www.w3.org/2000/svg"><path fill="#ffffff" d="M0 0L657.0 0L657.0 407.0L0 407.0L0 0Z" fill-rule="nonzero"/><path stroke="#333333" stroke-width="1.0" stroke-linecap="butt" d="M47.5 366.5L636.5 366.5" fill-rule="nonzero"/><path stroke="#cccccc" stroke-width="1.0" stroke-linecap="butt" d="M47.5 361.5L636.5 361.5" fill-rule="nonzero"/><path stroke="#cccccc" stroke-width="1.0" stroke-linecap="butt" d="M47.5 356.5L636.5 356.5" fill-rule="nonzero"/><path stroke="#cccccc" stroke-width="1.0" stroke-linecap="butt" d="M47.5 351.5L636.5 351.5" fill-rule="nonzero"/><path stroke="#cccccc" stroke-width="1.0" stroke-linecap="butt" d="M47.5 346.5L636.5 346.5" fill-rule="nonzero"/><path stroke="#cccccc" stroke-width="1.0" stroke-linecap="butt" d="M47.5 341.5L636.5 341.5" fill-rule="nonzero"/><path stroke="#cccccc" stroke-width="1.0" stroke-linecap="butt" d="M47.5 336.5L636.5 336.5" fill-rule="nonzero"/><path stroke="#cccccc" stroke-width="1.0" stroke-linecap="butt" d="M47.5 331.5L636.5 331.5" fill-rule="nonzero"/><path stroke="#cccccc" stroke-width="1.0" stroke-linecap="butt" d="M47.5 326.5L636.5 326.5" fill-rule="nonzero"/><path stroke="#cccccc" stroke-width="1.0" stroke-linecap="butt" d="M47.5 321.5L636.5 321.5" fill-rule="nonzero"/><path stroke="#cccccc" stroke-width="1.0" stroke-linecap="butt" d="M47.5 316.5L636.5 316.5" fill-rule="nonzero"/><path stroke="#cccccc" stroke-width="1.0" stroke-linecap="butt" d="M47.5 311.5L636.5 311.5" fill-rule="nonzero"/><path stroke="#cccccc" stroke-width="1.0" stroke-linecap="butt" d="M47.5 306.5L636.5 306.5" fill-rule="nonzero"/><path stroke="#cccccc" stroke-width="1.0" stroke-linecap="butt" d="M47.5 301.5L636.5 301.5" fill-rule="nonzero"/><path stroke="#cccccc" stroke-width="1.0" stroke-linecap="butt" d="M47.5 296.5L636.5 296.5" fill-rule="nonzero"/><path stroke="#cccccc" stroke-width="1.0" stroke-linecap="butt" d="M47.5 291.5L636.5 291.5" fill-rule="nonzero"/><path stroke="#cccccc" stroke-width="1.0" stroke-linecap="butt" d="M47.5 286.5L636.5 286.5" fill-rule="nonzero"/><path stroke="#cccccc" stroke-width="1.0" stroke-linecap="butt" d="M47.5 281.5L636.5 281.5" fill-rule="nonzero"/><path stroke="#cccccc" stroke-width="1.0" stroke-linecap="butt" d="M47.5 276.5L636.5 276.5" fill-rule="nonzero"/><path stroke="#cccccc" stroke-width="1.0" stroke-linecap="butt" d="M47.5 271.5L636.5 271.5" fill-rule="nonzero"/><path stroke="#cccccc" stroke-width="1.0" stroke-linecap="butt" d="M47.5 266.5L636.5 266.5" fill-rule="nonzero"/><path stroke="#cccccc" stroke-width="1.0" stroke-linecap="butt" d="M47.5 261.5L636.5 261.5" fill-rule="nonzero"/><path stroke="#cccccc" stroke-width="1.0" stroke-linecap="butt" d="M47.5 256.5L636.5 256.5" fill-rule="nonzero"/><path stroke="#cccccc" stroke-width="1.0" stroke-linecap="butt" d="M47.5 250.5L636.5 250.5" fill-rule="nonzero"/><path stroke="#cccccc" stroke-width="1.0" stroke-linecap="butt" d="M47.5 245.5L636.5 245.5" fill-rule="nonzero"/><path stroke="#cccccc" stroke-width="1.0" stroke-linecap="butt" d="M47.5 240.5L636.5 240.5" fill-rule="nonzero"/><path stroke="#cccccc" stroke-width="1.0" stroke-linecap="butt" d="M47.5 235.5L636.5 235.5" fill-rule="nonzero"/><path stroke="#cccccc" stroke-width="1.0" stroke-linecap="butt" d="M47.5 230.5L636.5 230.5" fill-rule="nonzero"/><path stroke="#cccccc" stroke-width="1.0" stroke-linecap="butt" d="M47.5 225.5L636.5 225.5" fill-rule="nonzero"/><path stroke="#cccccc" stroke-width="1.0" stroke-linecap="butt" d="M47.5 220.5L636.5 220.5" fill-rule="nonzero"/><path stroke="#cccccc" stroke-width="1.0" stroke-linecap="butt" d="M47.5 215.5L636.5 215.5" fill-rule="nonzero"/><path stroke="#cccccc" stroke-width="1.0" stroke-linecap="butt" d="M47.5 210.5L636.5 210.5" fill-rule="nonzero"/><path stroke="#cccccc" stroke-width="1.0" stroke-linecap="butt" d="M47.5 205.5L636.5 205.5" fill-rule="nonzero"/><path stroke="#cccccc" stroke-width="1.0" stroke-linecap="butt" d="M47.5 200.5L636.5 200.5" fill-rule="nonzero"/><path stroke="#cccccc" stroke-width="1.0" stroke-linecap="butt" d="M47.5 195.5L636.5 195.5" fill-rule="nonzero"/><path stroke="#cccccc" stroke-width="1.0" stroke-linecap="butt" d="M47.5 190.5L636.5 190.5" fill-rule="nonzero"/><path stroke="#cccccc" stroke-width="1.0" stroke-linecap="butt" d="M47.5 185.5L636.5 185.5" fill-rule="nonzero"/><path stroke="#cccccc" stroke-width="1.0" stroke-linecap="butt" d="M47.5 180.5L636.5 180.5" fill-rule="nonzero"/><path stroke="#cccccc" stroke-width="1.0" stroke-linecap="butt" d="M47.5 175.5L636.5 175.5" fill-rule="nonzero"/><path stroke="#cccccc" stroke-width="1.0" stroke-linecap="butt" d="M47.5 170.5L636.5 170.5" fill-rule="nonzero"/><path stroke="#cccccc" stroke-width="1.0" stroke-linecap="butt" d="M47.5 165.5L636.5 165.5" fill-rule="nonzero"/><path stroke="#cccccc" stroke-width="1.0" stroke-linecap="butt" d="M47.5 160.5L636.5 160.5" fill-rule="nonzero"/><path stroke="#cccccc" stroke-width="1.0" stroke-linecap="butt" d="M47.5 155.5L636.5 155.5" fill-rule="nonzero"/><path stroke="#cccccc" stroke-width="1.0" stroke-linecap="butt" d="M47.5 150.5L636.5 150.5" fill-rule="nonzero"/><path stroke="#cccccc" stroke-width="1.0" stroke-linecap="butt" d="M47.5 145.5L636.5 145.5" fill-rule="nonzero"/><path stroke="#cccccc" stroke-width="1.0" stroke-linecap="butt" d="M47.5 140.5L636.5 140.5" fill-rule="nonzero"/><path stroke="#cccccc" stroke-width="1.0" stroke-linecap="butt" d="M47.5 135.5L636.5 135.5" fill-rule="nonzero"/><path stroke="#cccccc" stroke-width="1.0" stroke-linecap="butt" d="M47.5 130.5L636.5 130.5" fill-rule="nonzero"/><path stroke="#cccccc" stroke-width="1.0" stroke-linecap="butt" d="M47.5 125.5L636.5 125.5" fill-rule="nonzero"/><path stroke="#cccccc" stroke-width="1.0" stroke-linecap="butt" d="M47.5 120.5L636.5 120.5" fill-rule="nonzero"/><path stroke="#cccccc" stroke-width="1.0" stroke-linecap="butt" d="M47.5 115.5L636.5 115.5" fill-rule="nonzero"/><path stroke="#cccccc" stroke-width="1.0" stroke-linecap="butt" d="M47.5 110.5L636.5 110.5" fill-rule="nonzero"/><path stroke="#cccccc" stroke-width="1.0" stroke-linecap="butt" d="M47.5 105.5L636.5 105.5" fill-rule="nonzero"/><path stroke="#cccccc" stroke-width="1.0" stroke-linecap="butt" d="M47.5 100.5L636.5 100.5" fill-rule="nonzero"/><path stroke="#cccccc" stroke-width="1.0" stroke-linecap="butt" d="M47.5 95.5L636.5 95.5" fill-rule="nonzero"/><path stroke="#cccccc" stroke-width="1.0" stroke-linecap="butt" d="M47.5 90.5L636.5 90.5" fill-rule="nonzero"/><path stroke="#cccccc" stroke-width="1.0" stroke-linecap="butt" d="M47.5 85.5L636.5 85.5" fill-rule="nonzero"/><path stroke="#cccccc" stroke-width="1.0" stroke-linecap="butt" d="M47.5 80.5L636.5 80.5" fill-rule="nonzero"/><path stroke="#cccccc" stroke-width="1.0" stroke-linecap="butt" d="M47.5 74.5L636.5 74.5" fill-rule="nonzero"/><path stroke="#cccccc" stroke-width="1.0" stroke-linecap="butt" d="M47.5 69.5L636.5 69.5" fill-rule="nonzero"/><path stroke="#cccccc" stroke-width="1.0" stroke-linecap="butt" d="M47.5 64.5L636.5 64.5" fill-rule="nonzero"/><clipPath id="id_0"><path d="M47.35 64.916664L636.65 64.916664L636.65 366.65L47.35 366.65L47.35 64.916664Z" clip-rule="nonzero"/></clipPath><path stroke="#000000" stroke-width="2.0" stroke-linecap="butt" stroke-opacity="0.0" clip-path="url(#id_0)" d="M158.0 367.0L86.0 367.0L86.0 354.0C86.0 352.89542 86.89543 352.0 88.0 352.0L156.0 352.0C157.10457 352.0 158.0 352.89542 158.0 354.0Z" fill-rule="nonzero"/><path fill="#6aa84f" clip-path="url(#id_0)" d="M158.0 367.0L86.0 367.0L86.0 354.0C86.0 352.89542 86.89543 352.0 88.0 352.0L156.0 352.0C157.10457 352.0 158.0 352.89542 158.0 354.0Z" fill-rule="nonzero"/><path stroke="#000000" stroke-width="2.0" stroke-linecap="butt" stroke-opacity="0.0" clip-path="url(#id_0)" d="M268.0 367.0L196.0 367.0L196.0 67.0C196.0 65.89543 196.89543 65.0 198.0 65.0L266.0 65.0C267.10458 65.0 268.0 65.89543 268.0 67.0Z" fill-rule="nonzero"/><path fill="#3c78d8" clip-path="url(#id_0)" d="M268.0 367.0L196.0 367.0L196.0 67.0C196.0 65.89543 196.89543 65.0 198.0 65.0L266.0 65.0C267.10458 65.0 268.0 65.89543 268.0 67.0Z" fill-rule="nonzero"/><path stroke="#000000" stroke-width="2.0" stroke-linecap="butt" stroke-opacity="0.0" clip-path="url(#id_0)" d="M378.0 367.0L306.0 367.0L306.0 77.0C306.0 75.89543 306.89542 75.0 308.0 75.0L376.0 75.0C377.10458 75.0 378.0 75.89543 378.0 77.0Z" fill-rule="nonzero"/><path fill="#f1c232" clip-path="url(#id_0)" d="M378.0 367.0L306.0 367.0L306.0 77.0C306.0 75.89543 306.89542 75.0 308.0 75.0L376.0 75.0C377.10458 75.0 378.0 75.89543 378.0 77.0Z" fill-rule="nonzero"/><path stroke="#000000" stroke-width="2.0" stroke-linecap="butt" stroke-opacity="0.0" clip-path="url(#id_0)" d="M488.0 367.0L416.0 367.0L416.0 253.0C416.0 251.89543 416.89542 251.0 418.0 251.0L486.0 251.0C487.10458 251.0 488.0 251.89543 488.0 253.0Z" fill-rule="nonzero"/><path fill="#e69138" clip-path="url(#id_0)" d="M488.0 367.0L416.0 367.0L416.0 253.0C416.0 251.89543 416.89542 251.0 418.0 251.0L486.0 251.0C487.10458 251.0 488.0 251.89543 488.0 253.0Z" fill-rule="nonzero"/><path stroke="#000000" stroke-width="2.0" stroke-linecap="butt" stroke-opacity="0.0" clip-path="url(#id_0)" d="M598.0 367.0L526.0 367.0L526.0 338.0C526.0 336.89542 526.89545 336.0 528.0 336.0L596.0 336.0C597.10455 336.0 598.0 336.89542 598.0 338.0Z" fill-rule="nonzero"/><path fill="#cc0000" clip-path="url(#id_0)" d="M598.0 367.0L526.0 367.0L526.0 338.0C526.0 336.89542 526.89545 336.0 528.0 336.0L596.0 336.0C597.10455 336.0 598.0 336.89542 598.0 338.0Z" fill-rule="nonzero"/><path fill="#000000" d="M34.85 366.41562Q34.85 364.88437 35.1625 363.9625Q35.475 363.025 36.084373 362.525Q36.709373 362.025 37.646873 362.025Q38.334373 362.025 38.85 362.30624Q39.38125 362.5875 39.725 363.11874Q40.06875 363.63437 40.25625 364.38437Q40.44375 365.13437 40.44375 366.41562Q40.44375 367.93124 40.13125 368.85312Q39.834373 369.775 39.209373 370.29062Q38.6 370.79062 37.646873 370.79062Q36.4125 370.79062 35.69375 369.9Q34.85 368.8375 34.85 366.41562ZM35.928123 366.41562Q35.928123 368.525 36.428123 369.22812Q36.928123 369.93124 37.646873 369.93124Q38.38125 369.93124 38.865623 369.22812Q39.365623 368.525 39.365623 366.41562Q39.365623 364.29062 38.865623 363.60312Q38.38125 362.9 37.63125 362.9Q36.9125 362.9 36.475 363.50937Q35.928123 364.29062 35.928123 366.41562Z" fill-rule="nonzero"/><path fill="#000000" d="M34.85 353.2977L35.9125 353.15707Q36.084373 354.0477 36.521873 354.45395Q36.959373 354.84457 37.584373 354.84457Q38.334373 354.84457 38.85 354.32895Q39.365623 353.81332 39.365623 353.0477Q39.365623 352.32895 38.88125 351.8602Q38.4125 351.37582 37.678123 351.37582Q37.38125 351.37582 36.928123 351.50082L37.053123 350.56332Q37.1625 350.57895 37.225 350.57895Q37.896873 350.57895 38.428123 350.2352Q38.975 349.87582 38.975 349.14145Q38.975 348.56332 38.584373 348.18832Q38.19375 347.7977 37.56875 347.7977Q36.959373 347.7977 36.5375 348.18832Q36.13125 348.57895 36.021873 349.34457L34.959373 349.15707Q35.146873 348.1102 35.834373 347.53207Q36.521873 346.93832 37.5375 346.93832Q38.240623 346.93832 38.834373 347.25082Q39.428123 347.5477 39.740623 348.06332Q40.053123 348.57895 40.053123 349.1727Q40.053123 349.71957 39.75625 350.18832Q39.459373 350.64145 38.88125 350.90707Q39.63125 351.07895 40.053123 351.64145Q40.475 352.18832 40.475 353.03207Q40.475 354.15707 39.646873 354.93832Q38.834373 355.71957 37.584373 355.71957Q36.459373 355.71957 35.709373 355.0477Q34.959373 354.3602 34.85 353.2977Z" fill-rule="nonzero"/><path fill="#000000" d="M40.31875 333.99228L39.271873 334.0704Q39.13125 333.4454 38.88125 333.16415Q38.44375 332.71103 37.81875 332.71103Q37.31875 332.71103 36.928123 332.99228Q36.44375 333.36728 36.146873 334.0704Q35.865623 334.7579 35.85 336.03915Q36.225 335.46103 36.771873 335.17978Q37.334373 334.89853 37.94375 334.89853Q38.990623 334.89853 39.725 335.67978Q40.475 336.46103 40.475 337.67978Q40.475 338.49228 40.115623 339.1954Q39.771873 339.8829 39.1625 340.2579Q38.553123 340.61728 37.7875 340.61728Q36.459373 340.61728 35.63125 339.64853Q34.803123 338.67978 34.803123 336.46103Q34.803123 333.96103 35.725 332.83603Q36.521873 331.85165 37.88125 331.85165Q38.896873 331.85165 39.5375 332.42978Q40.19375 332.99228 40.31875 333.99228ZM36.021873 337.6954Q36.021873 338.24228 36.240623 338.74228Q36.475 339.22665 36.88125 339.49228Q37.303123 339.7579 37.771873 339.7579Q38.428123 339.7579 38.9125 339.22665Q39.396873 338.67978 39.396873 337.7579Q39.396873 336.86728 38.9125 336.35165Q38.44375 335.83603 37.725 335.83603Q37.00625 335.83603 36.50625 336.35165Q36.021873 336.86728 36.021873 337.6954Z" fill-rule="nonzero"/><path fill="#000000" d="M35.00625 323.40564L36.021873 323.3119Q36.146873 324.03064 36.50625 324.35876Q36.88125 324.67126 37.44375 324.67126Q37.928123 324.67126 38.2875 324.4525Q38.6625 324.21814 38.896873 323.85876Q39.13125 323.48376 39.2875 322.85876Q39.44375 322.21814 39.44375 321.5619Q39.44375 321.48376 39.44375 321.34314Q39.13125 321.84314 38.584373 322.17126Q38.0375 322.48376 37.396873 322.48376Q36.31875 322.48376 35.584373 321.71814Q34.85 320.9369 34.85 319.67126Q34.85 318.35876 35.615623 317.5619Q36.396873 316.765 37.553123 316.765Q38.38125 316.765 39.06875 317.21814Q39.771873 317.67126 40.13125 318.515Q40.490623 319.34314 40.490623 320.92126Q40.490623 322.5619 40.13125 323.54626Q39.7875 324.515 39.06875 325.03064Q38.365623 325.53064 37.428123 325.53064Q36.4125 325.53064 35.771873 324.98376Q35.13125 324.42126 35.00625 323.40564ZM39.31875 319.60876Q39.31875 318.7025 38.834373 318.17126Q38.365623 317.64 37.678123 317.64Q36.975 317.64 36.44375 318.21814Q35.928123 318.78064 35.928123 319.7025Q35.928123 320.515 36.428123 321.03064Q36.928123 321.54626 37.646873 321.54626Q38.38125 321.54626 38.85 321.03064Q39.31875 320.515 39.31875 319.60876Z" fill-rule="nonzero"/><path fill="#000000" d="M31.81875 310.30334L30.771875 310.30334L30.771875 303.5846Q30.38125 303.94397 29.75625 304.31897Q29.146875 304.67834 28.6625 304.85022L28.6625 303.8346Q29.5375 303.41272 30.19375 302.8346Q30.865625 302.24084 31.146875 301.67834L31.81875 301.67834L31.81875 310.30334ZM40.396873 309.28772L40.396873 310.30334L34.709373 310.30334Q34.709373 309.92834 34.834373 309.56897Q35.053123 308.99084 35.521873 308.42834Q36.00625 307.86584 36.9125 307.13147Q38.31875 305.97522 38.803123 305.30334Q39.303123 304.63147 39.303123 304.03772Q39.303123 303.41272 38.85 302.99084Q38.396873 302.55334 37.678123 302.55334Q36.9125 302.55334 36.459373 303.00647Q36.00625 303.4596 35.990623 304.2721L34.9125 304.16272Q35.021873 302.94397 35.740623 302.31897Q36.475 301.67834 37.709373 301.67834Q38.94375 301.67834 39.6625 302.36584Q40.38125 303.05334 40.38125 304.06897Q40.38125 304.5846 40.1625 305.0846Q39.959373 305.56897 39.459373 306.13147Q38.975 306.67834 37.85 307.63147Q36.896873 308.42834 36.615623 308.72522Q36.35 309.00647 36.178123 309.28772L40.396873 309.28772Z" fill-rule="nonzero"/><path fill="#000000" d="M31.81875 295.21667L30.771875 295.21667L30.771875 288.49792Q30.38125 288.8573 29.75625 289.2323Q29.146875 289.59167 28.6625 289.76355L28.6625 288.74792Q29.5375 288.32605 30.19375 287.74792Q30.865625 287.15417 31.146875 286.59167L31.81875 286.59167L31.81875 295.21667ZM34.85 292.96667L35.959373 292.87292Q36.084373 293.68542 36.521873 294.09167Q36.975 294.49792 37.615623 294.49792Q38.365623 294.49792 38.896873 293.9198Q39.428123 293.34167 39.428123 292.40417Q39.428123 291.49792 38.9125 290.9823Q38.4125 290.45105 37.584373 290.45105Q37.084373 290.45105 36.6625 290.68542Q36.25625 290.9198 36.021873 291.27917L35.0375 291.15417L35.865623 286.74792L40.146873 286.74792L40.146873 287.74792L36.709373 287.74792L36.25625 290.06042Q37.021873 289.51355 37.865623 289.51355Q38.990623 289.51355 39.75625 290.2948Q40.5375 291.07605 40.5375 292.31042Q40.5375 293.46667 39.865623 294.32605Q39.0375 295.3573 37.615623 295.3573Q36.44375 295.3573 35.69375 294.70105Q34.959373 294.0448 34.85 292.96667Z" fill-rule="nonzero"/><path fill="#000000" d="M31.81875 280.13L30.771875 280.13L30.771875 273.41125Q30.38125 273.77063 29.75625 274.14563Q29.146875 274.505 28.6625 274.67688L28.6625 273.66125Q29.5375 273.23938 30.19375 272.66125Q30.865625 272.0675 31.146875 271.505L31.81875 271.505L31.81875 280.13ZM36.475 275.47375Q35.81875 275.22375 35.490623 274.78625Q35.178123 274.33313 35.178123 273.72375Q35.178123 272.78625 35.85 272.14563Q36.5375 271.505 37.646873 271.505Q38.771873 271.505 39.459373 272.16125Q40.146873 272.8175 40.146873 273.755Q40.146873 274.34875 39.834373 274.78625Q39.521873 275.22375 38.88125 275.47375Q39.678123 275.72375 40.084373 276.30188Q40.490623 276.88 40.490623 277.67688Q40.490623 278.77063 39.709373 279.52063Q38.94375 280.27063 37.6625 280.27063Q36.396873 280.27063 35.615623 279.52063Q34.834373 278.77063 34.834373 277.64563Q34.834373 276.80188 35.25625 276.23938Q35.69375 275.67688 36.475 275.47375ZM36.25625 273.67688Q36.25625 274.28625 36.646873 274.67688Q37.053123 275.0675 37.678123 275.0675Q38.2875 275.0675 38.678123 274.6925Q39.06875 274.30188 39.06875 273.73938Q39.06875 273.16125 38.6625 272.77063Q38.25625 272.36438 37.6625 272.36438Q37.053123 272.36438 36.646873 272.755Q36.25625 273.14563 36.25625 273.67688ZM35.928123 277.64563Q35.928123 278.09875 36.13125 278.52063Q36.35 278.9425 36.771873 279.17688Q37.19375 279.41125 37.678123 279.41125Q38.428123 279.41125 38.9125 278.92688Q39.4125 278.4425 39.4125 277.6925Q39.4125 276.92688 38.9125 276.42688Q38.4125 275.92688 37.646873 275.92688Q36.896873 275.92688 36.4125 276.42688Q35.928123 276.91125 35.928123 277.64563Z" fill-rule="nonzero"/><path fill="#000000" d="M33.396873 264.0277L33.396873 265.04333L27.709375 265.04333Q27.709375 264.66833 27.834375 264.30896Q28.053125 263.73083 28.521875 263.16833Q29.00625 262.60583 29.9125 261.87146Q31.31875 260.7152 31.803125 260.04333Q32.303123 259.37146 32.303123 258.7777Q32.303123 258.1527 31.85 257.73083Q31.396875 257.29333 30.678125 257.29333Q29.9125 257.29333 29.459375 257.74646Q29.00625 258.1996 28.990625 259.0121L27.9125 258.9027Q28.021875 257.68396 28.740625 257.05896Q29.475 256.41833 30.709375 256.41833Q31.94375 256.41833 32.6625 257.10583Q33.38125 257.79333 33.38125 258.80896Q33.38125 259.3246 33.1625 259.8246Q32.959373 260.30896 32.459373 260.87146Q31.975 261.41833 30.85 262.37146Q29.896875 263.16833 29.615625 263.4652Q29.35 263.74646 29.178125 264.0277L33.396873 264.0277ZM38.81875 265.04333L37.771873 265.04333L37.771873 258.3246Q37.38125 258.68396 36.75625 259.05896Q36.146873 259.41833 35.6625 259.5902L35.6625 258.5746Q36.5375 258.1527 37.19375 257.5746Q37.865623 256.98083 38.146873 256.41833L38.81875 256.41833L38.81875 265.04333Z" fill-rule="nonzero"/><path fill="#000000" d="M33.396873 248.94104L33.396873 249.95667L27.709375 249.95667Q27.709375 249.58167 27.834375 249.22229Q28.053125 248.64417 28.521875 248.08167Q29.00625 247.51917 29.9125 246.78479Q31.31875 245.62854 31.803125 244.95667Q32.303123 244.28479 32.303123 243.69104Q32.303123 243.06604 31.85 242.64417Q31.396875 242.20667 30.678125 242.20667Q29.9125 242.20667 29.459375 242.65979Q29.00625 243.11292 28.990625 243.92542L27.9125 243.81604Q28.021875 242.59729 28.740625 241.97229Q29.475 241.33167 30.709375 241.33167Q31.94375 241.33167 32.6625 242.01917Q33.38125 242.70667 33.38125 243.72229Q33.38125 244.23792 33.1625 244.73792Q32.959373 245.22229 32.459373 245.78479Q31.975 246.33167 30.85 247.28479Q29.896875 248.08167 29.615625 248.37854Q29.35 248.65979 29.178125 248.94104L33.396873 248.94104ZM38.225 249.95667L38.225 247.89417L34.50625 247.89417L34.50625 246.92542L38.428123 241.36292L39.2875 241.36292L39.2875 246.92542L40.44375 246.92542L40.44375 247.89417L39.2875 247.89417L39.2875 249.95667L38.225 249.95667ZM38.225 246.92542L38.225 243.06604L35.5375 246.92542L38.225 246.92542Z" fill-rule="nonzero"/><path fill="#000000" d="M33.396873 233.85437L33.396873 234.87L27.709375 234.87Q27.709375 234.495 27.834375 234.13562Q28.053125 233.5575 28.521875 232.995Q29.00625 232.4325 29.9125 231.69812Q31.31875 230.54187 31.803125 229.87Q32.303123 229.19812 32.303123 228.60437Q32.303123 227.97937 31.85 227.5575Q31.396875 227.12 30.678125 227.12Q29.9125 227.12 29.459375 227.57312Q29.00625 228.02625 28.990625 228.83875L27.9125 228.72937Q28.021875 227.51062 28.740625 226.88562Q29.475 226.245 30.709375 226.245Q31.94375 226.245 32.6625 226.9325Q33.38125 227.62 33.38125 228.63562Q33.38125 229.15125 33.1625 229.65125Q32.959373 230.13562 32.459373 230.69812Q31.975 231.245 30.85 232.19812Q29.896875 232.995 29.615625 233.29187Q29.35 233.57312 29.178125 233.85437L33.396873 233.85437ZM34.9125 227.40125L34.9125 226.38562L40.475 226.38562L40.475 227.21375Q39.6625 228.08875 38.85 229.54187Q38.053123 230.97937 37.615623 232.51062Q37.2875 233.58875 37.209373 234.87L36.115623 234.87Q36.13125 233.85437 36.50625 232.41687Q36.896873 230.97937 37.6 229.65125Q38.31875 228.32312 39.13125 227.40125L34.9125 227.40125Z" fill-rule="nonzero"/><path fill="#000000" d="M27.85 217.51772L28.9125 217.37709Q29.084375 218.26772 29.521875 218.67397Q29.959375 219.06459 30.584375 219.06459Q31.334375 219.06459 31.85 218.54897Q32.365623 218.03334 32.365623 217.26772Q32.365623 216.54897 31.88125 216.08022Q31.4125 215.59584 30.678125 215.59584Q30.38125 215.59584 29.928125 215.72084L30.053125 214.78334Q30.1625 214.79897 30.225 214.79897Q30.896875 214.79897 31.428125 214.45522Q31.975 214.09584 31.975 213.36147Q31.975 212.78334 31.584375 212.40834Q31.19375 212.01772 30.56875 212.01772Q29.959375 212.01772 29.5375 212.40834Q29.13125 212.79897 29.021875 213.56459L27.959375 213.37709Q28.146875 212.33022 28.834375 211.75209Q29.521875 211.15834 30.5375 211.15834Q31.240625 211.15834 31.834375 211.47084Q32.428123 211.76772 32.740623 212.28334Q33.053123 212.79897 33.053123 213.39272Q33.053123 213.93959 32.75625 214.40834Q32.459373 214.86147 31.88125 215.12709Q32.63125 215.29897 33.053123 215.86147Q33.475 216.40834 33.475 217.25209Q33.475 218.37709 32.646873 219.15834Q31.834375 219.93959 30.584375 219.93959Q29.459375 219.93959 28.709375 219.26772Q27.959375 218.58022 27.85 217.51772ZM34.85 215.54897Q34.85 214.01772 35.1625 213.09584Q35.475 212.15834 36.084373 211.65834Q36.709373 211.15834 37.646873 211.15834Q38.334373 211.15834 38.85 211.43959Q39.38125 211.72084 39.725 212.25209Q40.06875 212.76772 40.25625 213.51772Q40.44375 214.26772 40.44375 215.54897Q40.44375 217.06459 40.13125 217.98647Q39.834373 218.90834 39.209373 219.42397Q38.6 219.92397 37.646873 219.92397Q36.4125 219.92397 35.69375 219.03334Q34.85 217.97084 34.85 215.54897ZM35.928123 215.54897Q35.928123 217.65834 36.428123 218.36147Q36.928123 219.06459 37.646873 219.06459Q38.38125 219.06459 38.865623 218.36147Q39.365623 217.65834 39.365623 215.54897Q39.365623 213.42397 38.865623 212.73647Q38.38125 212.03334 37.63125 212.03334Q36.9125 212.03334 36.475 212.64272Q35.928123 213.42397 35.928123 215.54897Z" fill-rule="nonzero"/><path fill="#000000" d="M27.85 202.43105L28.9125 202.29042Q29.084375 203.18105 29.521875 203.5873Q29.959375 203.97792 30.584375 203.97792Q31.334375 203.97792 31.85 203.4623Q32.365623 202.94667 32.365623 202.18105Q32.365623 201.4623 31.88125 200.99355Q31.4125 200.50917 30.678125 200.50917Q30.38125 200.50917 29.928125 200.63417L30.053125 199.69667Q30.1625 199.7123 30.225 199.7123Q30.896875 199.7123 31.428125 199.36855Q31.975 199.00917 31.975 198.2748Q31.975 197.69667 31.584375 197.32167Q31.19375 196.93105 30.56875 196.93105Q29.959375 196.93105 29.5375 197.32167Q29.13125 197.7123 29.021875 198.47792L27.959375 198.29042Q28.146875 197.24355 28.834375 196.66542Q29.521875 196.07167 30.5375 196.07167Q31.240625 196.07167 31.834375 196.38417Q32.428123 196.68105 32.740623 197.19667Q33.053123 197.7123 33.053123 198.30605Q33.053123 198.85292 32.75625 199.32167Q32.459373 199.7748 31.88125 200.04042Q32.63125 200.2123 33.053123 200.7748Q33.475 201.32167 33.475 202.16542Q33.475 203.29042 32.646873 204.07167Q31.834375 204.85292 30.584375 204.85292Q29.459375 204.85292 28.709375 204.18105Q27.959375 203.49355 27.85 202.43105ZM34.85 202.43105L35.9125 202.29042Q36.084373 203.18105 36.521873 203.5873Q36.959373 203.97792 37.584373 203.97792Q38.334373 203.97792 38.85 203.4623Q39.365623 202.94667 39.365623 202.18105Q39.365623 201.4623 38.88125 200.99355Q38.4125 200.50917 37.678123 200.50917Q37.38125 200.50917 36.928123 200.63417L37.053123 199.69667Q37.1625 199.7123 37.225 199.7123Q37.896873 199.7123 38.428123 199.36855Q38.975 199.00917 38.975 198.2748Q38.975 197.69667 38.584373 197.32167Q38.19375 196.93105 37.56875 196.93105Q36.959373 196.93105 36.5375 197.32167Q36.13125 197.7123 36.021873 198.47792L34.959373 198.29042Q35.146873 197.24355 35.834373 196.66542Q36.521873 196.07167 37.5375 196.07167Q38.240623 196.07167 38.834373 196.38417Q39.428123 196.68105 39.740623 197.19667Q40.053123 197.7123 40.053123 198.30605Q40.053123 198.85292 39.75625 199.32167Q39.459373 199.7748 38.88125 200.04042Q39.63125 200.2123 40.053123 200.7748Q40.475 201.32167 40.475 202.16542Q40.475 203.29042 39.646873 204.07167Q38.834373 204.85292 37.584373 204.85292Q36.459373 204.85292 35.709373 204.18105Q34.959373 203.49355 34.85 202.43105Z" fill-rule="nonzero"/><path fill="#000000" d="M27.85 187.34438L28.9125 187.20375Q29.084375 188.09438 29.521875 188.50063Q29.959375 188.89125 30.584375 188.89125Q31.334375 188.89125 31.85 188.37563Q32.365623 187.86 32.365623 187.09438Q32.365623 186.37563 31.88125 185.90688Q31.4125 185.4225 30.678125 185.4225Q30.38125 185.4225 29.928125 185.5475L30.053125 184.61Q30.1625 184.62563 30.225 184.62563Q30.896875 184.62563 31.428125 184.28188Q31.975 183.9225 31.975 183.18813Q31.975 182.61 31.584375 182.235Q31.19375 181.84438 30.56875 181.84438Q29.959375 181.84438 29.5375 182.235Q29.13125 182.62563 29.021875 183.39125L27.959375 183.20375Q28.146875 182.15688 28.834375 181.57875Q29.521875 180.985 30.5375 180.985Q31.240625 180.985 31.834375 181.2975Q32.428123 181.59438 32.740623 182.11Q33.053123 182.62563 33.053123 183.21938Q33.053123 183.76625 32.75625 184.235Q32.459373 184.68813 31.88125 184.95375Q32.63125 185.12563 33.053123 185.68813Q33.475 186.235 33.475 187.07875Q33.475 188.20375 32.646873 188.985Q31.834375 189.76625 30.584375 189.76625Q29.459375 189.76625 28.709375 189.09438Q27.959375 188.40688 27.85 187.34438ZM40.31875 183.12563L39.271873 183.20375Q39.13125 182.57875 38.88125 182.2975Q38.44375 181.84438 37.81875 181.84438Q37.31875 181.84438 36.928123 182.12563Q36.44375 182.50063 36.146873 183.20375Q35.865623 183.89125 35.85 185.1725Q36.225 184.59438 36.771873 184.31313Q37.334373 184.03188 37.94375 184.03188Q38.990623 184.03188 39.725 184.81313Q40.475 185.59438 40.475 186.81313Q40.475 187.62563 40.115623 188.32875Q39.771873 189.01625 39.1625 189.39125Q38.553123 189.75063 37.7875 189.75063Q36.459373 189.75063 35.63125 188.78188Q34.803123 187.81313 34.803123 185.59438Q34.803123 183.09438 35.725 181.96938Q36.521873 180.985 37.88125 180.985Q38.896873 180.985 39.5375 181.56313Q40.19375 182.12563 40.31875 183.12563ZM36.021873 186.82875Q36.021873 187.37563 36.240623 187.87563Q36.475 188.36 36.88125 188.62563Q37.303123 188.89125 37.771873 188.89125Q38.428123 188.89125 38.9125 188.36Q39.396873 187.81313 39.396873 186.89125Q39.396873 186.00063 38.9125 185.485Q38.44375 184.96938 37.725 184.96938Q37.00625 184.96938 36.50625 185.485Q36.021873 186.00063 36.021873 186.82875Z" fill-rule="nonzero"/><path fill="#000000" d="M27.85 172.2577L28.9125 172.11708Q29.084375 173.0077 29.521875 173.41396Q29.959375 173.80458 30.584375 173.80458Q31.334375 173.80458 31.85 173.28896Q32.365623 172.77333 32.365623 172.0077Q32.365623 171.28896 31.88125 170.8202Q31.4125 170.33583 30.678125 170.33583Q30.38125 170.33583 29.928125 170.46083L30.053125 169.52333Q30.1625 169.53896 30.225 169.53896Q30.896875 169.53896 31.428125 169.1952Q31.975 168.83583 31.975 168.10146Q31.975 167.52333 31.584375 167.14833Q31.19375 166.7577 30.56875 166.7577Q29.959375 166.7577 29.5375 167.14833Q29.13125 167.53896 29.021875 168.30458L27.959375 168.11708Q28.146875 167.0702 28.834375 166.49208Q29.521875 165.89833 30.5375 165.89833Q31.240625 165.89833 31.834375 166.21083Q32.428123 166.5077 32.740623 167.02333Q33.053123 167.53896 33.053123 168.1327Q33.053123 168.67958 32.75625 169.14833Q32.459373 169.60146 31.88125 169.86708Q32.63125 170.03896 33.053123 170.60146Q33.475 171.14833 33.475 171.99208Q33.475 173.11708 32.646873 173.89833Q31.834375 174.67958 30.584375 174.67958Q29.459375 174.67958 28.709375 174.0077Q27.959375 173.3202 27.85 172.2577ZM35.00625 172.53896L36.021873 172.4452Q36.146873 173.16396 36.50625 173.49208Q36.88125 173.80458 37.44375 173.80458Q37.928123 173.80458 38.2875 173.58583Q38.6625 173.35146 38.896873 172.99208Q39.13125 172.61708 39.2875 171.99208Q39.44375 171.35146 39.44375 170.6952Q39.44375 170.61708 39.44375 170.47646Q39.13125 170.97646 38.584373 171.30458Q38.0375 171.61708 37.396873 171.61708Q36.31875 171.61708 35.584373 170.85146Q34.85 170.0702 34.85 168.80458Q34.85 167.49208 35.615623 166.6952Q36.396873 165.89833 37.553123 165.89833Q38.38125 165.89833 39.06875 166.35146Q39.771873 166.80458 40.13125 167.64833Q40.490623 168.47646 40.490623 170.05458Q40.490623 171.6952 40.13125 172.67958Q39.7875 173.64833 39.06875 174.16396Q38.365623 174.66396 37.428123 174.66396Q36.4125 174.66396 35.771873 174.11708Q35.13125 173.55458 35.00625 172.53896ZM39.31875 168.74208Q39.31875 167.83583 38.834373 167.30458Q38.365623 166.77333 37.678123 166.77333Q36.975 166.77333 36.44375 167.35146Q35.928123 167.91396 35.928123 168.83583Q35.928123 169.64833 36.428123 170.16396Q36.928123 170.67958 37.646873 170.67958Q38.38125 170.67958 38.85 170.16396Q39.31875 169.64833 39.31875 168.74208Z" fill-rule="nonzero"/><path fill="#000000" d="M31.225 159.43666L31.225 157.37416L27.50625 157.37416L27.50625 156.40541L31.428125 150.84291L32.2875 150.84291L32.2875 156.40541L33.44375 156.40541L33.44375 157.37416L32.2875 157.37416L32.2875 159.43666L31.225 159.43666ZM31.225 156.40541L31.225 152.54604L28.5375 156.40541L31.225 156.40541ZM40.396873 158.42104L40.396873 159.43666L34.709373 159.43666Q34.709373 159.06166 34.834373 158.70229Q35.053123 158.12416 35.521873 157.56166Q36.00625 156.99916 36.9125 156.26479Q38.31875 155.10854 38.803123 154.43666Q39.303123 153.76479 39.303123 153.17104Q39.303123 152.54604 38.85 152.12416Q38.396873 151.68666 37.678123 151.68666Q36.9125 151.68666 36.459373 152.13979Q36.00625 152.59291 35.990623 153.40541L34.9125 153.29604Q35.021873 152.07729 35.740623 151.45229Q36.475 150.81166 37.709373 150.81166Q38.94375 150.81166 39.6625 151.49916Q40.38125 152.18666 40.38125 153.20229Q40.38125 153.71791 40.1625 154.21791Q39.959373 154.70229 39.459373 155.26479Q38.975 155.81166 37.85 156.76479Q36.896873 157.56166 36.615623 157.85854Q36.35 158.13979 36.178123 158.42104L40.396873 158.42104Z" fill-rule="nonzero"/><path fill="#000000" d="M31.225 144.35L31.225 142.2875L27.50625 142.2875L27.50625 141.31876L31.428125 135.75626L32.2875 135.75626L32.2875 141.31876L33.44375 141.31876L33.44375 142.2875L32.2875 142.2875L32.2875 144.35L31.225 144.35ZM31.225 141.31876L31.225 137.45938L28.5375 141.31876L31.225 141.31876ZM34.85 142.1L35.959373 142.00626Q36.084373 142.81876 36.521873 143.225Q36.975 143.63126 37.615623 143.63126Q38.365623 143.63126 38.896873 143.05313Q39.428123 142.475 39.428123 141.5375Q39.428123 140.63126 38.9125 140.11563Q38.4125 139.58438 37.584373 139.58438Q37.084373 139.58438 36.6625 139.81876Q36.25625 140.05313 36.021873 140.4125L35.0375 140.2875L35.865623 135.88126L40.146873 135.88126L40.146873 136.88126L36.709373 136.88126L36.25625 139.19376Q37.021873 138.64688 37.865623 138.64688Q38.990623 138.64688 39.75625 139.42813Q40.5375 140.20938 40.5375 141.44376Q40.5375 142.6 39.865623 143.45938Q39.0375 144.49063 37.615623 144.49063Q36.44375 144.49063 35.69375 143.83438Q34.959373 143.17813 34.85 142.1Z" fill-rule="nonzero"/><path fill="#000000" d="M31.225 129.26334L31.225 127.200836L27.50625 127.200836L27.50625 126.232086L31.428125 120.669586L32.2875 120.669586L32.2875 126.232086L33.44375 126.232086L33.44375 127.200836L32.2875 127.200836L32.2875 129.26334L31.225 129.26334ZM31.225 126.232086L31.225 122.37271L28.5375 126.232086L31.225 126.232086ZM36.475 124.607086Q35.81875 124.357086 35.490623 123.919586Q35.178123 123.46646 35.178123 122.857086Q35.178123 121.919586 35.85 121.27896Q36.5375 120.638336 37.646873 120.638336Q38.771873 120.638336 39.459373 121.294586Q40.146873 121.950836 40.146873 122.888336Q40.146873 123.482086 39.834373 123.919586Q39.521873 124.357086 38.88125 124.607086Q39.678123 124.857086 40.084373 125.43521Q40.490623 126.013336 40.490623 126.81021Q40.490623 127.90396 39.709373 128.65396Q38.94375 129.40396 37.6625 129.40396Q36.396873 129.40396 35.615623 128.65396Q34.834373 127.90396 34.834373 126.77896Q34.834373 125.93521 35.25625 125.37271Q35.69375 124.81021 36.475 124.607086ZM36.25625 122.81021Q36.25625 123.419586 36.646873 123.81021Q37.053123 124.200836 37.678123 124.200836Q38.2875 124.200836 38.678123 123.825836Q39.06875 123.43521 39.06875 122.87271Q39.06875 122.294586 38.6625 121.90396Q38.25625 121.49771 37.6625 121.49771Q37.053123 121.49771 36.646873 121.888336Q36.25625 122.27896 36.25625 122.81021ZM35.928123 126.77896Q35.928123 127.232086 36.13125 127.65396Q36.35 128.07584 36.771873 128.31021Q37.19375 128.54459 37.678123 128.54459Q38.428123 128.54459 38.9125 128.06021Q39.4125 127.575836 39.4125 126.825836Q39.4125 126.06021 38.9125 125.56021Q38.4125 125.06021 37.646873 125.06021Q36.896873 125.06021 36.4125 125.56021Q35.928123 126.044586 35.928123 126.77896Z" fill-rule="nonzero"/><path fill="#000000" d="M27.85 111.92667L28.959375 111.83292Q29.084375 112.64542 29.521875 113.05167Q29.975 113.45792 30.615625 113.45792Q31.365625 113.45792 31.896875 112.87979Q32.428123 112.30167 32.428123 111.36417Q32.428123 110.45792 31.9125 109.94229Q31.4125 109.41104 30.584375 109.41104Q30.084375 109.41104 29.6625 109.64542Q29.25625 109.87979 29.021875 110.23917L28.0375 110.11417L28.865625 105.70792L33.146873 105.70792L33.146873 106.70792L29.709375 106.70792L29.25625 109.02042Q30.021875 108.47354 30.865625 108.47354Q31.990625 108.47354 32.75625 109.25479Q33.5375 110.03604 33.5375 111.27042Q33.5375 112.42667 32.865623 113.28604Q32.0375 114.31729 30.615625 114.31729Q29.44375 114.31729 28.69375 113.66104Q27.959375 113.00479 27.85 111.92667ZM38.81875 114.17667L37.771873 114.17667L37.771873 107.45792Q37.38125 107.81729 36.75625 108.19229Q36.146873 108.55167 35.6625 108.72354L35.6625 107.70792Q36.5375 107.28604 37.19375 106.70792Q37.865623 106.11417 38.146873 105.55167L38.81875 105.55167L38.81875 114.17667Z" fill-rule="nonzero"/><path fill="#000000" d="M27.85 96.84L28.959375 96.74625Q29.084375 97.55875 29.521875 97.965Q29.975 98.37125 30.615625 98.37125Q31.365625 98.37125 31.896875 97.79312Q32.428123 97.215 32.428123 96.2775Q32.428123 95.37125 31.9125 94.85562Q31.4125 94.32437 30.584375 94.32437Q30.084375 94.32437 29.6625 94.55875Q29.25625 94.79312 29.021875 95.1525L28.0375 95.0275L28.865625 90.62125L33.146873 90.62125L33.146873 91.62125L29.709375 91.62125L29.25625 93.93375Q30.021875 93.38687 30.865625 93.38687Q31.990625 93.38687 32.75625 94.16812Q33.5375 94.94937 33.5375 96.18375Q33.5375 97.34 32.865623 98.19937Q32.0375 99.23062 30.615625 99.23062Q29.44375 99.23062 28.69375 98.57437Q27.959375 97.91812 27.85 96.84ZM38.225 99.09L38.225 97.0275L34.50625 97.0275L34.50625 96.05875L38.428123 90.49625L39.2875 90.49625L39.2875 96.05875L40.44375 96.05875L40.44375 97.0275L39.2875 97.0275L39.2875 99.09L38.225 99.09ZM38.225 96.05875L38.225 92.19937L35.5375 96.05875L38.225 96.05875Z" fill-rule="nonzero"/><path fill="#000000" d="M27.85 81.753334L28.959375 81.659584Q29.084375 82.472084 29.521875 82.878334Q29.975 83.284584 30.615625 83.284584Q31.365625 83.284584 31.896875 82.70646Q32.428123 82.128334 32.428123 81.190834Q32.428123 80.284584 31.9125 79.76896Q31.4125 79.23771 30.584375 79.23771Q30.084375 79.23771 29.6625 79.472084Q29.25625 79.70646 29.021875 80.065834L28.0375 79.940834L28.865625 75.534584L33.146873 75.534584L33.146873 76.534584L29.709375 76.534584L29.25625 78.847084Q30.021875 78.30021 30.865625 78.30021Q31.990625 78.30021 32.75625 79.08146Q33.5375 79.86271 33.5375 81.097084Q33.5375 82.253334 32.865623 83.11271Q32.0375 84.14396 30.615625 84.14396Q29.44375 84.14396 28.69375 83.48771Q27.959375 82.83146 27.85 81.753334ZM34.9125 76.534584L34.9125 75.51896L40.475 75.51896L40.475 76.347084Q39.6625 77.222084 38.85 78.67521Q38.053123 80.11271 37.615623 81.64396Q37.2875 82.722084 37.209373 84.003334L36.115623 84.003334Q36.13125 82.98771 36.50625 81.55021Q36.896873 80.11271 37.6 78.784584Q38.31875 77.45646 39.13125 76.534584L34.9125 76.534584Z" fill-rule="nonzero"/><path fill="#000000" d="M33.31875 62.43229L32.271873 62.510414Q32.13125 61.885414 31.88125 61.604164Q31.44375 61.15104 30.81875 61.15104Q30.31875 61.15104 29.928125 61.43229Q29.44375 61.80729 29.146875 62.510414Q28.865625 63.197914 28.85 64.479164Q29.225 63.90104 29.771875 63.61979Q30.334375 63.33854 30.94375 63.33854Q31.990625 63.33854 32.725 64.11979Q33.475 64.90104 33.475 66.11979Q33.475 66.93229 33.115623 67.635414Q32.771873 68.322914 32.1625 68.697914Q31.553125 69.05729 30.7875 69.05729Q29.459375 69.05729 28.63125 68.08854Q27.803125 67.11979 27.803125 64.90104Q27.803125 62.40104 28.725 61.27604Q29.521875 60.291664 30.88125 60.291664Q31.896875 60.291664 32.5375 60.86979Q33.19375 61.43229 33.31875 62.43229ZM29.021875 66.135414Q29.021875 66.68229 29.240625 67.18229Q29.475 67.666664 29.88125 67.93229Q30.303125 68.197914 30.771875 68.197914Q31.428125 68.197914 31.9125 67.666664Q32.396873 67.11979 32.396873 66.197914Q32.396873 65.30729 31.9125 64.791664Q31.44375 64.27604 30.725 64.27604Q30.00625 64.27604 29.50625 64.791664Q29.021875 65.30729 29.021875 66.135414ZM34.85 64.68229Q34.85 63.15104 35.1625 62.229164Q35.475 61.291664 36.084373 60.791664Q36.709373 60.291664 37.646873 60.291664Q38.334373 60.291664 38.85 60.572914Q39.38125 60.854164 39.725 61.385414Q40.06875 61.90104 40.25625 62.65104Q40.44375 63.40104 40.44375 64.68229Q40.44375 66.197914 40.13125 67.11979Q39.834373 68.041664 39.209373 68.55729Q38.6 69.05729 37.646873 69.05729Q36.4125 69.05729 35.69375 68.166664Q34.85 67.104164 34.85 64.68229ZM35.928123 64.68229Q35.928123 66.791664 36.428123 67.49479Q36.928123 68.197914 37.646873 68.197914Q38.38125 68.197914 38.865623 67.49479Q39.365623 66.791664 39.365623 64.68229Q39.365623 62.55729 38.865623 61.86979Q38.38125 61.166664 37.63125 61.166664Q36.9125 61.166664 36.475 61.77604Q35.928123 62.55729 35.928123 64.68229Z" fill-rule="nonzero"/><path fill="#000000" d="M100.075935 383.65L100.075935 375.05624L101.21656 375.05624L101.21656 382.63437L105.450935 382.63437L105.450935 383.65L100.075935 383.65ZM106.99781 376.275L106.99781 375.05624L108.06031 375.05624L108.06031 376.275L106.99781 376.275ZM106.99781 383.65L106.99781 377.43124L108.06031 377.43124L108.06031 383.65L106.99781 383.65ZM109.794685 384.16562L110.825935 384.32187Q110.888435 384.79062 111.18531 385.00937Q111.575935 385.30624 112.24781 385.30624Q112.982185 385.30624 113.37281 385.00937Q113.77906 384.7125 113.919685 384.19687Q114.013435 383.86874 113.99781 382.8375Q113.31031 383.65 112.27906 383.65Q110.99781 383.65 110.294685 382.72812Q109.59156 381.79062 109.59156 380.50937Q109.59156 379.61874 109.90406 378.86874Q110.232185 378.10312 110.84156 377.69687Q111.450935 377.29062 112.27906 377.29062Q113.388435 377.29062 114.107185 378.18124L114.107185 377.43124L115.075935 377.43124L115.075935 382.80624Q115.075935 384.25937 114.77906 384.86874Q114.482185 385.47812 113.84156 385.82187Q113.200935 386.18124 112.263435 386.18124Q111.15406 386.18124 110.46656 385.68124Q109.77906 385.18124 109.794685 384.16562ZM110.669685 380.43124Q110.669685 381.65 111.15406 382.2125Q111.638435 382.775 112.37281 382.775Q113.107185 382.775 113.59156 382.2125Q114.09156 381.65 114.09156 380.4625Q114.09156 379.32187 113.575935 378.74374Q113.075935 378.16562 112.357185 378.16562Q111.65406 378.16562 111.15406 378.74374Q110.669685 379.30624 110.669685 380.43124ZM116.99781 383.65L116.99781 375.05624L118.044685 375.05624L118.044685 378.13437Q118.77906 377.29062 119.90406 377.29062Q120.607185 377.29062 121.107185 377.57187Q121.62281 377.8375 121.84156 378.32187Q122.06031 378.79062 122.06031 379.7125L122.06031 383.65L121.013435 383.65L121.013435 379.7125Q121.013435 378.91562 120.669685 378.55624Q120.325935 378.19687 119.700935 378.19687Q119.232185 378.19687 118.81031 378.44687Q118.40406 378.68124 118.21656 379.10312Q118.044685 379.50937 118.044685 380.24374L118.044685 383.65L116.99781 383.65ZM126.294685 382.7125L126.450935 383.63437Q125.99781 383.72812 125.65406 383.72812Q125.075935 383.72812 124.763435 383.55624Q124.450935 383.36874 124.31031 383.07187Q124.18531 382.775 124.18531 381.82187L124.18531 378.24374L123.419685 378.24374L123.419685 377.43124L124.18531 377.43124L124.18531 375.88437L125.232185 375.25937L125.232185 377.43124L126.294685 377.43124L126.294685 378.24374L125.232185 378.24374L125.232185 381.88437Q125.232185 382.3375 125.27906 382.4625Q125.34156 382.5875 125.46656 382.66562Q125.59156 382.74374 125.825935 382.74374Q126.013435 382.74374 126.294685 382.7125ZM132.01343 386.18124Q131.13843 385.07187 130.52905 383.60312Q129.9353 382.11874 129.9353 380.54062Q129.9353 379.15 130.3728 377.86874Q130.90405 376.38437 132.01343 374.91562L132.76343 374.91562Q132.0603 376.13437 131.82593 376.65Q131.46655 377.4625 131.26343 378.3375Q131.01343 379.43124 131.01343 380.54062Q131.01343 383.36874 132.76343 386.18124L132.01343 386.18124ZM137.66968 383.65L136.6228 383.65L136.6228 376.93124Q136.23218 377.29062 135.60718 377.66562Q134.9978 378.025 134.51343 378.19687L134.51343 377.18124Q135.38843 376.75937 136.04468 376.18124Q136.71655 375.5875 136.9978 375.025L137.66968 375.025L137.66968 383.65ZM141.6853 386.18124L140.9353 386.18124Q142.6853 383.36874 142.6853 380.54062Q142.6853 379.44687 142.4353 378.35312Q142.23218 377.47812 141.8728 376.66562Q141.63843 376.15 140.9353 374.91562L141.6853 374.91562Q142.77905 376.38437 143.3103 377.86874Q143.76343 379.15 143.76343 380.54062Q143.76343 382.11874 143.15405 383.60312Q142.54468 385.07187 141.6853 386.18124Z" fill-rule="nonzero"/><path fill="#000000" d="M188.74109 383.65L188.74109 375.05624L190.45984 375.05624L192.49109 381.13437Q192.77234 381.99374 192.89734 382.41562Q193.03796 381.94687 193.35046 381.04062L195.41296 375.05624L196.94421 375.05624L196.94421 383.65L195.85046 383.65L195.85046 376.4625L193.35046 383.65L192.31921 383.65L189.83484 376.3375L189.83484 383.65L188.74109 383.65ZM201.89734 381.65L202.99109 381.775Q202.74109 382.72812 202.03796 383.25937Q201.33484 383.79062 200.25671 383.79062Q198.89734 383.79062 198.08484 382.94687Q197.28796 382.10312 197.28796 380.5875Q197.28796 379.025 198.10046 378.16562Q198.91296 377.29062 200.19421 377.29062Q201.44421 377.29062 202.22546 378.13437Q203.02234 378.97812 203.02234 380.525Q203.02234 380.61874 203.02234 380.80624L198.38171 380.80624Q198.44421 381.8375 198.95984 382.38437Q199.47546 382.91562 200.25671 382.91562Q200.83484 382.91562 201.24109 382.61874Q201.66296 382.30624 201.89734 381.65ZM198.44421 379.94687L201.91296 379.94687Q201.85046 379.15 201.52234 378.75937Q201.00671 378.15 200.20984 378.15Q199.47546 378.15 198.97546 378.63437Q198.49109 379.11874 198.44421 379.94687ZM208.67859 383.65L208.67859 382.86874Q208.08484 383.79062 206.94421 383.79062Q206.19421 383.79062 205.56921 383.38437Q204.94421 382.9625 204.60046 382.22812Q204.25671 381.49374 204.25671 380.54062Q204.25671 379.61874 204.56921 378.85312Q204.88171 378.0875 205.50671 377.69687Q206.13171 377.29062 206.89734 377.29062Q207.45984 377.29062 207.89734 377.525Q208.33484 377.75937 208.61609 378.13437L208.61609 375.05624L209.66296 375.05624L209.66296 383.65L208.67859 383.65ZM205.35046 380.54062Q205.35046 381.74374 205.85046 382.3375Q206.35046 382.91562 207.03796 382.91562Q207.72546 382.91562 208.20984 382.35312Q208.69421 381.79062 208.69421 380.63437Q208.69421 379.35312 208.19421 378.75937Q207.70984 378.16562 206.99109 378.16562Q206.28796 378.16562 205.81921 378.74374Q205.35046 379.30624 205.35046 380.54062ZM211.64734 376.275L211.64734 375.05624L212.70984 375.05624L212.70984 376.275L211.64734 376.275ZM211.64734 383.65L211.64734 377.43124L212.70984 377.43124L212.70984 383.65L211.64734 383.65ZM218.72546 383.65L218.72546 382.72812Q217.99109 383.79062 216.74109 383.79062Q216.19421 383.79062 215.70984 383.5875Q215.24109 383.36874 215.00671 383.05624Q214.77234 382.72812 214.67859 382.25937Q214.61609 381.9625 214.61609 381.275L214.61609 377.43124L215.67859 377.43124L215.67859 380.88437Q215.67859 381.69687 215.74109 381.99374Q215.83484 382.4 216.14734 382.65Q216.47546 382.88437 216.95984 382.88437Q217.42859 382.88437 217.83484 382.65Q218.25671 382.4 218.42859 381.97812Q218.61609 381.55624 218.61609 380.75937L218.61609 377.43124L219.66296 377.43124L219.66296 383.65L218.72546 383.65ZM221.64734 383.65L221.64734 377.43124L222.58484 377.43124L222.58484 378.30624Q222.88171 377.8375 223.36609 377.57187Q223.85046 377.29062 224.47546 377.29062Q225.16296 377.29062 225.60046 377.57187Q226.05359 377.85312 226.22546 378.36874Q226.97546 377.29062 228.14734 377.29062Q229.08484 377.29062 229.56921 377.80624Q230.06921 378.30624 230.06921 379.38437L230.06921 383.65L229.02234 383.65L229.02234 379.72812Q229.02234 379.10312 228.91296 378.82187Q228.81921 378.54062 228.55359 378.36874Q228.28796 378.19687 227.91296 378.19687Q227.25671 378.19687 226.81921 378.63437Q226.39734 379.07187 226.39734 380.04062L226.39734 383.65L225.33484 383.65L225.33484 379.60312Q225.33484 378.9 225.06921 378.55624Q224.81921 378.19687 224.24109 378.19687Q223.78796 378.19687 223.41296 378.43124Q223.03796 378.66562 222.86609 379.11874Q222.69421 379.57187 222.69421 380.41562L222.69421 383.65L221.64734 383.65ZM235.61609 383.65L235.61609 375.05624L236.67859 375.05624L236.67859 383.65L235.61609 383.65ZM238.64734 376.275L238.64734 375.05624L239.70984 375.05624L239.70984 376.275L238.64734 376.275ZM238.64734 383.65L238.64734 377.43124L239.70984 377.43124L239.70984 383.65L238.64734 383.65ZM241.44421 384.16562L242.47546 384.32187Q242.53796 384.79062 242.83484 385.00937Q243.22546 385.30624 243.89734 385.30624Q244.63171 385.30624 245.02234 385.00937Q245.42859 384.7125 245.56921 384.19687Q245.66296 383.86874 245.64734 382.8375Q244.95984 383.65 243.92859 383.65Q242.64734 383.65 241.94421 382.72812Q241.24109 381.79062 241.24109 380.50937Q241.24109 379.61874 241.55359 378.86874Q241.88171 378.10312 242.49109 377.69687Q243.10046 377.29062 243.92859 377.29062Q245.03796 377.29062 245.75671 378.18124L245.75671 377.43124L246.72546 377.43124L246.72546 382.80624Q246.72546 384.25937 246.42859 384.86874Q246.13171 385.47812 245.49109 385.82187Q244.85046 386.18124 243.91296 386.18124Q242.80359 386.18124 242.11609 385.68124Q241.42859 385.18124 241.44421 384.16562ZM242.31921 380.43124Q242.31921 381.65 242.80359 382.2125Q243.28796 382.775 244.02234 382.775Q244.75671 382.775 245.24109 382.2125Q245.74109 381.65 245.74109 380.4625Q245.74109 379.32187 245.22546 378.74374Q244.72546 378.16562 244.00671 378.16562Q243.30359 378.16562 242.80359 378.74374Q242.31921 379.30624 242.31921 380.43124ZM248.64734 383.65L248.64734 375.05624L249.69421 375.05624L249.69421 378.13437Q250.42859 377.29062 251.55359 377.29062Q252.25671 377.29062 252.75671 377.57187Q253.27234 377.8375 253.49109 378.32187Q253.70984 378.79062 253.70984 379.7125L253.70984 383.65L252.66296 383.65L252.66296 379.7125Q252.66296 378.91562 252.31921 378.55624Q251.97546 378.19687 251.35046 378.19687Q250.88171 378.19687 250.45984 378.44687Q250.05359 378.68124 249.86609 379.10312Q249.69421 379.50937 249.69421 380.24374L249.69421 383.65L248.64734 383.65ZM257.9442 382.7125L258.10046 383.63437Q257.64734 383.72812 257.3036 383.72812Q256.72546 383.72812 256.41296 383.55624Q256.10046 383.36874 255.95984 383.07187Q255.83484 382.775 255.83484 381.82187L255.83484 378.24374L255.06921 378.24374L255.06921 377.43124L255.83484 377.43124L255.83484 375.88437L256.8817 375.25937L256.8817 377.43124L257.9442 377.43124L257.9442 378.24374L256.8817 378.24374L256.8817 381.88437Q256.8817 382.3375 256.9286 382.4625Q256.9911 382.5875 257.1161 382.66562Q257.2411 382.74374 257.47546 382.74374Q257.66296 382.74374 257.9442 382.7125ZM263.66296 386.18124Q262.78796 385.07187 262.1786 383.60312Q261.58484 382.11874 261.58484 380.54062Q261.58484 379.15 262.02234 377.86874Q262.5536 376.38437 263.66296 374.91562L264.41296 374.91562Q263.70984 376.13437 263.47546 376.65Q263.1161 377.4625 262.91296 378.3375Q262.66296 379.43124 262.66296 380.54062Q262.66296 383.36874 264.41296 386.18124L263.66296 386.18124ZM270.89734 382.63437L270.89734 383.65L265.20984 383.65Q265.20984 383.275 265.33484 382.91562Q265.5536 382.3375 266.02234 381.775Q266.5067 381.2125 267.41296 380.47812Q268.8192 379.32187 269.3036 378.65Q269.8036 377.97812 269.8036 377.38437Q269.8036 376.75937 269.35046 376.3375Q268.89734 375.9 268.1786 375.9Q267.41296 375.9 266.95984 376.35312Q266.5067 376.80624 266.4911 377.61874L265.41296 377.50937Q265.52234 376.29062 266.2411 375.66562Q266.97546 375.025 268.20984 375.025Q269.4442 375.025 270.16296 375.7125Q270.8817 376.4 270.8817 377.41562Q270.8817 377.93124 270.66296 378.43124Q270.45984 378.91562 269.95984 379.47812Q269.47546 380.025 268.35046 380.97812Q267.39734 381.775 267.1161 382.07187Q266.85046 382.35312 266.6786 382.63437L270.89734 382.63437ZM273.33484 386.18124L272.58484 386.18124Q274.33484 383.36874 274.33484 380.54062Q274.33484 379.44687 274.08484 378.35312Q273.8817 377.47812 273.52234 376.66562Q273.28796 376.15 272.58484 374.91562L273.33484 374.91562Q274.4286 376.38437 274.95984 377.86874Q275.41296 379.15 275.41296 380.54062Q275.41296 382.11874 274.8036 383.60312Q274.1942 385.07187 273.33484 386.18124Z" fill-rule="nonzero"/><path fill="#000000" d="M311.89062 383.65L311.89062 375.05624L313.60938 375.05624L315.64062 381.13437Q315.92188 381.99374 316.04688 382.41562Q316.1875 381.94687 316.5 381.04062L318.5625 375.05624L320.09375 375.05624L320.09375 383.65L319.0 383.65L319.0 376.4625L316.5 383.65L315.46875 383.65L312.98438 376.3375L312.98438 383.65L311.89062 383.65ZM325.04688 381.65L326.14062 381.775Q325.89062 382.72812 325.1875 383.25937Q324.48438 383.79062 323.40625 383.79062Q322.04688 383.79062 321.23438 382.94687Q320.4375 382.10312 320.4375 380.5875Q320.4375 379.025 321.25 378.16562Q322.0625 377.29062 323.34375 377.29062Q324.59375 377.29062 325.375 378.13437Q326.17188 378.97812 326.17188 380.525Q326.17188 380.61874 326.17188 380.80624L321.53125 380.80624Q321.59375 381.8375 322.10938 382.38437Q322.625 382.91562 323.40625 382.91562Q323.98438 382.91562 324.39062 382.61874Q324.8125 382.30624 325.04688 381.65ZM321.59375 379.94687L325.0625 379.94687Q325.0 379.15 324.67188 378.75937Q324.15625 378.15 323.35938 378.15Q322.625 378.15 322.125 378.63437Q321.64062 379.11874 321.59375 379.94687ZM331.82812 383.65L331.82812 382.86874Q331.23438 383.79062 330.09375 383.79062Q329.34375 383.79062 328.71875 383.38437Q328.09375 382.9625 327.75 382.22812Q327.40625 381.49374 327.40625 380.54062Q327.40625 379.61874 327.71875 378.85312Q328.03125 378.0875 328.65625 377.69687Q329.28125 377.29062 330.04688 377.29062Q330.60938 377.29062 331.04688 377.525Q331.48438 377.75937 331.76562 378.13437L331.76562 375.05624L332.8125 375.05624L332.8125 383.65L331.82812 383.65ZM328.5 380.54062Q328.5 381.74374 329.0 382.3375Q329.5 382.91562 330.1875 382.91562Q330.875 382.91562 331.35938 382.35312Q331.84375 381.79062 331.84375 380.63437Q331.84375 379.35312 331.34375 378.75937Q330.85938 378.16562 330.14062 378.16562Q329.4375 378.16562 328.96875 378.74374Q328.5 379.30624 328.5 380.54062ZM334.79688 376.275L334.79688 375.05624L335.85938 375.05624L335.85938 376.275L334.79688 376.275ZM334.79688 383.65L334.79688 377.43124L335.85938 377.43124L335.85938 383.65L334.79688 383.65ZM341.875 383.65L341.875 382.72812Q341.14062 383.79062 339.89062 383.79062Q339.34375 383.79062 338.85938 383.5875Q338.39062 383.36874 338.15625 383.05624Q337.92188 382.72812 337.82812 382.25937Q337.76562 381.9625 337.76562 381.275L337.76562 377.43124L338.82812 377.43124L338.82812 380.88437Q338.82812 381.69687 338.89062 381.99374Q338.98438 382.4 339.29688 382.65Q339.625 382.88437 340.10938 382.88437Q340.57812 382.88437 340.98438 382.65Q341.40625 382.4 341.57812 381.97812Q341.76562 381.55624 341.76562 380.75937L341.76562 377.43124L342.8125 377.43124L342.8125 383.65L341.875 383.65ZM344.79688 383.65L344.79688 377.43124L345.73438 377.43124L345.73438 378.30624Q346.03125 377.8375 346.51562 377.57187Q347.0 377.29062 347.625 377.29062Q348.3125 377.29062 348.75 377.57187Q349.20312 377.85312 349.375 378.36874Q350.125 377.29062 351.29688 377.29062Q352.23438 377.29062 352.71875 377.80624Q353.21875 378.30624 353.21875 379.38437L353.21875 383.65L352.17188 383.65L352.17188 379.72812Q352.17188 379.10312 352.0625 378.82187Q351.96875 378.54062 351.70312 378.36874Q351.4375 378.19687 351.0625 378.19687Q350.40625 378.19687 349.96875 378.63437Q349.54688 379.07187 349.54688 380.04062L349.54688 383.65L348.48438 383.65L348.48438 379.60312Q348.48438 378.9 348.21875 378.55624Q347.96875 378.19687 347.39062 378.19687Q346.9375 378.19687 346.5625 378.43124Q346.1875 378.66562 346.01562 379.11874Q345.84375 379.57187 345.84375 380.41562L345.84375 383.65L344.79688 383.65ZM360.8125 386.18124Q359.9375 385.07187 359.32812 383.60312Q358.73438 382.11874 358.73438 380.54062Q358.73438 379.15 359.17188 377.86874Q359.70312 376.38437 360.8125 374.91562L361.5625 374.91562Q360.85938 376.13437 360.625 376.65Q360.26562 377.4625 360.0625 378.3375Q359.8125 379.43124 359.8125 380.54062Q359.8125 383.36874 361.5625 386.18124L360.8125 386.18124ZM362.5 381.38437L363.5625 381.24374Q363.73438 382.13437 364.17188 382.54062Q364.60938 382.93124 365.23438 382.93124Q365.98438 382.93124 366.5 382.41562Q367.01562 381.9 367.01562 381.13437Q367.01562 380.41562 366.53125 379.94687Q366.0625 379.4625 365.32812 379.4625Q365.03125 379.4625 364.57812 379.5875L364.70312 378.65Q364.8125 378.66562 364.875 378.66562Q365.54688 378.66562 366.07812 378.32187Q366.625 377.9625 366.625 377.22812Q366.625 376.65 366.23438 376.275Q365.84375 375.88437 365.21875 375.88437Q364.60938 375.88437 364.1875 376.275Q363.78125 376.66562 363.67188 377.43124L362.60938 377.24374Q362.79688 376.19687 363.48438 375.61874Q364.17188 375.025 365.1875 375.025Q365.89062 375.025 366.48438 375.3375Q367.07812 375.63437 367.39062 376.15Q367.70312 376.66562 367.70312 377.25937Q367.70312 377.80624 367.40625 378.275Q367.10938 378.72812 366.53125 378.99374Q367.28125 379.16562 367.70312 379.72812Q368.125 380.275 368.125 381.11874Q368.125 382.24374 367.29688 383.025Q366.48438 383.80624 365.23438 383.80624Q364.10938 383.80624 363.35938 383.13437Q362.60938 382.44687 362.5 381.38437ZM370.48438 386.18124L369.73438 386.18124Q371.48438 383.36874 371.48438 380.54062Q371.48438 379.44687 371.23438 378.35312Q371.03125 377.47812 370.67188 376.66562Q370.4375 376.15 369.73438 374.91562L370.48438 374.91562Q371.57812 376.38437 372.10938 377.86874Q372.5625 379.15 372.5625 380.54062Q372.5625 382.11874 371.95312 383.60312Q371.34375 385.07187 370.48438 386.18124Z" fill-rule="nonzero"/><path fill="#000000" d="M405.04016 383.65L405.04016 375.05624L406.7589 375.05624L408.79016 381.13437Q409.0714 381.99374 409.1964 382.41562Q409.33704 381.94687 409.64954 381.04062L411.71204 375.05624L413.2433 375.05624L413.2433 383.65L412.14954 383.65L412.14954 376.4625L409.64954 383.65L408.6183 383.65L406.1339 376.3375L406.1339 383.65L405.04016 383.65ZM418.1964 381.65L419.29016 381.775Q419.04016 382.72812 418.33704 383.25937Q417.6339 383.79062 416.5558 383.79062Q415.1964 383.79062 414.3839 382.94687Q413.58704 382.10312 413.58704 380.5875Q413.58704 379.025 414.39954 378.16562Q415.21204 377.29062 416.4933 377.29062Q417.7433 377.29062 418.52454 378.13437Q419.3214 378.97812 419.3214 380.525Q419.3214 380.61874 419.3214 380.80624L414.6808 380.80624Q414.7433 381.8375 415.2589 382.38437Q415.77454 382.91562 416.5558 382.91562Q417.1339 382.91562 417.54016 382.61874Q417.96204 382.30624 418.1964 381.65ZM414.7433 379.94687L418.21204 379.94687Q418.14954 379.15 417.8214 378.75937Q417.3058 378.15 416.5089 378.15Q415.77454 378.15 415.27454 378.63437Q414.79016 379.11874 414.7433 379.94687ZM424.97766 383.65L424.97766 382.86874Q424.3839 383.79062 423.2433 383.79062Q422.4933 383.79062 421.8683 383.38437Q421.2433 382.9625 420.89954 382.22812Q420.5558 381.49374 420.5558 380.54062Q420.5558 379.61874 420.8683 378.85312Q421.1808 378.0875 421.8058 377.69687Q422.4308 377.29062 423.1964 377.29062Q423.7589 377.29062 424.1964 377.525Q424.6339 377.75937 424.91516 378.13437L424.91516 375.05624L425.96204 375.05624L425.96204 383.65L424.97766 383.65ZM421.64954 380.54062Q421.64954 381.74374 422.14954 382.3375Q422.64954 382.91562 423.33704 382.91562Q424.02454 382.91562 424.5089 382.35312Q424.9933 381.79062 424.9933 380.63437Q424.9933 379.35312 424.4933 378.75937Q424.0089 378.16562 423.29016 378.16562Q422.58704 378.16562 422.1183 378.74374Q421.64954 379.30624 421.64954 380.54062ZM427.9464 376.275L427.9464 375.05624L429.0089 375.05624L429.0089 376.275L427.9464 376.275ZM427.9464 383.65L427.9464 377.43124L429.0089 377.43124L429.0089 383.65L427.9464 383.65ZM435.02454 383.65L435.02454 382.72812Q434.29016 383.79062 433.04016 383.79062Q432.4933 383.79062 432.0089 383.5875Q431.54016 383.36874 431.3058 383.05624Q431.0714 382.72812 430.97766 382.25937Q430.91516 381.9625 430.91516 381.275L430.91516 377.43124L431.97766 377.43124L431.97766 380.88437Q431.97766 381.69687 432.04016 381.99374Q432.1339 382.4 432.4464 382.65Q432.77454 382.88437 433.2589 382.88437Q433.72766 382.88437 434.1339 382.65Q434.5558 382.4 434.72766 381.97812Q434.91516 381.55624 434.91516 380.75937L434.91516 377.43124L435.96204 377.43124L435.96204 383.65L435.02454 383.65ZM437.9464 383.65L437.9464 377.43124L438.8839 377.43124L438.8839 378.30624Q439.1808 377.8375 439.66516 377.57187Q440.14954 377.29062 440.77454 377.29062Q441.46204 377.29062 441.89954 377.57187Q442.35266 377.85312 442.52454 378.36874Q443.27454 377.29062 444.4464 377.29062Q445.3839 377.29062 445.8683 377.80624Q446.3683 378.30624 446.3683 379.38437L446.3683 383.65L445.3214 383.65L445.3214 379.72812Q445.3214 379.10312 445.21204 378.82187Q445.1183 378.54062 444.85266 378.36874Q444.58704 378.19687 444.21204 378.19687Q443.5558 378.19687 443.1183 378.63437Q442.6964 379.07187 442.6964 380.04062L442.6964 383.65L441.6339 383.65L441.6339 379.60312Q441.6339 378.9 441.3683 378.55624Q441.1183 378.19687 440.54016 378.19687Q440.08704 378.19687 439.71204 378.43124Q439.33704 378.66562 439.16516 379.11874Q438.9933 379.57187 438.9933 380.41562L438.9933 383.65L437.9464 383.65ZM451.9464 383.65L451.9464 375.05624L452.9933 375.05624L452.9933 378.13437Q453.72766 377.29062 454.85266 377.29062Q455.5558 377.29062 456.0558 377.57187Q456.5714 377.8375 456.79016 378.32187Q457.0089 378.79062 457.0089 379.7125L457.0089 383.65L455.96204 383.65L455.96204 379.7125Q455.96204 378.91562 455.6183 378.55624Q455.27454 378.19687 454.64954 378.19687Q454.1808 378.19687 453.7589 378.44687Q453.35266 378.68124 453.16516 379.10312Q452.9933 379.50937 452.9933 380.24374L452.9933 383.65L451.9464 383.65ZM463.1964 381.65L464.29016 381.775Q464.04016 382.72812 463.33704 383.25937Q462.6339 383.79062 461.5558 383.79062Q460.1964 383.79062 459.3839 382.94687Q458.58704 382.10312 458.58704 380.5875Q458.58704 379.025 459.39954 378.16562Q460.21204 377.29062 461.4933 377.29062Q462.7433 377.29062 463.52454 378.13437Q464.3214 378.97812 464.3214 380.525Q464.3214 380.61874 464.3214 380.80624L459.6808 380.80624Q459.7433 381.8375 460.2589 382.38437Q460.77454 382.91562 461.5558 382.91562Q462.1339 382.91562 462.54016 382.61874Q462.96204 382.30624 463.1964 381.65ZM459.7433 379.94687L463.21204 379.94687Q463.14954 379.15 462.8214 378.75937Q462.3058 378.15 461.5089 378.15Q460.77454 378.15 460.27454 378.63437Q459.79016 379.11874 459.7433 379.94687ZM470.0089 382.88437Q469.41516 383.38437 468.8683 383.5875Q468.33704 383.79062 467.71204 383.79062Q466.6808 383.79062 466.1339 383.29062Q465.58704 382.79062 465.58704 382.00937Q465.58704 381.55624 465.79016 381.18124Q465.9933 380.79062 466.33704 380.57187Q466.6808 380.3375 467.10266 380.22812Q467.39954 380.13437 468.04016 380.05624Q469.3058 379.91562 469.91516 379.69687Q469.91516 379.47812 469.91516 379.43124Q469.91516 378.775 469.6183 378.50937Q469.21204 378.16562 468.41516 378.16562Q467.6808 378.16562 467.3214 378.43124Q466.96204 378.68124 466.79016 379.3375L465.7589 379.19687Q465.89954 378.54062 466.22766 378.13437Q466.5558 377.72812 467.16516 377.50937Q467.77454 377.29062 468.5714 377.29062Q469.3683 377.29062 469.8683 377.47812Q470.3683 377.66562 470.60266 377.94687Q470.83704 378.22812 470.9308 378.66562Q470.97766 378.93124 470.97766 379.63437L470.97766 381.04062Q470.97766 382.50937 471.04016 382.9Q471.1183 383.29062 471.3214 383.65L470.21204 383.65Q470.0558 383.32187 470.0089 382.88437ZM469.91516 380.525Q469.33704 380.75937 468.1964 380.93124Q467.54016 381.025 467.27454 381.15Q467.0089 381.25937 466.85266 381.47812Q466.71204 381.69687 466.71204 381.97812Q466.71204 382.4 467.02454 382.68124Q467.35266 382.9625 467.96204 382.9625Q468.5714 382.9625 469.04016 382.69687Q469.52454 382.43124 469.7433 381.9625Q469.91516 381.60312 469.91516 380.91562L469.91516 380.525ZM474.66516 383.65L472.3058 377.43124L473.41516 377.43124L474.7589 381.15Q474.96204 381.75937 475.14954 382.4Q475.29016 381.91562 475.54016 381.22812L476.9308 377.43124L478.0089 377.43124L475.64954 383.65L474.66516 383.65ZM477.89954 386.04062L477.77454 385.05624Q478.1183 385.15 478.3839 385.15Q478.72766 385.15 478.9308 385.025Q479.14954 384.91562 479.29016 384.7125Q479.3839 384.54062 479.6183 383.91562Q479.6339 383.8375 479.71204 383.66562L477.33704 377.43124L478.47766 377.43124L479.77454 381.025Q480.02454 381.7125 480.22766 382.47812Q480.41516 381.74374 480.66516 381.05624L481.9933 377.43124L483.04016 377.43124L480.6808 383.75937Q480.29016 384.775 480.08704 385.16562Q479.8058 385.69687 479.4308 385.93124Q479.0714 386.18124 478.5714 386.18124Q478.27454 386.18124 477.89954 386.04062ZM487.96204 386.18124Q487.08704 385.07187 486.47766 383.60312Q485.8839 382.11874 485.8839 380.54062Q485.8839 379.15 486.3214 377.86874Q486.85266 376.38437 487.96204 374.91562L488.71204 374.91562Q488.0089 376.13437 487.77454 376.65Q487.41516 377.4625 487.21204 378.3375Q486.96204 379.43124 486.96204 380.54062Q486.96204 383.36874 488.71204 386.18124L487.96204 386.18124ZM493.02454 383.65L493.02454 381.5875L489.3058 381.5875L489.3058 380.61874L493.22766 375.05624L494.08704 375.05624L494.08704 380.61874L495.2433 380.61874L495.2433 381.5875L494.08704 381.5875L494.08704 383.65L493.02454 383.65ZM493.02454 380.61874L493.02454 376.75937L490.33704 380.61874L493.02454 380.61874ZM497.6339 386.18124L496.8839 386.18124Q498.6339 383.36874 498.6339 380.54062Q498.6339 379.44687 498.3839 378.35312Q498.1808 377.47812 497.8214 376.66562Q497.58704 376.15 496.8839 374.91562L497.6339 374.91562Q498.72766 376.38437 499.2589 377.86874Q499.71204 379.15 499.71204 380.54062Q499.71204 382.11874 499.10266 383.60312Q498.4933 385.07187 497.6339 386.18124Z" fill-rule="nonzero"/><path fill="#000000" d="M537.7678 383.65L537.7678 375.05624L538.8928 375.05624L538.8928 378.5875L543.3616 378.5875L543.3616 375.05624L544.5022 375.05624L544.5022 383.65L543.3616 383.65L543.3616 379.60312L538.8928 379.60312L538.8928 383.65L537.7678 383.65ZM550.84595 381.65L551.9397 381.775Q551.6897 382.72812 550.9866 383.25937Q550.28345 383.79062 549.2053 383.79062Q547.84595 383.79062 547.03345 382.94687Q546.2366 382.10312 546.2366 380.5875Q546.2366 379.025 547.0491 378.16562Q547.8616 377.29062 549.1428 377.29062Q550.3928 377.29062 551.1741 378.13437Q551.97095 378.97812 551.97095 380.525Q551.97095 380.61874 551.97095 380.80624L547.3303 380.80624Q547.3928 381.8375 547.90845 382.38437Q548.4241 382.91562 549.2053 382.91562Q549.78345 382.91562 550.1897 382.61874Q550.6116 382.30624 550.84595 381.65ZM547.3928 379.94687L550.8616 379.94687Q550.7991 379.15 550.47095 378.75937Q549.9553 378.15 549.15845 378.15Q548.4241 378.15 547.9241 378.63437Q547.4397 379.11874 547.3928 379.94687ZM557.65845 382.88437Q557.0647 383.38437 556.5178 383.5875Q555.9866 383.79062 555.3616 383.79062Q554.3303 383.79062 553.78345 383.29062Q553.2366 382.79062 553.2366 382.00937Q553.2366 381.55624 553.4397 381.18124Q553.6428 380.79062 553.9866 380.57187Q554.3303 380.3375 554.7522 380.22812Q555.0491 380.13437 555.6897 380.05624Q556.9553 379.91562 557.5647 379.69687Q557.5647 379.47812 557.5647 379.43124Q557.5647 378.775 557.2678 378.50937Q556.8616 378.16562 556.0647 378.16562Q555.3303 378.16562 554.97095 378.43124Q554.6116 378.68124 554.4397 379.3375L553.40845 379.19687Q553.5491 378.54062 553.8772 378.13437Q554.2053 377.72812 554.8147 377.50937Q555.4241 377.29062 556.22095 377.29062Q557.0178 377.29062 557.5178 377.47812Q558.0178 377.66562 558.2522 377.94687Q558.4866 378.22812 558.5803 378.66562Q558.6272 378.93124 558.6272 379.63437L558.6272 381.04062Q558.6272 382.50937 558.6897 382.9Q558.7678 383.29062 558.97095 383.65L557.8616 383.65Q557.7053 383.32187 557.65845 382.88437ZM557.5647 380.525Q556.9866 380.75937 555.84595 380.93124Q555.1897 381.025 554.9241 381.15Q554.65845 381.25937 554.5022 381.47812Q554.3616 381.69687 554.3616 381.97812Q554.3616 382.4 554.6741 382.68124Q555.0022 382.9625 555.6116 382.9625Q556.22095 382.9625 556.6897 382.69687Q557.1741 382.43124 557.3928 381.9625Q557.5647 381.60312 557.5647 380.91562L557.5647 380.525ZM562.3147 383.65L559.9553 377.43124L561.0647 377.43124L562.40845 381.15Q562.6116 381.75937 562.7991 382.4Q562.9397 381.91562 563.1897 381.22812L564.5803 377.43124L565.65845 377.43124L563.2991 383.65L562.3147 383.65ZM565.5491 386.04062L565.4241 385.05624Q565.7678 385.15 566.03345 385.15Q566.3772 385.15 566.5803 385.025Q566.7991 384.91562 566.9397 384.7125Q567.03345 384.54062 567.2678 383.91562Q567.28345 383.8375 567.3616 383.66562L564.9866 377.43124L566.1272 377.43124L567.4241 381.025Q567.6741 381.7125 567.8772 382.47812Q568.0647 381.74374 568.3147 381.05624L569.6428 377.43124L570.6897 377.43124L568.3303 383.75937Q567.9397 384.775 567.7366 385.16562Q567.4553 385.69687 567.0803 385.93124Q566.72095 386.18124 566.22095 386.18124Q565.9241 386.18124 565.5491 386.04062ZM575.6116 386.18124Q574.7366 385.07187 574.1272 383.60312Q573.53345 382.11874 573.53345 380.54062Q573.53345 379.15 573.97095 377.86874Q574.5022 376.38437 575.6116 374.91562L576.3616 374.91562Q575.65845 376.13437 575.4241 376.65Q575.0647 377.4625 574.8616 378.3375Q574.6116 379.43124 574.6116 380.54062Q574.6116 383.36874 576.3616 386.18124L575.6116 386.18124ZM577.2991 381.4L578.40845 381.30624Q578.53345 382.11874 578.97095 382.525Q579.4241 382.93124 580.0647 382.93124Q580.8147 382.93124 581.34595 382.35312Q581.8772 381.775 581.8772 380.8375Q581.8772 379.93124 581.3616 379.41562Q580.8616 378.88437 580.03345 378.88437Q579.53345 378.88437 579.1116 379.11874Q578.7053 379.35312 578.47095 379.7125L577.4866 379.5875L578.3147 375.18124L582.59595 375.18124L582.59595 376.18124L579.15845 376.18124L578.7053 378.49374Q579.47095 377.94687 580.3147 377.94687Q581.4397 377.94687 582.2053 378.72812Q582.9866 379.50937 582.9866 380.74374Q582.9866 381.9 582.3147 382.75937Q581.4866 383.79062 580.0647 383.79062Q578.8928 383.79062 578.1428 383.13437Q577.40845 382.47812 577.2991 381.4ZM585.28345 386.18124L584.53345 386.18124Q586.28345 383.36874 586.28345 380.54062Q586.28345 379.44687 586.03345 378.35312Q585.8303 377.47812 585.47095 376.66562Q585.2366 376.15 584.53345 374.91562L585.28345 374.91562Q586.3772 376.38437 586.90845 377.86874Q587.3616 379.15 587.3616 380.54062Q587.3616 382.11874 586.7522 383.60312Q586.1428 385.07187 585.28345 386.18124Z" fill-rule="nonzero"/><path fill="#000000" d="M33.172874 35.43141L35.0635 35.90016Q34.46975 38.24391 32.922874 39.478287Q31.376 40.697037 29.126 40.697037Q26.8135 40.697037 25.360374 39.759537Q23.922874 38.80641 23.15725 37.02516Q22.40725 35.228287 22.40725 33.18141Q22.40725 30.947037 23.251 29.290787Q24.110374 27.618912 25.6885 26.759537Q27.266624 25.884537 29.15725 25.884537Q31.3135 25.884537 32.766624 26.978287Q34.235374 28.072037 34.8135 30.056412L32.954124 30.493912Q32.454124 28.931412 31.501 28.228287Q30.5635 27.509537 29.126 27.509537Q27.46975 27.509537 26.360374 28.306412Q25.251 29.087662 24.797874 30.431412Q24.360374 31.759537 24.360374 33.165787Q24.360374 34.99391 24.891624 36.36891Q25.422874 37.728287 26.547874 38.40016Q27.672874 39.072037 28.96975 39.072037Q30.5635 39.072037 31.672874 38.15016Q32.78225 37.228287 33.172874 35.43141ZM36.079124 35.259537Q36.079124 32.384537 37.672874 30.993912Q39.016624 29.837662 40.9385 29.837662Q43.079124 29.837662 44.422874 31.243912Q45.78225 32.65016 45.78225 35.11891Q45.78225 37.11891 45.1885 38.27516Q44.59475 39.415787 43.4385 40.05641Q42.297874 40.68141 40.9385 40.68141Q38.751 40.68141 37.40725 39.290787Q36.079124 37.884537 36.079124 35.259537ZM37.876 35.259537Q37.876 37.259537 38.735374 38.24391Q39.610374 39.228287 40.9385 39.228287Q42.251 39.228287 43.110374 38.24391Q43.985374 37.24391 43.985374 35.197037Q43.985374 33.27516 43.110374 32.290787Q42.235374 31.290787 40.9385 31.290787Q39.610374 31.290787 38.735374 32.290787Q37.876 33.27516 37.876 35.259537ZM47.71975 40.447037L47.71975 30.072037L49.297874 30.072037L49.297874 31.525162Q49.78225 30.775162 50.59475 30.306412Q51.40725 29.837662 52.4385 29.837662Q53.59475 29.837662 54.329124 30.322037Q55.0635 30.790787 55.376 31.650162Q56.610374 29.837662 58.579124 29.837662Q60.126 29.837662 60.954124 30.697037Q61.78225 31.556412 61.78225 33.322037L61.78225 40.447037L60.03225 40.447037L60.03225 33.915787Q60.03225 32.853287 59.860374 32.40016Q59.6885 31.931412 59.235374 31.650162Q58.797874 31.368912 58.1885 31.368912Q57.09475 31.368912 56.360374 32.103287Q55.641624 32.822037 55.641624 34.415787L55.641624 40.447037L53.891624 40.447037L53.891624 33.71266Q53.891624 32.540787 53.454124 31.962662Q53.03225 31.368912 52.047874 31.368912Q51.3135 31.368912 50.672874 31.759537Q50.047874 32.15016 49.766624 32.90016Q49.485374 33.65016 49.485374 35.072037L49.485374 40.447037L47.71975 40.447037ZM63.71975 44.415787L63.71975 30.072037L65.329124 30.072037L65.329124 31.415787Q65.891624 30.634537 66.59475 30.243912Q67.3135 29.837662 68.329124 29.837662Q69.65725 29.837662 70.672874 30.525162Q71.6885 31.212662 72.204124 32.46266Q72.735374 33.697037 72.735374 35.18141Q72.735374 36.77516 72.15725 38.05641Q71.59475 39.322037 70.501 40.009537Q69.40725 40.68141 68.204124 40.68141Q67.329124 40.68141 66.626 40.30641Q65.9385 39.93141 65.485374 39.36891L65.485374 44.415787L63.71975 44.415787ZM65.3135 35.322037Q65.3135 37.322037 66.126 38.27516Q66.9385 39.228287 68.09475 39.228287Q69.266624 39.228287 70.09475 38.24391Q70.9385 37.259537 70.9385 35.165787Q70.9385 33.197037 70.110374 32.21266Q69.297874 31.212662 68.172874 31.212662Q67.047874 31.212662 66.172874 32.27516Q65.3135 33.322037 65.3135 35.322037ZM74.6885 40.447037L74.6885 26.134537L76.4385 26.134537L76.4385 40.447037L74.6885 40.447037ZM85.829124 37.103287L87.641624 37.33766Q87.21975 38.915787 86.047874 39.80641Q84.891624 40.68141 83.079124 40.68141Q80.8135 40.68141 79.46975 39.290787Q78.141624 37.884537 78.141624 35.353287Q78.141624 32.728287 79.485374 31.290787Q80.829124 29.837662 82.985374 29.837662Q85.0635 29.837662 86.376 31.259537Q87.704124 32.665787 87.704124 35.24391Q87.704124 35.40016 87.6885 35.71266L79.954124 35.71266Q80.047874 37.415787 80.922874 38.322037Q81.797874 39.228287 83.09475 39.228287Q84.0635 39.228287 84.735374 38.728287Q85.422874 38.21266 85.829124 37.103287ZM80.047874 34.259537L85.84475 34.259537Q85.735374 32.96266 85.1885 32.30641Q84.34475 31.290787 83.001 31.290787Q81.797874 31.290787 80.96975 32.103287Q80.141624 32.90016 80.047874 34.259537ZM89.71975 28.165787L89.71975 26.134537L91.46975 26.134537L91.46975 28.165787L89.71975 28.165787ZM87.485374 44.478287L87.8135 42.978287Q88.34475 43.11891 88.65725 43.11891Q89.1885 43.11891 89.454124 42.759537Q89.71975 42.40016 89.71975 40.978287L89.71975 30.072037L91.46975 30.072037L91.46975 41.009537Q91.46975 42.93141 90.96975 43.68141Q90.34475 44.65016 88.860374 44.65016Q88.15725 44.65016 87.485374 44.478287ZM93.735374 28.150162L93.735374 26.134537L95.501 26.134537L95.501 28.150162L93.735374 28.150162ZM93.735374 40.447037L93.735374 30.072037L95.501 30.072037L95.501 40.447037L93.735374 40.447037ZM104.454124 40.447037L104.454124 39.134537Q103.46975 40.68141 101.547874 40.68141Q100.3135 40.68141 99.266624 39.99391Q98.235374 39.30641 97.65725 38.08766Q97.09475 36.86891 97.09475 35.27516Q97.09475 33.71266 97.610374 32.447037Q98.126 31.181412 99.15725 30.509537Q100.204124 29.837662 101.46975 29.837662Q102.40725 29.837662 103.141624 30.243912Q103.876 30.634537 104.34475 31.259537L104.34475 26.134537L106.079124 26.134537L106.079124 40.447037L104.454124 40.447037ZM98.891624 35.27516Q98.891624 37.259537 99.735374 38.24391Q100.579124 39.228287 101.71975 39.228287Q102.876 39.228287 103.672874 38.290787Q104.485374 37.353287 104.485374 35.415787Q104.485374 33.290787 103.65725 32.290787Q102.84475 31.290787 101.641624 31.290787Q100.46975 31.290787 99.672874 32.259537Q98.891624 33.21266 98.891624 35.27516ZM115.501 39.165787Q114.516624 39.99391 113.610374 40.33766Q112.704124 40.68141 111.672874 40.68141Q109.96975 40.68141 109.047874 39.853287Q108.126 39.009537 108.126 37.71266Q108.126 36.947037 108.46975 36.322037Q108.829124 35.697037 109.391624 35.322037Q109.954124 34.93141 110.65725 34.728287Q111.172874 34.603287 112.21975 34.46266Q114.34475 34.21266 115.34475 33.86891Q115.360374 33.509537 115.360374 33.40016Q115.360374 32.33766 114.860374 31.884537Q114.1885 31.290787 112.860374 31.290787Q111.610374 31.290787 111.016624 31.728287Q110.4385 32.165787 110.15725 33.27516L108.4385 33.040787Q108.672874 31.931412 109.204124 31.259537Q109.735374 30.572037 110.751 30.212662Q111.766624 29.837662 113.110374 29.837662Q114.4385 29.837662 115.266624 30.150162Q116.09475 30.462662 116.485374 30.947037Q116.876 31.415787 117.03225 32.134537Q117.126 32.58766 117.126 33.759537L117.126 36.103287Q117.126 38.55641 117.235374 39.21266Q117.34475 39.853287 117.6885 40.447037L115.84475 40.447037Q115.579124 39.90016 115.501 39.165787ZM115.34475 35.24391Q114.391624 35.634537 112.46975 35.90016Q111.391624 36.05641 110.9385 36.259537Q110.501 36.447037 110.251 36.822037Q110.001 37.197037 110.001 37.665787Q110.001 38.36891 110.53225 38.83766Q111.0635 39.30641 112.09475 39.30641Q113.110374 39.30641 113.891624 38.86891Q114.6885 38.415787 115.0635 37.65016Q115.34475 37.040787 115.34475 35.884537L115.34475 35.24391ZM126.454124 40.447037L126.454124 39.134537Q125.46975 40.68141 123.547874 40.68141Q122.3135 40.68141 121.266624 39.99391Q120.235374 39.30641 119.65725 38.08766Q119.09475 36.86891 119.09475 35.27516Q119.09475 33.71266 119.610374 32.447037Q120.126 31.181412 121.15725 30.509537Q122.204124 29.837662 123.46975 29.837662Q124.40725 29.837662 125.141624 30.243912Q125.876 30.634537 126.34475 31.259537L126.34475 26.134537L128.07913 26.134537L128.07913 40.447037L126.454124 40.447037ZM120.891624 35.27516Q120.891624 37.259537 121.735374 38.24391Q122.579124 39.228287 123.71975 39.228287Q124.876 39.228287 125.672874 38.290787Q126.485374 37.353287 126.485374 35.415787Q126.485374 33.290787 125.65725 32.290787Q124.84475 31.290787 123.641624 31.290787Q122.46975 31.290787 121.672874 32.259537Q120.891624 33.21266 120.891624 35.27516Z" fill-rule="nonzero"/></svg>