<svg version="1.1" viewBox="0.0 0.0 657.0 407.0" fill="none" stroke="none" stroke-linecap="square" stroke-miterlimit="10" width="657" height="407" xmlns:xlink="http://www.w3.org/1999/xlink" xmlns="http://www.w3.org/2000/svg"><path fill="#ffffff" d="M0 0L657.0 0L657.0 407.0L0 407.0L0 0Z" fill-rule="nonzero"/><path stroke="#333333" stroke-width="1.0" stroke-linecap="butt" d="M47.5 366.5L636.5 366.5" fill-rule="nonzero"/><path stroke="#cccccc" stroke-width="1.0" stroke-linecap="butt" d="M47.5 362.5L636.5 362.5" fill-rule="nonzero"/><path stroke="#cccccc" stroke-width="1.0" stroke-linecap="butt" d="M47.5 359.5L636.5 359.5" fill-rule="nonzero"/><path stroke="#cccccc" stroke-width="1.0" stroke-linecap="butt" d="M47.5 355.5L636.5 355.5" fill-rule="nonzero"/><path stroke="#cccccc" stroke-width="1.0" stroke-linecap="butt" d="M47.5 351.5L636.5 351.5" fill-rule="nonzero"/><path stroke="#cccccc" stroke-width="1.0" stroke-linecap="butt" d="M47.5 347.5L636.5 347.5" fill-rule="nonzero"/><path stroke="#cccccc" stroke-width="1.0" stroke-linecap="butt" d="M47.5 343.5L636.5 343.5" fill-rule="nonzero"/><path stroke="#cccccc" stroke-width="1.0" stroke-linecap="butt" d="M47.5 339.5L636.5 339.5" fill-rule="nonzero"/><path stroke="#cccccc" stroke-width="1.0" stroke-linecap="butt" d="M47.5 336.5L636.5 336.5" fill-rule="nonzero"/><path stroke="#cccccc" stroke-width="1.0" stroke-linecap="butt" d="M47.5 332.5L636.5 332.5" fill-rule="nonzero"/><path stroke="#cccccc" stroke-width="1.0" stroke-linecap="butt" d="M47.5 328.5L636.5 328.5" fill-rule="nonzero"/><path stroke="#cccccc" stroke-width="1.0" stroke-linecap="butt" d="M47.5 324.5L636.5 324.5" fill-rule="nonzero"/><path stroke="#cccccc" stroke-width="1.0" stroke-linecap="butt" d="M47.5 320.5L636.5 320.5" fill-rule="nonzero"/><path stroke="#cccccc" stroke-width="1.0" stroke-linecap="butt" d="M47.5 316.5L636.5 316.5" fill-rule="nonzero"/><path stroke="#cccccc" stroke-width="1.0" stroke-linecap="butt" d="M47.5 313.5L636.5 313.5" fill-rule="nonzero"/><path stroke="#cccccc" stroke-width="1.0" stroke-linecap="butt" d="M47.5 309.5L636.5 309.5" fill-rule="nonzero"/><path stroke="#cccccc" stroke-width="1.0" stroke-linecap="butt" d="M47.5 305.5L636.5 305.5" fill-rule="nonzero"/><path stroke="#cccccc" stroke-width="1.0" stroke-linecap="butt" d="M47.5 301.5L636.5 301.5" fill-rule="nonzero"/><path stroke="#cccccc" stroke-width="1.0" stroke-linecap="butt" d="M47.5 297.5L636.5 297.5" fill-rule="nonzero"/><path stroke="#cccccc" stroke-width="1.0" stroke-linecap="butt" d="M47.5 294.5L636.5 294.5" fill-rule="nonzero"/><path stroke="#cccccc" stroke-width="1.0" stroke-linecap="butt" d="M47.5 290.5L636.5 290.5" fill-rule="nonzero"/><path stroke="#cccccc" stroke-width="1.0" stroke-linecap="butt" d="M47.5 286.5L636.5 286.5" fill-rule="nonzero"/><path stroke="#cccccc" stroke-width="1.0" stroke-linecap="butt" d="M47.5 282.5L636.5 282.5" fill-rule="nonzero"/><path stroke="#cccccc" stroke-width="1.0" stroke-linecap="butt" d="M47.5 278.5L636.5 278.5" fill-rule="nonzero"/><path stroke="#cccccc" stroke-width="1.0" stroke-linecap="butt" d="M47.5 274.5L636.5 274.5" fill-rule="nonzero"/><path stroke="#cccccc" stroke-width="1.0" stroke-linecap="butt" d="M47.5 271.5L636.5 271.5" fill-rule="nonzero"/><path stroke="#cccccc" stroke-width="1.0" stroke-linecap="butt" d="M47.5 267.5L636.5 267.5" fill-rule="nonzero"/><path stroke="#cccccc" stroke-width="1.0" stroke-linecap="butt" d="M47.5 263.5L636.5 263.5" fill-rule="nonzero"/><path stroke="#cccccc" stroke-width="1.0" stroke-linecap="butt" d="M47.5 259.5L636.5 259.5" fill-rule="nonzero"/><path stroke="#cccccc" stroke-width="1.0" stroke-linecap="butt" d="M47.5 255.5L636.5 255.5" fill-rule="nonzero"/><path stroke="#cccccc" stroke-width="1.0" stroke-linecap="butt" d="M47.5 252.5L636.5 252.5" fill-rule="nonzero"/><path stroke="#cccccc" stroke-width="1.0" stroke-linecap="butt" d="M47.5 248.5L636.5 248.5" fill-rule="nonzero"/><path stroke="#cccccc" stroke-width="1.0" stroke-linecap="butt" d="M47.5 244.5L636.5 244.5" fill-rule="nonzero"/><path stroke="#cccccc" stroke-width="1.0" stroke-linecap="butt" d="M47.5 240.5L636.5 240.5" fill-rule="nonzero"/><path stroke="#cccccc" stroke-width="1.0" stroke-linecap="butt" d="M47.5 236.5L636.5 236.5" fill-rule="nonzero"/><path stroke="#cccccc" stroke-width="1.0" stroke-linecap="butt" d="M47.5 232.5L636.5 232.5" fill-rule="nonzero"/><path stroke="#cccccc" stroke-width="1.0" stroke-linecap="butt" d="M47.5 229.5L636.5 229.5" fill-rule="nonzero"/><path stroke="#cccccc" stroke-width="1.0" stroke-linecap="butt" d="M47.5 225.5L636.5 225.5" fill-rule="nonzero"/><path stroke="#cccccc" stroke-width="1.0" stroke-linecap="butt" d="M47.5 221.5L636.5 221.5" fill-rule="nonzero"/><path stroke="#cccccc" stroke-width="1.0" stroke-linecap="butt" d="M47.5 217.5L636.5 217.5" fill-rule="nonzero"/><path stroke="#cccccc" stroke-width="1.0" stroke-linecap="butt" d="M47.5 213.5L636.5 213.5" fill-rule="nonzero"/><path stroke="#cccccc" stroke-width="1.0" stroke-linecap="butt" d="M47.5 210.5L636.5 210.5" fill-rule="nonzero"/><path stroke="#cccccc" stroke-width="1.0" stroke-linecap="butt" d="M47.5 206.5L636.5 206.5" fill-rule="nonzero"/><path stroke="#cccccc" stroke-width="1.0" stroke-linecap="butt" d="M47.5 202.5L636.5 202.5" fill-rule="nonzero"/><path stroke="#cccccc" stroke-width="1.0" stroke-linecap="butt" d="M47.5 198.5L636.5 198.5" fill-rule="nonzero"/><path stroke="#cccccc" stroke-width="1.0" stroke-linecap="butt" d="M47.5 194.5L636.5 194.5" fill-rule="nonzero"/><path stroke="#cccccc" stroke-width="1.0" stroke-linecap="butt" d="M47.5 190.5L636.5 190.5" fill-rule="nonzero"/><path stroke="#cccccc" stroke-width="1.0" stroke-linecap="butt" d="M47.5 187.5L636.5 187.5" fill-rule="nonzero"/><path stroke="#cccccc" stroke-width="1.0" stroke-linecap="butt" d="M47.5 183.5L636.5 183.5" fill-rule="nonzero"/><path stroke="#cccccc" stroke-width="1.0" stroke-linecap="butt" d="M47.5 179.5L636.5 179.5" fill-rule="nonzero"/><path stroke="#cccccc" stroke-width="1.0" stroke-linecap="butt" d="M47.5 175.5L636.5 175.5" fill-rule="nonzero"/><path stroke="#cccccc" stroke-width="1.0" stroke-linecap="butt" d="M47.5 171.5L636.5 171.5" fill-rule="nonzero"/><path stroke="#cccccc" stroke-width="1.0" stroke-linecap="butt" d="M47.5 168.5L636.5 168.5" fill-rule="nonzero"/><path stroke="#cccccc" stroke-width="1.0" stroke-linecap="butt" d="M47.5 164.5L636.5 164.5" fill-rule="nonzero"/><path stroke="#cccccc" stroke-width="1.0" stroke-linecap="butt" d="M47.5 160.5L636.5 160.5" fill-rule="nonzero"/><path stroke="#cccccc" stroke-width="1.0" stroke-linecap="butt" d="M47.5 156.5L636.5 156.5" fill-rule="nonzero"/><path stroke="#cccccc" stroke-width="1.0" stroke-linecap="butt" d="M47.5 152.5L636.5 152.5" fill-rule="nonzero"/><path stroke="#cccccc" stroke-width="1.0" stroke-linecap="butt" d="M47.5 148.5L636.5 148.5" fill-rule="nonzero"/><path stroke="#cccccc" stroke-width="1.0" stroke-linecap="butt" d="M47.5 145.5L636.5 145.5" fill-rule="nonzero"/><path stroke="#cccccc" stroke-width="1.0" stroke-linecap="butt" d="M47.5 141.5L636.5 141.5" fill-rule="nonzero"/><path stroke="#cccccc" stroke-width="1.0" stroke-linecap="butt" d="M47.5 137.5L636.5 137.5" fill-rule="nonzero"/><path stroke="#cccccc" stroke-width="1.0" stroke-linecap="butt" d="M47.5 133.5L636.5 133.5" fill-rule="nonzero"/><path stroke="#cccccc" stroke-width="1.0" stroke-linecap="butt" d="M47.5 129.5L636.5 129.5" fill-rule="nonzero"/><path stroke="#cccccc" stroke-width="1.0" stroke-linecap="butt" d="M47.5 126.5L636.5 126.5" fill-rule="nonzero"/><path stroke="#cccccc" stroke-width="1.0" stroke-linecap="butt" d="M47.5 122.5L636.5 122.5" fill-rule="nonzero"/><path stroke="#cccccc" stroke-width="1.0" stroke-linecap="butt" d="M47.5 118.5L636.5 118.5" fill-rule="nonzero"/><path stroke="#cccccc" stroke-width="1.0" stroke-linecap="butt" d="M47.5 114.5L636.5 114.5" fill-rule="nonzero"/><path stroke="#cccccc" stroke-width="1.0" stroke-linecap="butt" d="M47.5 110.5L636.5 110.5" fill-rule="nonzero"/><path stroke="#cccccc" stroke-width="1.0" stroke-linecap="butt" d="M47.5 106.5L636.5 106.5" fill-rule="nonzero"/><path stroke="#cccccc" stroke-width="1.0" stroke-linecap="butt" d="M47.5 103.5L636.5 103.5" fill-rule="nonzero"/><path stroke="#cccccc" stroke-width="1.0" stroke-linecap="butt" d="M47.5 99.5L636.5 99.5" fill-rule="nonzero"/><path stroke="#cccccc" stroke-width="1.0" stroke-linecap="butt" d="M47.5 95.5L636.5 95.5" fill-rule="nonzero"/><path stroke="#cccccc" stroke-width="1.0" stroke-linecap="butt" d="M47.5 91.5L636.5 91.5" fill-rule="nonzero"/><path stroke="#cccccc" stroke-width="1.0" stroke-linecap="butt" d="M47.5 87.5L636.5 87.5" fill-rule="nonzero"/><path stroke="#cccccc" stroke-width="1.0" stroke-linecap="butt" d="M47.5 84.5L636.5 84.5" fill-rule="nonzero"/><path stroke="#cccccc" stroke-width="1.0" stroke-linecap="butt" d="M47.5 80.5L636.5 80.5" fill-rule="nonzero"/><path stroke="#cccccc" stroke-width="1.0" stroke-linecap="butt" d="M47.5 76.5L636.5 76.5" fill-rule="nonzero"/><path stroke="#cccccc" stroke-width="1.0" stroke-linecap="butt" d="M47.5 72.5L636.5 72.5" fill-rule="nonzero"/><path stroke="#cccccc" stroke-width="1.0" stroke-linecap="butt" d="M47.5 68.5L636.5 68.5" fill-rule="nonzero"/><path stroke="#cccccc" stroke-width="1.0" stroke-linecap="butt" d="M47.5 64.5L636.5 64.5" fill-rule="nonzero"/><clipPath id="id_0"><path d="M47.35 64.916664L636.65 64.916664L636.65 366.65L47.35 366.65L47.35 64.916664Z" clip-rule="nonzero"/></clipPath><path stroke="#000000" stroke-width="2.0" stroke-linecap="butt" stroke-opacity="0.0" clip-path="url(#id_0)" d="M158.0 367.0L86.0 367.0L86.0 353.0C86.0 351.89542 86.89543 351.0 88.0 351.0L156.0 351.0C157.10457 351.0 158.0 351.89542 158.0 353.0Z" fill-rule="nonzero"/><path fill="#6aa84f" clip-path="url(#id_0)" d="M158.0 367.0L86.0 367.0L86.0 353.0C86.0 351.89542 86.89543 351.0 88.0 351.0L156.0 351.0C157.10457 351.0 158.0 351.89542 158.0 353.0Z" fill-rule="nonzero"/><path stroke="#000000" stroke-width="2.0" stroke-linecap="butt" stroke-opacity="0.0" clip-path="url(#id_0)" d="M268.0 367.0L196.0 367.0L196.0 101.0C196.0 99.89543 196.89543 99.0 198.0 99.0L266.0 99.0C267.10458 99.0 268.0 99.89543 268.0 101.0Z" fill-rule="nonzero"/><path fill="#3c78d8" clip-path="url(#id_0)" d="M268.0 367.0L196.0 367.0L196.0 101.0C196.0 99.89543 196.89543 99.0 198.0 99.0L266.0 99.0C267.10458 99.0 268.0 99.89543 268.0 101.0Z" fill-rule="nonzero"/><path stroke="#000000" stroke-width="2.0" stroke-linecap="butt" stroke-opacity="0.0" clip-path="url(#id_0)" d="M378.0 367.0L306.0 367.0L306.0 67.0C306.0 65.89543 306.89542 65.0 308.0 65.0L376.0 65.0C377.10458 65.0 378.0 65.89543 378.0 67.0Z" fill-rule="nonzero"/><path fill="#f1c232" clip-path="url(#id_0)" d="M378.0 367.0L306.0 367.0L306.0 67.0C306.0 65.89543 306.89542 65.0 308.0 65.0L376.0 65.0C377.10458 65.0 378.0 65.89543 378.0 67.0Z" fill-rule="nonzero"/><path stroke="#000000" stroke-width="2.0" stroke-linecap="butt" stroke-opacity="0.0" clip-path="url(#id_0)" d="M488.0 367.0L416.0 367.0L416.0 220.0C416.0 218.89543 416.89542 218.0 418.0 218.0L486.0 218.0C487.10458 218.0 488.0 218.89543 488.0 220.0Z" fill-rule="nonzero"/><path fill="#e69138" clip-path="url(#id_0)" d="M488.0 367.0L416.0 367.0L416.0 220.0C416.0 218.89543 416.89542 218.0 418.0 218.0L486.0 218.0C487.10458 218.0 488.0 218.89543 488.0 220.0Z" fill-rule="nonzero"/><path stroke="#000000" stroke-width="2.0" stroke-linecap="butt" stroke-opacity="0.0" clip-path="url(#id_0)" d="M598.0 367.0L526.0 367.0L526.0 338.0C526.0 336.89542 526.89545 336.0 528.0 336.0L596.0 336.0C597.10455 336.0 598.0 336.89542 598.0 338.0Z" fill-rule="nonzero"/><path fill="#cc0000" clip-path="url(#id_0)" d="M598.0 367.0L526.0 367.0L526.0 338.0C526.0 336.89542 526.89545 336.0 528.0 336.0L596.0 336.0C597.10455 336.0 598.0 336.89542 598.0 338.0Z" fill-rule="nonzero"/><path stroke="#ffffff" stroke-width="3.0" stroke-linejoin="round" stroke-linecap="round" d="M123.78125 333.513L124.96875 333.513L124.96875 334.388L123.78125 334.388L123.78125 336.37238L122.703125 336.37238L122.703125 334.388L118.8125 334.388L118.8125 333.74738L122.625 327.84113L123.78125 327.84113L123.78125 333.513ZM120.046875 333.513L122.703125 333.513L122.703125 329.3255L122.5625 329.55988L120.046875 333.513Z" fill-rule="nonzero"/><path fill="#6aa84f" d="M123.78125 333.513L124.96875 333.513L124.96875 334.388L123.78125 334.388L123.78125 336.37238L122.703125 336.37238L122.703125 334.388L118.8125 334.388L118.8125 333.74738L122.625 327.84113L123.78125 327.84113L123.78125 333.513ZM120.046875 333.513L122.703125 333.513L122.703125 329.3255L122.5625 329.55988L120.046875 333.513Z" fill-rule="nonzero"/><path stroke="#3c78d8" stroke-width="3.0" stroke-linejoin="round" stroke-linecap="round" d="M231.21875 108.16947L227.6875 116.09135L226.54688 116.09135L230.0625 108.45072L225.45312 108.45072L225.45312 107.5601L231.21875 107.5601L231.21875 108.16947ZM238.0625 112.45072Q238.0625 114.35697 237.40625 115.29447Q236.76562 116.21635 235.375 116.21635Q234.01562 116.21635 233.35938 115.3101Q232.70312 114.40385 232.67188 112.59135L232.67188 111.15385Q232.67188 109.26322 233.3125 108.35697Q233.96875 107.4351 235.35938 107.4351Q236.73438 107.4351 237.39062 108.32572Q238.04688 109.20072 238.0625 111.04447L238.0625 112.45072ZM236.96875 110.96635Q236.96875 109.59135 236.57812 108.96635Q236.20312 108.32572 235.35938 108.32572Q234.53125 108.32572 234.14062 108.96635Q233.76562 109.59135 233.76562 110.88822L233.76562 112.6226Q233.76562 113.9976 234.15625 114.66947Q234.5625 115.32572 235.375 115.32572Q236.17188 115.32572 236.5625 114.70072Q236.95312 114.07572 236.96875 112.7476L236.96875 110.96635Z" fill-rule="nonzero"/><path fill="#ffffff" d="M231.21875 108.16947L227.6875 116.09135L226.54688 116.09135L230.0625 108.45072L225.45312 108.45072L225.45312 107.5601L231.21875 107.5601L231.21875 108.16947ZM238.0625 112.45072Q238.0625 114.35697 237.40625 115.29447Q236.76562 116.21635 235.375 116.21635Q234.01562 116.21635 233.35938 115.3101Q232.70312 114.40385 232.67188 112.59135L232.67188 111.15385Q232.67188 109.26322 233.3125 108.35697Q233.96875 107.4351 235.35938 107.4351Q236.73438 107.4351 237.39062 108.32572Q238.04688 109.20072 238.0625 111.04447L238.0625 112.45072ZM236.96875 110.96635Q236.96875 109.59135 236.57812 108.96635Q236.20312 108.32572 235.35938 108.32572Q234.53125 108.32572 234.14062 108.96635Q233.76562 109.59135 233.76562 110.88822L233.76562 112.6226Q233.76562 113.9976 234.15625 114.66947Q234.5625 115.32572 235.375 115.32572Q236.17188 115.32572 236.5625 114.70072Q236.95312 114.07572 236.96875 112.7476L236.96875 110.96635Z" fill-rule="nonzero"/><path stroke="#f1c232" stroke-width="3.0" stroke-linejoin="round" stroke-linecap="round" d="M341.21875 73.79479L337.6875 81.71667L336.54688 81.71667L340.0625 74.07604L335.45312 74.07604L335.45312 73.18542L341.21875 73.18542L341.21875 73.79479ZM346.85938 77.96667Q346.53125 78.37292 346.04688 78.62292Q345.57812 78.85729 345.01562 78.85729Q344.28125 78.85729 343.73438 78.49792Q343.1875 78.13854 342.89062 77.48229Q342.59375 76.81042 342.59375 76.01354Q342.59375 75.16979 342.90625 74.48229Q343.23438 73.79479 343.82812 73.43542Q344.4375 73.06042 345.23438 73.06042Q346.5 73.06042 347.21875 74.01354Q347.95312 74.96667 347.95312 76.59167L347.95312 76.90417Q347.95312 79.40417 346.96875 80.54479Q345.98438 81.68542 344.0 81.71667L343.78125 81.71667L343.78125 80.81042L344.01562 80.81042Q345.35938 80.77917 346.07812 80.10729Q346.79688 79.43542 346.85938 77.96667ZM345.1875 77.96667Q345.73438 77.96667 346.1875 77.63854Q346.65625 77.29479 346.875 76.81042L346.875 76.37292Q346.875 75.31042 346.40625 74.63854Q345.9375 73.96667 345.23438 73.96667Q344.51562 73.96667 344.07812 74.51354Q343.65625 75.06042 343.65625 75.96667Q343.65625 76.84167 344.0625 77.40417Q344.48438 77.96667 345.1875 77.96667Z" fill-rule="nonzero"/><path fill="#000000" d="M341.21875 73.79479L337.6875 81.71667L336.54688 81.71667L340.0625 74.07604L335.45312 74.07604L335.45312 73.18542L341.21875 73.18542L341.21875 73.79479ZM346.85938 77.96667Q346.53125 78.37292 346.04688 78.62292Q345.57812 78.85729 345.01562 78.85729Q344.28125 78.85729 343.73438 78.49792Q343.1875 78.13854 342.89062 77.48229Q342.59375 76.81042 342.59375 76.01354Q342.59375 75.16979 342.90625 74.48229Q343.23438 73.79479 343.82812 73.43542Q344.4375 73.06042 345.23438 73.06042Q346.5 73.06042 347.21875 74.01354Q347.95312 74.96667 347.95312 76.59167L347.95312 76.90417Q347.95312 79.40417 346.96875 80.54479Q345.98438 81.68542 344.0 81.71667L343.78125 81.71667L343.78125 80.81042L344.01562 80.81042Q345.35938 80.77917 346.07812 80.10729Q346.79688 79.43542 346.85938 77.96667ZM345.1875 77.96667Q345.73438 77.96667 346.1875 77.63854Q346.65625 77.29479 346.875 76.81042L346.875 76.37292Q346.875 75.31042 346.40625 74.63854Q345.9375 73.96667 345.23438 73.96667Q344.51562 73.96667 344.07812 74.51354Q343.65625 75.06042 343.65625 75.96667Q343.65625 76.84167 344.0625 77.40417Q344.48438 77.96667 345.1875 77.96667Z" fill-rule="nonzero"/><path stroke="#e69138" stroke-width="3.0" stroke-linejoin="round" stroke-linecap="round" d="M447.28125 229.69617L448.09375 229.69617Q448.875 229.68054 449.3125 229.28992Q449.75 228.89929 449.75 228.22742Q449.75 226.72742 448.25 226.72742Q447.54688 226.72742 447.125 227.13367Q446.71875 227.53992 446.71875 228.19617L445.625 228.19617Q445.625 227.18054 446.35938 226.50867Q447.10938 225.83679 448.25 225.83679Q449.45312 225.83679 450.14062 226.47742Q450.82812 227.11804 450.82812 228.25867Q450.82812 228.82117 450.46875 229.33679Q450.10938 229.85242 449.48438 230.11804Q450.1875 230.33679 450.5625 230.85242Q450.95312 231.36804 450.95312 232.11804Q450.95312 233.25867 450.20312 233.94617Q449.45312 234.61804 448.25 234.61804Q447.0625 234.61804 446.29688 233.96179Q445.54688 233.30554 445.54688 232.24304L446.64062 232.24304Q446.64062 232.91492 447.07812 233.32117Q447.51562 233.72742 448.26562 233.72742Q449.04688 233.72742 449.45312 233.32117Q449.875 232.89929 449.875 232.13367Q449.875 231.39929 449.42188 231.00867Q448.96875 230.60242 448.09375 230.58679L447.28125 230.58679L447.28125 229.69617ZM456.85938 230.74304Q456.53125 231.14929 456.04688 231.39929Q455.57812 231.63367 455.01562 231.63367Q454.28125 231.63367 453.73438 231.27429Q453.1875 230.91492 452.89062 230.25867Q452.59375 229.58679 452.59375 228.78992Q452.59375 227.94617 452.90625 227.25867Q453.23438 226.57117 453.82812 226.21179Q454.4375 225.83679 455.23438 225.83679Q456.5 225.83679 457.21875 226.78992Q457.95312 227.74304 457.95312 229.36804L457.95312 229.68054Q457.95312 232.18054 456.96875 233.32117Q455.98438 234.46179 454.0 234.49304L453.78125 234.49304L453.78125 233.58679L454.01562 233.58679Q455.35938 233.55554 456.07812 232.88367Q456.79688 232.21179 456.85938 230.74304ZM455.1875 230.74304Q455.73438 230.74304 456.1875 230.41492Q456.65625 230.07117 456.875 229.58679L456.875 229.14929Q456.875 228.08679 456.40625 227.41492Q455.9375 226.74304 455.23438 226.74304Q454.51562 226.74304 454.07812 227.28992Q453.65625 227.83679 453.65625 228.74304Q453.65625 229.61804 454.0625 230.18054Q454.48438 230.74304 455.1875 230.74304Z" fill-rule="nonzero"/><path fill="#000000" d="M447.28125 229.69617L448.09375 229.69617Q448.875 229.68054 449.3125 229.28992Q449.75 228.89929 449.75 228.22742Q449.75 226.72742 448.25 226.72742Q447.54688 226.72742 447.125 227.13367Q446.71875 227.53992 446.71875 228.19617L445.625 228.19617Q445.625 227.18054 446.35938 226.50867Q447.10938 225.83679 448.25 225.83679Q449.45312 225.83679 450.14062 226.47742Q450.82812 227.11804 450.82812 228.25867Q450.82812 228.82117 450.46875 229.33679Q450.10938 229.85242 449.48438 230.11804Q450.1875 230.33679 450.5625 230.85242Q450.95312 231.36804 450.95312 232.11804Q450.95312 233.25867 450.20312 233.94617Q449.45312 234.61804 448.25 234.61804Q447.0625 234.61804 446.29688 233.96179Q445.54688 233.30554 445.54688 232.24304L446.64062 232.24304Q446.64062 232.91492 447.07812 233.32117Q447.51562 233.72742 448.26562 233.72742Q449.04688 233.72742 449.45312 233.32117Q449.875 232.89929 449.875 232.13367Q449.875 231.39929 449.42188 231.00867Q448.96875 230.60242 448.09375 230.58679L447.28125 230.58679L447.28125 229.69617ZM456.85938 230.74304Q456.53125 231.14929 456.04688 231.39929Q455.57812 231.63367 455.01562 231.63367Q454.28125 231.63367 453.73438 231.27429Q453.1875 230.91492 452.89062 230.25867Q452.59375 229.58679 452.59375 228.78992Q452.59375 227.94617 452.90625 227.25867Q453.23438 226.57117 453.82812 226.21179Q454.4375 225.83679 455.23438 225.83679Q456.5 225.83679 457.21875 226.78992Q457.95312 227.74304 457.95312 229.36804L457.95312 229.68054Q457.95312 232.18054 456.96875 233.32117Q455.98438 234.46179 454.0 234.49304L453.78125 234.49304L453.78125 233.58679L454.01562 233.58679Q455.35938 233.55554 456.07812 232.88367Q456.79688 232.21179 456.85938 230.74304ZM455.1875 230.74304Q455.73438 230.74304 456.1875 230.41492Q456.65625 230.07117 456.875 229.58679L456.875 229.14929Q456.875 228.08679 456.40625 227.41492Q455.9375 226.74304 455.23438 226.74304Q454.51562 226.74304 454.07812 227.28992Q453.65625 227.83679 453.65625 228.74304Q453.65625 229.61804 454.0625 230.18054Q454.48438 230.74304 455.1875 230.74304Z" fill-rule="nonzero"/><path stroke="#cc0000" stroke-width="3.0" stroke-linejoin="round" stroke-linecap="round" d="M564.3906 346.5822Q564.3906 347.22284 564.0469 347.72284Q563.7031 348.22284 563.1406 348.5041Q563.7969 348.78534 564.1875 349.34784Q564.5781 349.8947 564.5781 350.59784Q564.5781 351.6916 563.8281 352.36346Q563.09375 353.0197 561.875 353.0197Q560.6406 353.0197 559.8906 352.36346Q559.15625 351.6916 559.15625 350.59784Q559.15625 349.8947 559.53125 349.34784Q559.90625 348.78534 560.5781 348.5041Q560.0156 348.22284 559.6875 347.72284Q559.3594 347.22284 559.3594 346.5822Q559.3594 345.5041 560.0469 344.8791Q560.7344 344.23846 561.875 344.23846Q563.0 344.23846 563.6875 344.8791Q564.3906 345.5041 564.3906 346.5822ZM563.5 350.5666Q563.5 349.84784 563.0469 349.41034Q562.59375 348.9572 561.8594 348.9572Q561.125 348.9572 560.6719 349.41034Q560.2344 349.84784 560.2344 350.5822Q560.2344 351.30096 560.6719 351.72284Q561.1094 352.1291 561.875 352.1291Q562.625 352.1291 563.0625 351.7072Q563.5 351.28534 563.5 350.5666ZM561.875 345.1291Q561.2344 345.1291 560.8281 345.53534Q560.4375 345.92596 560.4375 346.61346Q560.4375 347.2541 560.8281 347.66034Q561.21875 348.0666 561.8594 348.0666Q562.5156 348.0666 562.90625 347.66034Q563.2969 347.2541 563.2969 346.61346Q563.2969 345.9572 562.8906 345.55096Q562.4844 345.1291 561.875 345.1291Z" fill-rule="nonzero"/><path fill="#ffffff" d="M564.3906 346.5822Q564.3906 347.22284 564.0469 347.72284Q563.7031 348.22284 563.1406 348.5041Q563.7969 348.78534 564.1875 349.34784Q564.5781 349.8947 564.5781 350.59784Q564.5781 351.6916 563.8281 352.36346Q563.09375 353.0197 561.875 353.0197Q560.6406 353.0197 559.8906 352.36346Q559.15625 351.6916 559.15625 350.59784Q559.15625 349.8947 559.53125 349.34784Q559.90625 348.78534 560.5781 348.5041Q560.0156 348.22284 559.6875 347.72284Q559.3594 347.22284 559.3594 346.5822Q559.3594 345.5041 560.0469 344.8791Q560.7344 344.23846 561.875 344.23846Q563.0 344.23846 563.6875 344.8791Q564.3906 345.5041 564.3906 346.5822ZM563.5 350.5666Q563.5 349.84784 563.0469 349.41034Q562.59375 348.9572 561.8594 348.9572Q561.125 348.9572 560.6719 349.41034Q560.2344 349.84784 560.2344 350.5822Q560.2344 351.30096 560.6719 351.72284Q561.1094 352.1291 561.875 352.1291Q562.625 352.1291 563.0625 351.7072Q563.5 351.28534 563.5 350.5666ZM561.875 345.1291Q561.2344 345.1291 560.8281 345.53534Q560.4375 345.92596 560.4375 346.61346Q560.4375 347.2541 560.8281 347.66034Q561.21875 348.0666 561.8594 348.0666Q562.5156 348.0666 562.90625 347.66034Q563.2969 347.2541 563.2969 346.61346Q563.2969 345.9572 562.8906 345.55096Q562.4844 345.1291 561.875 345.1291Z" fill-rule="nonzero"/><path fill="#000000" d="M34.85 366.41562Q34.85 364.88437 35.1625 363.9625Q35.475 363.025 36.084373 362.525Q36.709373 362.025 37.646873 362.025Q38.334373 362.025 38.85 362.30624Q39.38125 362.5875 39.725 363.11874Q40.06875 363.63437 40.25625 364.38437Q40.44375 365.13437 40.44375 366.41562Q40.44375 367.93124 40.13125 368.85312Q39.834373 369.775 39.209373 370.29062Q38.6 370.79062 37.646873 370.79062Q36.4125 370.79062 35.69375 369.9Q34.85 368.8375 34.85 366.41562ZM35.928123 366.41562Q35.928123 368.525 36.428123 369.22812Q36.928123 369.93124 37.646873 369.93124Q38.38125 369.93124 38.865623 369.22812Q39.365623 368.525 39.365623 366.41562Q39.365623 364.29062 38.865623 363.60312Q38.38125 362.9 37.63125 362.9Q36.9125 362.9 36.475 363.50937Q35.928123 364.29062 35.928123 366.41562Z" fill-rule="nonzero"/><path fill="#000000" d="M38.225 355.37238L38.225 353.30988L34.50625 353.30988L34.50625 352.34113L38.428123 346.77863L39.2875 346.77863L39.2875 352.34113L40.44375 352.34113L40.44375 353.30988L39.2875 353.30988L39.2875 355.37238L38.225 355.37238ZM38.225 352.34113L38.225 348.48175L35.5375 352.34113L38.225 352.34113Z" fill-rule="nonzero"/><path fill="#000000" d="M36.475 335.43848Q35.81875 335.18848 35.490623 334.75098Q35.178123 334.29785 35.178123 333.68848Q35.178123 332.75098 35.85 332.11035Q36.5375 331.46973 37.646873 331.46973Q38.771873 331.46973 39.459373 332.12598Q40.146873 332.78223 40.146873 333.71973Q40.146873 334.31348 39.834373 334.75098Q39.521873 335.18848 38.88125 335.43848Q39.678123 335.68848 40.084373 336.2666Q40.490623 336.84473 40.490623 337.6416Q40.490623 338.73535 39.709373 339.48535Q38.94375 340.23535 37.6625 340.23535Q36.396873 340.23535 35.615623 339.48535Q34.834373 338.73535 34.834373 337.61035Q34.834373 336.7666 35.25625 336.2041Q35.69375 335.6416 36.475 335.43848ZM36.25625 333.6416Q36.25625 334.25098 36.646873 334.6416Q37.053123 335.03223 37.678123 335.03223Q38.2875 335.03223 38.678123 334.65723Q39.06875 334.2666 39.06875 333.7041Q39.06875 333.12598 38.6625 332.73535Q38.25625 332.3291 37.6625 332.3291Q37.053123 332.3291 36.646873 332.71973Q36.25625 333.11035 36.25625 333.6416ZM35.928123 337.61035Q35.928123 338.06348 36.13125 338.48535Q36.35 338.90723 36.771873 339.1416Q37.19375 339.37598 37.678123 339.37598Q38.428123 339.37598 38.9125 338.8916Q39.4125 338.40723 39.4125 337.65723Q39.4125 336.8916 38.9125 336.3916Q38.4125 335.8916 37.646873 335.8916Q36.896873 335.8916 36.4125 336.3916Q35.928123 336.87598 35.928123 337.61035Z" fill-rule="nonzero"/><path fill="#000000" d="M31.81875 324.81708L30.771875 324.81708L30.771875 318.09833Q30.38125 318.4577 29.75625 318.8327Q29.146875 319.19208 28.6625 319.36395L28.6625 318.34833Q29.5375 317.92645 30.19375 317.34833Q30.865625 316.75458 31.146875 316.19208L31.81875 316.19208L31.81875 324.81708ZM40.396873 323.80145L40.396873 324.81708L34.709373 324.81708Q34.709373 324.44208 34.834373 324.0827Q35.053123 323.50458 35.521873 322.94208Q36.00625 322.37958 36.9125 321.6452Q38.31875 320.48895 38.803123 319.81708Q39.303123 319.1452 39.303123 318.55145Q39.303123 317.92645 38.85 317.50458Q38.396873 317.06708 37.678123 317.06708Q36.9125 317.06708 36.459373 317.5202Q36.00625 317.97333 35.990623 318.78583L34.9125 318.67645Q35.021873 317.4577 35.740623 316.8327Q36.475 316.19208 37.709373 316.19208Q38.94375 316.19208 39.6625 316.87958Q40.38125 317.56708 40.38125 318.5827Q40.38125 319.09833 40.1625 319.59833Q39.959373 320.0827 39.459373 320.6452Q38.975 321.19208 37.85 322.1452Q36.896873 322.94208 36.615623 323.23895Q36.35 323.5202 36.178123 323.80145L40.396873 323.80145Z" fill-rule="nonzero"/><path fill="#000000" d="M31.81875 309.53946L30.771875 309.53946L30.771875 302.8207Q30.38125 303.18008 29.75625 303.55508Q29.146875 303.91446 28.6625 304.08633L28.6625 303.0707Q29.5375 302.64883 30.19375 302.0707Q30.865625 301.47696 31.146875 300.91446L31.81875 300.91446L31.81875 309.53946ZM40.31875 303.05508L39.271873 303.1332Q39.13125 302.5082 38.88125 302.22696Q38.44375 301.77383 37.81875 301.77383Q37.31875 301.77383 36.928123 302.05508Q36.44375 302.43008 36.146873 303.1332Q35.865623 303.8207 35.85 305.10196Q36.225 304.52383 36.771873 304.24258Q37.334373 303.96133 37.94375 303.96133Q38.990623 303.96133 39.725 304.74258Q40.475 305.52383 40.475 306.74258Q40.475 307.55508 40.115623 308.2582Q39.771873 308.9457 39.1625 309.3207Q38.553123 309.68008 37.7875 309.68008Q36.459373 309.68008 35.63125 308.71133Q34.803123 307.74258 34.803123 305.52383Q34.803123 303.02383 35.725 301.89883Q36.521873 300.91446 37.88125 300.91446Q38.896873 300.91446 39.5375 301.49258Q40.19375 302.05508 40.31875 303.05508ZM36.021873 306.7582Q36.021873 307.30508 36.240623 307.80508Q36.475 308.28946 36.88125 308.55508Q37.303123 308.8207 37.771873 308.8207Q38.428123 308.8207 38.9125 308.28946Q39.396873 307.74258 39.396873 306.8207Q39.396873 305.93008 38.9125 305.41446Q38.44375 304.89883 37.725 304.89883Q37.00625 304.89883 36.50625 305.41446Q36.021873 305.93008 36.021873 306.7582Z" fill-rule="nonzero"/><path fill="#000000" d="M33.396873 293.2462L33.396873 294.2618L27.709375 294.2618Q27.709375 293.8868 27.834375 293.52744Q28.053125 292.9493 28.521875 292.3868Q29.00625 291.8243 29.9125 291.08994Q31.31875 289.9337 31.803125 289.2618Q32.303123 288.58994 32.303123 287.9962Q32.303123 287.3712 31.85 286.9493Q31.396875 286.5118 30.678125 286.5118Q29.9125 286.5118 29.459375 286.96494Q29.00625 287.41806 28.990625 288.23056L27.9125 288.1212Q28.021875 286.90244 28.740625 286.27744Q29.475 285.6368 30.709375 285.6368Q31.94375 285.6368 32.6625 286.3243Q33.38125 287.0118 33.38125 288.02744Q33.38125 288.54306 33.1625 289.04306Q32.959373 289.52744 32.459373 290.08994Q31.975 290.6368 30.85 291.58994Q29.896875 292.3868 29.615625 292.6837Q29.35 292.96494 29.178125 293.2462L33.396873 293.2462ZM34.85 290.02744Q34.85 288.4962 35.1625 287.5743Q35.475 286.6368 36.084373 286.1368Q36.709373 285.6368 37.646873 285.6368Q38.334373 285.6368 38.85 285.91806Q39.38125 286.1993 39.725 286.73056Q40.06875 287.2462 40.25625 287.9962Q40.44375 288.7462 40.44375 290.02744Q40.44375 291.54306 40.13125 292.46494Q39.834373 293.3868 39.209373 293.90244Q38.6 294.40244 37.646873 294.40244Q36.4125 294.40244 35.69375 293.5118Q34.85 292.4493 34.85 290.02744ZM35.928123 290.02744Q35.928123 292.1368 36.428123 292.83994Q36.928123 293.54306 37.646873 293.54306Q38.38125 293.54306 38.865623 292.83994Q39.365623 292.1368 39.365623 290.02744Q39.365623 287.90244 38.865623 287.21494Q38.38125 286.5118 37.63125 286.5118Q36.9125 286.5118 36.475 287.1212Q35.928123 287.90244 35.928123 290.02744Z" fill-rule="nonzero"/><path fill="#000000" d="M33.396873 277.96857L33.396873 278.9842L27.709375 278.9842Q27.709375 278.6092 27.834375 278.24982Q28.053125 277.6717 28.521875 277.1092Q29.00625 276.5467 29.9125 275.81232Q31.31875 274.65607 31.803125 273.9842Q32.303123 273.31232 32.303123 272.71857Q32.303123 272.09357 31.85 271.6717Q31.396875 271.2342 30.678125 271.2342Q29.9125 271.2342 29.459375 271.68732Q29.00625 272.14044 28.990625 272.95294L27.9125 272.84357Q28.021875 271.62482 28.740625 270.99982Q29.475 270.3592 30.709375 270.3592Q31.94375 270.3592 32.6625 271.0467Q33.38125 271.7342 33.38125 272.74982Q33.38125 273.26544 33.1625 273.76544Q32.959373 274.24982 32.459373 274.81232Q31.975 275.3592 30.85 276.31232Q29.896875 277.1092 29.615625 277.40607Q29.35 277.68732 29.178125 277.96857L33.396873 277.96857ZM38.225 278.9842L38.225 276.9217L34.50625 276.9217L34.50625 275.95294L38.428123 270.39044L39.2875 270.39044L39.2875 275.95294L40.44375 275.95294L40.44375 276.9217L39.2875 276.9217L39.2875 278.9842L38.225 278.9842ZM38.225 275.95294L38.225 272.09357L35.5375 275.95294L38.225 275.95294Z" fill-rule="nonzero"/><path fill="#000000" d="M33.396873 262.69092L33.396873 263.70654L27.709375 263.70654Q27.709375 263.33154 27.834375 262.97217Q28.053125 262.39404 28.521875 261.83154Q29.00625 261.26904 29.9125 260.53467Q31.31875 259.37842 31.803125 258.70654Q32.303123 258.03467 32.303123 257.44092Q32.303123 256.81592 31.85 256.39404Q31.396875 255.95654 30.678125 255.95654Q29.9125 255.95654 29.459375 256.40967Q29.00625 256.8628 28.990625 257.6753L27.9125 257.56592Q28.021875 256.34717 28.740625 255.72217Q29.475 255.08154 30.709375 255.08154Q31.94375 255.08154 32.6625 255.76904Q33.38125 256.45654 33.38125 257.47217Q33.38125 257.9878 33.1625 258.4878Q32.959373 258.97217 32.459373 259.53467Q31.975 260.08154 30.85 261.03467Q29.896875 261.83154 29.615625 262.12842Q29.35 262.40967 29.178125 262.69092L33.396873 262.69092ZM36.475 259.0503Q35.81875 258.8003 35.490623 258.3628Q35.178123 257.90967 35.178123 257.3003Q35.178123 256.3628 35.85 255.72217Q36.5375 255.08154 37.646873 255.08154Q38.771873 255.08154 39.459373 255.7378Q40.146873 256.39404 40.146873 257.33154Q40.146873 257.9253 39.834373 258.3628Q39.521873 258.8003 38.88125 259.0503Q39.678123 259.3003 40.084373 259.87842Q40.490623 260.45654 40.490623 261.25342Q40.490623 262.34717 39.709373 263.09717Q38.94375 263.84717 37.6625 263.84717Q36.396873 263.84717 35.615623 263.09717Q34.834373 262.34717 34.834373 261.22217Q34.834373 260.37842 35.25625 259.81592Q35.69375 259.25342 36.475 259.0503ZM36.25625 257.25342Q36.25625 257.8628 36.646873 258.25342Q37.053123 258.64404 37.678123 258.64404Q38.2875 258.64404 38.678123 258.26904Q39.06875 257.87842 39.06875 257.31592Q39.06875 256.7378 38.6625 256.34717Q38.25625 255.94092 37.6625 255.94092Q37.053123 255.94092 36.646873 256.33154Q36.25625 256.72217 36.25625 257.25342ZM35.928123 261.22217Q35.928123 261.6753 36.13125 262.09717Q36.35 262.51904 36.771873 262.75342Q37.19375 262.9878 37.678123 262.9878Q38.428123 262.9878 38.9125 262.50342Q39.4125 262.01904 39.4125 261.26904Q39.4125 260.50342 38.9125 260.00342Q38.4125 259.50342 37.646873 259.50342Q36.896873 259.50342 36.4125 260.00342Q35.928123 260.4878 35.928123 261.22217Z" fill-rule="nonzero"/><path fill="#000000" d="M27.85 246.16328L28.9125 246.02266Q29.084375 246.91328 29.521875 247.31953Q29.959375 247.71016 30.584375 247.71016Q31.334375 247.71016 31.85 247.19453Q32.365623 246.67891 32.365623 245.91328Q32.365623 245.19453 31.88125 244.72578Q31.4125 244.24141 30.678125 244.24141Q30.38125 244.24141 29.928125 244.36641L30.053125 243.42891Q30.1625 243.44453 30.225 243.44453Q30.896875 243.44453 31.428125 243.10078Q31.975 242.74141 31.975 242.00703Q31.975 241.42891 31.584375 241.05391Q31.19375 240.66328 30.56875 240.66328Q29.959375 240.66328 29.5375 241.05391Q29.13125 241.44453 29.021875 242.21016L27.959375 242.02266Q28.146875 240.97578 28.834375 240.39766Q29.521875 239.80391 30.5375 239.80391Q31.240625 239.80391 31.834375 240.11641Q32.428123 240.41328 32.740623 240.92891Q33.053123 241.44453 33.053123 242.03828Q33.053123 242.58516 32.75625 243.05391Q32.459373 243.50703 31.88125 243.77266Q32.63125 243.94453 33.053123 244.50703Q33.475 245.05391 33.475 245.89766Q33.475 247.02266 32.646873 247.80391Q31.834375 248.58516 30.584375 248.58516Q29.459375 248.58516 28.709375 247.91328Q27.959375 247.22578 27.85 246.16328ZM40.396873 247.41328L40.396873 248.42891L34.709373 248.42891Q34.709373 248.05391 34.834373 247.69453Q35.053123 247.11641 35.521873 246.55391Q36.00625 245.99141 36.9125 245.25703Q38.31875 244.10078 38.803123 243.42891Q39.303123 242.75703 39.303123 242.16328Q39.303123 241.53828 38.85 241.11641Q38.396873 240.67891 37.678123 240.67891Q36.9125 240.67891 36.459373 241.13203Q36.00625 241.58516 35.990623 242.39766L34.9125 242.28828Q35.021873 241.06953 35.740623 240.44453Q36.475 239.80391 37.709373 239.80391Q38.94375 239.80391 39.6625 240.49141Q40.38125 241.17891 40.38125 242.19453Q40.38125 242.71016 40.1625 243.21016Q39.959373 243.69453 39.459373 244.25703Q38.975 244.80391 37.85 245.75703Q36.896873 246.55391 36.615623 246.85078Q36.35 247.13203 36.178123 247.41328L40.396873 247.41328Z" fill-rule="nonzero"/><path fill="#000000" d="M27.85 230.88564L28.9125 230.74501Q29.084375 231.63564 29.521875 232.04189Q29.959375 232.43251 30.584375 232.43251Q31.334375 232.43251 31.85 231.91689Q32.365623 231.40126 32.365623 230.63564Q32.365623 229.91689 31.88125 229.44814Q31.4125 228.96376 30.678125 228.96376Q30.38125 228.96376 29.928125 229.08876L30.053125 228.15126Q30.1625 228.16689 30.225 228.16689Q30.896875 228.16689 31.428125 227.82314Q31.975 227.46376 31.975 226.72939Q31.975 226.15126 31.584375 225.77626Q31.19375 225.38564 30.56875 225.38564Q29.959375 225.38564 29.5375 225.77626Q29.13125 226.16689 29.021875 226.93251L27.959375 226.74501Q28.146875 225.69814 28.834375 225.12001Q29.521875 224.52626 30.5375 224.52626Q31.240625 224.52626 31.834375 224.83876Q32.428123 225.13564 32.740623 225.65126Q33.053123 226.16689 33.053123 226.76064Q33.053123 227.30751 32.75625 227.77626Q32.459373 228.22939 31.88125 228.49501Q32.63125 228.66689 33.053123 229.22939Q33.475 229.77626 33.475 230.62001Q33.475 231.74501 32.646873 232.52626Q31.834375 233.30751 30.584375 233.30751Q29.459375 233.30751 28.709375 232.63564Q27.959375 231.94814 27.85 230.88564ZM40.31875 226.66689L39.271873 226.74501Q39.13125 226.12001 38.88125 225.83876Q38.44375 225.38564 37.81875 225.38564Q37.31875 225.38564 36.928123 225.66689Q36.44375 226.04189 36.146873 226.74501Q35.865623 227.43251 35.85 228.71376Q36.225 228.13564 36.771873 227.85439Q37.334373 227.57314 37.94375 227.57314Q38.990623 227.57314 39.725 228.35439Q40.475 229.13564 40.475 230.35439Q40.475 231.16689 40.115623 231.87001Q39.771873 232.55751 39.1625 232.93251Q38.553123 233.29189 37.7875 233.29189Q36.459373 233.29189 35.63125 232.32314Q34.803123 231.35439 34.803123 229.13564Q34.803123 226.63564 35.725 225.51064Q36.521873 224.52626 37.88125 224.52626Q38.896873 224.52626 39.5375 225.10439Q40.19375 225.66689 40.31875 226.66689ZM36.021873 230.37001Q36.021873 230.91689 36.240623 231.41689Q36.475 231.90126 36.88125 232.16689Q37.303123 232.43251 37.771873 232.43251Q38.428123 232.43251 38.9125 231.90126Q39.396873 231.35439 39.396873 230.43251Q39.396873 229.54189 38.9125 229.02626Q38.44375 228.51064 37.725 228.51064Q37.00625 228.51064 36.50625 229.02626Q36.021873 229.54189 36.021873 230.37001Z" fill-rule="nonzero"/><path fill="#000000" d="M31.225 217.87363L31.225 215.81113L27.50625 215.81113L27.50625 214.84238L31.428125 209.27988L32.2875 209.27988L32.2875 214.84238L33.44375 214.84238L33.44375 215.81113L32.2875 215.81113L32.2875 217.87363L31.225 217.87363ZM31.225 214.84238L31.225 210.983L28.5375 214.84238L31.225 214.84238ZM34.85 213.63925Q34.85 212.108 35.1625 211.18613Q35.475 210.24863 36.084373 209.74863Q36.709373 209.24863 37.646873 209.24863Q38.334373 209.24863 38.85 209.52988Q39.38125 209.81113 39.725 210.34238Q40.06875 210.858 40.25625 211.608Q40.44375 212.358 40.44375 213.63925Q40.44375 215.15488 40.13125 216.07675Q39.834373 216.99863 39.209373 217.51425Q38.6 218.01425 37.646873 218.01425Q36.4125 218.01425 35.69375 217.12363Q34.85 216.06113 34.85 213.63925ZM35.928123 213.63925Q35.928123 215.74863 36.428123 216.45175Q36.928123 217.15488 37.646873 217.15488Q38.38125 217.15488 38.865623 216.45175Q39.365623 215.74863 39.365623 213.63925Q39.365623 211.51425 38.865623 210.82675Q38.38125 210.12363 37.63125 210.12363Q36.9125 210.12363 36.475 210.733Q35.928123 211.51425 35.928123 213.63925Z" fill-rule="nonzero"/><path fill="#000000" d="M31.225 202.596L31.225 200.5335L27.50625 200.5335L27.50625 199.56474L31.428125 194.00224L32.2875 194.00224L32.2875 199.56474L33.44375 199.56474L33.44375 200.5335L32.2875 200.5335L32.2875 202.596L31.225 202.596ZM31.225 199.56474L31.225 195.70537L28.5375 199.56474L31.225 199.56474ZM38.225 202.596L38.225 200.5335L34.50625 200.5335L34.50625 199.56474L38.428123 194.00224L39.2875 194.00224L39.2875 199.56474L40.44375 199.56474L40.44375 200.5335L39.2875 200.5335L39.2875 202.596L38.225 202.596ZM38.225 199.56474L38.225 195.70537L35.5375 199.56474L38.225 199.56474Z" fill-rule="nonzero"/><path fill="#000000" d="M31.225 187.31836L31.225 185.25586L27.50625 185.25586L27.50625 184.28711L31.428125 178.72461L32.2875 178.72461L32.2875 184.28711L33.44375 184.28711L33.44375 185.25586L32.2875 185.25586L32.2875 187.31836L31.225 187.31836ZM31.225 184.28711L31.225 180.42773L28.5375 184.28711L31.225 184.28711ZM36.475 182.66211Q35.81875 182.41211 35.490623 181.97461Q35.178123 181.52148 35.178123 180.91211Q35.178123 179.97461 35.85 179.33398Q36.5375 178.69336 37.646873 178.69336Q38.771873 178.69336 39.459373 179.34961Q40.146873 180.00586 40.146873 180.94336Q40.146873 181.53711 39.834373 181.97461Q39.521873 182.41211 38.88125 182.66211Q39.678123 182.91211 40.084373 183.49023Q40.490623 184.06836 40.490623 184.86523Q40.490623 185.95898 39.709373 186.70898Q38.94375 187.45898 37.6625 187.45898Q36.396873 187.45898 35.615623 186.70898Q34.834373 185.95898 34.834373 184.83398Q34.834373 183.99023 35.25625 183.42773Q35.69375 182.86523 36.475 182.66211ZM36.25625 180.86523Q36.25625 181.47461 36.646873 181.86523Q37.053123 182.25586 37.678123 182.25586Q38.2875 182.25586 38.678123 181.88086Q39.06875 181.49023 39.06875 180.92773Q39.06875 180.34961 38.6625 179.95898Q38.25625 179.55273 37.6625 179.55273Q37.053123 179.55273 36.646873 179.94336Q36.25625 180.33398 36.25625 180.86523ZM35.928123 184.83398Q35.928123 185.28711 36.13125 185.70898Q36.35 186.13086 36.771873 186.36523Q37.19375 186.59961 37.678123 186.59961Q38.428123 186.59961 38.9125 186.11523Q39.4125 185.63086 39.4125 184.88086Q39.4125 184.11523 38.9125 183.61523Q38.4125 183.11523 37.646873 183.11523Q36.896873 183.11523 36.4125 183.61523Q35.928123 184.09961 35.928123 184.83398Z" fill-rule="nonzero"/><path fill="#000000" d="M27.85 169.79071L28.959375 169.69696Q29.084375 170.50946 29.521875 170.91571Q29.975 171.32196 30.615625 171.32196Q31.365625 171.32196 31.896875 170.74384Q32.428123 170.16571 32.428123 169.22821Q32.428123 168.32196 31.9125 167.80634Q31.4125 167.27509 30.584375 167.27509Q30.084375 167.27509 29.6625 167.50946Q29.25625 167.74384 29.021875 168.10321L28.0375 167.97821L28.865625 163.57196L33.146873 163.57196L33.146873 164.57196L29.709375 164.57196L29.25625 166.88446Q30.021875 166.33759 30.865625 166.33759Q31.990625 166.33759 32.75625 167.11884Q33.5375 167.90009 33.5375 169.13446Q33.5375 170.29071 32.865623 171.15009Q32.0375 172.18134 30.615625 172.18134Q29.44375 172.18134 28.69375 171.52509Q27.959375 170.86884 27.85 169.79071ZM40.396873 171.02509L40.396873 172.04071L34.709373 172.04071Q34.709373 171.66571 34.834373 171.30634Q35.053123 170.72821 35.521873 170.16571Q36.00625 169.60321 36.9125 168.86884Q38.31875 167.71259 38.803123 167.04071Q39.303123 166.36884 39.303123 165.77509Q39.303123 165.15009 38.85 164.72821Q38.396873 164.29071 37.678123 164.29071Q36.9125 164.29071 36.459373 164.74384Q36.00625 165.19696 35.990623 166.00946L34.9125 165.90009Q35.021873 164.68134 35.740623 164.05634Q36.475 163.41571 37.709373 163.41571Q38.94375 163.41571 39.6625 164.10321Q40.38125 164.79071 40.38125 165.80634Q40.38125 166.32196 40.1625 166.82196Q39.959373 167.30634 39.459373 167.86884Q38.975 168.41571 37.85 169.36884Q36.896873 170.16571 36.615623 170.46259Q36.35 170.74384 36.178123 171.02509L40.396873 171.02509Z" fill-rule="nonzero"/><path fill="#000000" d="M27.85 154.51308L28.959375 154.41933Q29.084375 155.23183 29.521875 155.63808Q29.975 156.04433 30.615625 156.04433Q31.365625 156.04433 31.896875 155.4662Q32.428123 154.88808 32.428123 153.95058Q32.428123 153.04433 31.9125 152.5287Q31.4125 151.99745 30.584375 151.99745Q30.084375 151.99745 29.6625 152.23183Q29.25625 152.4662 29.021875 152.82558L28.0375 152.70058L28.865625 148.29433L33.146873 148.29433L33.146873 149.29433L29.709375 149.29433L29.25625 151.60683Q30.021875 151.05995 30.865625 151.05995Q31.990625 151.05995 32.75625 151.8412Q33.5375 152.62245 33.5375 153.85683Q33.5375 155.01308 32.865623 155.87245Q32.0375 156.9037 30.615625 156.9037Q29.44375 156.9037 28.69375 156.24745Q27.959375 155.5912 27.85 154.51308ZM40.31875 150.2787L39.271873 150.35683Q39.13125 149.73183 38.88125 149.45058Q38.44375 148.99745 37.81875 148.99745Q37.31875 148.99745 36.928123 149.2787Q36.44375 149.6537 36.146873 150.35683Q35.865623 151.04433 35.85 152.32558Q36.225 151.74745 36.771873 151.4662Q37.334373 151.18495 37.94375 151.18495Q38.990623 151.18495 39.725 151.9662Q40.475 152.74745 40.475 153.9662Q40.475 154.7787 40.115623 155.48183Q39.771873 156.16933 39.1625 156.54433Q38.553123 156.9037 37.7875 156.9037Q36.459373 156.9037 35.63125 155.93495Q34.803123 154.9662 34.803123 152.74745Q34.803123 150.24745 35.725 149.12245Q36.521873 148.13808 37.88125 148.13808Q38.896873 148.13808 39.5375 148.7162Q40.19375 149.2787 40.31875 150.2787ZM36.021873 153.98183Q36.021873 154.5287 36.240623 155.0287Q36.475 155.51308 36.88125 155.7787Q37.303123 156.04433 37.771873 156.04433Q38.428123 156.04433 38.9125 155.51308Q39.396873 154.9662 39.396873 154.04433Q39.396873 153.1537 38.9125 152.63808Q38.44375 152.12245 37.725 152.12245Q37.00625 152.12245 36.50625 152.63808Q36.021873 153.1537 36.021873 153.98183Z" fill-rule="nonzero"/><path fill="#000000" d="M33.31875 135.00107L32.271873 135.0792Q32.13125 134.4542 31.88125 134.17294Q31.44375 133.71982 30.81875 133.71982Q30.31875 133.71982 29.928125 134.00107Q29.44375 134.37607 29.146875 135.0792Q28.865625 135.7667 28.85 137.04794Q29.225 136.46982 29.771875 136.18857Q30.334375 135.90732 30.94375 135.90732Q31.990625 135.90732 32.725 136.68857Q33.475 137.46982 33.475 138.68857Q33.475 139.50107 33.115623 140.2042Q32.771873 140.8917 32.1625 141.2667Q31.553125 141.62607 30.7875 141.62607Q29.459375 141.62607 28.63125 140.65732Q27.803125 139.68857 27.803125 137.46982Q27.803125 134.96982 28.725 133.84482Q29.521875 132.86044 30.88125 132.86044Q31.896875 132.86044 32.5375 133.43857Q33.19375 134.00107 33.31875 135.00107ZM29.021875 138.7042Q29.021875 139.25107 29.240625 139.75107Q29.475 140.23544 29.88125 140.50107Q30.303125 140.7667 30.771875 140.7667Q31.428125 140.7667 31.9125 140.23544Q32.396873 139.68857 32.396873 138.7667Q32.396873 137.87607 31.9125 137.36044Q31.44375 136.84482 30.725 136.84482Q30.00625 136.84482 29.50625 137.36044Q29.021875 137.87607 29.021875 138.7042ZM34.85 137.25107Q34.85 135.71982 35.1625 134.79794Q35.475 133.86044 36.084373 133.36044Q36.709373 132.86044 37.646873 132.86044Q38.334373 132.86044 38.85 133.1417Q39.38125 133.42294 39.725 133.9542Q40.06875 134.46982 40.25625 135.21982Q40.44375 135.96982 40.44375 137.25107Q40.44375 138.7667 40.13125 139.68857Q39.834373 140.61044 39.209373 141.12607Q38.6 141.62607 37.646873 141.62607Q36.4125 141.62607 35.69375 140.73544Q34.85 139.67294 34.85 137.25107ZM35.928123 137.25107Q35.928123 139.36044 36.428123 140.06357Q36.928123 140.7667 37.646873 140.7667Q38.38125 140.7667 38.865623 140.06357Q39.365623 139.36044 39.365623 137.25107Q39.365623 135.12607 38.865623 134.43857Q38.38125 133.73544 37.63125 133.73544Q36.9125 133.73544 36.475 134.34482Q35.928123 135.12607 35.928123 137.25107Z" fill-rule="nonzero"/><path fill="#000000" d="M33.31875 119.723434L32.271873 119.80156Q32.13125 119.17656 31.88125 118.89531Q31.44375 118.442184 30.81875 118.442184Q30.31875 118.442184 29.928125 118.723434Q29.44375 119.098434 29.146875 119.80156Q28.865625 120.48906 28.85 121.77031Q29.225 121.192184 29.771875 120.910934Q30.334375 120.629684 30.94375 120.629684Q31.990625 120.629684 32.725 121.410934Q33.475 122.192184 33.475 123.410934Q33.475 124.223434 33.115623 124.92656Q32.771873 125.61406 32.1625 125.98906Q31.553125 126.348434 30.7875 126.348434Q29.459375 126.348434 28.63125 125.379684Q27.803125 124.410934 27.803125 122.192184Q27.803125 119.692184 28.725 118.567184Q29.521875 117.58281 30.88125 117.58281Q31.896875 117.58281 32.5375 118.160934Q33.19375 118.723434 33.31875 119.723434ZM29.021875 123.42656Q29.021875 123.973434 29.240625 124.473434Q29.475 124.95781 29.88125 125.223434Q30.303125 125.48906 30.771875 125.48906Q31.428125 125.48906 31.9125 124.95781Q32.396873 124.410934 32.396873 123.48906Q32.396873 122.598434 31.9125 122.08281Q31.44375 121.567184 30.725 121.567184Q30.00625 121.567184 29.50625 122.08281Q29.021875 122.598434 29.021875 123.42656ZM38.225 126.20781L38.225 124.14531L34.50625 124.14531L34.50625 123.17656L38.428123 117.61406L39.2875 117.61406L39.2875 123.17656L40.44375 123.17656L40.44375 124.14531L39.2875 124.14531L39.2875 126.20781L38.225 126.20781ZM38.225 123.17656L38.225 119.317184L35.5375 123.17656L38.225 123.17656Z" fill-rule="nonzero"/><path fill="#000000" d="M33.31875 104.44579L32.271873 104.52392Q32.13125 103.89892 31.88125 103.61767Q31.44375 103.16454 30.81875 103.16454Q30.31875 103.16454 29.928125 103.44579Q29.44375 103.82079 29.146875 104.52392Q28.865625 105.21142 28.85 106.49267Q29.225 105.91454 29.771875 105.63329Q30.334375 105.35204 30.94375 105.35204Q31.990625 105.35204 32.725 106.13329Q33.475 106.91454 33.475 108.13329Q33.475 108.94579 33.115623 109.64892Q32.771873 110.33642 32.1625 110.71142Q31.553125 111.07079 30.7875 111.07079Q29.459375 111.07079 28.63125 110.10204Q27.803125 109.13329 27.803125 106.91454Q27.803125 104.41454 28.725 103.28954Q29.521875 102.30517 30.88125 102.30517Q31.896875 102.30517 32.5375 102.88329Q33.19375 103.44579 33.31875 104.44579ZM29.021875 108.14892Q29.021875 108.69579 29.240625 109.19579Q29.475 109.68017 29.88125 109.94579Q30.303125 110.21142 30.771875 110.21142Q31.428125 110.21142 31.9125 109.68017Q32.396873 109.13329 32.396873 108.21142Q32.396873 107.32079 31.9125 106.80517Q31.44375 106.28954 30.725 106.28954Q30.00625 106.28954 29.50625 106.80517Q29.021875 107.32079 29.021875 108.14892ZM36.475 106.27392Q35.81875 106.02392 35.490623 105.58642Q35.178123 105.13329 35.178123 104.52392Q35.178123 103.58642 35.85 102.94579Q36.5375 102.30517 37.646873 102.30517Q38.771873 102.30517 39.459373 102.96142Q40.146873 103.61767 40.146873 104.55517Q40.146873 105.14892 39.834373 105.58642Q39.521873 106.02392 38.88125 106.27392Q39.678123 106.52392 40.084373 107.10204Q40.490623 107.68017 40.490623 108.47704Q40.490623 109.57079 39.709373 110.32079Q38.94375 111.07079 37.6625 111.07079Q36.396873 111.07079 35.615623 110.32079Q34.834373 109.57079 34.834373 108.44579Q34.834373 107.60204 35.25625 107.03954Q35.69375 106.47704 36.475 106.27392ZM36.25625 104.47704Q36.25625 105.08642 36.646873 105.47704Q37.053123 105.86767 37.678123 105.86767Q38.2875 105.86767 38.678123 105.49267Q39.06875 105.10204 39.06875 104.53954Q39.06875 103.96142 38.6625 103.57079Q38.25625 103.16454 37.6625 103.16454Q37.053123 103.16454 36.646873 103.55517Q36.25625 103.94579 36.25625 104.47704ZM35.928123 108.44579Q35.928123 108.89892 36.13125 109.32079Q36.35 109.74267 36.771873 109.97704Q37.19375 110.21142 37.678123 110.21142Q38.428123 110.21142 38.9125 109.72704Q39.4125 109.24267 39.4125 108.49267Q39.4125 107.72704 38.9125 107.22704Q38.4125 106.72704 37.646873 106.72704Q36.896873 106.72704 36.4125 107.22704Q35.928123 107.71142 35.928123 108.44579Z" fill-rule="nonzero"/><path fill="#000000" d="M27.9125 88.183784L27.9125 87.16816L33.475 87.16816L33.475 87.996284Q32.6625 88.871284 31.85 90.32441Q31.053125 91.76191 30.615625 93.29316Q30.2875 94.371284 30.209375 95.652534L29.115625 95.652534Q29.13125 94.63691 29.50625 93.19941Q29.896875 91.76191 30.6 90.433784Q31.31875 89.10566 32.13125 88.183784L27.9125 88.183784ZM40.396873 94.63691L40.396873 95.652534L34.709373 95.652534Q34.709373 95.277534 34.834373 94.91816Q35.053123 94.340034 35.521873 93.777534Q36.00625 93.215034 36.9125 92.48066Q38.31875 91.32441 38.803123 90.652534Q39.303123 89.98066 39.303123 89.38691Q39.303123 88.76191 38.85 88.340034Q38.396873 87.902534 37.678123 87.902534Q36.9125 87.902534 36.459373 88.35566Q36.00625 88.808784 35.990623 89.621284L34.9125 89.51191Q35.021873 88.29316 35.740623 87.66816Q36.475 87.027534 37.709373 87.027534Q38.94375 87.027534 39.6625 87.715034Q40.38125 88.402534 40.38125 89.41816Q40.38125 89.933784 40.1625 90.433784Q39.959373 90.91816 39.459373 91.48066Q38.975 92.027534 37.85 92.98066Q36.896873 93.777534 36.615623 94.07441Q36.35 94.35566 36.178123 94.63691L40.396873 94.63691Z" fill-rule="nonzero"/><path fill="#000000" d="M27.9125 72.90614L27.9125 71.89052L33.475 71.89052L33.475 72.71864Q32.6625 73.59364 31.85 75.04677Q31.053125 76.48427 30.615625 78.01552Q30.2875 79.09364 30.209375 80.37489L29.115625 80.37489Q29.13125 79.35927 29.50625 77.92177Q29.896875 76.48427 30.6 75.15614Q31.31875 73.82802 32.13125 72.90614L27.9125 72.90614ZM40.31875 73.89052L39.271873 73.96864Q39.13125 73.34364 38.88125 73.06239Q38.44375 72.60927 37.81875 72.60927Q37.31875 72.60927 36.928123 72.89052Q36.44375 73.26552 36.146873 73.96864Q35.865623 74.65614 35.85 75.93739Q36.225 75.35927 36.771873 75.07802Q37.334373 74.79677 37.94375 74.79677Q38.990623 74.79677 39.725 75.57802Q40.475 76.35927 40.475 77.57802Q40.475 78.39052 40.115623 79.09364Q39.771873 79.78114 39.1625 80.15614Q38.553123 80.51552 37.7875 80.51552Q36.459373 80.51552 35.63125 79.54677Q34.803123 78.57802 34.803123 76.35927Q34.803123 73.85927 35.725 72.73427Q36.521873 71.74989 37.88125 71.74989Q38.896873 71.74989 39.5375 72.32802Q40.19375 72.89052 40.31875 73.89052ZM36.021873 77.59364Q36.021873 78.14052 36.240623 78.64052Q36.475 79.12489 36.88125 79.39052Q37.303123 79.65614 37.771873 79.65614Q38.428123 79.65614 38.9125 79.12489Q39.396873 78.57802 39.396873 77.65614Q39.396873 76.76552 38.9125 76.24989Q38.44375 75.73427 37.725 75.73427Q37.00625 75.73427 36.50625 76.24989Q36.021873 76.76552 36.021873 77.59364Z" fill-rule="nonzero"/><path fill="#000000" d="M100.075935 383.65L100.075935 375.05624L101.21656 375.05624L101.21656 382.63437L105.450935 382.63437L105.450935 383.65L100.075935 383.65ZM106.99781 376.275L106.99781 375.05624L108.06031 375.05624L108.06031 376.275L106.99781 376.275ZM106.99781 383.65L106.99781 377.43124L108.06031 377.43124L108.06031 383.65L106.99781 383.65ZM109.794685 384.16562L110.825935 384.32187Q110.888435 384.79062 111.18531 385.00937Q111.575935 385.30624 112.24781 385.30624Q112.982185 385.30624 113.37281 385.00937Q113.77906 384.7125 113.919685 384.19687Q114.013435 383.86874 113.99781 382.8375Q113.31031 383.65 112.27906 383.65Q110.99781 383.65 110.294685 382.72812Q109.59156 381.79062 109.59156 380.50937Q109.59156 379.61874 109.90406 378.86874Q110.232185 378.10312 110.84156 377.69687Q111.450935 377.29062 112.27906 377.29062Q113.388435 377.29062 114.107185 378.18124L114.107185 377.43124L115.075935 377.43124L115.075935 382.80624Q115.075935 384.25937 114.77906 384.86874Q114.482185 385.47812 113.84156 385.82187Q113.200935 386.18124 112.263435 386.18124Q111.15406 386.18124 110.46656 385.68124Q109.77906 385.18124 109.794685 384.16562ZM110.669685 380.43124Q110.669685 381.65 111.15406 382.2125Q111.638435 382.775 112.37281 382.775Q113.107185 382.775 113.59156 382.2125Q114.09156 381.65 114.09156 380.4625Q114.09156 379.32187 113.575935 378.74374Q113.075935 378.16562 112.357185 378.16562Q111.65406 378.16562 111.15406 378.74374Q110.669685 379.30624 110.669685 380.43124ZM116.99781 383.65L116.99781 375.05624L118.044685 375.05624L118.044685 378.13437Q118.77906 377.29062 119.90406 377.29062Q120.607185 377.29062 121.107185 377.57187Q121.62281 377.8375 121.84156 378.32187Q122.06031 378.79062 122.06031 379.7125L122.06031 383.65L121.013435 383.65L121.013435 379.7125Q121.013435 378.91562 120.669685 378.55624Q120.325935 378.19687 119.700935 378.19687Q119.232185 378.19687 118.81031 378.44687Q118.40406 378.68124 118.21656 379.10312Q118.044685 379.50937 118.044685 380.24374L118.044685 383.65L116.99781 383.65ZM126.294685 382.7125L126.450935 383.63437Q125.99781 383.72812 125.65406 383.72812Q125.075935 383.72812 124.763435 383.55624Q124.450935 383.36874 124.31031 383.07187Q124.18531 382.775 124.18531 381.82187L124.18531 378.24374L123.419685 378.24374L123.419685 377.43124L124.18531 377.43124L124.18531 375.88437L125.232185 375.25937L125.232185 377.43124L126.294685 377.43124L126.294685 378.24374L125.232185 378.24374L125.232185 381.88437Q125.232185 382.3375 125.27906 382.4625Q125.34156 382.5875 125.46656 382.66562Q125.59156 382.74374 125.825935 382.74374Q126.013435 382.74374 126.294685 382.7125ZM132.01343 386.18124Q131.13843 385.07187 130.52905 383.60312Q129.9353 382.11874 129.9353 380.54062Q129.9353 379.15 130.3728 377.86874Q130.90405 376.38437 132.01343 374.91562L132.76343 374.91562Q132.0603 376.13437 131.82593 376.65Q131.46655 377.4625 131.26343 378.3375Q131.01343 379.43124 131.01343 380.54062Q131.01343 383.36874 132.76343 386.18124L132.01343 386.18124ZM137.66968 383.65L136.6228 383.65L136.6228 376.93124Q136.23218 377.29062 135.60718 377.66562Q134.9978 378.025 134.51343 378.19687L134.51343 377.18124Q135.38843 376.75937 136.04468 376.18124Q136.71655 375.5875 136.9978 375.025L137.66968 375.025L137.66968 383.65ZM141.6853 386.18124L140.9353 386.18124Q142.6853 383.36874 142.6853 380.54062Q142.6853 379.44687 142.4353 378.35312Q142.23218 377.47812 141.8728 376.66562Q141.63843 376.15 140.9353 374.91562L141.6853 374.91562Q142.77905 376.38437 143.3103 377.86874Q143.76343 379.15 143.76343 380.54062Q143.76343 382.11874 143.15405 383.60312Q142.54468 385.07187 141.6853 386.18124Z" fill-rule="nonzero"/><path fill="#000000" d="M188.74109 383.65L188.74109 375.05624L190.45984 375.05624L192.49109 381.13437Q192.77234 381.99374 192.89734 382.41562Q193.03796 381.94687 193.35046 381.04062L195.41296 375.05624L196.94421 375.05624L196.94421 383.65L195.85046 383.65L195.85046 376.4625L193.35046 383.65L192.31921 383.65L189.83484 376.3375L189.83484 383.65L188.74109 383.65ZM201.89734 381.65L202.99109 381.775Q202.74109 382.72812 202.03796 383.25937Q201.33484 383.79062 200.25671 383.79062Q198.89734 383.79062 198.08484 382.94687Q197.28796 382.10312 197.28796 380.5875Q197.28796 379.025 198.10046 378.16562Q198.91296 377.29062 200.19421 377.29062Q201.44421 377.29062 202.22546 378.13437Q203.02234 378.97812 203.02234 380.525Q203.02234 380.61874 203.02234 380.80624L198.38171 380.80624Q198.44421 381.8375 198.95984 382.38437Q199.47546 382.91562 200.25671 382.91562Q200.83484 382.91562 201.24109 382.61874Q201.66296 382.30624 201.89734 381.65ZM198.44421 379.94687L201.91296 379.94687Q201.85046 379.15 201.52234 378.75937Q201.00671 378.15 200.20984 378.15Q199.47546 378.15 198.97546 378.63437Q198.49109 379.11874 198.44421 379.94687ZM208.67859 383.65L208.67859 382.86874Q208.08484 383.79062 206.94421 383.79062Q206.19421 383.79062 205.56921 383.38437Q204.94421 382.9625 204.60046 382.22812Q204.25671 381.49374 204.25671 380.54062Q204.25671 379.61874 204.56921 378.85312Q204.88171 378.0875 205.50671 377.69687Q206.13171 377.29062 206.89734 377.29062Q207.45984 377.29062 207.89734 377.525Q208.33484 377.75937 208.61609 378.13437L208.61609 375.05624L209.66296 375.05624L209.66296 383.65L208.67859 383.65ZM205.35046 380.54062Q205.35046 381.74374 205.85046 382.3375Q206.35046 382.91562 207.03796 382.91562Q207.72546 382.91562 208.20984 382.35312Q208.69421 381.79062 208.69421 380.63437Q208.69421 379.35312 208.19421 378.75937Q207.70984 378.16562 206.99109 378.16562Q206.28796 378.16562 205.81921 378.74374Q205.35046 379.30624 205.35046 380.54062ZM211.64734 376.275L211.64734 375.05624L212.70984 375.05624L212.70984 376.275L211.64734 376.275ZM211.64734 383.65L211.64734 377.43124L212.70984 377.43124L212.70984 383.65L211.64734 383.65ZM218.72546 383.65L218.72546 382.72812Q217.99109 383.79062 216.74109 383.79062Q216.19421 383.79062 215.70984 383.5875Q215.24109 383.36874 215.00671 383.05624Q214.77234 382.72812 214.67859 382.25937Q214.61609 381.9625 214.61609 381.275L214.61609 377.43124L215.67859 377.43124L215.67859 380.88437Q215.67859 381.69687 215.74109 381.99374Q215.83484 382.4 216.14734 382.65Q216.47546 382.88437 216.95984 382.88437Q217.42859 382.88437 217.83484 382.65Q218.25671 382.4 218.42859 381.97812Q218.61609 381.55624 218.61609 380.75937L218.61609 377.43124L219.66296 377.43124L219.66296 383.65L218.72546 383.65ZM221.64734 383.65L221.64734 377.43124L222.58484 377.43124L222.58484 378.30624Q222.88171 377.8375 223.36609 377.57187Q223.85046 377.29062 224.47546 377.29062Q225.16296 377.29062 225.60046 377.57187Q226.05359 377.85312 226.22546 378.36874Q226.97546 377.29062 228.14734 377.29062Q229.08484 377.29062 229.56921 377.80624Q230.06921 378.30624 230.06921 379.38437L230.06921 383.65L229.02234 383.65L229.02234 379.72812Q229.02234 379.10312 228.91296 378.82187Q228.81921 378.54062 228.55359 378.36874Q228.28796 378.19687 227.91296 378.19687Q227.25671 378.19687 226.81921 378.63437Q226.39734 379.07187 226.39734 380.04062L226.39734 383.65L225.33484 383.65L225.33484 379.60312Q225.33484 378.9 225.06921 378.55624Q224.81921 378.19687 224.24109 378.19687Q223.78796 378.19687 223.41296 378.43124Q223.03796 378.66562 222.86609 379.11874Q222.69421 379.57187 222.69421 380.41562L222.69421 383.65L221.64734 383.65ZM235.61609 383.65L235.61609 375.05624L236.67859 375.05624L236.67859 383.65L235.61609 383.65ZM238.64734 376.275L238.64734 375.05624L239.70984 375.05624L239.70984 376.275L238.64734 376.275ZM238.64734 383.65L238.64734 377.43124L239.70984 377.43124L239.70984 383.65L238.64734 383.65ZM241.44421 384.16562L242.47546 384.32187Q242.53796 384.79062 242.83484 385.00937Q243.22546 385.30624 243.89734 385.30624Q244.63171 385.30624 245.02234 385.00937Q245.42859 384.7125 245.56921 384.19687Q245.66296 383.86874 245.64734 382.8375Q244.95984 383.65 243.92859 383.65Q242.64734 383.65 241.94421 382.72812Q241.24109 381.79062 241.24109 380.50937Q241.24109 379.61874 241.55359 378.86874Q241.88171 378.10312 242.49109 377.69687Q243.10046 377.29062 243.92859 377.29062Q245.03796 377.29062 245.75671 378.18124L245.75671 377.43124L246.72546 377.43124L246.72546 382.80624Q246.72546 384.25937 246.42859 384.86874Q246.13171 385.47812 245.49109 385.82187Q244.85046 386.18124 243.91296 386.18124Q242.80359 386.18124 242.11609 385.68124Q241.42859 385.18124 241.44421 384.16562ZM242.31921 380.43124Q242.31921 381.65 242.80359 382.2125Q243.28796 382.775 244.02234 382.775Q244.75671 382.775 245.24109 382.2125Q245.74109 381.65 245.74109 380.4625Q245.74109 379.32187 245.22546 378.74374Q244.72546 378.16562 244.00671 378.16562Q243.30359 378.16562 242.80359 378.74374Q242.31921 379.30624 242.31921 380.43124ZM248.64734 383.65L248.64734 375.05624L249.69421 375.05624L249.69421 378.13437Q250.42859 377.29062 251.55359 377.29062Q252.25671 377.29062 252.75671 377.57187Q253.27234 377.8375 253.49109 378.32187Q253.70984 378.79062 253.70984 379.7125L253.70984 383.65L252.66296 383.65L252.66296 379.7125Q252.66296 378.91562 252.31921 378.55624Q251.97546 378.19687 251.35046 378.19687Q250.88171 378.19687 250.45984 378.44687Q250.05359 378.68124 249.86609 379.10312Q249.69421 379.50937 249.69421 380.24374L249.69421 383.65L248.64734 383.65ZM257.9442 382.7125L258.10046 383.63437Q257.64734 383.72812 257.3036 383.72812Q256.72546 383.72812 256.41296 383.55624Q256.10046 383.36874 255.95984 383.07187Q255.83484 382.775 255.83484 381.82187L255.83484 378.24374L255.06921 378.24374L255.06921 377.43124L255.83484 377.43124L255.83484 375.88437L256.8817 375.25937L256.8817 377.43124L257.9442 377.43124L257.9442 378.24374L256.8817 378.24374L256.8817 381.88437Q256.8817 382.3375 256.9286 382.4625Q256.9911 382.5875 257.1161 382.66562Q257.2411 382.74374 257.47546 382.74374Q257.66296 382.74374 257.9442 382.7125ZM263.66296 386.18124Q262.78796 385.07187 262.1786 383.60312Q261.58484 382.11874 261.58484 380.54062Q261.58484 379.15 262.02234 377.86874Q262.5536 376.38437 263.66296 374.91562L264.41296 374.91562Q263.70984 376.13437 263.47546 376.65Q263.1161 377.4625 262.91296 378.3375Q262.66296 379.43124 262.66296 380.54062Q262.66296 383.36874 264.41296 386.18124L263.66296 386.18124ZM270.89734 382.63437L270.89734 383.65L265.20984 383.65Q265.20984 383.275 265.33484 382.91562Q265.5536 382.3375 266.02234 381.775Q266.5067 381.2125 267.41296 380.47812Q268.8192 379.32187 269.3036 378.65Q269.8036 377.97812 269.8036 377.38437Q269.8036 376.75937 269.35046 376.3375Q268.89734 375.9 268.1786 375.9Q267.41296 375.9 266.95984 376.35312Q266.5067 376.80624 266.4911 377.61874L265.41296 377.50937Q265.52234 376.29062 266.2411 375.66562Q266.97546 375.025 268.20984 375.025Q269.4442 375.025 270.16296 375.7125Q270.8817 376.4 270.8817 377.41562Q270.8817 377.93124 270.66296 378.43124Q270.45984 378.91562 269.95984 379.47812Q269.47546 380.025 268.35046 380.97812Q267.39734 381.775 267.1161 382.07187Q266.85046 382.35312 266.6786 382.63437L270.89734 382.63437ZM273.33484 386.18124L272.58484 386.18124Q274.33484 383.36874 274.33484 380.54062Q274.33484 379.44687 274.08484 378.35312Q273.8817 377.47812 273.52234 376.66562Q273.28796 376.15 272.58484 374.91562L273.33484 374.91562Q274.4286 376.38437 274.95984 377.86874Q275.41296 379.15 275.41296 380.54062Q275.41296 382.11874 274.8036 383.60312Q274.1942 385.07187 273.33484 386.18124Z" fill-rule="nonzero"/><path fill="#000000" d="M311.89062 383.65L311.89062 375.05624L313.60938 375.05624L315.64062 381.13437Q315.92188 381.99374 316.04688 382.41562Q316.1875 381.94687 316.5 381.04062L318.5625 375.05624L320.09375 375.05624L320.09375 383.65L319.0 383.65L319.0 376.4625L316.5 383.65L315.46875 383.65L312.98438 376.3375L312.98438 383.65L311.89062 383.65ZM325.04688 381.65L326.14062 381.775Q325.89062 382.72812 325.1875 383.25937Q324.48438 383.79062 323.40625 383.79062Q322.04688 383.79062 321.23438 382.94687Q320.4375 382.10312 320.4375 380.5875Q320.4375 379.025 321.25 378.16562Q322.0625 377.29062 323.34375 377.29062Q324.59375 377.29062 325.375 378.13437Q326.17188 378.97812 326.17188 380.525Q326.17188 380.61874 326.17188 380.80624L321.53125 380.80624Q321.59375 381.8375 322.10938 382.38437Q322.625 382.91562 323.40625 382.91562Q323.98438 382.91562 324.39062 382.61874Q324.8125 382.30624 325.04688 381.65ZM321.59375 379.94687L325.0625 379.94687Q325.0 379.15 324.67188 378.75937Q324.15625 378.15 323.35938 378.15Q322.625 378.15 322.125 378.63437Q321.64062 379.11874 321.59375 379.94687ZM331.82812 383.65L331.82812 382.86874Q331.23438 383.79062 330.09375 383.79062Q329.34375 383.79062 328.71875 383.38437Q328.09375 382.9625 327.75 382.22812Q327.40625 381.49374 327.40625 380.54062Q327.40625 379.61874 327.71875 378.85312Q328.03125 378.0875 328.65625 377.69687Q329.28125 377.29062 330.04688 377.29062Q330.60938 377.29062 331.04688 377.525Q331.48438 377.75937 331.76562 378.13437L331.76562 375.05624L332.8125 375.05624L332.8125 383.65L331.82812 383.65ZM328.5 380.54062Q328.5 381.74374 329.0 382.3375Q329.5 382.91562 330.1875 382.91562Q330.875 382.91562 331.35938 382.35312Q331.84375 381.79062 331.84375 380.63437Q331.84375 379.35312 331.34375 378.75937Q330.85938 378.16562 330.14062 378.16562Q329.4375 378.16562 328.96875 378.74374Q328.5 379.30624 328.5 380.54062ZM334.79688 376.275L334.79688 375.05624L335.85938 375.05624L335.85938 376.275L334.79688 376.275ZM334.79688 383.65L334.79688 377.43124L335.85938 377.43124L335.85938 383.65L334.79688 383.65ZM341.875 383.65L341.875 382.72812Q341.14062 383.79062 339.89062 383.79062Q339.34375 383.79062 338.85938 383.5875Q338.39062 383.36874 338.15625 383.05624Q337.92188 382.72812 337.82812 382.25937Q337.76562 381.9625 337.76562 381.275L337.76562 377.43124L338.82812 377.43124L338.82812 380.88437Q338.82812 381.69687 338.89062 381.99374Q338.98438 382.4 339.29688 382.65Q339.625 382.88437 340.10938 382.88437Q340.57812 382.88437 340.98438 382.65Q341.40625 382.4 341.57812 381.97812Q341.76562 381.55624 341.76562 380.75937L341.76562 377.43124L342.8125 377.43124L342.8125 383.65L341.875 383.65ZM344.79688 383.65L344.79688 377.43124L345.73438 377.43124L345.73438 378.30624Q346.03125 377.8375 346.51562 377.57187Q347.0 377.29062 347.625 377.29062Q348.3125 377.29062 348.75 377.57187Q349.20312 377.85312 349.375 378.36874Q350.125 377.29062 351.29688 377.29062Q352.23438 377.29062 352.71875 377.80624Q353.21875 378.30624 353.21875 379.38437L353.21875 383.65L352.17188 383.65L352.17188 379.72812Q352.17188 379.10312 352.0625 378.82187Q351.96875 378.54062 351.70312 378.36874Q351.4375 378.19687 351.0625 378.19687Q350.40625 378.19687 349.96875 378.63437Q349.54688 379.07187 349.54688 380.04062L349.54688 383.65L348.48438 383.65L348.48438 379.60312Q348.48438 378.9 348.21875 378.55624Q347.96875 378.19687 347.39062 378.19687Q346.9375 378.19687 346.5625 378.43124Q346.1875 378.66562 346.01562 379.11874Q345.84375 379.57187 345.84375 380.41562L345.84375 383.65L344.79688 383.65ZM360.8125 386.18124Q359.9375 385.07187 359.32812 383.60312Q358.73438 382.11874 358.73438 380.54062Q358.73438 379.15 359.17188 377.86874Q359.70312 376.38437 360.8125 374.91562L361.5625 374.91562Q360.85938 376.13437 360.625 376.65Q360.26562 377.4625 360.0625 378.3375Q359.8125 379.43124 359.8125 380.54062Q359.8125 383.36874 361.5625 386.18124L360.8125 386.18124ZM362.5 381.38437L363.5625 381.24374Q363.73438 382.13437 364.17188 382.54062Q364.60938 382.93124 365.23438 382.93124Q365.98438 382.93124 366.5 382.41562Q367.01562 381.9 367.01562 381.13437Q367.01562 380.41562 366.53125 379.94687Q366.0625 379.4625 365.32812 379.4625Q365.03125 379.4625 364.57812 379.5875L364.70312 378.65Q364.8125 378.66562 364.875 378.66562Q365.54688 378.66562 366.07812 378.32187Q366.625 377.9625 366.625 377.22812Q366.625 376.65 366.23438 376.275Q365.84375 375.88437 365.21875 375.88437Q364.60938 375.88437 364.1875 376.275Q363.78125 376.66562 363.67188 377.43124L362.60938 377.24374Q362.79688 376.19687 363.48438 375.61874Q364.17188 375.025 365.1875 375.025Q365.89062 375.025 366.48438 375.3375Q367.07812 375.63437 367.39062 376.15Q367.70312 376.66562 367.70312 377.25937Q367.70312 377.80624 367.40625 378.275Q367.10938 378.72812 366.53125 378.99374Q367.28125 379.16562 367.70312 379.72812Q368.125 380.275 368.125 381.11874Q368.125 382.24374 367.29688 383.025Q366.48438 383.80624 365.23438 383.80624Q364.10938 383.80624 363.35938 383.13437Q362.60938 382.44687 362.5 381.38437ZM370.48438 386.18124L369.73438 386.18124Q371.48438 383.36874 371.48438 380.54062Q371.48438 379.44687 371.23438 378.35312Q371.03125 377.47812 370.67188 376.66562Q370.4375 376.15 369.73438 374.91562L370.48438 374.91562Q371.57812 376.38437 372.10938 377.86874Q372.5625 379.15 372.5625 380.54062Q372.5625 382.11874 371.95312 383.60312Q371.34375 385.07187 370.48438 386.18124Z" fill-rule="nonzero"/><path fill="#000000" d="M405.04016 383.65L405.04016 375.05624L406.7589 375.05624L408.79016 381.13437Q409.0714 381.99374 409.1964 382.41562Q409.33704 381.94687 409.64954 381.04062L411.71204 375.05624L413.2433 375.05624L413.2433 383.65L412.14954 383.65L412.14954 376.4625L409.64954 383.65L408.6183 383.65L406.1339 376.3375L406.1339 383.65L405.04016 383.65ZM418.1964 381.65L419.29016 381.775Q419.04016 382.72812 418.33704 383.25937Q417.6339 383.79062 416.5558 383.79062Q415.1964 383.79062 414.3839 382.94687Q413.58704 382.10312 413.58704 380.5875Q413.58704 379.025 414.39954 378.16562Q415.21204 377.29062 416.4933 377.29062Q417.7433 377.29062 418.52454 378.13437Q419.3214 378.97812 419.3214 380.525Q419.3214 380.61874 419.3214 380.80624L414.6808 380.80624Q414.7433 381.8375 415.2589 382.38437Q415.77454 382.91562 416.5558 382.91562Q417.1339 382.91562 417.54016 382.61874Q417.96204 382.30624 418.1964 381.65ZM414.7433 379.94687L418.21204 379.94687Q418.14954 379.15 417.8214 378.75937Q417.3058 378.15 416.5089 378.15Q415.77454 378.15 415.27454 378.63437Q414.79016 379.11874 414.7433 379.94687ZM424.97766 383.65L424.97766 382.86874Q424.3839 383.79062 423.2433 383.79062Q422.4933 383.79062 421.8683 383.38437Q421.2433 382.9625 420.89954 382.22812Q420.5558 381.49374 420.5558 380.54062Q420.5558 379.61874 420.8683 378.85312Q421.1808 378.0875 421.8058 377.69687Q422.4308 377.29062 423.1964 377.29062Q423.7589 377.29062 424.1964 377.525Q424.6339 377.75937 424.91516 378.13437L424.91516 375.05624L425.96204 375.05624L425.96204 383.65L424.97766 383.65ZM421.64954 380.54062Q421.64954 381.74374 422.14954 382.3375Q422.64954 382.91562 423.33704 382.91562Q424.02454 382.91562 424.5089 382.35312Q424.9933 381.79062 424.9933 380.63437Q424.9933 379.35312 424.4933 378.75937Q424.0089 378.16562 423.29016 378.16562Q422.58704 378.16562 422.1183 378.74374Q421.64954 379.30624 421.64954 380.54062ZM427.9464 376.275L427.9464 375.05624L429.0089 375.05624L429.0089 376.275L427.9464 376.275ZM427.9464 383.65L427.9464 377.43124L429.0089 377.43124L429.0089 383.65L427.9464 383.65ZM435.02454 383.65L435.02454 382.72812Q434.29016 383.79062 433.04016 383.79062Q432.4933 383.79062 432.0089 383.5875Q431.54016 383.36874 431.3058 383.05624Q431.0714 382.72812 430.97766 382.25937Q430.91516 381.9625 430.91516 381.275L430.91516 377.43124L431.97766 377.43124L431.97766 380.88437Q431.97766 381.69687 432.04016 381.99374Q432.1339 382.4 432.4464 382.65Q432.77454 382.88437 433.2589 382.88437Q433.72766 382.88437 434.1339 382.65Q434.5558 382.4 434.72766 381.97812Q434.91516 381.55624 434.91516 380.75937L434.91516 377.43124L435.96204 377.43124L435.96204 383.65L435.02454 383.65ZM437.9464 383.65L437.9464 377.43124L438.8839 377.43124L438.8839 378.30624Q439.1808 377.8375 439.66516 377.57187Q440.14954 377.29062 440.77454 377.29062Q441.46204 377.29062 441.89954 377.57187Q442.35266 377.85312 442.52454 378.36874Q443.27454 377.29062 444.4464 377.29062Q445.3839 377.29062 445.8683 377.80624Q446.3683 378.30624 446.3683 379.38437L446.3683 383.65L445.3214 383.65L445.3214 379.72812Q445.3214 379.10312 445.21204 378.82187Q445.1183 378.54062 444.85266 378.36874Q444.58704 378.19687 444.21204 378.19687Q443.5558 378.19687 443.1183 378.63437Q442.6964 379.07187 442.6964 380.04062L442.6964 383.65L441.6339 383.65L441.6339 379.60312Q441.6339 378.9 441.3683 378.55624Q441.1183 378.19687 440.54016 378.19687Q440.08704 378.19687 439.71204 378.43124Q439.33704 378.66562 439.16516 379.11874Q438.9933 379.57187 438.9933 380.41562L438.9933 383.65L437.9464 383.65ZM451.9464 383.65L451.9464 375.05624L452.9933 375.05624L452.9933 378.13437Q453.72766 377.29062 454.85266 377.29062Q455.5558 377.29062 456.0558 377.57187Q456.5714 377.8375 456.79016 378.32187Q457.0089 378.79062 457.0089 379.7125L457.0089 383.65L455.96204 383.65L455.96204 379.7125Q455.96204 378.91562 455.6183 378.55624Q455.27454 378.19687 454.64954 378.19687Q454.1808 378.19687 453.7589 378.44687Q453.35266 378.68124 453.16516 379.10312Q452.9933 379.50937 452.9933 380.24374L452.9933 383.65L451.9464 383.65ZM463.1964 381.65L464.29016 381.775Q464.04016 382.72812 463.33704 383.25937Q462.6339 383.79062 461.5558 383.79062Q460.1964 383.79062 459.3839 382.94687Q458.58704 382.10312 458.58704 380.5875Q458.58704 379.025 459.39954 378.16562Q460.21204 377.29062 461.4933 377.29062Q462.7433 377.29062 463.52454 378.13437Q464.3214 378.97812 464.3214 380.525Q464.3214 380.61874 464.3214 380.80624L459.6808 380.80624Q459.7433 381.8375 460.2589 382.38437Q460.77454 382.91562 461.5558 382.91562Q462.1339 382.91562 462.54016 382.61874Q462.96204 382.30624 463.1964 381.65ZM459.7433 379.94687L463.21204 379.94687Q463.14954 379.15 462.8214 378.75937Q462.3058 378.15 461.5089 378.15Q460.77454 378.15 460.27454 378.63437Q459.79016 379.11874 459.7433 379.94687ZM470.0089 382.88437Q469.41516 383.38437 468.8683 383.5875Q468.33704 383.79062 467.71204 383.79062Q466.6808 383.79062 466.1339 383.29062Q465.58704 382.79062 465.58704 382.00937Q465.58704 381.55624 465.79016 381.18124Q465.9933 380.79062 466.33704 380.57187Q466.6808 380.3375 467.10266 380.22812Q467.39954 380.13437 468.04016 380.05624Q469.3058 379.91562 469.91516 379.69687Q469.91516 379.47812 469.91516 379.43124Q469.91516 378.775 469.6183 378.50937Q469.21204 378.16562 468.41516 378.16562Q467.6808 378.16562 467.3214 378.43124Q466.96204 378.68124 466.79016 379.3375L465.7589 379.19687Q465.89954 378.54062 466.22766 378.13437Q466.5558 377.72812 467.16516 377.50937Q467.77454 377.29062 468.5714 377.29062Q469.3683 377.29062 469.8683 377.47812Q470.3683 377.66562 470.60266 377.94687Q470.83704 378.22812 470.9308 378.66562Q470.97766 378.93124 470.97766 379.63437L470.97766 381.04062Q470.97766 382.50937 471.04016 382.9Q471.1183 383.29062 471.3214 383.65L470.21204 383.65Q470.0558 383.32187 470.0089 382.88437ZM469.91516 380.525Q469.33704 380.75937 468.1964 380.93124Q467.54016 381.025 467.27454 381.15Q467.0089 381.25937 466.85266 381.47812Q466.71204 381.69687 466.71204 381.97812Q466.71204 382.4 467.02454 382.68124Q467.35266 382.9625 467.96204 382.9625Q468.5714 382.9625 469.04016 382.69687Q469.52454 382.43124 469.7433 381.9625Q469.91516 381.60312 469.91516 380.91562L469.91516 380.525ZM474.66516 383.65L472.3058 377.43124L473.41516 377.43124L474.7589 381.15Q474.96204 381.75937 475.14954 382.4Q475.29016 381.91562 475.54016 381.22812L476.9308 377.43124L478.0089 377.43124L475.64954 383.65L474.66516 383.65ZM477.89954 386.04062L477.77454 385.05624Q478.1183 385.15 478.3839 385.15Q478.72766 385.15 478.9308 385.025Q479.14954 384.91562 479.29016 384.7125Q479.3839 384.54062 479.6183 383.91562Q479.6339 383.8375 479.71204 383.66562L477.33704 377.43124L478.47766 377.43124L479.77454 381.025Q480.02454 381.7125 480.22766 382.47812Q480.41516 381.74374 480.66516 381.05624L481.9933 377.43124L483.04016 377.43124L480.6808 383.75937Q480.29016 384.775 480.08704 385.16562Q479.8058 385.69687 479.4308 385.93124Q479.0714 386.18124 478.5714 386.18124Q478.27454 386.18124 477.89954 386.04062ZM487.96204 386.18124Q487.08704 385.07187 486.47766 383.60312Q485.8839 382.11874 485.8839 380.54062Q485.8839 379.15 486.3214 377.86874Q486.85266 376.38437 487.96204 374.91562L488.71204 374.91562Q488.0089 376.13437 487.77454 376.65Q487.41516 377.4625 487.21204 378.3375Q486.96204 379.43124 486.96204 380.54062Q486.96204 383.36874 488.71204 386.18124L487.96204 386.18124ZM493.02454 383.65L493.02454 381.5875L489.3058 381.5875L489.3058 380.61874L493.22766 375.05624L494.08704 375.05624L494.08704 380.61874L495.2433 380.61874L495.2433 381.5875L494.08704 381.5875L494.08704 383.65L493.02454 383.65ZM493.02454 380.61874L493.02454 376.75937L490.33704 380.61874L493.02454 380.61874ZM497.6339 386.18124L496.8839 386.18124Q498.6339 383.36874 498.6339 380.54062Q498.6339 379.44687 498.3839 378.35312Q498.1808 377.47812 497.8214 376.66562Q497.58704 376.15 496.8839 374.91562L497.6339 374.91562Q498.72766 376.38437 499.2589 377.86874Q499.71204 379.15 499.71204 380.54062Q499.71204 382.11874 499.10266 383.60312Q498.4933 385.07187 497.6339 386.18124Z" fill-rule="nonzero"/><path fill="#000000" d="M537.7678 383.65L537.7678 375.05624L538.8928 375.05624L538.8928 378.5875L543.3616 378.5875L543.3616 375.05624L544.5022 375.05624L544.5022 383.65L543.3616 383.65L543.3616 379.60312L538.8928 379.60312L538.8928 383.65L537.7678 383.65ZM550.84595 381.65L551.9397 381.775Q551.6897 382.72812 550.9866 383.25937Q550.28345 383.79062 549.2053 383.79062Q547.84595 383.79062 547.03345 382.94687Q546.2366 382.10312 546.2366 380.5875Q546.2366 379.025 547.0491 378.16562Q547.8616 377.29062 549.1428 377.29062Q550.3928 377.29062 551.1741 378.13437Q551.97095 378.97812 551.97095 380.525Q551.97095 380.61874 551.97095 380.80624L547.3303 380.80624Q547.3928 381.8375 547.90845 382.38437Q548.4241 382.91562 549.2053 382.91562Q549.78345 382.91562 550.1897 382.61874Q550.6116 382.30624 550.84595 381.65ZM547.3928 379.94687L550.8616 379.94687Q550.7991 379.15 550.47095 378.75937Q549.9553 378.15 549.15845 378.15Q548.4241 378.15 547.9241 378.63437Q547.4397 379.11874 547.3928 379.94687ZM557.65845 382.88437Q557.0647 383.38437 556.5178 383.5875Q555.9866 383.79062 555.3616 383.79062Q554.3303 383.79062 553.78345 383.29062Q553.2366 382.79062 553.2366 382.00937Q553.2366 381.55624 553.4397 381.18124Q553.6428 380.79062 553.9866 380.57187Q554.3303 380.3375 554.7522 380.22812Q555.0491 380.13437 555.6897 380.05624Q556.9553 379.91562 557.5647 379.69687Q557.5647 379.47812 557.5647 379.43124Q557.5647 378.775 557.2678 378.50937Q556.8616 378.16562 556.0647 378.16562Q555.3303 378.16562 554.97095 378.43124Q554.6116 378.68124 554.4397 379.3375L553.40845 379.19687Q553.5491 378.54062 553.8772 378.13437Q554.2053 377.72812 554.8147 377.50937Q555.4241 377.29062 556.22095 377.29062Q557.0178 377.29062 557.5178 377.47812Q558.0178 377.66562 558.2522 377.94687Q558.4866 378.22812 558.5803 378.66562Q558.6272 378.93124 558.6272 379.63437L558.6272 381.04062Q558.6272 382.50937 558.6897 382.9Q558.7678 383.29062 558.97095 383.65L557.8616 383.65Q557.7053 383.32187 557.65845 382.88437ZM557.5647 380.525Q556.9866 380.75937 555.84595 380.93124Q555.1897 381.025 554.9241 381.15Q554.65845 381.25937 554.5022 381.47812Q554.3616 381.69687 554.3616 381.97812Q554.3616 382.4 554.6741 382.68124Q555.0022 382.9625 555.6116 382.9625Q556.22095 382.9625 556.6897 382.69687Q557.1741 382.43124 557.3928 381.9625Q557.5647 381.60312 557.5647 380.91562L557.5647 380.525ZM562.3147 383.65L559.9553 377.43124L561.0647 377.43124L562.40845 381.15Q562.6116 381.75937 562.7991 382.4Q562.9397 381.91562 563.1897 381.22812L564.5803 377.43124L565.65845 377.43124L563.2991 383.65L562.3147 383.65ZM565.5491 386.04062L565.4241 385.05624Q565.7678 385.15 566.03345 385.15Q566.3772 385.15 566.5803 385.025Q566.7991 384.91562 566.9397 384.7125Q567.03345 384.54062 567.2678 383.91562Q567.28345 383.8375 567.3616 383.66562L564.9866 377.43124L566.1272 377.43124L567.4241 381.025Q567.6741 381.7125 567.8772 382.47812Q568.0647 381.74374 568.3147 381.05624L569.6428 377.43124L570.6897 377.43124L568.3303 383.75937Q567.9397 384.775 567.7366 385.16562Q567.4553 385.69687 567.0803 385.93124Q566.72095 386.18124 566.22095 386.18124Q565.9241 386.18124 565.5491 386.04062ZM575.6116 386.18124Q574.7366 385.07187 574.1272 383.60312Q573.53345 382.11874 573.53345 380.54062Q573.53345 379.15 573.97095 377.86874Q574.5022 376.38437 575.6116 374.91562L576.3616 374.91562Q575.65845 376.13437 575.4241 376.65Q575.0647 377.4625 574.8616 378.3375Q574.6116 379.43124 574.6116 380.54062Q574.6116 383.36874 576.3616 386.18124L575.6116 386.18124ZM577.2991 381.4L578.40845 381.30624Q578.53345 382.11874 578.97095 382.525Q579.4241 382.93124 580.0647 382.93124Q580.8147 382.93124 581.34595 382.35312Q581.8772 381.775 581.8772 380.8375Q581.8772 379.93124 581.3616 379.41562Q580.8616 378.88437 580.03345 378.88437Q579.53345 378.88437 579.1116 379.11874Q578.7053 379.35312 578.47095 379.7125L577.4866 379.5875L578.3147 375.18124L582.59595 375.18124L582.59595 376.18124L579.15845 376.18124L578.7053 378.49374Q579.47095 377.94687 580.3147 377.94687Q581.4397 377.94687 582.2053 378.72812Q582.9866 379.50937 582.9866 380.74374Q582.9866 381.9 582.3147 382.75937Q581.4866 383.79062 580.0647 383.79062Q578.8928 383.79062 578.1428 383.13437Q577.40845 382.47812 577.2991 381.4ZM585.28345 386.18124L584.53345 386.18124Q586.28345 383.36874 586.28345 380.54062Q586.28345 379.44687 586.03345 378.35312Q585.8303 377.47812 585.47095 376.66562Q585.2366 376.15 584.53345 374.91562L585.28345 374.91562Q586.3772 376.38437 586.90845 377.86874Q587.3616 379.15 587.3616 380.54062Q587.3616 382.11874 586.7522 383.60312Q586.1428 385.07187 585.28345 386.18124Z" fill-rule="nonzero"/><path fill="#000000" d="M33.172874 35.43141L35.0635 35.90016Q34.46975 38.24391 32.922874 39.478287Q31.376 40.697037 29.126 40.697037Q26.8135 40.697037 25.360374 39.759537Q23.922874 38.80641 23.15725 37.02516Q22.40725 35.228287 22.40725 33.18141Q22.40725 30.947037 23.251 29.290787Q24.110374 27.618912 25.6885 26.759537Q27.266624 25.884537 29.15725 25.884537Q31.3135 25.884537 32.766624 26.978287Q34.235374 28.072037 34.8135 30.056412L32.954124 30.493912Q32.454124 28.931412 31.501 28.228287Q30.5635 27.509537 29.126 27.509537Q27.46975 27.509537 26.360374 28.306412Q25.251 29.087662 24.797874 30.431412Q24.360374 31.759537 24.360374 33.165787Q24.360374 34.99391 24.891624 36.36891Q25.422874 37.728287 26.547874 38.40016Q27.672874 39.072037 28.96975 39.072037Q30.5635 39.072037 31.672874 38.15016Q32.78225 37.228287 33.172874 35.43141ZM36.079124 35.259537Q36.079124 32.384537 37.672874 30.993912Q39.016624 29.837662 40.9385 29.837662Q43.079124 29.837662 44.422874 31.243912Q45.78225 32.65016 45.78225 35.11891Q45.78225 37.11891 45.1885 38.27516Q44.59475 39.415787 43.4385 40.05641Q42.297874 40.68141 40.9385 40.68141Q38.751 40.68141 37.40725 39.290787Q36.079124 37.884537 36.079124 35.259537ZM37.876 35.259537Q37.876 37.259537 38.735374 38.24391Q39.610374 39.228287 40.9385 39.228287Q42.251 39.228287 43.110374 38.24391Q43.985374 37.24391 43.985374 35.197037Q43.985374 33.27516 43.110374 32.290787Q42.235374 31.290787 40.9385 31.290787Q39.610374 31.290787 38.735374 32.290787Q37.876 33.27516 37.876 35.259537ZM47.71975 40.447037L47.71975 30.072037L49.297874 30.072037L49.297874 31.525162Q49.78225 30.775162 50.59475 30.306412Q51.40725 29.837662 52.4385 29.837662Q53.59475 29.837662 54.329124 30.322037Q55.0635 30.790787 55.376 31.650162Q56.610374 29.837662 58.579124 29.837662Q60.126 29.837662 60.954124 30.697037Q61.78225 31.556412 61.78225 33.322037L61.78225 40.447037L60.03225 40.447037L60.03225 33.915787Q60.03225 32.853287 59.860374 32.40016Q59.6885 31.931412 59.235374 31.650162Q58.797874 31.368912 58.1885 31.368912Q57.09475 31.368912 56.360374 32.103287Q55.641624 32.822037 55.641624 34.415787L55.641624 40.447037L53.891624 40.447037L53.891624 33.71266Q53.891624 32.540787 53.454124 31.962662Q53.03225 31.368912 52.047874 31.368912Q51.3135 31.368912 50.672874 31.759537Q50.047874 32.15016 49.766624 32.90016Q49.485374 33.65016 49.485374 35.072037L49.485374 40.447037L47.71975 40.447037ZM63.71975 44.415787L63.71975 30.072037L65.329124 30.072037L65.329124 31.415787Q65.891624 30.634537 66.59475 30.243912Q67.3135 29.837662 68.329124 29.837662Q69.65725 29.837662 70.672874 30.525162Q71.6885 31.212662 72.204124 32.46266Q72.735374 33.697037 72.735374 35.18141Q72.735374 36.77516 72.15725 38.05641Q71.59475 39.322037 70.501 40.009537Q69.40725 40.68141 68.204124 40.68141Q67.329124 40.68141 66.626 40.30641Q65.9385 39.93141 65.485374 39.36891L65.485374 44.415787L63.71975 44.415787ZM65.3135 35.322037Q65.3135 37.322037 66.126 38.27516Q66.9385 39.228287 68.09475 39.228287Q69.266624 39.228287 70.09475 38.24391Q70.9385 37.259537 70.9385 35.165787Q70.9385 33.197037 70.110374 32.21266Q69.297874 31.212662 68.172874 31.212662Q67.047874 31.212662 66.172874 32.27516Q65.3135 33.322037 65.3135 35.322037ZM74.6885 40.447037L74.6885 26.134537L76.4385 26.134537L76.4385 40.447037L74.6885 40.447037ZM85.829124 37.103287L87.641624 37.33766Q87.21975 38.915787 86.047874 39.80641Q84.891624 40.68141 83.079124 40.68141Q80.8135 40.68141 79.46975 39.290787Q78.141624 37.884537 78.141624 35.353287Q78.141624 32.728287 79.485374 31.290787Q80.829124 29.837662 82.985374 29.837662Q85.0635 29.837662 86.376 31.259537Q87.704124 32.665787 87.704124 35.24391Q87.704124 35.40016 87.6885 35.71266L79.954124 35.71266Q80.047874 37.415787 80.922874 38.322037Q81.797874 39.228287 83.09475 39.228287Q84.0635 39.228287 84.735374 38.728287Q85.422874 38.21266 85.829124 37.103287ZM80.047874 34.259537L85.84475 34.259537Q85.735374 32.96266 85.1885 32.30641Q84.34475 31.290787 83.001 31.290787Q81.797874 31.290787 80.96975 32.103287Q80.141624 32.90016 80.047874 34.259537ZM89.71975 28.165787L89.71975 26.134537L91.46975 26.134537L91.46975 28.165787L89.71975 28.165787ZM87.485374 44.478287L87.8135 42.978287Q88.34475 43.11891 88.65725 43.11891Q89.1885 43.11891 89.454124 42.759537Q89.71975 42.40016 89.71975 40.978287L89.71975 30.072037L91.46975 30.072037L91.46975 41.009537Q91.46975 42.93141 90.96975 43.68141Q90.34475 44.65016 88.860374 44.65016Q88.15725 44.65016 87.485374 44.478287ZM93.735374 28.150162L93.735374 26.134537L95.501 26.134537L95.501 28.150162L93.735374 28.150162ZM93.735374 40.447037L93.735374 30.072037L95.501 30.072037L95.501 40.447037L93.735374 40.447037ZM104.454124 40.447037L104.454124 39.134537Q103.46975 40.68141 101.547874 40.68141Q100.3135 40.68141 99.266624 39.99391Q98.235374 39.30641 97.65725 38.08766Q97.09475 36.86891 97.09475 35.27516Q97.09475 33.71266 97.610374 32.447037Q98.126 31.181412 99.15725 30.509537Q100.204124 29.837662 101.46975 29.837662Q102.40725 29.837662 103.141624 30.243912Q103.876 30.634537 104.34475 31.259537L104.34475 26.134537L106.079124 26.134537L106.079124 40.447037L104.454124 40.447037ZM98.891624 35.27516Q98.891624 37.259537 99.735374 38.24391Q100.579124 39.228287 101.71975 39.228287Q102.876 39.228287 103.672874 38.290787Q104.485374 37.353287 104.485374 35.415787Q104.485374 33.290787 103.65725 32.290787Q102.84475 31.290787 101.641624 31.290787Q100.46975 31.290787 99.672874 32.259537Q98.891624 33.21266 98.891624 35.27516ZM115.501 39.165787Q114.516624 39.99391 113.610374 40.33766Q112.704124 40.68141 111.672874 40.68141Q109.96975 40.68141 109.047874 39.853287Q108.126 39.009537 108.126 37.71266Q108.126 36.947037 108.46975 36.322037Q108.829124 35.697037 109.391624 35.322037Q109.954124 34.93141 110.65725 34.728287Q111.172874 34.603287 112.21975 34.46266Q114.34475 34.21266 115.34475 33.86891Q115.360374 33.509537 115.360374 33.40016Q115.360374 32.33766 114.860374 31.884537Q114.1885 31.290787 112.860374 31.290787Q111.610374 31.290787 111.016624 31.728287Q110.4385 32.165787 110.15725 33.27516L108.4385 33.040787Q108.672874 31.931412 109.204124 31.259537Q109.735374 30.572037 110.751 30.212662Q111.766624 29.837662 113.110374 29.837662Q114.4385 29.837662 115.266624 30.150162Q116.09475 30.462662 116.485374 30.947037Q116.876 31.415787 117.03225 32.134537Q117.126 32.58766 117.126 33.759537L117.126 36.103287Q117.126 38.55641 117.235374 39.21266Q117.34475 39.853287 117.6885 40.447037L115.84475 40.447037Q115.579124 39.90016 115.501 39.165787ZM115.34475 35.24391Q114.391624 35.634537 112.46975 35.90016Q111.391624 36.05641 110.9385 36.259537Q110.501 36.447037 110.251 36.822037Q110.001 37.197037 110.001 37.665787Q110.001 38.36891 110.53225 38.83766Q111.0635 39.30641 112.09475 39.30641Q113.110374 39.30641 113.891624 38.86891Q114.6885 38.415787 115.0635 37.65016Q115.34475 37.040787 115.34475 35.884537L115.34475 35.24391ZM126.454124 40.447037L126.454124 39.134537Q125.46975 40.68141 123.547874 40.68141Q122.3135 40.68141 121.266624 39.99391Q120.235374 39.30641 119.65725 38.08766Q119.09475 36.86891 119.09475 35.27516Q119.09475 33.71266 119.610374 32.447037Q120.126 31.181412 121.15725 30.509537Q122.204124 29.837662 123.46975 29.837662Q124.40725 29.837662 125.141624 30.243912Q125.876 30.634537 126.34475 31.259537L126.34475 26.134537L128.07913 26.134537L128.07913 40.447037L126.454124 40.447037ZM120.891624 35.27516Q120.891624 37.259537 121.735374 38.24391Q122.579124 39.228287 123.71975 39.228287Q124.876 39.228287 125.672874 38.290787Q126.485374 37.353287 126.485374 35.415787Q126.485374 33.290787 125.65725 32.290787Q124.84475 31.290787 123.641624 31.290787Q122.46975 31.290787 121.672874 32.259537Q120.891624 33.21266 120.891624 35.27516Z" fill-rule="nonzero"/></svg>